<svg xmlns="http://www.w3.org/2000/svg" viewBox="0 0 36.9 36.9"><defs><style>.cls-1{fill:#fff;}</style></defs><g id="Calque_2" data-name="Calque 2"><g id="Calque_1-2" data-name="Calque 1"><path class="cls-1" d="M21.6,18.6c0,4.4-6.6,4.4-6.6,0s6.6-4.4,6.6,0"/><path class="cls-1" d="M23.62,14.47a1.2,1.2,0,1,1,1.2-1.2A1.18,1.18,0,0,1,23.62,14.47ZM18.3,23.7a5.1,5.1,0,0,1,0-10.2,5.1,5.1,0,1,1,0,10.2Zm4.12-13.2H14.17a4.06,4.06,0,0,0-2.92,1.05,4.1,4.1,0,0,0-1.05,2.93v8.25a4.13,4.13,0,0,0,1.12,3,4.26,4.26,0,0,0,2.93,1.05h8.17a4.14,4.14,0,0,0,2.93-1.05,3.86,3.86,0,0,0,1.12-2.93V14.55a4.22,4.22,0,0,0-1-2.93A4,4,0,0,0,22.42,10.5Z"/><path class="cls-1" d="M28.27,22.8a5.94,5.94,0,0,1-1.64,4.27,5.87,5.87,0,0,1-4.2,1.58H14.25a5.84,5.84,0,0,1-4.2-1.58A5.63,5.63,0,0,1,8.4,22.8V14.55A5.55,5.55,0,0,1,14.25,8.7H22.5a5.76,5.76,0,0,1,4.2,1.65,5.7,5.7,0,0,1,1.57,4.2ZM18.45,0A18.45,18.45,0,1,0,36.9,18.45,18.44,18.44,0,0,0,18.45,0Z"/></g></g></svg>