<svg xmlns="http://www.w3.org/2000/svg" xmlns:xlink="http://www.w3.org/1999/xlink" viewBox="0 0 315.86 133.82"><defs><style>.cls-1,.cls-2,.cls-3{stroke:#000;stroke-width:0.5px;}.cls-1,.cls-2,.cls-3,.cls-6{stroke-miterlimit:10;}.cls-1{fill:url(#Dégradé_sans_nom_95);}.cls-2{fill:#fcf2e0;}.cls-3{fill:none;}.cls-4,.cls-6{fill:#fff;}.cls-5{fill:#442b33;}.cls-6{stroke:#442b33;}</style><linearGradient id="Dégradé_sans_nom_95" x1="171.14" y1="41.06" x2="265.62" y2="41.06" gradientUnits="userSpaceOnUse"><stop offset="0.07" stop-color="#442b33"/><stop offset="0.17" stop-color="#7e6269"/><stop offset="0.42" stop-color="#f5d3d9"/><stop offset="0.54" stop-color="#fff"/><stop offset="0.68" stop-color="#f5d3d9"/><stop offset="0.9" stop-color="#9d7f86"/><stop offset="0.94" stop-color="#442b33"/></linearGradient></defs><g id="Calque_2" data-name="Calque 2"><g id="texte"><path class="cls-1" d="M263.54,26.18l-1,1.23L225,71.66s3.68-6.54-.41-10.11-34.35-9.71-53.46,2c14.21-18.3,37.61-42.32,40.68-45.07,6.13-3.17,27.4-10.12,42.47-7.47s11.09,12.06,10.17,13.6" transform="translate(-2.2 -10.21)"/><path class="cls-2" d="M263.33,27.92l53.56,5.31L279.82,85.85,222.25,73.4v2.66l58.66,13.49,36.63-52.29s.73-.82-.24-3.67" transform="translate(-2.2 -10.21)"/><polyline class="cls-3" points="314.79 26.73 278.46 78.4 221.04 65.29"/><polyline class="cls-3" points="313.87 26.24 277.85 77.17 221.26 64.25"/><path class="cls-3" d="M170.63,64.66l-.72,1.43s9.46-5.11,16.66-6.33,19.17-1.64,24.59-.67,9.66,1.74,12.08,3.84.44,7.92.44,7.92" transform="translate(-2.2 -10.21)"/><path class="cls-3" d="M169.7,66.84l-.6,1.41s10.28-4.8,13.87-5.55a108,108,0,0,1,25.75-2.27c9,.41,12.25,2.57,13.39,3.69,2.34,2.29-.44,6-.44,6" transform="translate(-2.2 -10.21)"/><polyline class="cls-4" points="260.37 17.71 313.87 23.46 277.42 75.36 221.72 63.28 260.37 17.71"/><g id="sous-titre"><path class="cls-5" d="M147,142a26.19,26.19,0,0,1,.46-3.2h0a9.8,9.8,0,0,1-1.91,2.54,3.15,3.15,0,0,1-2.16.86,2.43,2.43,0,0,1-2-1,4.19,4.19,0,0,1-.68-2.64,7.75,7.75,0,0,1,.83-3.53,6.08,6.08,0,0,1,2.21-2.46,5.55,5.55,0,0,1,3.07-.86,15.4,15.4,0,0,1,3.05.4l-1.38,6.28c-.1.5-.21,1.11-.31,1.85a14.48,14.48,0,0,0-.17,1.73Zm1.73-9.18a9.68,9.68,0,0,0-2.07-.25,4.58,4.58,0,0,0-2.57.73,5.14,5.14,0,0,0-1.83,2.12,7,7,0,0,0-.69,3.1c0,1.89.63,2.84,2,2.86a2.64,2.64,0,0,0,1.71-.76,7.93,7.93,0,0,0,1.72-2.12,9.78,9.78,0,0,0,1.14-2.81Z" transform="translate(-2.2 -10.21)"/><path class="cls-5" d="M154.48,142.32a3.2,3.2,0,0,1-2.53-1.09,4.26,4.26,0,0,1-.9-2.91,7.75,7.75,0,0,1,.74-3.33,5.75,5.75,0,0,1,2-2.32,4.7,4.7,0,0,1,2.7-.81,4.62,4.62,0,0,1,1.22.16,3.9,3.9,0,0,1,1.1.55l-.24,1a3,3,0,0,0-2.18-.88,3.59,3.59,0,0,0-2.2.71,5,5,0,0,0-1.6,2,7.12,7.12,0,0,0-.6,2.87,3.51,3.51,0,0,0,.68,2.34,2.43,2.43,0,0,0,2,.87,2.87,2.87,0,0,0,1.23-.24,6.81,6.81,0,0,0,1.32-.77l-.26,1.12a6.48,6.48,0,0,1-1.28.56A3.47,3.47,0,0,1,154.48,142.32Z" transform="translate(-2.2 -10.21)"/><path class="cls-5" d="M161.28,133l-1.83,0,.2-.82,1.8,0,.58-2.59,1-.29-.66,2.89,2.69,0-.21.82-2.64,0-1.41,6.26a9,9,0,0,0-.21,1.34,1.11,1.11,0,0,0,.19.71.81.81,0,0,0,.66.24,4.77,4.77,0,0,0,1.59-.48l-.2.85a3.86,3.86,0,0,1-.85.32,3.33,3.33,0,0,1-.74.12q-1.59,0-1.56-1.71a6,6,0,0,1,.21-1.44Z" transform="translate(-2.2 -10.21)"/><path class="cls-5" d="M167,132.23h.9L166.7,138a10.82,10.82,0,0,0-.28,1.65c0,1.35.54,2,1.69,2a3.1,3.1,0,0,0,1.82-.71,7.6,7.6,0,0,0,1.78-1.87,6,6,0,0,0,1-2.13l1-4.64h.91l-1.63,7.2a23.91,23.91,0,0,0-.47,2.77h-.9l.51-2.83h0c-1.29,2-2.7,3.05-4.21,3-1.66,0-2.47-.94-2.45-2.77a4.58,4.58,0,0,1,.07-.66C165.6,138.73,166.09,136.46,167,132.23Z" transform="translate(-2.2 -10.21)"/><path class="cls-5" d="M182.32,142.41a26.19,26.19,0,0,1,.46-3.2h0a9.8,9.8,0,0,1-1.91,2.54,3.15,3.15,0,0,1-2.16.86,2.43,2.43,0,0,1-2-1A4.19,4.19,0,0,1,176,139a7.75,7.75,0,0,1,.83-3.53A6.08,6.08,0,0,1,179,133a5.55,5.55,0,0,1,3.07-.86,15.4,15.4,0,0,1,3.05.4l-1.38,6.28c-.1.5-.21,1.11-.31,1.85a12.64,12.64,0,0,0-.17,1.73Zm1.73-9.18A9.76,9.76,0,0,0,182,133a4.55,4.55,0,0,0-2.57.73,5.07,5.07,0,0,0-1.83,2.12,7.18,7.18,0,0,0-.7,3.1c0,1.89.64,2.84,2,2.86a2.64,2.64,0,0,0,1.71-.76,7.93,7.93,0,0,0,1.72-2.12,9.78,9.78,0,0,0,1.14-2.81Z" transform="translate(-2.2 -10.21)"/><path class="cls-5" d="M189.33,127.69h.91l-2.66,11.87a9.91,9.91,0,0,0-.25,1.7c0,.39.19.58.59.59a2.28,2.28,0,0,0,.84-.16l-.18.75a2.24,2.24,0,0,1-1,.22c-.83,0-1.23-.46-1.22-1.35a6.24,6.24,0,0,1,.14-1.13Q186.68,139.5,189.33,127.69Z" transform="translate(-2.2 -10.21)"/><path class="cls-5" d="M192.44,132.53h.91l-1.59,7.08a9,9,0,0,0-.25,1.7c0,.39.19.58.59.59a2.28,2.28,0,0,0,.84-.16l-.18.75a2.24,2.24,0,0,1-1,.22c-.83,0-1.23-.46-1.22-1.35a4.68,4.68,0,0,1,.09-.91Q190.76,140,192.44,132.53Zm1.17-2.51a.7.7,0,0,1-.52-.22.75.75,0,0,1-.21-.55.65.65,0,0,1,.23-.51.72.72,0,0,1,.52-.2.79.79,0,0,1,.53.2.64.64,0,0,1,.22.53.7.7,0,0,1-.23.53A.73.73,0,0,1,193.61,130Z" transform="translate(-2.2 -10.21)"/><path class="cls-5" d="M196.82,133.4l-1.83,0,.19-.82,1.8,0,.59-2.59,1-.29-.66,2.89,2.68,0-.21.82-2.64,0-1.41,6.26a7.65,7.65,0,0,0-.2,1.34,1.11,1.11,0,0,0,.19.71.83.83,0,0,0,.66.25,5.16,5.16,0,0,0,1.59-.49l-.21.85a3.59,3.59,0,0,1-.84.32,2.47,2.47,0,0,1-.75.12q-1.58,0-1.56-1.71a7.14,7.14,0,0,1,.21-1.44Z" transform="translate(-2.2 -10.21)"/><path class="cls-5" d="M201.64,138.78a3.48,3.48,0,0,0,.76,2.42,2.82,2.82,0,0,0,2.2.9,5.87,5.87,0,0,0,2.76-.79l-.19.93a5.59,5.59,0,0,1-2.71.68,3.6,3.6,0,0,1-2.79-1.14,4.38,4.38,0,0,1-1-3.09,7,7,0,0,1,.76-3.18,6,6,0,0,1,2-2.26,4.55,4.55,0,0,1,2.61-.8,3.18,3.18,0,0,1,2.06.66,2.16,2.16,0,0,1,.77,1.77,2.65,2.65,0,0,1-1.73,2.5,14.21,14.21,0,0,1-5.49.8Zm.17-1.42a13.88,13.88,0,0,0,4.62-.52A2,2,0,0,0,208,135q0-1.68-2-1.71a3.52,3.52,0,0,0-2.59,1.13A5.77,5.77,0,0,0,201.81,137.36Zm6.68-9.45,1.09,0-3,3.16h-1Z" transform="translate(-2.2 -10.21)"/><path class="cls-5" d="M209.67,141.34a4.42,4.42,0,0,0,1.14.61,4,4,0,0,0,1.25.24,3,3,0,0,0,1.79-.46,1.88,1.88,0,0,0,.3-2.49,5.52,5.52,0,0,0-1.3-1.05,5.89,5.89,0,0,1-1.57-1.32,2.33,2.33,0,0,1-.44-1.45,2.7,2.7,0,0,1,.95-2.07,3.36,3.36,0,0,1,2.35-.81,7.26,7.26,0,0,1,1.2.15,4.5,4.5,0,0,1,1.13.39l-.21.93a4,4,0,0,0-2.22-.65,2.37,2.37,0,0,0-1.6.52,1.83,1.83,0,0,0-.66,1.44,1.77,1.77,0,0,0,.34,1.13,4.71,4.71,0,0,0,1.28,1,5.62,5.62,0,0,1,1.57,1.31,2.31,2.31,0,0,1,.46,1.43,2.56,2.56,0,0,1-1,2.05A3.78,3.78,0,0,1,212,143a4.78,4.78,0,0,1-2.54-.72Z" transform="translate(-2.2 -10.21)"/><path class="cls-5" d="M226.73,143.18a3.23,3.23,0,0,1-2.53-1.09,4.26,4.26,0,0,1-.9-2.91,7.9,7.9,0,0,1,.74-3.33,5.75,5.75,0,0,1,2-2.32,4.64,4.64,0,0,1,2.7-.82,5,5,0,0,1,1.22.17,4.09,4.09,0,0,1,1.11.55l-.25,1a3,3,0,0,0-2.18-.89,3.62,3.62,0,0,0-2.2.72,4.89,4.89,0,0,0-1.6,2,7.08,7.08,0,0,0-.6,2.87,3.57,3.57,0,0,0,.68,2.34,2.44,2.44,0,0,0,2,.87,2.87,2.87,0,0,0,1.23-.24,6.81,6.81,0,0,0,1.32-.77l-.26,1.12a6.48,6.48,0,0,1-1.28.56A3.47,3.47,0,0,1,226.73,143.18Z" transform="translate(-2.2 -10.21)"/><path class="cls-5" d="M233.36,133h.89L233,138.75a12.41,12.41,0,0,0-.28,1.66c0,1.35.55,2,1.69,2a3.12,3.12,0,0,0,1.83-.71,7.6,7.6,0,0,0,1.78-1.87,6.1,6.1,0,0,0,1-2.13l1-4.65H241l-1.63,7.2a24.39,24.39,0,0,0-.47,2.78H238l.51-2.84h0c-1.3,2.05-2.7,3.06-4.22,3s-2.47-1-2.45-2.77c0-.13,0-.35.07-.67S232.41,137.25,233.36,133Z" transform="translate(-2.2 -10.21)"/><path class="cls-5" d="M245.19,128.35h.91l-2.66,11.87a10.2,10.2,0,0,0-.26,1.7.53.53,0,0,0,.6.59,2.18,2.18,0,0,0,.83-.15l-.17.75a2.38,2.38,0,0,1-1,.21c-.83,0-1.24-.46-1.23-1.34a7.3,7.3,0,0,1,.14-1.13Q242.52,140.17,245.19,128.35Z" transform="translate(-2.2 -10.21)"/><path class="cls-5" d="M248.49,134l-1.82,0,.19-.82,1.8,0,.58-2.6,1-.29-.65,2.9,2.68,0-.21.82-2.64,0L248,140.29a7.57,7.57,0,0,0-.2,1.33,1,1,0,0,0,.18.71.81.81,0,0,0,.66.25,5.16,5.16,0,0,0,1.59-.49l-.2.86a4.43,4.43,0,0,1-.85.32,3.33,3.33,0,0,1-.74.12c-1.06,0-1.58-.59-1.56-1.72a5.81,5.81,0,0,1,.21-1.43Z" transform="translate(-2.2 -10.21)"/><path class="cls-5" d="M254.25,133.26h.9L253.91,139a10.87,10.87,0,0,0-.28,1.66c0,1.35.55,2,1.69,2a3.08,3.08,0,0,0,1.82-.71,7.42,7.42,0,0,0,1.78-1.87,6.12,6.12,0,0,0,1-2.13l1.05-4.65h.91l-1.63,7.2a24.39,24.39,0,0,0-.47,2.78h-.9l.51-2.84h0c-1.29,2-2.7,3.06-4.21,3-1.66,0-2.47-1-2.45-2.78a4.58,4.58,0,0,1,.07-.66C252.81,139.77,253.3,137.5,254.25,133.26Z" transform="translate(-2.2 -10.21)"/><path class="cls-5" d="M265,133.39h.9l-.39,2.36h0a6.24,6.24,0,0,1,1.44-1.95,2.6,2.6,0,0,1,1.76-.62,2.31,2.31,0,0,1,1.06.26l-.18.91h0a1.82,1.82,0,0,0-1-.35,2.86,2.86,0,0,0-2.17,1.38,9,9,0,0,0-1.57,3.57l-1,4.42h-.91l1.47-6.48A25.92,25.92,0,0,0,265,133.39Z" transform="translate(-2.2 -10.21)"/><path class="cls-5" d="M270.62,139.6a3.48,3.48,0,0,0,.76,2.42,2.88,2.88,0,0,0,2.2.9,5.87,5.87,0,0,0,2.76-.79l-.19.93a5.47,5.47,0,0,1-2.71.67,3.56,3.56,0,0,1-2.79-1.13,4.38,4.38,0,0,1-1-3.09,7,7,0,0,1,.76-3.18,6,6,0,0,1,2-2.26,4.47,4.47,0,0,1,2.61-.8,3.18,3.18,0,0,1,2.06.66,2.16,2.16,0,0,1,.77,1.77,2.65,2.65,0,0,1-1.73,2.5,14.21,14.21,0,0,1-5.49.8Zm.17-1.42a13.57,13.57,0,0,0,4.62-.53,2,2,0,0,0,1.52-1.86q0-1.68-2-1.71a3.52,3.52,0,0,0-2.59,1.13A5.77,5.77,0,0,0,270.79,138.18Z" transform="translate(-2.2 -10.21)"/><path class="cls-5" d="M281.94,128.79h.91l-2.66,11.87a9.91,9.91,0,0,0-.25,1.7c0,.39.19.59.6.59a2.22,2.22,0,0,0,.83-.16l-.18.75a2.24,2.24,0,0,1-1,.22c-.82,0-1.23-.46-1.22-1.35a6.24,6.24,0,0,1,.14-1.13Q279.29,140.6,281.94,128.79Z" transform="translate(-2.2 -10.21)"/><path class="cls-5" d="M286.12,128.84H287l-2.66,11.87a9.91,9.91,0,0,0-.25,1.7c0,.39.19.58.59.59a2.28,2.28,0,0,0,.84-.16l-.18.75a2.24,2.24,0,0,1-1,.22c-.83,0-1.23-.46-1.22-1.35a6.24,6.24,0,0,1,.14-1.13Q283.47,140.65,286.12,128.84Z" transform="translate(-2.2 -10.21)"/><path class="cls-5" d="M288.32,139.81a3.48,3.48,0,0,0,.76,2.42,2.8,2.8,0,0,0,2.2.9,5.83,5.83,0,0,0,2.75-.79l-.19.93a5.56,5.56,0,0,1-2.71.68,3.62,3.62,0,0,1-2.79-1.14,4.47,4.47,0,0,1-1-3.09,6.91,6.91,0,0,1,.77-3.18,5.82,5.82,0,0,1,2-2.26,4.43,4.43,0,0,1,2.61-.8,3.15,3.15,0,0,1,2.06.67,2.12,2.12,0,0,1,.76,1.76,2.64,2.64,0,0,1-1.72,2.5,14.3,14.3,0,0,1-5.5.8Zm.16-1.42a14,14,0,0,0,4.63-.52,2,2,0,0,0,1.51-1.87q0-1.68-2-1.71a3.48,3.48,0,0,0-2.58,1.13A5.78,5.78,0,0,0,288.48,138.39Z" transform="translate(-2.2 -10.21)"/><path class="cls-5" d="M296.34,142.37a4.42,4.42,0,0,0,1.14.61,4.12,4.12,0,0,0,1.26.24,3,3,0,0,0,1.78-.46,1.7,1.7,0,0,0,.64-1.42,1.63,1.63,0,0,0-.34-1.07,5.64,5.64,0,0,0-1.29-1.05A6,6,0,0,1,298,137.9a2.33,2.33,0,0,1-.43-1.45,2.67,2.67,0,0,1,1-2.07,3.34,3.34,0,0,1,2.34-.81,7.26,7.26,0,0,1,1.2.15,4.36,4.36,0,0,1,1.13.39l-.2.93a4,4,0,0,0-2.22-.65,2.4,2.4,0,0,0-1.61.52,1.79,1.79,0,0,0-.65,1.44,1.71,1.71,0,0,0,.33,1.13,5.05,5.05,0,0,0,1.28,1,5.48,5.48,0,0,1,1.57,1.31,2.19,2.19,0,0,1,.46,1.43,2.56,2.56,0,0,1-1,2.05,3.72,3.72,0,0,1-2.48.73,4.65,4.65,0,0,1-2.53-.71Z" transform="translate(-2.2 -10.21)"/></g><path class="cls-6" d="M26.69,19.42V77.07H20.85V19.42H2.7V14.06H44.88v5.36Z" transform="translate(-2.2 -10.21)"/><path class="cls-6" d="M61.1,77.07H55.26v-63H61.1Z" transform="translate(-2.2 -10.21)"/><path class="cls-6" d="M133.26,77.07V33.57c0-2.23.17-5.82.53-10.77h-.18c-.41,1.32-.78,2.46-1.12,3.43a22.23,22.23,0,0,1-1,2.37l-22,48.47h-2.5l-22-48.16a42.08,42.08,0,0,1-2-6.2H82.9c.11,1.35.2,2.89.24,4.62s.07,3.65.07,5.76v44H77.49v-63h6.9l21.4,47.37c.44,1,.87,2,1.3,3.05s.81,2.15,1.16,3.32h.27l1.12-3.21c.33-1,.75-2,1.25-3.12l21.58-47.41H139v63Z" transform="translate(-2.2 -10.21)"/><path class="cls-5" d="M112,83.14a.39.39,0,0,1-.35-.37c0-.27.64-.8.91-1.07,2-2,10.94-11.57,14.54-11.52,2.34,0,4.83,2.75,4.8,4.73,0,4.68-6.94,8.74-10.14,12.84a9.57,9.57,0,0,1,8.7,9.83c0,.54-.2,2.15-.2,2.15,3.87,0,4.94.6,4.94,1s-.28.81-.55.81a8.53,8.53,0,0,0-4.49-1c-2.29,10.6-13.06,23.16-22.87,23a5,5,0,0,1-4.89-5.1c.07-5.84,11.79-15,22.18-18.18a29.28,29.28,0,0,0,.89-6.47c0-2.7-1.11-5.06-4-5.09-2,0-3.17,1.58-3.71,1.58a3.63,3.63,0,0,1-2.13-2.64c0-2.34,11.72-9.31,11.79-14.89,0-.63-.26-1-.8-1-3.24,0-11.53,8.41-14.08,11A1.39,1.39,0,0,1,112,83.14ZM106.25,122c8.28.1,15.43-11,18.07-20.94-9,3.23-19.94,12.19-20,18.4C104.29,120.85,104.9,122,106.25,122Z" transform="translate(-2.2 -10.21)"/><path class="cls-5" d="M146.79,73.38c0,1.62-10.41,13.11-10.46,17a1.35,1.35,0,0,0,1.42,1.54c5.13.06,15.69-9.71,15.69-9.71s.36-.36.63-.35.36.27.36.36-.73.8-1,1.07c0,0-11.1,10.4-16.95,10.33-1.44,0-4.29-2.12-4.26-5,0-4,8-13.86,9.75-18.07.28-.53.65-.89,1.1-.88A4.3,4.3,0,0,1,146.79,73.38Zm9.1-15.55A5.44,5.44,0,0,1,154,60.69a26.28,26.28,0,0,1-2.53.86c-1.71.52-2.27,1.51-2.63,1.5a.51.51,0,0,1-.53-.54c0-2.16,3.5-6.62,3.52-8.78a.34.34,0,0,1,.37-.36C153.6,53.39,155.9,56.57,155.89,57.83Z" transform="translate(-2.2 -10.21)"/><path class="cls-5" d="M163,74.92c0,1.62-2.49,5-4.51,8.41,3.36-2.57,13.07-8.85,16.49-8.81,1.44,0,2.49,2.64,2.47,3.81,0,1-6.93,7.66-7,12.43A1.11,1.11,0,0,0,171.68,92c5.49.06,15.23-9.36,15.23-9.36s.37-.36.55-.36a.5.5,0,0,1,.44.37c0,.18-1,1.07-1,1.07S176.43,93.8,171.66,93.75c-2.25,0-5.1-2.85-5.06-5.82.05-4,4.34-9.58,4.35-10.21,0-.09-.09-.18-.27-.19-1,0-8,3.33-13,7.86-5.82,5.24-6.6,9.64-7.41,9.63s-2.4-2.28-2.38-4.17,9.33-12.66,10.68-19.58c0-.72.46-.8.91-.8C160.42,70.48,163,72.58,163,74.92Z" transform="translate(-2.2 -10.21)"/><path class="cls-5" d="M199.08,88.49c.46-.44.73-.71.91-.71a.4.4,0,0,1,.36.37c0,.27-.28.71-.92,1.34-1.82,1.77-3.92,4-7.6,4s-7-3-6.93-7.65c.09-8.1,8.29-16.46,12.25-16.41,2.43,0,3.93,3.11,3.91,4.19,0,2.51-6,7.21-11,10.21a13.25,13.25,0,0,0-.3,2.79c0,3.06,1.56,5.15,4,5.18C195.63,91.78,197.63,89.82,199.08,88.49Zm.09-14.85c0-.72-.26-1-.71-1-1.53,0-5.53,3.45-8.31,10C194.24,80,199.15,75.71,199.17,73.64Z" transform="translate(-2.2 -10.21)"/><path class="cls-5" d="M144.72,101.63l3.24,0a6.38,6.38,0,0,1,4.49,1.51,5.52,5.52,0,0,1,1.52,4.26,9.16,9.16,0,0,1-1.07,4.41,6.9,6.9,0,0,1-3,2.85,9.42,9.42,0,0,1-4.41,1l-4-.05Zm.82,13.14a6.72,6.72,0,0,0,7.43-7.26q.06-4.89-5.2-5l-2.3,0-2.74,12.2Z" transform="translate(-2.2 -10.21)"/><path class="cls-5" d="M156.13,111.91a3.47,3.47,0,0,0,.76,2.42,2.82,2.82,0,0,0,2.2.9,5.78,5.78,0,0,0,2.76-.79l-.19.94a5.59,5.59,0,0,1-2.72.67,3.59,3.59,0,0,1-2.78-1.13,4.39,4.39,0,0,1-1-3.1,7,7,0,0,1,.76-3.18,6,6,0,0,1,2-2.26,4.6,4.6,0,0,1,2.61-.8,3.13,3.13,0,0,1,2.06.67,2.13,2.13,0,0,1,.77,1.76,2.65,2.65,0,0,1-1.73,2.5,14.21,14.21,0,0,1-5.49.8Zm.17-1.42a13.88,13.88,0,0,0,4.62-.52,2,2,0,0,0,1.52-1.87c0-1.12-.67-1.69-2-1.7a3.5,3.5,0,0,0-2.59,1.12A5.81,5.81,0,0,0,156.3,110.49Z" transform="translate(-2.2 -10.21)"/><path class="cls-5" d="M164.16,114.47a4.53,4.53,0,0,0,1.13.61,4.12,4.12,0,0,0,1.26.24,2.8,2.8,0,0,0,1.78-.46,1.87,1.87,0,0,0,.31-2.49,5.75,5.75,0,0,0-1.3-1.05,5.78,5.78,0,0,1-1.58-1.31,2.44,2.44,0,0,1-.43-1.45,2.71,2.71,0,0,1,.95-2.08,3.31,3.31,0,0,1,2.35-.8,5.76,5.76,0,0,1,1.2.15,4.15,4.15,0,0,1,1.13.38l-.21.94a3.93,3.93,0,0,0-2.22-.66,2.42,2.42,0,0,0-1.61.53,1.81,1.81,0,0,0-.65,1.43,1.88,1.88,0,0,0,.33,1.14,5.19,5.19,0,0,0,1.29,1,5.62,5.62,0,0,1,1.57,1.31,2.36,2.36,0,0,1,.46,1.44,2.53,2.53,0,0,1-.95,2,3.79,3.79,0,0,1-2.49.74,4.68,4.68,0,0,1-2.53-.72Z" transform="translate(-2.2 -10.21)"/><path class="cls-5" d="M174.14,106l.91,0-1.59,7.08a9.83,9.83,0,0,0-.25,1.69q0,.58.6.6a2.22,2.22,0,0,0,.83-.16l-.18.75a2.22,2.22,0,0,1-1,.21c-.82,0-1.23-.45-1.22-1.34a5.73,5.73,0,0,1,.09-.92C172.43,113.61,173,111,174.14,106Zm1.18-2.5a.71.71,0,0,1-.52-.22.74.74,0,0,1-.22-.55.68.68,0,0,1,.23-.52.81.81,0,0,1,.52-.2.78.78,0,0,1,.53.21.66.66,0,0,1,.23.53.78.78,0,0,1-.23.53A.76.76,0,0,1,175.32,103.48Z" transform="translate(-2.2 -10.21)"/><path class="cls-5" d="M175.53,119.06a5.43,5.43,0,0,0,2.69.81,3.84,3.84,0,0,0,2.81-1,6.3,6.3,0,0,0,1.56-3.18l.67-2.81h0a9.29,9.29,0,0,1-2,2.58,3.07,3.07,0,0,1-2.05.78,2.43,2.43,0,0,1-2.05-1,4.34,4.34,0,0,1-.67-2.68,7.57,7.57,0,0,1,.84-3.5,6.12,6.12,0,0,1,2.23-2.46,5.59,5.59,0,0,1,3.06-.85c.33,0,.81,0,1.43.12a11.15,11.15,0,0,1,1.6.28l-2.08,9.15a8.2,8.2,0,0,1-2,4.13,4.9,4.9,0,0,1-3.57,1.21,5.54,5.54,0,0,1-2.68-.73Zm9-12.15a9.32,9.32,0,0,0-2.11-.25,4.43,4.43,0,0,0-2.54.74,5.26,5.26,0,0,0-1.83,2.09,6.91,6.91,0,0,0-.68,3c0,2,.61,2.94,1.9,3a2.8,2.8,0,0,0,1.81-.77,8.06,8.06,0,0,0,1.73-2.15,9.51,9.51,0,0,0,1.09-2.77Z" transform="translate(-2.2 -10.21)"/><path class="cls-5" d="M188.74,106.16h.9l-.51,2.83h0c1.29-2,2.7-3,4.21-3a2.38,2.38,0,0,1,1.87.68,2.9,2.9,0,0,1,.58,2,4.24,4.24,0,0,1-.09.79c-.05.31-.54,2.57-1.47,6.75h-.91l1.25-5.73a10.63,10.63,0,0,0,.28-1.65c0-1.35-.55-2-1.69-2a3.14,3.14,0,0,0-1.76.66,7.1,7.1,0,0,0-1.79,1.76,6.17,6.17,0,0,0-1.05,2.29l-1,4.64h-.91l1.63-7.19A24.39,24.39,0,0,0,188.74,106.16Z" transform="translate(-2.2 -10.21)"/><path class="cls-5" d="M209.58,116.41a22.16,22.16,0,0,1,.44-3.18h0a9.24,9.24,0,0,1-1.93,2.55,3.17,3.17,0,0,1-2.15.83,2.4,2.4,0,0,1-2-1,4.37,4.37,0,0,1-.68-2.66,7.79,7.79,0,0,1,.85-3.53,5.94,5.94,0,0,1,2.22-2.45,5.51,5.51,0,0,1,3-.85,8.74,8.74,0,0,1,2.16.35l1.1-4.87h.9l-2.6,11.61q-.08.33-.21,1.5c-.09.78-.14,1.33-.14,1.66Zm1.71-9.07a7,7,0,0,0-2.1-.36,4.48,4.48,0,0,0-2.52.73,5.22,5.22,0,0,0-1.83,2.1,7,7,0,0,0-.7,3,3.94,3.94,0,0,0,.46,2.21,1.72,1.72,0,0,0,1.51.73,2.82,2.82,0,0,0,1.75-.81,8,8,0,0,0,1.73-2.13,9.63,9.63,0,0,0,1.09-2.75Z" transform="translate(-2.2 -10.21)"/><path class="cls-5" d="M215.52,106.48h.91l-1.59,7.08a10.12,10.12,0,0,0-.26,1.69.54.54,0,0,0,.6.6,2.19,2.19,0,0,0,.83-.16l-.17.75a2.09,2.09,0,0,1-1,.21c-.83,0-1.24-.45-1.23-1.34a5.88,5.88,0,0,1,.1-.92Q213.84,114,215.52,106.48Zm1.17-2.51a.7.7,0,0,1-.52-.22.73.73,0,0,1-.21-.55.65.65,0,0,1,.23-.51.68.68,0,0,1,.52-.2.79.79,0,0,1,.53.2.67.67,0,0,1,.22.53.72.72,0,0,1-.23.53A.73.73,0,0,1,216.69,104Z" transform="translate(-2.2 -10.21)"/><path class="cls-5" d="M216.91,119.55a5.39,5.39,0,0,0,2.68.81,3.86,3.86,0,0,0,2.81-.94,6.39,6.39,0,0,0,1.57-3.19l.67-2.81h0a9.52,9.52,0,0,1-2,2.58,3.09,3.09,0,0,1-2.06.78,2.4,2.4,0,0,1-2-1,4.32,4.32,0,0,1-.68-2.68,7.82,7.82,0,0,1,.84-3.5,6.09,6.09,0,0,1,2.23-2.45,5.55,5.55,0,0,1,3.07-.86c.33,0,.8,0,1.42.12a11.15,11.15,0,0,1,1.6.28l-2.07,9.16a8.21,8.21,0,0,1-2,4.12,4.87,4.87,0,0,1-3.56,1.21,5.58,5.58,0,0,1-2.68-.72Zm9-12.15a9.41,9.41,0,0,0-2.12-.25,4.5,4.5,0,0,0-2.53.74,5.11,5.11,0,0,0-1.83,2.09,6.81,6.81,0,0,0-.69,3c0,2,.61,3,1.91,3a2.82,2.82,0,0,0,1.81-.77,8.24,8.24,0,0,0,1.72-2.15,9.43,9.43,0,0,0,1.1-2.77Z" transform="translate(-2.2 -10.21)"/><path class="cls-5" d="M230.16,106.65h.9l-1.58,7.08a9.22,9.22,0,0,0-.26,1.7.53.53,0,0,0,.6.59,2.39,2.39,0,0,0,.83-.15l-.17.75a2.41,2.41,0,0,1-1,.21c-.83,0-1.24-.46-1.23-1.34a5.63,5.63,0,0,1,.1-.92C228.44,114.27,229,111.63,230.16,106.65Zm1.17-2.51a.69.69,0,0,1-.52-.22.71.71,0,0,1-.22-.55.67.67,0,0,1,.24-.51.72.72,0,0,1,.51-.2.82.82,0,0,1,.54.2.67.67,0,0,1,.22.53.74.74,0,0,1-.23.54A.72.72,0,0,1,231.33,104.14Z" transform="translate(-2.2 -10.21)"/><path class="cls-5" d="M234.53,107.52l-1.83,0,.2-.82,1.8,0,.58-2.59,1-.29-.66,2.89,2.69,0-.21.81-2.64,0L234,113.8a7.44,7.44,0,0,0-.2,1.33,1.06,1.06,0,0,0,.18.71.81.81,0,0,0,.66.25,5.16,5.16,0,0,0,1.59-.49l-.21.86a4.1,4.1,0,0,1-.84.31,2.93,2.93,0,0,1-.74.13c-1.06,0-1.58-.59-1.56-1.72a5.81,5.81,0,0,1,.21-1.43Z" transform="translate(-2.2 -10.21)"/><path class="cls-5" d="M244.79,116.82a26.09,26.09,0,0,1,.46-3.19h0a9.6,9.6,0,0,1-1.92,2.54,3.1,3.1,0,0,1-2.15.85,2.39,2.39,0,0,1-2-1,4.21,4.21,0,0,1-.68-2.64,7.82,7.82,0,0,1,.83-3.54,6.21,6.21,0,0,1,2.21-2.46,5.54,5.54,0,0,1,3.07-.85,16.07,16.07,0,0,1,3.05.39l-1.38,6.29c-.1.49-.21,1.11-.31,1.84a12.76,12.76,0,0,0-.17,1.74Zm1.73-9.17a9.17,9.17,0,0,0-2.08-.25,4.54,4.54,0,0,0-2.56.73,5.14,5.14,0,0,0-1.84,2.11,7.39,7.39,0,0,0-.69,3.1c0,1.9.64,2.85,2,2.87a2.74,2.74,0,0,0,1.71-.76,8,8,0,0,0,1.72-2.13,10,10,0,0,0,1.14-2.8Z" transform="translate(-2.2 -10.21)"/><path class="cls-5" d="M251.8,102.1h.91L250.05,114a8.9,8.9,0,0,0-.25,1.69.53.53,0,0,0,.59.6,2.28,2.28,0,0,0,.84-.16l-.18.75a2.09,2.09,0,0,1-1,.21c-.83,0-1.23-.45-1.22-1.34a6.24,6.24,0,0,1,.14-1.13Q249.15,113.92,251.8,102.1Z" transform="translate(-2.2 -10.21)"/><path class="cls-5" d="M264.93,117.06a23.28,23.28,0,0,1,.43-3.17h0a9.31,9.31,0,0,1-1.93,2.56,3.2,3.2,0,0,1-2.16.82,2.39,2.39,0,0,1-2-1,4.32,4.32,0,0,1-.68-2.66,7.92,7.92,0,0,1,.84-3.53,6.12,6.12,0,0,1,2.23-2.46,5.51,5.51,0,0,1,3-.84,8.81,8.81,0,0,1,2.16.34l1.1-4.87h.89l-2.6,11.61c0,.23-.11.73-.2,1.51s-.14,1.33-.15,1.65Zm1.71-9.06a6.72,6.72,0,0,0-2.1-.36,4.41,4.41,0,0,0-2.52.73,5.09,5.09,0,0,0-1.83,2.1,6.83,6.83,0,0,0-.7,3,4,4,0,0,0,.46,2.22,1.71,1.71,0,0,0,1.51.73,2.88,2.88,0,0,0,1.75-.81,8,8,0,0,0,1.73-2.13,9.93,9.93,0,0,0,1.09-2.75Z" transform="translate(-2.2 -10.21)"/><path class="cls-5" d="M270,113.27a3.45,3.45,0,0,0,.76,2.41,2.82,2.82,0,0,0,2.2.9,5.75,5.75,0,0,0,2.76-.79l-.19.94a5.59,5.59,0,0,1-2.72.67,3.55,3.55,0,0,1-2.78-1.13,4.38,4.38,0,0,1-1-3.09,6.91,6.91,0,0,1,.76-3.18,5.91,5.91,0,0,1,2-2.26,4.54,4.54,0,0,1,2.61-.81,3.13,3.13,0,0,1,2.06.67,2.15,2.15,0,0,1,.77,1.77,2.66,2.66,0,0,1-1.73,2.5,14.28,14.28,0,0,1-5.49.79Zm.17-1.43a13.62,13.62,0,0,0,4.62-.52,2,2,0,0,0,1.52-1.87c0-1.12-.67-1.68-2-1.7a3.48,3.48,0,0,0-2.59,1.13A5.78,5.78,0,0,0,270.12,111.84Z" transform="translate(-2.2 -10.21)"/><path class="cls-5" d="M278,115.82a4.23,4.23,0,0,0,1.13.61,3.6,3.6,0,0,0,1.26.24,2.85,2.85,0,0,0,1.79-.46,1.87,1.87,0,0,0,.3-2.48,5.25,5.25,0,0,0-1.3-1,6.14,6.14,0,0,1-1.58-1.32,2.41,2.41,0,0,1-.43-1.45,2.71,2.71,0,0,1,1-2.08,3.36,3.36,0,0,1,2.35-.8,5.76,5.76,0,0,1,1.2.15,4.15,4.15,0,0,1,1.13.38l-.21.94a3.92,3.92,0,0,0-2.22-.65,2.37,2.37,0,0,0-1.61.52,1.83,1.83,0,0,0-.65,1.43,1.88,1.88,0,0,0,.33,1.14,5.19,5.19,0,0,0,1.29,1,6,6,0,0,1,1.57,1.31,2.36,2.36,0,0,1,.46,1.44,2.53,2.53,0,0,1-.95,2,3.74,3.74,0,0,1-2.49.74,4.76,4.76,0,0,1-2.53-.71Z" transform="translate(-2.2 -10.21)"/></g></g></svg>