<svg xmlns="http://www.w3.org/2000/svg" viewBox="0 0 36.94 36.94"><defs><style>.cls-1{fill:#fff;}</style></defs><g id="Calque_2" data-name="Calque 2"><g id="Calque_1-2" data-name="Calque 1"><path class="cls-1" d="M27.77,14.75c0,.19,0,.39,0,.6A13.23,13.23,0,0,1,7.41,26.5a10,10,0,0,0,1.11.07,9.34,9.34,0,0,0,5.78-2A4.66,4.66,0,0,1,10,21.34a5.24,5.24,0,0,0,.88.08,4.49,4.49,0,0,0,1.22-.16,4.66,4.66,0,0,1-3.73-4.57v-.05a4.73,4.73,0,0,0,2.11.58A4.67,4.67,0,0,1,9,11a13.21,13.21,0,0,0,9.59,4.87,4.66,4.66,0,0,1,7.94-4.25,9.21,9.21,0,0,0,2.95-1.13,4.71,4.71,0,0,1-2,2.58,9.23,9.23,0,0,0,2.67-.74,9.34,9.34,0,0,1-2.32,2.41ZM18.47,0A18.47,18.47,0,1,0,36.94,18.47,18.47,18.47,0,0,0,18.47,0Z"/></g></g></svg>