<svg xmlns="http://www.w3.org/2000/svg" viewBox="0 0 384 384"><defs><style>.cls-1{fill:#fff;fill-rule:evenodd;}</style></defs><g id="Calque_2" data-name="Calque 2"><g id="Calque_1-2" data-name="Calque 1"><path class="cls-1" d="M168,228V156l62.35,36Zm139-93.77A30.06,30.06,0,0,0,285.77,113c-18.72-5-93.77-5-93.77-5s-75,0-93.77,5A30.07,30.07,0,0,0,77,134.23C72,153,72,192,72,192s0,39.05,5,57.77A30,30,0,0,0,98.23,271C117,276,192,276,192,276s75.05,0,93.77-5A30.05,30.05,0,0,0,307,249.77c5-18.72,5-57.77,5-57.77s0-39.05-5-57.77ZM192,0C298,0,384,86,384,192S298,384,192,384,0,298,0,192,86,0,192,0Z"/></g></g></svg>