<svg viewBox="0 0 535.23 281.5" xmlns="http://www.w3.org/2000/svg"><path d="m100.26 0 59.89 102.49h24.45l-59.03-102.49z" fill="#38607a"/><path d="m170.14 11.4 50.3 91.09h-25.15l-52.86-91.09z" fill="#38607a"/><path d="m106.25 28.62-77.2 133.1h25.9l63.28-113.14z" fill="#8a9ca9"/><path d="m136.86 80.53-47.13 81.19h-23.71l58.5-104.77z" fill="#8a9ca9"/><path d="m259.31 112.47h-130.05l-11.03 18.86h129.09z" fill="#6197ab"/><path d="m110.24 140.42h103.35l-11.07 21.3h-102.26z" fill="#6197ab"/><path d="m17.68 194.31h-10.11l2.53-11.76h33.72l-2.53 11.76h-10.22l-12.55 59.29h-13.39z"/><path d="m45.51 197.52h13.4l-11.93 56.08h-13.4zm3.86-18.1h13.4l-2.63 12.37h-13.4z"/><path d="m63.21 214.65c2.64-12.22 2.99-14.71 3.49-17.12h12.92c-.11 1.08-.32 2.64-.6 4.01 2.74-3.34 6.26-4.87 10.2-4.87 5.1 0 7.15 2.6 7.89 5.15 2.77-3.05 6.22-5.15 11.47-5.15 7.52 0 10.71 5.52 8.83 14.43l-8.98 42.5h-13.31l8.69-40.96c.63-3.2.21-4.94-2.18-4.94-2.77 0-3.97 2.03-4.96 6.53l-8.31 39.36h-13.38l8.62-40.89c.92-4.12-.18-5-2.11-5-2.8 0-4.01 2.07-4.88 6.29l-8.38 39.61h-13.25z"/><path d="m116.23 244.33c2.83-4.44 13.8-22.23 21.86-35.29h-14.29l2.46-11.52h29.64l-2.04 9.37c-1.55 2.58-15.68 25.86-21.47 35.19h15.67l-3.42 11.52h-30.36l1.93-9.27z"/><path d="m162.21 197.52h13.4l-11.93 56.08h-13.4zm3.86-18.1h13.4l-2.63 12.37h-13.4z"/><path d="m180 214.33c2.08-10.02 3.05-14.73 3.4-16.81h13.11c-.18 1.37-.36 2.85-.64 4.13 2.09-2.48 5.42-4.98 10.59-4.98 7.83 0 10.48 5.79 8.74 13.88l-9.13 43.04h-13.43l8.45-39.95c.84-3.81.02-5.95-2.49-5.95-2.88 0-4.22 2.14-5.38 7.69l-8.14 38.2h-13.4l8.32-39.27z"/><path d="m231.49 229.07-1.81 8.82c-.78 3.57-.3 6.05 2.5 6.05 3.02 0 3.84-2.79 4.44-5.68l.51-2.42h13.07l-.29 1.63c-1.89 9.45-5.54 17.03-18.95 17.03-14.82 0-16.14-9.97-13.86-20.69l3.97-18.69c2.11-9.93 6.02-18.37 19.37-18.37 14.54 0 16.38 8.85 14.06 19.83l-2.66 12.5h-20.36zm9.38-9.71 1.3-6.24c.75-3.67.69-6.32-2.48-6.32-2.75 0-3.84 1.76-4.76 6.29l-1.33 6.26h7.28z"/><text font-family="MyriadPro-It, Myriad Pro" font-size="43.06" transform="translate(281.78 149.39)"><tspan letter-spacing=".01em" x="0" y="0">D</tspan><tspan letter-spacing="0em" x="28.33" y="0">esign digital</tspan><tspan x="0" y="51.67">des a</tspan><tspan letter-spacing="0em" x="88.49" y="51.67">c</tspan><tspan x="106.96" y="51.67">t</tspan><tspan letter-spacing="0em" x="120.44" y="51.67">u</tspan><tspan x="142.87" y="51.67">ali</tspan><tspan letter-spacing="0em" x="185.07" y="51.67">t</tspan><tspan x="198.37" y="51.67">ées</tspan><tspan x="0" y="103.34">cultu</tspan><tspan letter-spacing="0em" x="86.85" y="103.34">r</tspan><tspan x="100.28" y="103.34">elles</tspan></text></svg>