<svg xmlns="http://www.w3.org/2000/svg" viewBox="0 0 364.68 176.32"><defs><style>.cls-1{fill:#416559;}</style></defs><g id="Calque_2" data-name="Calque 2"><g id="representation"><path d="M306.33,83.29c-10,.41-19.16,1.09-27.06,1.86-10.71.43-20.08,1.1-28.85,2.08-2.2.25-4.35.52-6.52.85-.54.09-1.07.16-1.63.27l-.82.14-.41.08-.31.05c-.39,0-.79.14-1.17.15l-.58,0h-.57a9.93,9.93,0,0,1-4.31-1.06,16.11,16.11,0,0,1-4-2.93,40,40,0,0,1-3.71-4.23c-1.22-1.55-2.42-3.23-3.83-5a27.78,27.78,0,0,0-2.44-2.67l-.78-.68c-.27-.18-.67-.52-1.06-.74a7.4,7.4,0,0,0-2.5-1,7.1,7.1,0,0,0-5.23,1.06,16.1,16.1,0,0,0-3.19,2.63,44.66,44.66,0,0,0-4.56,5.76c-1.37,2-2.66,4.08-3.94,6.2l-1.08,1.78a6.24,6.24,0,0,1-.74,1c-.2.15-.42-.09-.54-.24a4.25,4.25,0,0,1-.35-.58c-.11-.2-.21-.4-.3-.61l-.48-1-1.31-2.77-.67-1.35a4.26,4.26,0,0,0-.34-.64l-.38-.5c-.26-.32-.51-.68-.76-1l-.74-.62a4,4,0,0,0-.75-.56,3.71,3.71,0,0,0-1-.35,4,4,0,0,0-2.29.23,5.75,5.75,0,0,0-1.6,1.15A12.4,12.4,0,0,0,183,84.44c-.35.86-.66,1.77-.95,2.66l-.37,1.22-.25.85c-.32,1.13-.6,2.25-.87,3.37-.54,2.22-1,4.41-1.44,6.58-1.69,8.67-2.88,17-4,25.2s-2.13,16.44-3.19,24.9q-.81,6.33-1.66,12.92c-.3,2.2-.61,4.42-1,6.64-.18,1.11-.36,2.23-.57,3.31-.1.54-.21,1.08-.33,1.56a4,4,0,0,1-.16.55h0l.88.35a7.66,7.66,0,0,1,.76.37,3.18,3.18,0,0,1,.55.32,1,1,0,0,1,.28.26l0,.06s0,0,0,0l.12-.11c.06,0,.1,0,.19-.11a1.74,1.74,0,0,1,.27-.14l.14-.06c.12,0-.6.25-.19.08a5.15,5.15,0,0,1,1.17-.34l.84-.2.08,0h0s0-.08-.06-.13a3.93,3.93,0,0,1-.13-.52c-.09-.41-.16-.9-.23-1.44-.13-1.08-.23-2.36-.3-3.8-.14-2.87-.18-6.37-.16-10.3,0-7.88.34-17.54.69-27.68.71-20.29,1.57-42.56,1.21-56.57.14-18.79-.55-29-1.08-14.67.17-13,.37-17.79.56-22.08s.36-8-.05-18.92q.44,3.66.81,7.32c0-3.58.11-7.35,0-11.43,0-2-.11-4.15-.28-6.37-.1-1.12-.21-2.25-.41-3.46a13.25,13.25,0,0,0-.44-1.95,5.58,5.58,0,0,0-.59-1.34,4.32,4.32,0,0,0-.46-.55A2.59,2.59,0,0,0,171.36.1a2.54,2.54,0,0,0-1.59.07,3,3,0,0,0-.62.34,3.69,3.69,0,0,0-1,1,5.53,5.53,0,0,0-.47.83,10.42,10.42,0,0,0-.57,1.46,27.93,27.93,0,0,0-.73,2.74c-.38,1.8-.67,3.56-.93,5.33-1.5,6.35-2.41,12-3.2,17.44s-1.38,10.49-2,15.65c-1.21,10.31-2.23,20.94-4.52,34.72,1.58-9,1.36-6.9.88-2.81s-1.41,10.12-1,9.17c-.26,1-.64,2.85-1.21,4.83-.14.49-.3,1-.48,1.48-.09.24-.19.47-.29.69a1.44,1.44,0,0,1-.3.45s0,0,0,.06l.06.08c0,.06.06.13.07.14s0,.07,0,0h0c0-.16-.09.37.1-.37l0,0-.28-.12c-.2,0-.34-.23-.51-.34a3.73,3.73,0,0,1-.78-1,11.22,11.22,0,0,1-.89-2.37c-.2-.73-.32-1.35-.39-1.75-.14-.81-.11-.78.29.57-.13-.49-.24-1-.35-1.49l-.34-1.66c-.25-1.23-.49-2.47-.74-3.69s-.5-2.47-.79-3.58l-.47-1.55c-.16-.48-.32-.9-.48-1.34l-.48-1.25a9.68,9.68,0,0,0-.51-1.19,2.1,2.1,0,0,0-2.72-.5,2.81,2.81,0,0,0-.86,1.06c-.22.4-.43.79-.62,1.22a20.79,20.79,0,0,0-1,2.7,48.11,48.11,0,0,0-1.25,5.78c-.15,1-.28,2-.4,2.93s-.18,1.71-.27,2.55c-.32,3.27-.51,6.39-.68,9.35-.33,5.92-.55,11.18-1,15.56l.2,8.7c.16,7.43.16,14.09,0,20.59-.08,3.25-.19,6.47-.41,9.7a43.48,43.48,0,0,1-.54,4.77,6.4,6.4,0,0,1-.28,1,1.16,1.16,0,0,1-.07.15s-.08,0,0,.06a.77.77,0,0,1,.28.26c0,.08.05.09.06.09a.05.05,0,0,1,0,0c0,.1,0,0,0-.09a.22.22,0,0,1,.05-.08h0c-.23.42-.06.1-.11.19l0-.05.06-.08c0-.06.08-.07.16-.15a1.66,1.66,0,0,1,.19-.17s-.08-.17-.14-.33-.11-.34-.16-.52c-.1-.38-.19-.78-.27-1.18-.25-.57-.48-1.16-.71-1.75-1.62-8.83-2.74-25.4-3-33.24-1.51-23.68-4.07-53.27-6.38-77.72-.75-12.16-1.29-15.58-1.85-18.68-.29-1.56-.56-3-1-5.47-.22-1.22-.48-2.68-.8-4.5-.17-.9-.36-1.9-.62-3a14.89,14.89,0,0,0-.46-1.56,2.23,2.23,0,0,0-.13-.3l0-.07a1.32,1.32,0,0,0,.27-.21c.14-.15.19-.14.27-.25s.06-.11.08-.14a.09.09,0,0,0,0-.06s0-.07,0-.06,0,0,0,0h0c-.06-.18.09.23.07.2v0a.75.75,0,0,0,.19.29s.16.18.25.27,0,0,0,0,0,0,0,.08a8.58,8.58,0,0,0-.75,2.2c-.21.89-.38,1.83-.54,2.81-.31,2-.56,4-.77,6.21-.42,4.33-.72,8.92-1,13.33-.49,8.85-.79,17-1.21,21.27.32-9.7.32-15.23.41-20.9,0-2.83.12-5.69.33-9.12a104.9,104.9,0,0,1,1.41-12.47c-.39,1.91-.34.72.17-1.83a8.79,8.79,0,0,1,.68-2.1,1.7,1.7,0,0,1,.37-.53c.12-.06.17-.17.36-.17a.5.5,0,0,1,.37.19,3.77,3.77,0,0,1,.59,1.23,44.27,44.27,0,0,1,1.15,5.45c.58,3.64,1,7,1.19,8.25s.25.51-.14-4.06c-.35-2.45-.71-4.93-1.22-7.44-.14-.63-.28-1.26-.46-1.89-.1-.32-.19-.64-.32-1a4.63,4.63,0,0,0-.24-.51,1.45,1.45,0,0,0-.52-.57.91.91,0,0,0-.33-.1.75.75,0,0,0-.36.06,1.57,1.57,0,0,0-.37.24,2.18,2.18,0,0,0-.38.51,4.59,4.59,0,0,0-.42,1,16.59,16.59,0,0,0-.5,1.93c-.52,2.58-.8,5.18-1.07,7.81s-.47,5.28-.65,8c-.72,10.67-1.14,21.59-1.49,32.41s-.56,21.55-.66,31.82c-.05,5.14-.07,10.17-.05,15l0,3.63,0,1.79v.89a1.9,1.9,0,0,1-.12.88,1.72,1.72,0,0,1-1.35,1.09,2.35,2.35,0,0,1-.89-.09,3.41,3.41,0,0,0-.84-.07,2.31,2.31,0,0,0-1.48.61,4.06,4.06,0,0,0-.92,1.34c0-.35-.3,0-.73,1a21,21,0,0,0-1.11,4.85c-.3,2.16-.51,4.79-.76,7.71-.13,1.46-.27,3-.44,4.58a6.13,6.13,0,0,1-.17,1.08,1.07,1.07,0,0,1-.55.63,1.21,1.21,0,0,1-1.57-.4,5.13,5.13,0,0,1-.34-1.08c-.12-.41-.21-.82-.31-1.24-.2-.83-.38-1.67-.55-2.52-.33-1.71-.6-3.44-.82-5.17-.45-3.48-.73-7-.91-10.27-.36-6.63-.38-12.58-.38-16.54l.29-1c.21-6.81.39-12.74.6-19.68.09-3.47.18-7.19.16-11.41,0-1,0-2.14,0-3.26s-.08-2.47-.16-3.77a26.78,26.78,0,0,0-1.37-7.7,3.57,3.57,0,0,0-1.21-1.71,1.91,1.91,0,0,0-2.06.24,8.21,8.21,0,0,0-2.32,3,24.15,24.15,0,0,0-1.48,3.73c-.42,1.3-.76,2.65-1.08,4s-.55,2.51-.79,3.78c-.94,5-1.58,10-2.14,14.93-.13,1.22-.25,2.43-.38,3.64L90.6,88c-.19,2.21-.37,4.39-.56,6.55l-.12,1.59a1.45,1.45,0,0,1-.76,1.29,1.57,1.57,0,0,1-1.53,0,1.82,1.82,0,0,1-.81-1.35C86.29,94,85.74,91.92,85.13,90a41.24,41.24,0,0,0-1.53-4.18,13.46,13.46,0,0,0-1.41-2.47A3.37,3.37,0,0,0,80,81.77a6.16,6.16,0,0,0-.94.11c-2.21.49-4.12,2.55-5.28,4.15A24.34,24.34,0,0,0,72,88.72c-.27.48-.43.8-.62,1.18a1.87,1.87,0,0,1-.7,1,1.9,1.9,0,0,1-1.18.17l-1.28,0-3.1-.1-6.22-.18c-8.26-.22-16.43-.35-24-.43-15.18-.15-28.07-.06-34.92.09,15,.77,29.69,1.19,43.72,1.54l20.51.53,5,.14c.46,0,.92,0,1.37,0a2.11,2.11,0,0,0,1.23-.51A3.43,3.43,0,0,0,72.61,91l.61-1.21a22.17,22.17,0,0,1,2.56-3.89,11.21,11.21,0,0,1,1.49-1.45A5.52,5.52,0,0,1,79,83.5c.19,0,.38-.09.57-.12a1.12,1.12,0,0,1,.57.11,2.48,2.48,0,0,1,.89.75,9.39,9.39,0,0,1,1.17,2,43.25,43.25,0,0,1,2.18,6.32c.36,1.21.76,2.14,1.1,3s.63,1.65.94,2.47l.4,1.13a1.6,1.6,0,0,0,.73,1,2.38,2.38,0,0,0,2.67-.23,2.36,2.36,0,0,1-3,.15,2.17,2.17,0,0,1-.56-1l-.44-1c-.31-.69-.64-1.39-1-2.14a21.2,21.2,0,0,1-1.07-2.61c-.43-1.48-.87-2.83-1.32-4.06-.22-.62-.45-1.21-.7-1.77L82,87l-.21-.44-.21-.43a6.49,6.49,0,0,0-1-1.49,1.64,1.64,0,0,0-.72-.44,1.5,1.5,0,0,0-.81.09A5.63,5.63,0,0,0,76.73,86c-.14.17-.31.34-.45.53-.29.37-.56.76-.82,1.16a21.55,21.55,0,0,0-1.4,2.49l-.42.87c-.15.3-.29.63-.46.91a3,3,0,0,1-1.41,1.41,5.06,5.06,0,0,1-2.07.33H55.42l11.07.66-9,0c4.59.49-7.34.47-6,.88l16,.45,2.83.07a5.34,5.34,0,0,0,3.22-1,6.76,6.76,0,0,0,2-2.75l.36-.71.22-.42c.14-.26.29-.5.43-.76a16.07,16.07,0,0,1,.91-1.4c.16-.23.32-.44.48-.64a2.37,2.37,0,0,1,.25-.29l.2-.23A1.46,1.46,0,0,1,79,87a.8.8,0,0,1,.15,0H79a1.49,1.49,0,0,0-.48.21,2.31,2.31,0,0,1-.19.14l-.19.2a2.18,2.18,0,0,0-.25.28c-.65.74-1.1,1.36-1.4,1.77-.6.83-.66.78-.44.19a14.14,14.14,0,0,1,1.52-2.66c.23-.29.25-.36.35-.49s.2-.24.31-.37A3.1,3.1,0,0,1,79,85.7h0a.89.89,0,0,1,.58,0,1.37,1.37,0,0,1,.46.37,5.17,5.17,0,0,1,.6,1l.07.14.2.43.1.25c.14.33.28.67.41,1,.27.68.51,1.39.75,2.11.48,1.45.93,3,1.36,4.57a10.21,10.21,0,0,0,1.64,3.18l1.27,1.73-1.22-1.84a12,12,0,0,1-1.61-3.35c-.47-1.86-.82-3.09-.85-3.34a13.75,13.75,0,0,1,1,2.87,14.4,14.4,0,0,0,1.94,3.54c.36.6.68,1.13,1,1.65a2.71,2.71,0,0,0,.51.77,2.29,2.29,0,0,0,1.33.44,2.94,2.94,0,0,0,1.55-.37,1.59,1.59,0,0,0,.79-.93l.75-2.09L92,96.51a5.19,5.19,0,0,0,.2-.82l.18-.89a14.42,14.42,0,0,0,.25-2.1l.19-2.23.42-4.37.23-2,.19-1.41-.48,9.64-.12,2.86-.42,2.24c-.17.59-.36,1.06-.55,1.58s-.36.82-.54,1.21l.52-1,.56-1.3a16.38,16.38,0,0,0,.71-4.19c.12-1.65.25-3.28.37-4.9L94,86.46l.21-2.19c.4-3.76.9-7.39,1.5-11,.3-1.77.62-3.53,1-5.27.18-.87.36-1.74.57-2.6l.3-1.28.16-.6,0-.18c.16-.45.31-.86.48-1.23a2.6,2.6,0,0,1,.69-1,.4.4,0,0,1,.56,0,1.75,1.75,0,0,1,.25.56A12.64,12.64,0,0,1,100,63c-.12.38-.25.58-.38,1l-.39,3c0,6.38-.22,12.86-.38,19.36l-.22-2.21c-.27,7.79-.52,15.63-.47,23.53a117.77,117.77,0,0,0,.8,12.49,39.92,39.92,0,0,0,.85,4.54c.27,2.5.61,5,1.06,7.37.24,1.19.47,2.36.76,3.49.14.57.3,1.13.45,1.68l0,.21.07.21.1.27a5.2,5.2,0,0,0,2.4,2.75,5.34,5.34,0,0,0,4.42.27,5.32,5.32,0,0,0,3.32-4.09l0-.24v-.26l.08-.67.14-1.26.41-3.95c-.06,1.9-.14,3.83-.27,5.78l0,.37,0,.2,0,.27-.12.54a5.66,5.66,0,0,1-1.14,2.13,5.76,5.76,0,0,1-8.58.19,6,6,0,0,1-1.24-2.07l-.29-.91.2.75a7.66,7.66,0,0,0,.39,1,6.73,6.73,0,0,0,.62,1,5.93,5.93,0,0,0,10.51-2.86l.18-1.45.15-1.34.27-2.65c-.39,3.63-.26,1.38-.09-2,.09-1.7.19-3.67.32-5.3s.3-2.91.36-3.43a9.49,9.49,0,0,1,.41-1.47l.1-.25.09-.18s0-.1.06-.1.1,0-.2-.19c-.88-.73-.85-1.13-.77-.77,0,0,0,.26,0,.38s0,.39,0,.6a1.75,1.75,0,0,1-.06.33c0,.1,0,0,0,.06h0l.22.06A5.48,5.48,0,0,0,119,118a5.6,5.6,0,0,0,2-3.88,4.8,4.8,0,0,0,0-.57v-2.05c0-2.87.08-4.66.1-6.18.09-3,.19-5,.51-12.31-.13-15.16,1-33.68.43-34.56.33-6.9.68-13.9,1.12-20.91s.94-14.08,1.86-20.79c.12-.83.25-1.65.4-2.43a19.68,19.68,0,0,1,.49-2.14,2.7,2.7,0,0,1,.12-.37c0-.08,0-.1,0-.11l0,0s.15,0-.28-.16a6.86,6.86,0,0,1-1.43-.78,4.8,4.8,0,0,0-.56-.36,2.49,2.49,0,0,1-.42-.38c-.28-.35-.27-.15-.45-.72v0a.11.11,0,0,1,0,.09s-.13.23-.23.29a6,6,0,0,1-1.22.84c-.47.24-1.25.65-1.91.91l.07.21c.08.25.16.58.24.94.32,1.45.57,3.14.8,4.79s.42,3.36.61,5.05c.72,6.76,1.27,13.5,1.78,20l1.26,11.49c1.74,31.15,3,45.25,5.56,77.65l-.4-2.54c.64,5.9,1.3,11.8,2.09,17.72.29,3.08.59,5.91,1,8.68.12.69.25,1.38.4,2.1.08.36.18.73.29,1.13a9.25,9.25,0,0,0,.53,1.44,6.05,6.05,0,0,0,.33.59c.1.15.22.3.34.45l.21.24.41.35a4,4,0,0,0,2.15.78,3.84,3.84,0,0,0,1.3-.18,4.39,4.39,0,0,0,.63-.26l.29-.16.15-.11a4.78,4.78,0,0,0,.58-.52,3.7,3.7,0,0,0,.41-.49c.14-.22.27-.45.39-.68s.13-.31.2-.48a3.43,3.43,0,0,0,.14-.42,14.37,14.37,0,0,0,.47-2.34c.31-2.66.36-4.95.41-7.26s0-4.52,0-6.78c0-9-.27-18.49.31-32.58.23-6.76.52-12.66.94-17.81.11-1.29.21-2.53.34-3.72l.19-1.74,0-.45c.06-.59.13-1.19.23-1.82a11.94,11.94,0,0,1,.26-1.24,4.65,4.65,0,0,1,.21-.63.7.7,0,0,1,.46-.37.5.5,0,0,1,.44.07,1.26,1.26,0,0,1,.18.32l.31.68c.21.48.43,1,.66,1.61l.36.94c.15.42.26.67.5,1.48s.48,1.88.8,2.87a14.17,14.17,0,0,0,1.37,3.11,5.16,5.16,0,0,0,.6.82,4.39,4.39,0,0,0,.82.78,4,4,0,0,0,1.06.63l.6.22a2.22,2.22,0,0,0,1,.06,2.43,2.43,0,0,0,1-.43,3.53,3.53,0,0,0,1-1.29,8.53,8.53,0,0,0,.37-.89c.2-.56.36-1.08.5-1.6,1-4.11,1.69-8.18,2.38-12.24,1.33-8.11,2.5-16,3.39-22.6l-.82,8.65,1.77-10.94c1.16-9.49,1.85-14.47,2.65-20.16.42-2.84.85-5.86,1.41-9.7s1.25-8.52,2.51-14.44a34.83,34.83,0,0,1,1.61-5.22,4.69,4.69,0,0,1,.37-.71l0,0h0l-.23-.19a5.16,5.16,0,0,1-.74-.75,1.29,1.29,0,0,1-.22-.3l-.07-.11,0-.06-.16-.42s0-.1,0-.09a.08.08,0,0,1,0,0,.44.44,0,0,1,0,.09c-.06.12-.11.12-.24.27a1.75,1.75,0,0,1-.42.31,7.7,7.7,0,0,1-1.25.68l.07.22c.07.25.14.57.21.9.24,1.34.38,2.76.5,4.05l.29,3.61c.31,4.47.5,7.46.73,9.84.44,4.75.94,7.08,1.18,14.32-.31,10.87-.76,21.73-1.26,32.59l.2-.71c.58,19.29.14,14.83-1,60.58l.61-2.07c-.51,7.68-.58,13.19-.59,19.25s0,12.68,0,22.59c0,1.21,0,2.74.07,4.54,0,.45,0,.91.11,1.42a3.53,3.53,0,0,0,.06.42,1.39,1.39,0,0,0,.3.63,1,1,0,0,0,.21.16.64.64,0,0,0,.35.09.75.75,0,0,0,.33-.08.78.78,0,0,0,.2-.14,1.25,1.25,0,0,0,.24-.33c.08-.16.14-.3.19-.43a28.41,28.41,0,0,0,.74-3.19c.79-4.38,1.51-9.49,2.25-14.83,1.46-10.69,2.94-22.28,3.76-30.77,1.32-8.6,2.47-16.08,3.66-22.9.6-3.41,1.2-6.66,1.88-9.78.35-1.56.71-3.09,1.12-4.59a35.72,35.72,0,0,1,1.27-4,14.77,14.77,0,0,1,.9-1.94,1.63,1.63,0,0,1,1.71-1,1.53,1.53,0,0,1,.9.48,5.51,5.51,0,0,1,.52.88l1,1.86c.67,1.33,1.35,2.65,2,4a21.4,21.4,0,0,0,2.45,4,1.58,1.58,0,0,0,1,.56l.29-.06a1.45,1.45,0,0,0,.23-.19,5.71,5.71,0,0,0,.39-.47c.47-.66.89-1.36,1.3-2.05l2.51-4.23a73.66,73.66,0,0,1,6-8.82,17.92,17.92,0,0,1,4.86-4.3,3.94,3.94,0,0,1,3-.43,6.72,6.72,0,0,1,2.46,1.58,31.89,31.89,0,0,1,3.47,4.1c1,1.35,1.94,2.63,2.84,3.79a41.69,41.69,0,0,0,4.9,5.43c1.43,1.32,2.6,2.13,3.26,2.75a18.28,18.28,0,0,1-2.73-1.78,15.82,15.82,0,0,0,5.76,3.91c.33-.15.65-.31,1-.47a14.7,14.7,0,0,0,4.37.19c.76-.09,1.51-.2,2.24-.32s1.51-.2,2.28-.31c3.08-.38,6.3-.71,9.47-1,6.35-.53,12.53-.87,17.16-.83q12.45-1.45,24.94-2.57c-6.14.35-12.94.63-19.77,1l.7.14c-6.5.4-22.27,1.71-29.77,2.38,3-.42,6-.79,9-1.13-10.36.84-1.76-.32,1.14-.67,10.4-.73,14.18-1,17.34-1.37s5.7-.71,13.65-1.19c3.59-.11,10.41-.3,7.89,0,4.69-.26,13.23-.46,20.71-.42,3.74,0,7.22.11,9.83.23s4.36.33,4.62.22l1,.28c.3.11.63.27,1,.47-1.75-1.48-5.22-2.3-10-3.08S313.19,83.65,306.33,83.29Z"/><path class="cls-1" d="M206.89,116.08l-.12.51c0,.17-.07.32-.1.44s-.06.22-.08.31l-.06.28a22.52,22.52,0,0,1-1.36,4.51,2.21,2.21,0,0,1-.71.72,4.79,4.79,0,0,1-2.32,1,1.3,1.3,0,0,1-1-.43,1.47,1.47,0,0,1-.4-1.06,16.89,16.89,0,0,1,1-4.24c.21-.66.39-1.23.56-1.72s.37-1,.61-1.64.51-1.26.81-1.94l.64-1.46a19.43,19.43,0,0,1-3,.23c-1,0-1.44-.33-1.44-1a2.77,2.77,0,0,1,.94-1.65,4.41,4.41,0,0,1,1.17-.89,3,3,0,0,1,1.3-.25l1.35,0c.57,0,1.36.06,2.38.13l.32,0,.32,0a13.92,13.92,0,0,1,1.7.16,1.56,1.56,0,0,1,.7.36.91.91,0,0,1,.24.62,2.15,2.15,0,0,1-.15.77,1.52,1.52,0,0,1-.36.58,3.24,3.24,0,0,1-1.65.54l-.25,0-.23,0a.87.87,0,0,1,.28.63,6.62,6.62,0,0,1-.33,1.42c-.07.18-.23.77-.5,1.77l-.17.7Z"/><path class="cls-1" d="M211.45,123.83a1.43,1.43,0,0,1-1-.48,2.88,2.88,0,0,1-.61-1,4.56,4.56,0,0,1-.18-1.41,15.58,15.58,0,0,1,.72-4.37,10.08,10.08,0,0,1,1.63-3.52,1.25,1.25,0,0,1,1-.46,1.28,1.28,0,0,1,1.1.63,2.9,2.9,0,0,1,.41,1.62,16.6,16.6,0,0,1-.43,3.49,30.69,30.69,0,0,1-1.2,4.15,2.31,2.31,0,0,1-.75,1.18,1.36,1.36,0,0,1-.71.18Zm1.41-11.77c-.73,0-1.1-.47-1.1-1.33a4.4,4.4,0,0,1,.32-1.49,3.49,3.49,0,0,1,.74-1.26,1.47,1.47,0,0,1,.42-.32,1.49,1.49,0,0,1,.56-.09,1.11,1.11,0,0,1,.86.29,1.36,1.36,0,0,1,.28,1,4.39,4.39,0,0,1-.29,1.58,3.23,3.23,0,0,1-.77,1.2,1.43,1.43,0,0,1-1,.47Z"/><path class="cls-1" d="M228.52,119.48l-3.2,3.28a6.45,6.45,0,0,1-1,.85,1.65,1.65,0,0,1-.84.22,1.53,1.53,0,0,1-1.2-.53,1.84,1.84,0,0,1-.49-1.31,4,4,0,0,1,.15-1,17.31,17.31,0,0,1,.58-1.7,4.15,4.15,0,0,1,.16-.4l.12-.29-.05,0c-.75.8-1.5,1.64-2.22,2.52s-1.1,1.27-1.46,1.63a5.67,5.67,0,0,1-1,.81,1.52,1.52,0,0,1-.77.27,1.43,1.43,0,0,1-1.21-.6,2.65,2.65,0,0,1-.45-1.63,13.59,13.59,0,0,1,1.13-4.2,23.88,23.88,0,0,1,1.56-3.46,2.26,2.26,0,0,1,1.85-1.22,1.76,1.76,0,0,1,1,.3.93.93,0,0,1,.41.78,8.82,8.82,0,0,1-.66,2.68c-.17.45-.35,1-.53,1.51l.05,0c.29-.32.75-.87,1.39-1.65a23.87,23.87,0,0,1,2.5-2.78,3.1,3.1,0,0,1,2-1,1.24,1.24,0,0,1,.76.27,1.89,1.89,0,0,1,.58.72,2.13,2.13,0,0,1,.22,1,12.12,12.12,0,0,1-.72,2.58c-.11.29-.18.51-.24.68s-.1.3-.15.42l.06.05.29-.3.29-.27.3-.28c.21-.2.74-.74,1.59-1.6a9.3,9.3,0,0,1,1.32-1.29,1.59,1.59,0,0,1,.93-.34,1.3,1.3,0,0,1,1.1.49,2.38,2.38,0,0,1,.38,1.47,15.31,15.31,0,0,1-.18,1.89c-.11,1-.19,1.73-.23,2.28s-.07.94-.07,1.16,0,.37,0,.62.06.53.1.82.11.61.19,1,.16.76.19,1a1.13,1.13,0,0,1-.62.71,2.21,2.21,0,0,1-1.13.29,2.51,2.51,0,0,1-1.8-.86,3.4,3.4,0,0,1-.58-.81,3.19,3.19,0,0,1-.3-1,11.32,11.32,0,0,1-.08-1.47c0-.4,0-1.22.14-2.47l-.05,0Z"/><path class="cls-1" d="M240.27,114.67l-.5.19a14.63,14.63,0,0,1-4.08.94c-.59,0-.89-.27-.89-.79a2.24,2.24,0,0,1,.26-1,3.54,3.54,0,0,1,.63-.89,2.9,2.9,0,0,1,.83-.64,2.32,2.32,0,0,1,1-.18H238l.58,0,3.11.14a8.45,8.45,0,0,1,1.26.13,1.33,1.33,0,0,1,.62.29.59.59,0,0,1,.23.45c0,.5-1.36,2.77-4.1,6.82l-.43.64h.55a7.64,7.64,0,0,0,2.88-.55,2.55,2.55,0,0,1,.44-.11c.24,0,.36.2.36.62a3.24,3.24,0,0,1-.55,1.85,3.68,3.68,0,0,1-1.51,1.32,4.82,4.82,0,0,1-2.13.47,11.66,11.66,0,0,1-2.61-.26,5.23,5.23,0,0,1-1.86-.72,1.29,1.29,0,0,1-.68-1,1.24,1.24,0,0,1,.29-.72,11.65,11.65,0,0,1,1.15-1.32c.09-.12.31-.36.64-.72l.39-.41.41-.48.28-.34.3-.3c.67-.74,1.23-1.41,1.69-2,.17-.21.31-.4.44-.57s.33-.46.62-.85Z"/><path class="cls-1" d="M246.2,123.83a1.43,1.43,0,0,1-1-.48,2.74,2.74,0,0,1-.61-1,4.53,4.53,0,0,1-.19-1.41,15.26,15.26,0,0,1,.73-4.37A10.08,10.08,0,0,1,246.8,113a1.23,1.23,0,0,1,1-.46,1.25,1.25,0,0,1,1.09.63,2.82,2.82,0,0,1,.42,1.62,16.6,16.6,0,0,1-.43,3.49,33.9,33.9,0,0,1-1.2,4.15,2.45,2.45,0,0,1-.75,1.18,1.4,1.4,0,0,1-.72.18Zm1.41-11.77c-.74,0-1.1-.47-1.1-1.33a4.17,4.17,0,0,1,.32-1.49,3.48,3.48,0,0,1,.73-1.26,1.37,1.37,0,0,1,.43-.32,1.46,1.46,0,0,1,.56-.09,1.12,1.12,0,0,1,.86.29,1.37,1.37,0,0,1,.27,1,4.38,4.38,0,0,1-.28,1.58,3.36,3.36,0,0,1-.77,1.2,1.43,1.43,0,0,1-1,.47Z"/><path class="cls-1" d="M255.5,117.54l.71-.82c.71-.8,1.28-1.38,1.7-1.77a5.07,5.07,0,0,1,1.12-.84,2.2,2.2,0,0,1,1-.26,1.36,1.36,0,0,1,1.17.45,2.57,2.57,0,0,1,.34,1.54q0,.47-.09,1.35a19.76,19.76,0,0,0-.14,2.23,12,12,0,0,0,.12,1.89,5,5,0,0,0,.24.9,2.58,2.58,0,0,1,.12.57.36.36,0,0,1-.14.29,3.11,3.11,0,0,1-1,.55,2.84,2.84,0,0,1-1,.24,1.81,1.81,0,0,1-1.21-.46,2.9,2.9,0,0,1-.85-1.26,5.25,5.25,0,0,1-.29-1.83,10.11,10.11,0,0,1,.14-1.61l-.05,0c-.34.38-.61.68-.82.9l-.58.62q-1.3,1.5-2.22,2.7c-.24.32-.45.59-.65.82a1.35,1.35,0,0,1-1,.44,1.5,1.5,0,0,1-1.22-.57,2.18,2.18,0,0,1-.47-1.45,8.3,8.3,0,0,1,.13-1.35c.09-.53.2-1.1.35-1.7s.31-1.23.51-1.87.42-1.25.65-1.83a6.65,6.65,0,0,1,1.31-2.25,1.77,1.77,0,0,1,1.28-.53c.81,0,1.22.53,1.22,1.59a16.6,16.6,0,0,1-.48,3.32Z"/><path class="cls-1" d="M266.78,120.45a.81.81,0,0,0,.91.7,4.28,4.28,0,0,0,2.29-1,2.7,2.7,0,0,1,1.1-.6,1.21,1.21,0,0,1,.66.19q.3.18.3.39c0,.14-.11.32-.34.55a11.79,11.79,0,0,1-1.43,1.21,12.73,12.73,0,0,1-1.56,1,8.72,8.72,0,0,1-1.5.63,4.66,4.66,0,0,1-1.33.22,3.31,3.31,0,0,1-2.35-.83,3,3,0,0,1-.87-2.24,7.37,7.37,0,0,1,.46-2.4,10.58,10.58,0,0,1,1.25-2.52,8.35,8.35,0,0,1,2.27-2.28,5.78,5.78,0,0,1,3.19-1.11,2.24,2.24,0,0,1,1.73.7,2.82,2.82,0,0,1,.62,1.92,4.46,4.46,0,0,1-.5,2,7,7,0,0,1-1.47,2,7.9,7.9,0,0,1-1.56,1.24,2.75,2.75,0,0,1-1.34.45A1.33,1.33,0,0,1,266.78,120.45Zm0-.38a3.53,3.53,0,0,0,.82-.72,5.82,5.82,0,0,0,1-1.75,7.17,7.17,0,0,0,.42-1.44,8.09,8.09,0,0,0,.15-1.49c0-.43-.09-.64-.27-.64s-.63.55-1.15,1.65a14.47,14.47,0,0,0-.74,2,6.36,6.36,0,0,0-.29,1.71A3.29,3.29,0,0,0,266.76,120.07Z"/><path d="M199.85,141.72,201.69,131h2.36a8.75,8.75,0,0,1,1.68.1,2.77,2.77,0,0,1,1.3.73,3.79,3.79,0,0,1,.88,1.44,6.68,6.68,0,0,1,.32,2.18,8.76,8.76,0,0,1-.33,2.46,6.94,6.94,0,0,1-.92,2,4.36,4.36,0,0,1-1.24,1.23,4.19,4.19,0,0,1-1.33.52,7.21,7.21,0,0,1-1.45.1ZM202,140h.92a5,5,0,0,0,1.41-.14,2.33,2.33,0,0,0,1-.72,4.68,4.68,0,0,0,.8-1.52,6.64,6.64,0,0,0,.34-2.24,3.94,3.94,0,0,0-.28-1.66,1.52,1.52,0,0,0-.74-.81,3.12,3.12,0,0,0-1.16-.15h-1Z"/><path d="M214.88,138.48h-4.33v.2a2,2,0,0,0,.37,1.25,1.09,1.09,0,0,0,.88.47c.57,0,1-.36,1.34-1.09l1.54.32a3.83,3.83,0,0,1-1.2,1.7,2.75,2.75,0,0,1-1.7.56,2.56,2.56,0,0,1-2.06-1,3.91,3.91,0,0,1-.83-2.63,5.4,5.4,0,0,1,.94-3.16,3,3,0,0,1,2.62-1.37,2.27,2.27,0,0,1,1.84.86,3.87,3.87,0,0,1,.71,2.49A7.06,7.06,0,0,1,214.88,138.48Zm-1.46-1.28V137a2.22,2.22,0,0,0-.32-1.31,1,1,0,0,0-.85-.42,1.26,1.26,0,0,0-1,.49,2.9,2.9,0,0,0-.57,1.45Z"/><path d="M215.29,139.54l1.67-.32a1.86,1.86,0,0,0,.56.92,1.43,1.43,0,0,0,.89.26,1.39,1.39,0,0,0,.87-.26.74.74,0,0,0,.33-.6.58.58,0,0,0-.14-.39,2.23,2.23,0,0,0-.71-.38,6.84,6.84,0,0,1-1.91-1,2,2,0,0,1-.6-1.51,2.35,2.35,0,0,1,.78-1.81,3,3,0,0,1,2.12-.71,2.35,2.35,0,0,1,2.65,2l-1.58.34a1.25,1.25,0,0,0-1.34-.92,1.16,1.16,0,0,0-.75.2.65.65,0,0,0-.26.52.59.59,0,0,0,.2.45,4,4,0,0,0,1,.44,4.9,4.9,0,0,1,1.66.86,2,2,0,0,1,.62,1.48,2.62,2.62,0,0,1-.79,2,3,3,0,0,1-2.12.77A2.89,2.89,0,0,1,215.29,139.54Z"/><path d="M223.69,133.94h1.73l-1.34,7.78h-1.72Zm.51-3h1.73l-.33,1.9h-1.72Z"/><path d="M225.68,142.14l1.83.32a.9.9,0,0,0,.24.69,1,1,0,0,0,.7.23,1.39,1.39,0,0,0,.75-.18,1.21,1.21,0,0,0,.45-.54,6.15,6.15,0,0,0,.32-1.46l.05-.36a2.6,2.6,0,0,1-1.84.91,1.89,1.89,0,0,1-1.54-.79,3.92,3.92,0,0,1-.6-2.38,7,7,0,0,1,.44-2.62,3.73,3.73,0,0,1,1.14-1.65,2.3,2.3,0,0,1,1.44-.55,1.88,1.88,0,0,1,1.14.4,2.62,2.62,0,0,1,.82,1.16l.22-1.38h1.62l-1,6.48a18.49,18.49,0,0,1-.55,2.62,2.65,2.65,0,0,1-1,1.41,3.41,3.41,0,0,1-1.84.42,3.1,3.1,0,0,1-2-.5,2.33,2.33,0,0,1-.76-1.91Zm2-3.77a2.38,2.38,0,0,0,.37,1.41.89.89,0,0,0,.76.41,1.21,1.21,0,0,0,.78-.33,2.64,2.64,0,0,0,.66-1.09,4.63,4.63,0,0,0,.29-1.64,2.3,2.3,0,0,0-.37-1.37,1,1,0,0,0-.83-.5,1.07,1.07,0,0,0-.72.31,2.9,2.9,0,0,0-.64,1.15A4.89,4.89,0,0,0,227.72,138.37Z"/><path d="M234.64,133.94h1.64l-.17,1a4.63,4.63,0,0,1,1.17-.93,2.46,2.46,0,0,1,1.09-.26,1.54,1.54,0,0,1,1.23.54,2.18,2.18,0,0,1,.46,1.46,12.89,12.89,0,0,1-.19,1.55l-.75,4.41h-1.73l.76-4.41a11.1,11.1,0,0,0,.16-1.19.89.89,0,0,0-.2-.64.66.66,0,0,0-.52-.22,1.15,1.15,0,0,0-.71.28,2.54,2.54,0,0,0-.79.94,9.06,9.06,0,0,0-.51,2l-.55,3.2h-1.72Z"/><path d="M250,141.72h-1.64l.16-.85a3,3,0,0,1-.92.79,2,2,0,0,1-1,.23,1.85,1.85,0,0,1-1.55-.81,4.11,4.11,0,0,1-.61-2.45,6.6,6.6,0,0,1,.88-3.4,2.55,2.55,0,0,1,2.23-1.47,2,2,0,0,1,1.9,1.24l.72-4h1.73Zm-3.85-3.17a2.17,2.17,0,0,0,.34,1.31,1,1,0,0,0,.81.46,1.21,1.21,0,0,0,.78-.32,2.62,2.62,0,0,0,.65-1.12,5,5,0,0,0,.28-1.66,2.42,2.42,0,0,0-.36-1.4,1,1,0,0,0-.83-.51,1.12,1.12,0,0,0-.73.33,2.74,2.74,0,0,0-.66,1.16A5.39,5.39,0,0,0,246.14,138.55Z"/><path d="M253.08,133.94h1.72l-1.33,7.78h-1.73Zm.5-3h1.73l-.33,1.9h-1.72Z"/><path d="M255.07,142.14l1.83.32a.94.94,0,0,0,.23.69,1,1,0,0,0,.7.23,1.39,1.39,0,0,0,.75-.18,1.17,1.17,0,0,0,.46-.54,7.39,7.39,0,0,0,.32-1.46l0-.36a2.6,2.6,0,0,1-1.83.91A1.88,1.88,0,0,1,256,141a3.85,3.85,0,0,1-.61-2.38,7.23,7.23,0,0,1,.44-2.62,3.82,3.82,0,0,1,1.15-1.65,2.3,2.3,0,0,1,1.43-.55,1.88,1.88,0,0,1,1.14.4,2.63,2.63,0,0,1,.83,1.16l.22-1.38h1.62l-1,6.48a18.11,18.11,0,0,1-.56,2.62,2.69,2.69,0,0,1-1,1.41,3.46,3.46,0,0,1-1.84.42,3.06,3.06,0,0,1-2-.5,2.33,2.33,0,0,1-.76-1.91Zm2-3.77a2.45,2.45,0,0,0,.36,1.41.9.9,0,0,0,.76.41,1.21,1.21,0,0,0,.78-.33,2.65,2.65,0,0,0,.67-1.09,4.63,4.63,0,0,0,.28-1.64,2.3,2.3,0,0,0-.36-1.37,1,1,0,0,0-.84-.5,1.05,1.05,0,0,0-.71.31,2.89,2.89,0,0,0-.65,1.15A5.13,5.13,0,0,0,257.11,138.37Z"/><path d="M264,133.94h1.72l-1.33,7.78h-1.72Zm.51-3h1.73l-.33,1.9H264.2Z"/><path d="M266.44,135.5l.28-1.56h.9l.21-1.25,2-1.47-.49,2.72h1.09l-.27,1.56h-1.1l-.61,3.25q-.15.87-.15,1a.46.46,0,0,0,.14.38.67.67,0,0,0,.48.13,5.6,5.6,0,0,0,.59-.05l-.29,1.56a4.05,4.05,0,0,1-.92.1,1.87,1.87,0,0,1-1.34-.41,1.53,1.53,0,0,1-.45-1.2,13.51,13.51,0,0,1,.23-1.65l.58-3.13Z"/><path d="M272.63,136.14l-1.69-.17a2.94,2.94,0,0,1,1.05-1.64,3,3,0,0,1,1.89-.57,2.55,2.55,0,0,1,1.79.58,2,2,0,0,1,.63,1.53,4.66,4.66,0,0,1-.06.72c0,.25-.19.94-.44,2.06a10.64,10.64,0,0,0-.32,1.95,4,4,0,0,0,.18,1.12h-1.72a4.34,4.34,0,0,1-.13-.89,2.71,2.71,0,0,1-.84.79,1.94,1.94,0,0,1-1,.27,1.57,1.57,0,0,1-1.26-.61,2.49,2.49,0,0,1-.51-1.64,2.56,2.56,0,0,1,.6-1.82,3.09,3.09,0,0,1,2-.77,6.34,6.34,0,0,0,1.64-.3,2.3,2.3,0,0,0,.14-.71.75.75,0,0,0-.24-.57,1,1,0,0,0-.66-.21A1,1,0,0,0,272.63,136.14Zm1.58,2a2.23,2.23,0,0,1-.41.1,3.51,3.51,0,0,0-1.55.47,1,1,0,0,0-.38.79.88.88,0,0,0,.22.63.68.68,0,0,0,.54.24,1.23,1.23,0,0,0,.65-.2,1.54,1.54,0,0,0,.51-.56,5.77,5.77,0,0,0,.36-1.19Z"/><path d="M277.06,141.72,278.9,131h1.72l-1.84,10.74Z"/><path d="M289.63,141.72H288l.15-.85a2.9,2.9,0,0,1-.91.79,2,2,0,0,1-1,.23,1.88,1.88,0,0,1-1.56-.81,4.11,4.11,0,0,1-.6-2.45,6.59,6.59,0,0,1,.87-3.4,2.57,2.57,0,0,1,2.24-1.47,2.05,2.05,0,0,1,1.9,1.24l.72-4h1.72Zm-3.84-3.17a2.25,2.25,0,0,0,.33,1.31,1,1,0,0,0,.82.46,1.18,1.18,0,0,0,.77-.32,2.62,2.62,0,0,0,.66-1.12,5.21,5.21,0,0,0,.28-1.66,2.42,2.42,0,0,0-.36-1.4,1,1,0,0,0-.83-.51,1.14,1.14,0,0,0-.74.33,2.64,2.64,0,0,0-.65,1.16A5.39,5.39,0,0,0,285.79,138.55Z"/><path d="M297.59,138.48h-4.32v.2a2,2,0,0,0,.36,1.25,1.11,1.11,0,0,0,.88.47c.57,0,1-.36,1.34-1.09l1.55.32a3.92,3.92,0,0,1-1.21,1.7,2.75,2.75,0,0,1-1.69.56,2.59,2.59,0,0,1-2.07-1,3.91,3.91,0,0,1-.83-2.63,5.48,5.48,0,0,1,.94-3.16,3,3,0,0,1,2.62-1.37,2.3,2.3,0,0,1,1.85.86,3.87,3.87,0,0,1,.7,2.49A7.06,7.06,0,0,1,297.59,138.48Zm-1.45-1.28V137a2.15,2.15,0,0,0-.32-1.31,1,1,0,0,0-.85-.42,1.23,1.23,0,0,0-1,.49,2.81,2.81,0,0,0-.58,1.45Z"/><path d="M298,139.54l1.66-.32a1.94,1.94,0,0,0,.56.92,1.45,1.45,0,0,0,.89.26,1.39,1.39,0,0,0,.87-.26.74.74,0,0,0,.33-.6.58.58,0,0,0-.14-.39,2.15,2.15,0,0,0-.7-.38,7.12,7.12,0,0,1-1.92-1,2,2,0,0,1-.6-1.51,2.35,2.35,0,0,1,.78-1.81,3.05,3.05,0,0,1,2.12-.71,2.36,2.36,0,0,1,2.66,2l-1.59.34a1.24,1.24,0,0,0-1.34-.92,1.16,1.16,0,0,0-.75.2.65.65,0,0,0-.26.52.59.59,0,0,0,.2.45,4.19,4.19,0,0,0,1,.44,4.8,4.8,0,0,1,1.66.86,2,2,0,0,1,.63,1.48,2.63,2.63,0,0,1-.8,2,2.94,2.94,0,0,1-2.12.77A2.87,2.87,0,0,1,298,139.54Z"/><path d="M310.92,136.14l-1.68-.17a2.94,2.94,0,0,1,1.05-1.64,3,3,0,0,1,1.89-.57,2.57,2.57,0,0,1,1.79.58,2,2,0,0,1,.63,1.53,4.66,4.66,0,0,1-.06.72c0,.25-.19.94-.44,2.06a10.64,10.64,0,0,0-.32,1.95,4.36,4.36,0,0,0,.17,1.12h-1.71a4.34,4.34,0,0,1-.13-.89,2.63,2.63,0,0,1-.85.79,1.87,1.87,0,0,1-.94.27,1.57,1.57,0,0,1-1.26-.61,2.49,2.49,0,0,1-.51-1.64,2.56,2.56,0,0,1,.6-1.82,3.09,3.09,0,0,1,2-.77,6.45,6.45,0,0,0,1.65-.3,2.64,2.64,0,0,0,.14-.71.75.75,0,0,0-.24-.57,1,1,0,0,0-.66-.21A1,1,0,0,0,310.92,136.14Zm1.59,2a2.46,2.46,0,0,1-.41.1,3.47,3.47,0,0,0-1.55.47,1,1,0,0,0-.38.79.92.92,0,0,0,.21.63.71.71,0,0,0,.54.24,1.24,1.24,0,0,0,.66-.2,1.43,1.43,0,0,0,.5-.56,5.12,5.12,0,0,0,.37-1.19Z"/><path d="M319.66,138.79l1.67.33a4.2,4.2,0,0,1-1.24,2.08,2.8,2.8,0,0,1-1.86.69,2.42,2.42,0,0,1-1.92-.86,3.69,3.69,0,0,1-.73-2.46,6.19,6.19,0,0,1,.49-2.54,3.91,3.91,0,0,1,1.34-1.69,3.12,3.12,0,0,1,1.81-.58,2.44,2.44,0,0,1,1.78.69,2.91,2.91,0,0,1,.78,1.91l-1.64.22c-.08-.85-.42-1.27-1-1.27a1.27,1.27,0,0,0-.82.34,2.78,2.78,0,0,0-.7,1.23,5.76,5.76,0,0,0-.31,1.94,1.76,1.76,0,0,0,.28,1.06.83.83,0,0,0,.68.37,1.18,1.18,0,0,0,.8-.35A2.53,2.53,0,0,0,319.66,138.79Z"/><path d="M322.52,135.5l.28-1.56h.89l.22-1.25,2-1.47-.5,2.72h1.09l-.26,1.56h-1.11l-.6,3.25a9.05,9.05,0,0,0-.16,1,.49.49,0,0,0,.14.38.67.67,0,0,0,.48.13,5.6,5.6,0,0,0,.59-.05l-.28,1.56a4.12,4.12,0,0,1-.92.1,1.91,1.91,0,0,1-1.35-.41,1.53,1.53,0,0,1-.45-1.2,12.33,12.33,0,0,1,.24-1.65l.57-3.13Z"/><path d="M327.46,133.94h1.73l-.79,4.59a8.61,8.61,0,0,0-.13,1,.87.87,0,0,0,.2.6.65.65,0,0,0,.51.24,1.15,1.15,0,0,0,.69-.25,2.57,2.57,0,0,0,.76-.9,6.39,6.39,0,0,0,.48-1.61l.69-3.7h1.73l-1.44,7.78h-1.62l.19-1.06a3,3,0,0,1-2.27,1.23,1.51,1.51,0,0,1-1.22-.54,2.17,2.17,0,0,1-.46-1.48,12,12,0,0,1,.21-1.6Z"/><path d="M336.22,136.14l-1.69-.17a2.94,2.94,0,0,1,1.05-1.64,3,3,0,0,1,1.89-.57,2.57,2.57,0,0,1,1.79.58,2,2,0,0,1,.63,1.53,4.66,4.66,0,0,1-.06.72c0,.25-.19.94-.44,2.06a10.64,10.64,0,0,0-.32,1.95,4.36,4.36,0,0,0,.17,1.12h-1.71a4.34,4.34,0,0,1-.13-.89,2.63,2.63,0,0,1-.85.79,1.87,1.87,0,0,1-.94.27,1.57,1.57,0,0,1-1.26-.61,2.49,2.49,0,0,1-.51-1.64,2.56,2.56,0,0,1,.6-1.82,3.09,3.09,0,0,1,2-.77,6.45,6.45,0,0,0,1.65-.3,2.64,2.64,0,0,0,.14-.71.75.75,0,0,0-.24-.57,1,1,0,0,0-.66-.21A1,1,0,0,0,336.22,136.14Zm1.58,2a2.46,2.46,0,0,1-.41.1,3.47,3.47,0,0,0-1.55.47,1,1,0,0,0-.38.79.92.92,0,0,0,.21.63.72.72,0,0,0,.55.24,1.23,1.23,0,0,0,.65-.2,1.43,1.43,0,0,0,.5-.56,5.12,5.12,0,0,0,.37-1.19Z"/><path d="M340.65,141.72,342.48,131h1.73l-1.84,10.74Z"/><path d="M345.38,133.94h1.72l-1.34,7.78H344Zm.5-3h1.73l-.33,1.9h-1.72Z"/><path d="M347.81,135.5l.28-1.56H349l.22-1.25,2-1.47-.49,2.72h1.09l-.26,1.56h-1.11l-.6,3.25a9.05,9.05,0,0,0-.16,1,.49.49,0,0,0,.14.38.67.67,0,0,0,.48.13,5.6,5.6,0,0,0,.59-.05l-.28,1.56a4.14,4.14,0,0,1-.93.1,1.89,1.89,0,0,1-1.34-.41,1.53,1.53,0,0,1-.45-1.2,12.33,12.33,0,0,1,.24-1.65l.57-3.13Z"/><path d="M357.76,138.48h-4.33v.2a1.94,1.94,0,0,0,.37,1.25,1.09,1.09,0,0,0,.88.47c.56,0,1-.36,1.34-1.09l1.54.32a3.76,3.76,0,0,1-1.21,1.7,2.71,2.71,0,0,1-1.69.56,2.59,2.59,0,0,1-2.07-1,4,4,0,0,1-.82-2.63,5.4,5.4,0,0,1,.94-3.16,3,3,0,0,1,2.62-1.37,2.27,2.27,0,0,1,1.84.86,3.87,3.87,0,0,1,.71,2.49A7.06,7.06,0,0,1,357.76,138.48Zm-1.46-1.28V137a2.22,2.22,0,0,0-.32-1.31,1,1,0,0,0-.85-.42,1.26,1.26,0,0,0-1,.49,2.9,2.9,0,0,0-.57,1.45Zm-.78-6.44h1.85l-2,2.2h-1.14Z"/><path d="M358.17,139.54l1.67-.32a1.86,1.86,0,0,0,.56.92,1.43,1.43,0,0,0,.89.26,1.39,1.39,0,0,0,.87-.26.74.74,0,0,0,.33-.6.58.58,0,0,0-.14-.39,2.23,2.23,0,0,0-.71-.38,7.12,7.12,0,0,1-1.92-1,2,2,0,0,1-.59-1.51,2.35,2.35,0,0,1,.78-1.81,3,3,0,0,1,2.12-.71,2.35,2.35,0,0,1,2.65,2l-1.59.34a1.23,1.23,0,0,0-1.33-.92,1.16,1.16,0,0,0-.75.2.65.65,0,0,0-.26.52.59.59,0,0,0,.2.45,4,4,0,0,0,1,.44,4.9,4.9,0,0,1,1.66.86,2,2,0,0,1,.62,1.48,2.62,2.62,0,0,1-.79,2,3,3,0,0,1-2.12.77A2.89,2.89,0,0,1,358.17,139.54Z"/><path d="M204.12,156.79l1.67.33a4.26,4.26,0,0,1-1.23,2.08,2.83,2.83,0,0,1-1.87.69,2.38,2.38,0,0,1-1.91-.86,3.69,3.69,0,0,1-.74-2.46,6.19,6.19,0,0,1,.5-2.54,3.84,3.84,0,0,1,1.34-1.69,3.09,3.09,0,0,1,1.8-.58,2.4,2.4,0,0,1,1.78.69,2.86,2.86,0,0,1,.79,1.91l-1.64.22c-.08-.85-.42-1.27-1-1.27a1.25,1.25,0,0,0-.82.34,2.88,2.88,0,0,0-.71,1.23,6,6,0,0,0-.3,1.94,1.7,1.7,0,0,0,.28,1.06.83.83,0,0,0,.68.37,1.18,1.18,0,0,0,.8-.35A2.43,2.43,0,0,0,204.12,156.79Z"/><path d="M207.84,151.94h1.73l-.79,4.59a9.65,9.65,0,0,0-.14,1,.88.88,0,0,0,.21.6.62.62,0,0,0,.5.24,1.15,1.15,0,0,0,.69-.25,2.47,2.47,0,0,0,.76-.9,6,6,0,0,0,.48-1.61l.69-3.7h1.73l-1.44,7.78h-1.62l.19-1.06a3,3,0,0,1-2.27,1.23,1.51,1.51,0,0,1-1.22-.54,2.22,2.22,0,0,1-.45-1.48,13.3,13.3,0,0,1,.2-1.6Z"/><path d="M214.18,159.72,216,149h1.73l-1.85,10.74Z"/><path d="M217.92,153.5l.28-1.56h.89l.22-1.25,2-1.47-.5,2.72h1.09l-.26,1.56h-1.11l-.6,3.25c-.1.58-.16.92-.16,1a.49.49,0,0,0,.14.38.67.67,0,0,0,.48.13,5.91,5.91,0,0,0,.6-.05l-.29,1.56a4.05,4.05,0,0,1-.92.1,1.91,1.91,0,0,1-1.35-.41,1.53,1.53,0,0,1-.44-1.2,11.67,11.67,0,0,1,.23-1.65l.57-3.13Z"/><path d="M222.86,151.94h1.73l-.78,4.59a7.47,7.47,0,0,0-.14,1,.92.92,0,0,0,.2.6.65.65,0,0,0,.51.24,1.15,1.15,0,0,0,.69-.25,2.47,2.47,0,0,0,.76-.9,6,6,0,0,0,.48-1.61l.69-3.7h1.73l-1.44,7.78h-1.62l.19-1.06a3,3,0,0,1-2.27,1.23,1.51,1.51,0,0,1-1.22-.54,2.22,2.22,0,0,1-.45-1.48,11.43,11.43,0,0,1,.2-1.6Z"/><path d="M230.38,151.94H232l-.26,1.51c.6-1.13,1.26-1.69,2-1.69a1.9,1.9,0,0,1,.81.22l-.66,1.72a1.44,1.44,0,0,0-.5-.1,1.22,1.22,0,0,0-.76.27,2.74,2.74,0,0,0-.83,1.09,11,11,0,0,0-.58,2.32l-.42,2.44h-1.72Z"/><path d="M240.17,156.48h-4.33v.2a2,2,0,0,0,.37,1.25,1.09,1.09,0,0,0,.88.47c.56,0,1-.36,1.34-1.09l1.54.32a3.76,3.76,0,0,1-1.21,1.7,2.71,2.71,0,0,1-1.69.56,2.59,2.59,0,0,1-2.07-1,4,4,0,0,1-.82-2.63,5.4,5.4,0,0,1,.94-3.16,3,3,0,0,1,2.62-1.37,2.27,2.27,0,0,1,1.84.86,3.87,3.87,0,0,1,.71,2.49A7.06,7.06,0,0,1,240.17,156.48Zm-1.46-1.28V155a2.22,2.22,0,0,0-.32-1.31,1,1,0,0,0-.85-.42,1.26,1.26,0,0,0-1,.49,2.9,2.9,0,0,0-.57,1.45Z"/><path d="M240.83,159.72,242.67,149h1.73l-1.85,10.74Z"/><path d="M244.25,159.72,246.09,149h1.73L246,159.72Z"/><path d="M253.85,156.48h-4.33v.2a2,2,0,0,0,.37,1.25,1.09,1.09,0,0,0,.88.47c.57,0,1-.36,1.34-1.09l1.55.32a3.92,3.92,0,0,1-1.21,1.7,2.75,2.75,0,0,1-1.69.56,2.58,2.58,0,0,1-2.07-1,3.91,3.91,0,0,1-.83-2.63,5.4,5.4,0,0,1,.94-3.16,3,3,0,0,1,2.62-1.37,2.27,2.27,0,0,1,1.84.86,3.87,3.87,0,0,1,.71,2.49A7.06,7.06,0,0,1,253.85,156.48Zm-1.45-1.28V155a2.22,2.22,0,0,0-.32-1.31,1,1,0,0,0-.85-.42,1.23,1.23,0,0,0-.95.49,2.81,2.81,0,0,0-.58,1.45Z"/><path d="M254.26,157.54l1.67-.32a1.86,1.86,0,0,0,.56.92,1.43,1.43,0,0,0,.89.26,1.39,1.39,0,0,0,.87-.26.74.74,0,0,0,.33-.6.58.58,0,0,0-.14-.39,2.12,2.12,0,0,0-.71-.38,6.84,6.84,0,0,1-1.91-1,2,2,0,0,1-.6-1.51,2.35,2.35,0,0,1,.78-1.81,3,3,0,0,1,2.12-.71,2.35,2.35,0,0,1,2.65,2l-1.58.34a1.25,1.25,0,0,0-1.34-.92,1.16,1.16,0,0,0-.75.2.65.65,0,0,0-.26.52.59.59,0,0,0,.2.45,4,4,0,0,0,1,.44,4.8,4.8,0,0,1,1.66.86,2,2,0,0,1,.63,1.48,2.63,2.63,0,0,1-.8,2,3,3,0,0,1-2.12.77A2.89,2.89,0,0,1,254.26,157.54Z"/><path d="M266,151.94h1.64l-.14.8a3.67,3.67,0,0,1,1-.76,2,2,0,0,1,.93-.22,1.85,1.85,0,0,1,1.58.84,4.2,4.2,0,0,1,.61,2.51,5.9,5.9,0,0,1-1.07,3.59,2.53,2.53,0,0,1-2.07,1.19,2,2,0,0,1-1.88-1.24l-.7,4h-1.72Zm1,4.46a2.38,2.38,0,0,0,.36,1.42,1,1,0,0,0,.83.5A1.15,1.15,0,0,0,269,158a2.75,2.75,0,0,0,.65-1.18,5.31,5.31,0,0,0,.3-1.77,2.2,2.2,0,0,0-.34-1.33,1,1,0,0,0-.83-.46,1.13,1.13,0,0,0-.76.31,2.59,2.59,0,0,0-.66,1.14A5.13,5.13,0,0,0,267.05,156.4Z"/><path d="M272.52,156.49a5.87,5.87,0,0,1,.87-3.26,3.11,3.11,0,0,1,2.77-1.47,2.73,2.73,0,0,1,2.17.93,3.75,3.75,0,0,1,.81,2.57,5.33,5.33,0,0,1-1,3.28,3.14,3.14,0,0,1-2.64,1.35,2.76,2.76,0,0,1-2.15-.91A3.58,3.58,0,0,1,272.52,156.49Zm4.92-1.5a1.79,1.79,0,0,0-.37-1.21,1.12,1.12,0,0,0-.92-.44,1.45,1.45,0,0,0-.88.32,2.71,2.71,0,0,0-.72,1.12,4.66,4.66,0,0,0-.31,1.66,2.15,2.15,0,0,0,.38,1.35,1.16,1.16,0,0,0,.94.48,1.39,1.39,0,0,0,1.19-.74A4.46,4.46,0,0,0,277.44,155Z"/><path d="M281,151.94h1.73l-.78,4.59a7.47,7.47,0,0,0-.14,1,.92.92,0,0,0,.2.6.65.65,0,0,0,.51.24,1.15,1.15,0,0,0,.69-.25,2.47,2.47,0,0,0,.76-.9,6,6,0,0,0,.48-1.61l.69-3.7h1.73l-1.44,7.78h-1.62l.19-1.06a3,3,0,0,1-2.27,1.23,1.51,1.51,0,0,1-1.22-.54,2.22,2.22,0,0,1-.46-1.48,12,12,0,0,1,.21-1.6Z"/><path d="M288.49,151.94h1.61l-.25,1.51c.6-1.13,1.26-1.69,2-1.69a1.9,1.9,0,0,1,.81.22L292,153.7a1.44,1.44,0,0,0-.5-.1,1.22,1.22,0,0,0-.76.27,2.65,2.65,0,0,0-.83,1.09,11,11,0,0,0-.58,2.32l-.42,2.44h-1.72Z"/><path d="M295.52,159.72,297.36,149h1.73l-1.85,10.74Z"/><path d="M305.12,156.48h-4.33v.2a1.94,1.94,0,0,0,.37,1.25,1.09,1.09,0,0,0,.88.47c.56,0,1-.36,1.34-1.09l1.54.32a3.76,3.76,0,0,1-1.21,1.7,2.71,2.71,0,0,1-1.69.56,2.59,2.59,0,0,1-2.07-1,3.91,3.91,0,0,1-.82-2.63,5.4,5.4,0,0,1,.94-3.16,3,3,0,0,1,2.62-1.37,2.27,2.27,0,0,1,1.84.86,3.87,3.87,0,0,1,.71,2.49A7.06,7.06,0,0,1,305.12,156.48Zm-1.46-1.28V155a2.14,2.14,0,0,0-.33-1.31,1,1,0,0,0-.84-.42,1.26,1.26,0,0,0-1,.49,2.9,2.9,0,0,0-.57,1.45Z"/><path d="M309,157.54l1.67-.32a1.86,1.86,0,0,0,.56.92,1.43,1.43,0,0,0,.89.26,1.39,1.39,0,0,0,.87-.26.74.74,0,0,0,.33-.6.58.58,0,0,0-.14-.39,2.23,2.23,0,0,0-.71-.38,6.84,6.84,0,0,1-1.91-1,2,2,0,0,1-.6-1.51,2.35,2.35,0,0,1,.78-1.81,3,3,0,0,1,2.12-.71,2.35,2.35,0,0,1,2.65,2l-1.59.34a1.23,1.23,0,0,0-1.33-.92,1.16,1.16,0,0,0-.75.2.65.65,0,0,0-.26.52.59.59,0,0,0,.2.45,4,4,0,0,0,1,.44,4.9,4.9,0,0,1,1.66.86,2,2,0,0,1,.62,1.48,2.62,2.62,0,0,1-.79,2,3,3,0,0,1-2.12.77A2.89,2.89,0,0,1,309,157.54Z"/><path d="M317.21,151.94h1.73l-.78,4.59a7.47,7.47,0,0,0-.14,1,.92.92,0,0,0,.2.6.65.65,0,0,0,.51.24,1.15,1.15,0,0,0,.69-.25,2.57,2.57,0,0,0,.76-.9,6,6,0,0,0,.48-1.61l.69-3.7h1.73l-1.44,7.78H320l.19-1.06a3,3,0,0,1-2.27,1.23,1.51,1.51,0,0,1-1.22-.54,2.22,2.22,0,0,1-.46-1.48,12,12,0,0,1,.21-1.6Z"/><path d="M324.89,151.94h1.72l-1.13,6.58a14.51,14.51,0,0,1-.82,3.42,1.79,1.79,0,0,1-1.69.93,3.3,3.3,0,0,1-1.27-.23l.27-1.74a2.23,2.23,0,0,0,.7.13.64.64,0,0,0,.58-.36,10.36,10.36,0,0,0,.53-2.28Zm.5-3h1.73l-.32,1.9h-1.73Z"/><path d="M333.16,156.48h-4.33v.2a1.94,1.94,0,0,0,.37,1.25,1.08,1.08,0,0,0,.87.47c.57,0,1-.36,1.35-1.09l1.54.32a3.84,3.84,0,0,1-1.21,1.7,2.73,2.73,0,0,1-1.69.56,2.59,2.59,0,0,1-2.07-1,3.91,3.91,0,0,1-.82-2.63,5.47,5.47,0,0,1,.93-3.16,3,3,0,0,1,2.63-1.37,2.28,2.28,0,0,1,1.84.86,3.87,3.87,0,0,1,.7,2.49A7.11,7.11,0,0,1,333.16,156.48Zm-1.46-1.28V155a2.14,2.14,0,0,0-.33-1.31,1,1,0,0,0-.84-.42,1.25,1.25,0,0,0-1,.49,2.73,2.73,0,0,0-.57,1.45Z"/><path d="M334.14,153.5l.28-1.56h.89l.22-1.25,2-1.47-.5,2.72h1.09l-.26,1.56h-1.11l-.6,3.25a9.05,9.05,0,0,0-.16,1,.49.49,0,0,0,.14.38.67.67,0,0,0,.48.13,5.91,5.91,0,0,0,.6-.05l-.29,1.56a4.12,4.12,0,0,1-.92.1,1.91,1.91,0,0,1-1.35-.41,1.53,1.53,0,0,1-.45-1.2,12.33,12.33,0,0,1,.24-1.65l.57-3.13Z"/></g></g></svg>