<?xml version="1.0" encoding="UTF-8"?><svg xmlns="http://www.w3.org/2000/svg" viewBox="0 0 274.4 282.62"><defs><style>.h,.i,.j,.k,.l{stroke:#000;}.h,.i,.j,.k,.l,.m{stroke-miterlimit:10;}.i{stroke-width:6px;}.i,.j,.l{fill:none;}.j{stroke-width:3px;}.k{stroke-width:8px;}.k,.m{fill:#fff;}.l{stroke-width:2px;}.m{stroke:#fff;}</style></defs><g id="a"/><g id="b"><g id="c"><path class="h" d="M135.15,45.41c-.59,1.53-1.15,3.22-1.65,5.07-.8,2.98-1.25,5.73-1.5,8.14-.08,.3-.31,7.26-1.64,12.33,.3,.08-11.09-5.15-14.09,1.41,0,0-1.16,3.2-.14,5.39,0,0,5.74,8.53,14.36,1.22,0,0,5.2-16.18,5.61-25.01,.14,.68,3.54,4.76,6.09,10.85,.22,.38,1.42,6.75-4.38,9.38,.3,.08,5.94-1.95,6.48-4.04,0,0,1.54-3.43,.83-6.8,.3,.08-6.59-12.58-6.56-15.12,.01-.4,0-.99-.21-1.65-.21-.71-.57-1.91-1.43-2.08-.88-.18-1.7,.83-1.77,.92Z"/><path class="m" d="M160.81,19.51c-.04,1.64,0,3.42,.14,5.33,.24,3.08,.74,5.82,1.31,8.17,.03,.31,2.14,6.94,2.58,12.17,.31-.03-12.17-1.14-12.81,6.04,0,0-.02,3.41,1.67,5.12,0,0,8.26,6.11,13.94-3.66,0,0-.51-16.99-3.08-25.44,.36,.59,4.93,3.3,9.37,8.19,.33,.28,3.6,5.89-.99,10.3,.31-.03,4.94-3.83,4.76-5.98,0,0,.3-3.74-1.5-6.69,.31-.03-10.42-9.65-11.24-12.06-.12-.38-.34-.93-.75-1.49-.43-.59-1.17-1.61-2.04-1.48-.89,.13-1.33,1.35-1.36,1.46Z"/><path class="m" d="M271.53,82.77c-1.31,.98-2.69,2.11-4.1,3.41-2.27,2.1-4.11,4.19-5.6,6.09-.23,.21-4.13,5.98-7.95,9.56,.21,.23-6.65-10.26-12.68-6.31,0,0-2.69,2.1-2.99,4.49,0,0,.32,10.27,11.51,8.67,0,0,13.02-10.93,18.06-18.19-.24,.65,.46,5.91-.62,12.42-.01,.44-2.39,6.47-8.7,5.61,.21,.23,6.06,1.51,7.64,.03,0,0,3.12-2.08,4.32-5.32,.21,.23,1.12-14.15,2.5-16.29,.23-.33,.52-.84,.7-1.51,.2-.71,.54-1.92-.1-2.52-.65-.62-1.88-.2-1.99-.17Z"/><path class="h" d="M3.69,16.38c.24,1.62,.58,3.37,1.06,5.23,.77,2.99,1.73,5.61,2.7,7.82,.08,.3,3.3,6.47,4.64,11.54,.3-.08-12.19,.98-11.57,8.16,0,0,.57,3.36,2.53,4.76,0,0,9.19,4.6,13.1-6.01,0,0-3.43-16.65-7.43-24.53,.46,.52,5.42,2.4,10.64,6.45,.38,.22,4.56,5.18,.81,10.32,.3-.08,4.21-4.62,3.66-6.71,0,0-.35-3.74-2.63-6.33,.3-.08-11.93-7.71-13.15-9.94-.18-.36-.49-.85-.99-1.33-.53-.51-1.43-1.38-2.27-1.11-.85,.28-1.07,1.56-1.09,1.67Z"/></g><g id="d"><path d="M229.35,34.11s1.86-3.72,8.68-4.96c0,0,8.06,0,11.78,4.34,0,0,3.72,3.72,3.72,8.06,0,0,.62,6.2-4.96,11.78,0,0-19.84-18.6-19.22-19.22Z"/><path d="M228.11,35.97s-1.86,4.34-1.86,9.3l11.16,11.16s8.68-1.24,9.3-1.86c0,0-19.22-17.98-18.6-18.6Z"/><path d="M225.01,47.75l9.92,9.92-34.1,30.38s-.77,.62-1.93,0l-4.27-4.34s-.62-1.07,0-2.39c0-.17,30.38-33.57,30.38-33.57Z"/><polygon points="193.39 84.33 198.35 89.29 194.63 91.15 191.26 87.74 193.39 84.33"/></g><g id="e"><path class="i" d="M4.43,137.08s76.86-10.48,117.92,39.59c.52,0,32.62-47.74,118.44-39.59v107.23s-60.5-4.76-87.23,17.37l-28.14,17.47c-9.94-5.46-19.87-10.92-29.81-16.38-6.93-3.97-15.68-8.15-26.29-11.56-26.73-8.59-51-7.67-64.89-6.15,0,.64,0-107.97,0-107.97Z"/><path class="i" d="M19.2,139.31s67.25-9.95,103.18,37.58c.46,0,28.54-45.31,103.64-37.58v101.78s-52.94-4.51-76.33,16.48l-24.62,16.58c-8.69-5.18-17.39-10.37-26.08-15.55-6.07-3.76-13.72-7.74-23-10.97-23.39-8.15-44.62-7.28-56.78-5.84,0,.61,0-102.48,0-102.48Z"/><path class="i" d="M33.07,140.41s58.23-9.59,89.34,36.24c.39,0,24.71-43.7,89.74-36.24v98.16s-45.84-4.35-66.09,15.9l-21.32,15.99c-7.53-5-15.06-10-22.59-15-5.25-3.63-11.88-7.46-19.92-10.58-20.25-7.86-38.64-7.02-49.17-5.63,0,.59,0-98.84,0-98.84Z"/><line class="k" x1="122.61" y1="177.25" x2="123.75" y2="271.37"/></g><g id="f"><path class="l" d="M19.96,45.22L63.4,1.66s1.57-1.26,3.15-.3l5.12,5.19s1.19,.87-.1,2.6L33.61,46.88l-8.39,5.99-5.26-5.43s-.95-1.02,0-2.22Z"/><circle cx="26.08" cy="48.94" r="1.17"/><circle cx="29.94" cy="54.81" r="1.17"/><path class="l" d="M34.39,48.05l45.71-27.43s1.61-.64,2.49,.82l21.28,35.46s.34,1.12-.59,2.34l-53.29,31.98s-1.61,.64-2.49-.82L26.37,55.17s-.29-.49-.34-1.12l8.36-6.01Z"/><line class="l" x1="23.95" y1="41.22" x2="35.75" y2="44.5"/><line class="l" x1="29.09" y1="36.06" x2="41.19" y2="39.35"/><line class="l" x1="34.4" y1="30.75" x2="47.09" y2="33.95"/><line class="l" x1="39.93" y1="25.2" x2="51.88" y2="28.72"/><line class="l" x1="45.17" y1="19.94" x2="57.57" y2="23.56"/><path class="l" d="M50.41,14.69c.04-.16,11.81,3.75,11.81,3.75"/><path class="l" d="M55.19,9.9c.27-.08,11.96,3.65,11.96,3.65"/><line class="l" x1="60.6" y1="4.47" x2="72.17" y2="7.69"/><line class="l" x1="36.56" y1="47.09" x2="37.26" y2="57.92"/><line class="l" x1="30.39" y1="62.38" x2="86.84" y2="28.51"/><line class="l" x1="42.89" y1="42.95" x2="43.14" y2="54.39"/><line class="l" x1="49.01" y1="39.61" x2="49.61" y2="50.86"/><line class="l" x1="55.5" y1="35.72" x2="56.03" y2="46.66"/><line class="l" x1="61.73" y1="31.98" x2="62.35" y2="42.86"/><line class="l" x1="67.88" y1="28.29" x2="68.83" y2="38.97"/><line class="l" x1="73.92" y1="24.32" x2="74.87" y2="35.35"/><line class="l" x1="81.24" y1="20.95" x2="81.57" y2="31.66"/><line class="j" x1="42.53" y1="64.99" x2="81.88" y2="41.37"/><line class="j" x1="47.13" y1="72.66" x2="86.62" y2="48.96"/><line class="j" x1="51.67" y1="80.22" x2="91.15" y2="56.52"/></g><g id="g"><g><path d="M6.76,98.17v-2.55H39.01v2.55H6.76Zm0,9.95v-9.95h6.4c-1.43,0-2.43,.3-3,.9-.57,.6-.85,1.68-.85,3.25v5.8h-2.55Zm5.95,21.6v-2.4h7.7v-31.7h5v31.7h7.7v2.4H12.71Zm23.75-27.4c0-1.57-.28-2.65-.83-3.25s-1.56-.9-3.02-.9h6.4v9.95h-2.55v-5.8Z"/><path d="M42.25,129.72v-2.4h5.45v-29.3h-5.35v-2.4h15.7v2.4h-5.35v29.3h5.45v2.4h-15.9Z"/><path d="M60.45,129.72v-2.4h5v-29.3h-4.9v-2.4h7.7v31.7h5.45v2.4h-13.25Zm20.15,0l-12.35-27.55v-6.55h2.25l13.05,29.3h-.85l12.8-29.3h.35v6.05l-12.25,28.05h-3Zm9.8,0v-2.4h5.45v-31.7h9.8v2.4h-4.9v29.3h5v2.4h-15.35Z"/><path d="M109.75,127.36l21.9-29.2,6.2-.15-21.85,29.1-6.25,.25Zm0,2.35v-2.35l6.25-.25h21.6v2.6h-27.85Zm1.15-31.55v-2.55h26.95v2.4l-6.2,.15h-20.75Zm0,10.4v-10.4h6.4c-1.43,0-2.43,.3-3,.9-.57,.6-.85,1.68-.85,3.25v6.25h-2.55Zm20.3,18.55c1.47,0,2.48-.3,3.02-.9,.55-.6,.83-1.65,.83-3.15v-6.75h2.55v10.8h-6.4Z"/><path d="M141.9,129.72v-2.4h5.45v-29.3h-5.35v-2.4h15.7v2.4h-5.35v29.3h5.45v2.4h-15.9Z"/><path d="M160.1,129.72v-2.4h5v-29.3h-4.9v-2.4h8.5l-.8,6.7v25h5.45v2.4h-13.25Zm29.25,0l-21.45-27.4,.8-6.7,20.7,26.5-.05,7.6Zm0,0l-.15-7.6h.2v-24.1h-5.35v-2.4h12.9v2.4h-4.75v31.7h-2.85Z"/><path d="M198.3,129.72v-2.4h5v-29.3h-4.9v-2.4h9.9v34.1h-10Zm10-31.55v-2.55h19.85v2.55h-19.85Zm0,15.05v-2.55h11.4v2.55h-11.4Zm0,16.5v-2.6h20.2v2.6h-20.2Zm5.4-19.05c1.37,0,2.32-.29,2.85-.88,.53-.58,.8-1.59,.8-3.03v-4.05h2.35v7.95h-6Zm3.65,6.45c0-1.43-.27-2.44-.8-3.02-.53-.58-1.48-.88-2.85-.88h6v9.15h-2.35v-5.25Zm8.25-14.8c0-1.57-.28-2.65-.85-3.25-.57-.6-1.58-.9-3.05-.9h6.45v10.2h-2.55v-6.05Zm-3.5,24.8c1.47,0,2.47-.3,3.02-.9s.83-1.67,.83-3.2v-6.5h2.55v10.6h-6.4Z"/></g></g></g></svg>