<?xml version="1.0" encoding="UTF-8"?><svg xmlns="http://www.w3.org/2000/svg" viewBox="0 0 94 94"><defs><style>.d{fill:#fff;}</style></defs><g id="a"/><g id="b"><g id="c"><circle cx="47" cy="47" r="47"/><path class="d" d="M67,31s6-2,6-3c0,0,0,2-3,6,0,0,4-1,4-2,0,1,0,2-4,6l-1,5c-.1,2.24-.75,10.72-7.56,18.07-6.81,7.35-15.21,8.65-17.44,8.93h-8s-11-2-13-5h6s6-1,9-4c0,0-10-3-9-8h3s-8-4-7-11c0,0,2,2,4,2,0,0-7-8-3-15,1.47,1.71,3.48,3.68,6.12,5.5,5.76,3.96,11.53,5.11,14.88,5.5,.33-1.25,.67-2.5,1-3.74,0,0,6-16.26,19-5.26Z"/></g></g></svg>