<svg xmlns="http://www.w3.org/2000/svg" viewBox="0 0 64 64"><defs><style>.cls-1{fill:#fff;}</style></defs><g id="Calque_2" data-name="Calque 2"><g id="Calque_1-2" data-name="Calque 1"><g id="Calque_2-2" data-name="Calque 2"><g id="Calque_1-2-2" data-name="Calque 1-2"><g id="_3-instagram" data-name=" 3-instagram"><rect width="64" height="64" rx="11.2"/><path class="cls-1" d="M44,56H20A12,12,0,0,1,8,44V20A12,12,0,0,1,20,8H44A12,12,0,0,1,56,20V44A12,12,0,0,1,44,56ZM20,12.8A7.22,7.22,0,0,0,12.8,20V44A7.22,7.22,0,0,0,20,51.2H44A7.22,7.22,0,0,0,51.2,44V20A7.22,7.22,0,0,0,44,12.8Z"/><path class="cls-1" d="M32,45.6A13.6,13.6,0,1,1,45.6,32h0A13.61,13.61,0,0,1,32,45.6Zm0-22.4A8.8,8.8,0,1,0,40.8,32,8.8,8.8,0,0,0,32,23.2Z"/><circle class="cls-1" cx="45.6" cy="19.2" r="2.4"/></g></g></g></g></g></svg>