<svg xmlns="http://www.w3.org/2000/svg" viewBox="0 0 128 128"><defs><style>.cls-1{fill:none;}.cls-2{fill-rule:evenodd;}</style></defs><g id="Calque_2" data-name="Calque 2"><g id="Social_Icons" data-name="Social Icons"><g id="_4_stroke" data-name="4 stroke"><g id="Youtube"><rect class="cls-1" width="128" height="128"/><path id="Youtube-2" data-name="Youtube" class="cls-2" d="M126.72,38.22s-1.25-8.88-5.09-12.79c-4.87-5.14-10.32-5.16-12.82-5.46C90.9,18.67,64,18.67,64,18.67H64s-26.87,0-44.78,1.3c-2.5.3-8,.32-12.83,5.46C2.53,29.34,1.28,38.22,1.28,38.22A196.58,196.58,0,0,0,0,59.09v9.78A196.26,196.26,0,0,0,1.28,89.73s1.25,8.88,5.08,12.8c4.88,5.13,11.27,5,14.12,5.51C30.72,109,64,109.33,64,109.33s26.9,0,44.81-1.34c2.5-.3,8-.33,12.82-5.46,3.84-3.92,5.09-12.8,5.09-12.8A196.26,196.26,0,0,0,128,68.87V59.09A196.58,196.58,0,0,0,126.72,38.22ZM50.78,80.72V44.5L85.36,62.67Z"/></g></g></g></g></svg>