<svg width="286" height="55" viewBox="0 0 286 55" fill="none" xmlns="http://www.w3.org/2000/svg">
<path d="M25.1224 7.31763C25.8707 5.01435 29.1293 5.01435 29.8776 7.31763L33.1128 17.2746C33.4475 18.3046 34.4074 19.002 35.4905 19.002H45.9598C48.3817 19.002 49.3886 22.1011 47.4293 23.5246L38.9594 29.6783C38.0832 30.3149 37.7166 31.4433 38.0512 32.4734L41.2865 42.4303C42.0348 44.7336 39.3986 46.6489 37.4393 45.2254L28.9695 39.0717C28.0932 38.4351 26.9068 38.4351 26.0305 39.0717L17.5606 45.2254C15.6014 46.6489 12.9652 44.7336 13.7135 42.4303L16.9488 32.4734C17.2834 31.4433 16.9168 30.3149 16.0406 29.6783L7.57069 23.5246C5.61141 22.1011 6.61835 19.002 9.04015 19.002H19.5095C20.5926 19.002 21.5525 18.3046 21.8871 17.2746L25.1224 7.31763Z" fill="#FFB053"/>
<path d="M257.122 7.31763C257.87 5.01435 261.129 5.01435 261.877 7.31763L265.113 17.2746C265.447 18.3046 266.407 19.002 267.49 19.002H277.96C280.381 19.002 281.388 22.1011 279.429 23.5246L270.959 29.6783C270.083 30.3149 269.716 31.4433 270.051 32.4734L273.286 42.4303C274.035 44.7336 271.398 46.6489 269.439 45.2254L260.969 39.0717C260.093 38.4351 258.907 38.4351 258.03 39.0717L249.56 45.2254C247.601 46.6489 244.965 44.7336 245.713 42.4303L248.949 32.4734C249.283 31.4433 248.917 30.3149 248.04 29.6783L239.57 23.5246C237.611 22.1011 238.618 19.002 241.04 19.002H251.509C252.592 19.002 253.552 18.3046 253.887 17.2746L257.122 7.31763Z" fill="#EFEFEF" fill-opacity="0.2"/>
<path fill-rule="evenodd" clip-rule="evenodd" d="M259 5.63855C258.18 5.79903 257.434 6.35872 257.122 7.31762L253.887 17.2746C253.552 18.3046 252.592 19.002 251.509 19.002H241.04C238.618 19.002 237.611 22.1011 239.57 23.5246L248.04 29.6783C248.917 30.3149 249.283 31.4433 248.949 32.4734L245.713 42.4303C244.965 44.7336 247.601 46.6489 249.56 45.2254L258.03 39.0717C258.326 38.8568 258.657 38.7145 259 38.6446V5.63855Z" fill="#FFB053"/>
<path d="M199.122 7.31763C199.871 5.01435 203.129 5.01435 203.878 7.31763L207.113 17.2746C207.448 18.3046 208.407 19.002 209.49 19.002H219.96C222.382 19.002 223.389 22.1011 221.429 23.5246L212.959 29.6783C212.083 30.3149 211.717 31.4433 212.051 32.4734L215.286 42.4303C216.035 44.7336 213.399 46.6489 211.439 45.2254L202.969 39.0717C202.093 38.4351 200.907 38.4351 200.031 39.0717L191.561 45.2254C189.601 46.6489 186.965 44.7336 187.714 42.4303L190.949 32.4734C191.283 31.4433 190.917 30.3149 190.041 29.6783L181.571 23.5246C179.611 22.1011 180.618 19.002 183.04 19.002H193.51C194.593 19.002 195.552 18.3046 195.887 17.2746L199.122 7.31763Z" fill="#FFB053"/>
<path d="M83.1224 7.31763C83.8707 5.01435 87.1293 5.01435 87.8776 7.31763L91.1128 17.2746C91.4475 18.3046 92.4074 19.002 93.4905 19.002H103.96C106.382 19.002 107.389 22.1011 105.429 23.5246L96.9594 29.6783C96.0832 30.3149 95.7166 31.4433 96.0512 32.4734L99.2865 42.4303C100.035 44.7336 97.3986 46.6489 95.4393 45.2254L86.9695 39.0717C86.0932 38.4351 84.9068 38.4351 84.0305 39.0717L75.5606 45.2254C73.6014 46.6489 70.9652 44.7336 71.7135 42.4303L74.9488 32.4734C75.2834 31.4433 74.9168 30.3149 74.0406 29.6783L65.5707 23.5246C63.6114 22.1011 64.6183 19.002 67.0402 19.002H77.5095C78.5926 19.002 79.5525 18.3046 79.8871 17.2746L83.1224 7.31763Z" fill="#FFB053"/>
<path d="M141.122 7.31763C141.871 5.01435 145.129 5.01435 145.878 7.31763L149.113 17.2746C149.448 18.3046 150.407 19.002 151.49 19.002H161.96C164.382 19.002 165.389 22.1011 163.429 23.5246L154.959 29.6783C154.083 30.3149 153.717 31.4433 154.051 32.4734L157.286 42.4303C158.035 44.7336 155.399 46.6489 153.439 45.2254L144.969 39.0717C144.093 38.4351 142.907 38.4351 142.031 39.0717L133.561 45.2254C131.601 46.6489 128.965 44.7336 129.714 42.4303L132.949 32.4734C133.283 31.4433 132.917 30.3149 132.041 29.6783L123.571 23.5246C121.611 22.1011 122.618 19.002 125.04 19.002H135.51C136.593 19.002 137.552 18.3046 137.887 17.2746L141.122 7.31763Z" fill="#FFB053"/>
</svg>
