<?xml version="1.0" encoding="UTF-8"?><svg xmlns="http://www.w3.org/2000/svg" viewBox="0 0 840 216.43"><defs><style>.ai,.aj{fill:#fff;}.aj{stroke:#000;stroke-miterlimit:10;}</style></defs><g id="a"/><g id="b"><g id="c"><g id="d"><g><path class="ai" d="M394.22,101.03c-2.56,0-4.84,.26-6.84,.78-2,.52-3.8,1.42-5.39,2.69-1.59,1.28-3,3.06-4.25,5.34-1.24,2.28-2.38,5.18-3.42,8.7h-1.35v-18.96h64.96v18.96h-1.35c-1.04-3.52-2.18-6.42-3.42-8.7-1.24-2.28-2.66-4.06-4.25-5.34-1.59-1.28-3.38-2.18-5.39-2.69-2-.52-4.28-.78-6.84-.78h-3.73v70.86h9.53v1.45h-34.08v-1.45h9.53V101.03h-3.73Z"/><path class="ai" d="M480.1,99.58v1.45h-9.53v70.86h9.53v1.45h-34.08v-1.45h9.53V101.03h-9.53v-1.45h34.08Z"/><path class="ai" d="M514.29,99.58l17.92,51.59h.21l18.23-51.59h25.9v1.45h-9.53v70.86h9.53v1.45h-33.98v-1.45h9.43V101.03h-.21l-25.49,72.31h-1.66l-25.59-72.31h-.21v70.86h9.53v1.45h-20.72v-1.45h9.53V101.03h-9.53v-1.45h26.62Z"/><path class="ai" d="M610.84,101.03c-2.76,0-5.18,.38-7.25,1.14-2.07,.76-3.89,1.83-5.44,3.21-1.55,1.38-2.92,3.04-4.09,4.97-1.18,1.93-2.28,4.11-3.32,6.53h-1.35v-17.3h53.66l-41.85,72.31h18.75c2.76,0,5.42-.38,7.98-1.14,2.55-.76,4.92-2.02,7.1-3.78,2.18-1.76,4.07-4.04,5.7-6.84,1.62-2.8,2.88-6.2,3.78-10.21h1.35v23.41h-62.26l41.65-72.31h-14.4Z"/><path class="ai" d="M689.16,99.58v1.45h-9.53v70.86h9.53v1.45h-34.08v-1.45h9.53V101.03h-9.53v-1.45h34.08Z"/><path class="ai" d="M721.17,99.58l34.5,49.31h.21v-47.86h-9.53v-1.45h20.72v1.45h-9.53v72.31h-2.8l-46.62-66.41h-.21v64.96h9.53v1.45h-20.72v-1.45h9.53V101.03h-9.53v-1.45h24.45Z"/><path class="ai" d="M835.75,99.58v17.71h-1.35c-.35-1.17-.93-2.68-1.76-4.51-.83-1.83-1.99-3.61-3.47-5.34-1.49-1.73-3.4-3.23-5.75-4.51-2.35-1.28-5.22-1.92-8.6-1.92h-16.47v32.01h5.8c2.55,0,4.71-.36,6.47-1.09,1.76-.73,3.23-1.76,4.4-3.11,1.17-1.35,2.14-2.97,2.9-4.87,.76-1.9,1.38-4.02,1.86-6.37h1.35v32.22h-1.35c-.48-2-1.05-3.94-1.71-5.8-.66-1.86-1.54-3.5-2.64-4.92-1.11-1.41-2.47-2.54-4.09-3.37s-3.64-1.24-6.06-1.24h-6.94v37.4h16.99c3.18,0,6.04-.53,8.6-1.61,2.55-1.07,4.82-2.57,6.79-4.51,1.97-1.93,3.61-4.2,4.92-6.79,1.31-2.59,2.31-5.37,3-8.34h1.35v22.69h-66.2v-1.45h9.53V101.03h-9.53v-1.45h61.95Z"/></g><g id="e"><g id="f"><path class="ai" d="M.5,215.93c0-1.66,0-3.74,.02-4.65l83.94-5.16,201.08-.4,85.39,7.08-.62,2.82L.5,215.93Z"/><path d="M285.49,206.23l84.82,7.03-.41,1.86-368.9,.3c0-1.28,0-2.75,.01-3.67l83.45-5.13,201.04-.4m.04-1l-201.11,.4L.03,210.81v-.02s-.03,5.63-.03,5.63l370.71-.3,.83-3.77-86-7.13h0Z"/></g><g id="g"><g id="h"><g><path class="ai" d="M337.68,205.89c-1-.01-7.07-.09-11.97-.09-3.01,0-5.03,.03-6,.09-1.22-.51-1.64-.84-1.78-.98,.28-.15,1.03-.29,1.72-.33,.04,0,5.86-.08,10.98-.08,3,0,5.17,.03,6.46,.09,1.47,.06,1.68,.34,1.68,.35-.02,.16-.54,.63-1.08,.97Z"/><path d="M330.63,204.99c2.99,0,5.16,.03,6.43,.08,.34,.02,.61,.04,.81,.07-.1,.08-.22,.16-.33,.24-1.36-.02-7.13-.09-11.83-.09-2.91,0-4.89,.03-5.91,.08-.23-.1-.43-.19-.59-.27,.15-.02,.3-.03,.44-.04,.06,0,5.87-.09,10.99-.09m0-1c-5.18,0-11,.09-11,.09,0,0-5.09,.23,0,2.32,1.03-.07,3.39-.09,6.09-.09,5.39,0,12.11,.09,12.11,.09,0,0,3.67-2.12-.71-2.32-1.46-.06-3.89-.09-6.48-.09h0Z"/></g><g><path class="ai" d="M337.69,203.17c-1.1-.02-6.89-.12-11.57-.12-2.88,0-4.83,.04-5.79,.11-1.85-1.06-1.81-1.52-1.8-1.53,.04-.2,.85-.48,1.72-.54,.04,0,5.68-.11,10.64-.11,2.91,0,5.01,.04,6.26,.11,1.09,.07,1.54,.31,1.61,.5,.1,.32-.46,1.05-1.06,1.57Z"/><path d="M330.89,201.49c2.9,0,4.99,.04,6.23,.11,.63,.04,.95,.13,1.1,.2-.11,.22-.4,.57-.72,.87-1.48-.03-6.93-.12-11.38-.12-2.75,0-4.65,.03-5.67,.1-.66-.39-1.03-.68-1.22-.86,.28-.09,.68-.17,1.01-.19,.06,0,5.7-.11,10.66-.11m0-1c-5.03,0-10.68,.11-10.68,.11,0,0-4.93,.3,0,3.07,1-.09,3.29-.12,5.91-.12,5.23,0,11.75,.12,11.75,.12,0,0,3.56-2.82-.69-3.07-1.42-.09-3.77-.11-6.29-.11h0Z"/></g><g id="i"><path class="ai" d="M336.42,199.17c-2.14-.08-10.45-.42-15.79-.6,.64-8.7,1.11-91.25,1.15-98.55,1.17-.28,4.87-1.09,8.15-1.09,2.65,0,4.43,.53,5.15,1.54,1.81,2.53,1.79,60.21,1.34,98.7Z"/><path d="M329.94,99.43c2.44,0,4.13,.47,4.72,1.3,1.74,3.35,1.71,60,1.27,97.92-2.64-.11-9.82-.39-14.76-.56,.62-11,1.06-88.39,1.11-97.67,1.44-.33,4.72-.99,7.65-.99m0-1c-4.05,0-8.65,1.2-8.65,1.2,0,0-.51,94.76-1.2,99.43,6.09,.2,16.83,.63,16.83,.63,0,0,1.14-95.92-1.43-99.51-.95-1.33-3.16-1.75-5.56-1.75h0Zm-13.68,100.53c-.77,0,.1,.08,3.77,.28h0s.04-.06,.05-.18c-1.85-.06-3.27-.1-3.83-.1h0Z"/></g></g><g id="j"><g><path class="ai" d="M56.23,205.89c-1.02-.01-8.09-.09-13.78-.09-3.49,0-5.81,.03-6.91,.09-1.36-.49-1.88-.82-2.07-.98,.35-.15,1.21-.3,2.02-.33,.05,0,6.74-.09,12.61-.09,3.45,0,5.94,.03,7.42,.09,1.74,.07,2,.36,2,.37-.06,.13-.66,.61-1.29,.94Z"/><path d="M48.09,204.99c3.44,0,5.93,.03,7.4,.09,.42,.02,.74,.05,.99,.08-.12,.08-.25,.16-.38,.23-1.39-.02-8.16-.09-13.65-.09-3.39,0-5.69,.03-6.84,.08-.26-.1-.49-.19-.69-.27,.18-.02,.37-.03,.55-.04,.07,0,6.75-.09,12.62-.09m0-1c-5.95,0-12.63,.09-12.63,.09,0,0-5.84,.23,0,2.32,1.18-.07,3.89-.09,6.99-.09,6.19,0,13.9,.09,13.9,.09,0,0,4.21-2.12-.82-2.32-1.68-.06-4.47-.09-7.44-.09h0Z"/></g><g><path class="ai" d="M56.24,203.17c-1.13-.02-7.88-.12-13.33-.12-3.35,0-5.6,.04-6.68,.12-2.08-1.04-2.12-1.52-2.12-1.52,.08-.2,1.02-.49,2.04-.55,.05,0,6.53-.11,12.23-.11,3.34,0,5.76,.04,7.19,.11,1.77,.09,1.91,.52,1.92,.53,.09,.31-.57,1.04-1.25,1.54Z"/><path d="M48.39,201.49c3.33,0,5.74,.04,7.16,.11,.77,.04,1.17,.14,1.37,.22-.15,.23-.49,.57-.84,.85-1.53-.02-7.94-.12-13.16-.12-3.22,0-5.43,.04-6.58,.11-.74-.37-1.17-.66-1.42-.85,.35-.1,.83-.18,1.24-.2,.06,0,6.54-.11,12.24-.11m0-1c-5.77,0-12.26,.11-12.26,.11,0,0-5.67,.3,0,3.07,1.14-.09,3.78-.12,6.78-.12,6,0,13.49,.12,13.49,.12,0,0,4.09-2.82-.79-3.07-1.63-.09-4.33-.11-7.22-.11h0Z"/></g><g id="k"><path class="ai" d="M54.82,199.17c-2.33-.08-12.09-.42-18.28-.6,.74-8.76,1.27-91.15,1.32-98.54,1.29-.27,5.61-1.1,9.43-1.1,3.08,0,5.15,.54,5.99,1.57,2.07,2.52,2.05,60.19,1.53,98.67Z"/><path d="M47.3,99.43c2.88,0,4.87,.49,5.58,1.35,1.98,3.4,1.95,60,1.45,97.87-2.92-.1-11.46-.4-17.25-.57,.71-11.08,1.22-88.26,1.28-97.65,1.61-.32,5.48-1.01,8.94-1.01m0-1c-4.65,0-9.93,1.2-9.93,1.2,0,0-.58,94.76-1.38,99.43,6.99,.2,19.33,.63,19.33,.63,0,0,1.31-95.92-1.64-99.51-1.1-1.33-3.63-1.75-6.38-1.75h0Zm-15.7,100.53c-.89,0,.12,.08,4.33,.28h0s.04-.06,.06-.18c-2.12-.06-3.75-.1-4.39-.1h0Z"/></g></g></g><g id="l"><g id="m"><g><path class="ai" d="M279.78,200.89c-.83,0-5.37-.06-9.09-.06-2.27,0-3.8,.02-4.55,.06-.56-.22-.89-.39-1.08-.5,.27-.07,.66-.12,1.02-.14h0s4.43-.06,8.35-.06c2.28,0,3.93,.02,4.91,.06,.62,.03,.93,.1,1.08,.15-.13,.14-.39,.34-.65,.49Z"/><path d="M274.43,199.68c-3.94,0-8.37,.06-8.37,.06,0,0-3.87,.16,0,1.65,.78-.05,2.58-.07,4.63-.07,4.1,0,9.21,.07,9.21,.07,0,0,2.79-1.51-.54-1.65-1.11-.05-2.96-.06-4.93-.06h0Z"/></g><g><path class="ai" d="M279.77,198.96c-.92-.02-5.25-.08-8.77-.08-2.17,0-3.64,.03-4.39,.08-1.18-.63-1.27-.94-1.28-.95,.09-.04,.69-.19,1.2-.22,.02,0,4.32-.08,8.1-.08,2.21,0,3.81,.03,4.76,.08,.97,.05,1.12,.27,1.12,.27,.02,.14-.3,.56-.73,.91Z"/><path d="M274.63,198.19c2.2,0,3.79,.03,4.73,.08,.15,0,.28,.02,.38,.04-.05,.05-.1,.1-.15,.15-1.23-.02-5.27-.08-8.59-.08-2.07,0-3.48,.02-4.28,.07-.1-.06-.2-.11-.28-.16,.03,0,.05,0,.08,0,.04,0,4.33-.08,8.11-.08m0-1c-3.83,0-8.13,.08-8.13,.08,0,0-3.76,.21,0,2.18,.76-.07,2.5-.09,4.49-.09,3.98,0,8.94,.09,8.94,.09,0,0,2.71-2-.53-2.18-1.08-.06-2.87-.08-4.78-.08h0Z"/></g><g id="n"><path class="ai" d="M278.73,196.11c-1.78-.07-7.8-.29-11.77-.42,.48-6.95,.83-63.92,.86-69.79,.98-.21,3.68-.75,6.09-.75,1.98,0,3.31,.36,3.83,1.05,1.34,2.07,1.33,42.74,.99,69.91Z"/><path d="M273.9,125.65c2.39,0,3.17,.54,3.41,.82,1.26,2.99,1.24,43.48,.92,69.12-2.13-.08-7.14-.26-10.75-.38,.46-8.83,.79-61.4,.83-68.9,1.17-.24,3.5-.66,5.59-.66m3.39,.78h0m-3.39-1.78c-3.09,0-6.58,.85-6.58,.85,0,0-.39,67.35-.91,70.67,4.63,.14,12.81,.45,12.81,.45,0,0,.87-68.18-1.08-70.73-.73-.95-2.41-1.25-4.23-1.25h0Zm-10.41,71.46c-.59,0,.08,.05,2.87,.2h0s.03-.04,.04-.13c-1.41-.04-2.49-.07-2.91-.07h0Z"/></g></g><g id="o"><g><path class="ai" d="M236.48,200.89c-.86,0-6.26-.07-10.66-.07-2.69,0-4.49,.02-5.35,.06-.64-.21-1.03-.38-1.27-.5,.32-.07,.79-.13,1.22-.14h0s5.18-.06,9.78-.06c2.67,0,4.61,.02,5.75,.06,.73,.03,1.12,.1,1.31,.16-.17,.15-.47,.34-.77,.49Z"/><path d="M230.19,199.68c-4.61,0-9.79,.06-9.79,.06,0,0-4.53,.16,0,1.65,.91-.05,3.02-.07,5.42-.07,4.8,0,10.78,.07,10.78,.07,0,0,3.27-1.51-.63-1.65-1.3-.05-3.46-.06-5.77-.06h0Z"/></g><g><path class="ai" d="M236.49,198.96c-.95-.01-6.12-.09-10.31-.09-2.58,0-4.31,.03-5.16,.08-1.01-.46-1.37-.76-1.49-.89,.24-.13,.87-.26,1.42-.28,.03,0,5.06-.08,9.48-.08,2.59,0,4.46,.03,5.57,.08,1.2,.06,1.39,.3,1.39,.3-.02,.14-.44,.57-.9,.88Z"/><path d="M230.42,198.19c2.58,0,4.45,.03,5.55,.08,.21,.01,.39,.03,.53,.04-.06,.05-.11,.09-.17,.14-1.28-.02-6.16-.08-10.15-.08-2.46,0-4.17,.02-5.07,.07-.12-.06-.23-.11-.33-.16,.05,0,.11,0,.16-.01,.05,0,5.07-.08,9.49-.08m0-1c-4.47,0-9.5,.08-9.5,.08,0,0-4.39,.21,0,2.18,.89-.07,2.93-.09,5.26-.09,4.66,0,10.46,.09,10.46,.09,0,0,3.17-2-.61-2.18-1.26-.06-3.36-.08-5.6-.08h0Z"/></g><g id="p"><path class="ai" d="M235.3,196.11c-1.97-.06-9.23-.29-13.93-.42,.56-7.01,.97-63.85,1.01-69.78,1.1-.21,4.33-.77,7.2-.77s4.13,.59,4.57,1.08c1.57,2.06,1.55,42.72,1.15,69.88Z"/><path d="M229.58,125.65c2.91,0,3.87,.58,4.16,.87,1.46,3.06,1.43,43.48,1.07,69.07-2.41-.08-8.57-.27-12.91-.39,.54-8.92,.92-61.3,.97-68.87,1.34-.24,4.17-.68,6.71-.68m4.15,.84h0m-4.15-1.84c-3.61,0-7.7,.85-7.7,.85,0,0-.45,67.35-1.07,70.67,5.42,.14,14.98,.45,14.98,.45,0,0,1.02-68.18-1.27-70.73-.85-.95-2.81-1.25-4.95-1.25h0Zm-12.17,71.46c-.69,0,.09,.05,3.36,.2h0s.03-.04,.05-.13c-1.65-.04-2.91-.07-3.41-.07h0Z"/></g></g><g id="q"><g><path class="ai" d="M191.41,200.89c-.85,0-5.96-.07-10.14-.07-2.55,0-4.26,.02-5.08,.06-.61-.21-.98-.38-1.21-.5,.31-.07,.74-.12,1.15-.14h0s4.93-.06,9.3-.06c2.54,0,4.38,.02,5.47,.06,.7,.03,1.06,.1,1.23,.16-.16,.14-.44,.34-.73,.49Z"/><path d="M185.44,199.68c-4.39,0-9.32,.06-9.32,.06,0,0-4.31,.16,0,1.65,.87-.05,2.87-.07,5.16-.07,4.57,0,10.26,.07,10.26,.07,0,0,3.11-1.51-.6-1.65-1.24-.05-3.29-.06-5.49-.06h0Z"/></g><g><path class="ai" d="M191.41,198.96c-.94-.01-5.83-.09-9.8-.09-2.44,0-4.09,.03-4.91,.08-.98-.47-1.3-.77-1.41-.9,.22-.13,.81-.25,1.34-.28,.03,0,4.81-.08,9.02-.08,2.46,0,4.25,.03,5.3,.08,1.13,.06,1.3,.29,1.3,.29,0,.14-.41,.58-.84,.89Z"/><path d="M185.66,198.19c2.46,0,4.23,.03,5.27,.08,.19,0,.35,.02,.48,.04-.05,.05-.11,.09-.17,.14-1.27-.02-5.87-.08-9.63-.08-2.32,0-3.94,.02-4.81,.07-.11-.06-.22-.11-.31-.16,.04,0,.09,0,.13,0,.05,0,4.83-.08,9.03-.08m0-1c-4.26,0-9.04,.08-9.04,.08,0,0-4.18,.21,0,2.18,.84-.07,2.79-.09,5-.09,4.43,0,9.95,.09,9.95,.09,0,0,3.02-2-.58-2.18-1.2-.06-3.2-.08-5.33-.08h0Z"/></g><g id="r"><path class="ai" d="M190.27,196.11c-1.91-.06-8.75-.29-13.21-.42,.54-6.99,.92-63.87,.96-69.78,1.06-.21,4.12-.76,6.83-.76s3.91,.58,4.33,1.07c1.49,2.07,1.47,42.73,1.1,69.89Z"/><path d="M184.85,125.65c2.74,0,3.64,.57,3.91,.86,1.4,3.04,1.37,43.48,1.02,69.09-2.32-.08-8.1-.27-12.19-.39,.51-8.89,.88-61.33,.93-68.88,1.29-.24,3.95-.68,6.33-.68m0-1c-3.43,0-7.33,.85-7.33,.85,0,0-.43,67.35-1.02,70.67,5.16,.14,14.26,.45,14.26,.45,0,0,.97-68.18-1.21-70.73-.81-.95-2.68-1.25-4.71-1.25h0Zm-11.59,71.46c-.65,0,.09,.05,3.19,.2h0s.03-.04,.04-.13c-1.57-.04-2.77-.07-3.24-.07h0Z"/></g></g><g id="s"><g><path class="ai" d="M146.35,200.89c-.84,0-5.67-.06-9.61-.06-2.41,0-4.03,.02-4.82,.06-.59-.22-.94-.38-1.14-.5,.29-.07,.7-.12,1.09-.14h0s4.68-.06,8.83-.06c2.41,0,4.16,.02,5.19,.06,.66,.03,.99,.1,1.16,.15-.14,.14-.42,.34-.69,.49Z"/><path d="M140.69,199.68c-4.17,0-8.85,.06-8.85,.06,0,0-4.09,.16,0,1.65,.83-.05,2.73-.07,4.89-.07,4.33,0,9.74,.07,9.74,.07,0,0,2.95-1.51-.57-1.65-1.17-.05-3.13-.06-5.21-.06h0Z"/></g><g><path class="ai" d="M146.34,198.96c-.93-.01-5.54-.08-9.29-.08-2.31,0-3.87,.03-4.65,.08-.95-.48-1.24-.78-1.33-.9,.2-.12,.76-.25,1.26-.28,.03,0,4.57-.08,8.56-.08,2.34,0,4.03,.03,5.03,.08,1.04,.06,1.21,.28,1.21,.28,0,.15-.37,.58-.79,.9Z"/><path d="M140.89,198.19c2.33,0,4.01,.03,5,.08,.17,0,.31,.02,.43,.04-.05,.05-.1,.1-.16,.14-1.25-.02-5.57-.08-9.11-.08-2.22,0-3.71,.02-4.54,.07-.11-.06-.21-.11-.29-.16,.04,0,.07,0,.1,0,.05,0,4.58-.08,8.57-.08m0-1c-4.04,0-8.58,.08-8.58,.08,0,0-3.97,.21,0,2.18,.8-.07,2.65-.09,4.75-.09,4.21,0,9.45,.09,9.45,.09,0,0,2.86-2-.55-2.18-1.14-.06-3.03-.08-5.06-.08h0Z"/></g><g id="t"><path class="ai" d="M145.25,196.11c-1.84-.07-8.28-.29-12.49-.42,.51-6.97,.87-63.9,.91-69.79,1.02-.21,3.9-.76,6.46-.76,2.11,0,3.52,.37,4.08,1.06,1.42,2.07,1.4,42.74,1.04,69.9Z"/><path d="M140.13,125.65c2.57,0,3.4,.56,3.66,.84,1.33,3.02,1.3,43.48,.97,69.11-2.23-.08-7.62-.27-11.47-.38,.49-8.86,.83-61.37,.88-68.89,1.23-.24,3.72-.67,5.96-.67m3.64,.8h0m-3.64-1.8c-3.26,0-6.96,.85-6.96,.85,0,0-.41,67.35-.96,70.67,4.9,.14,13.54,.45,13.54,.45,0,0,.92-68.18-1.15-70.73-.77-.95-2.54-1.25-4.47-1.25h0Zm-11,71.46c-.62,0,.08,.05,3.03,.2h0s.03-.04,.04-.13c-1.49-.04-2.63-.07-3.08-.07h0Z"/></g></g><g id="u"><g><path class="ai" d="M100.83,200.89c-.83-.01-5.08-.06-8.56-.06-2.13,0-3.57,.02-4.29,.06-.54-.23-.85-.39-1.02-.51,.25-.07,.62-.12,.96-.14h0s4.18-.06,7.88-.06c2.15,0,3.71,.02,4.63,.06,.59,.03,.87,.1,1.01,.15-.11,.14-.36,.34-.61,.5Z"/><path d="M95.8,199.68c-3.72,0-7.9,.06-7.9,.06,0,0-3.65,.16,0,1.65,.74-.05,2.44-.07,4.37-.07,3.87,0,8.69,.07,8.69,.07,0,0,2.63-1.51-.51-1.65-1.05-.05-2.79-.06-4.65-.06h0Z"/></g><g><path class="ai" d="M100.82,198.95c-.91-.02-4.96-.08-8.26-.08-2.03,0-3.42,.03-4.13,.08-1.11-.64-1.19-.94-1.19-.95,.08-.05,.63-.2,1.11-.23h0s4.07-.08,7.64-.08c2.09,0,3.59,.03,4.48,.08,.89,.05,1.03,.26,1.03,.26,.04,.13-.27,.57-.68,.93Z"/><path d="M95.99,198.18c2.08,0,3.57,.03,4.45,.08,.13,0,.24,.02,.33,.03-.05,.05-.1,.1-.15,.15-1.21-.02-4.97-.08-8.06-.08-1.93,0-3.25,.02-4.01,.07-.1-.06-.19-.12-.27-.17h.06s4.09-.09,7.65-.09m0-1c-3.61,0-7.67,.08-7.67,.08,0,0-3.54,.21,0,2.19,.72-.07,2.36-.09,4.24-.09,3.76,0,8.44,.09,8.44,.09,0,0,2.56-2.01-.5-2.19-1.02-.06-2.71-.08-4.51-.08h0Z"/></g><g id="v"><path class="ai" d="M99.83,196.09c-1.71-.07-7.33-.29-11.05-.41,.45-6.94,.78-64.15,.81-70,.93-.22,3.46-.75,5.71-.75,1.85,0,3.09,.36,3.59,1.04,1.27,2.07,1.26,42.87,.94,70.12Z"/><path d="M95.3,125.43c1.6,0,2.74,.29,3.15,.8,1.2,2.97,1.19,42.65,.88,69.35-2.03-.08-6.66-.26-10.03-.38,.43-8.82,.74-61.64,.79-69.12,1.11-.24,3.27-.65,5.22-.65m3.14,.77h0m-3.14-1.77c-2.91,0-6.21,.86-6.21,.86,0,0-.37,67.55-.86,70.88,4.37,.14,12.09,.45,12.09,.45,0,0,.82-68.38-1.02-70.94-.69-.95-2.27-1.25-3.99-1.25h0Zm-9.82,71.66c-.55,0,.07,.05,2.71,.2h0s.03-.04,.04-.13c-1.33-.04-2.35-.07-2.75-.07h0Z"/></g></g></g><polyline id="w" class="aj" points="82.56 121.36 184.3 83.53 287.01 123.43"/><g id="x"><polygon class="ai" points="184 80.89 142.91 95.93 33.49 95.87 185.53 51.71 339.3 95.91 223.09 95.93 184 80.89"/><path d="M185.53,52.23l150.22,43.18-112.56,.02-38.83-14.93-.35-.13-.35,.13-40.83,14.94-105.83-.06L185.53,52.23m0-1.04L29.98,96.36l113.02,.06,41-15,39,15,119.84-.02L185.53,51.19h0Z"/></g><g id="y"><g id="a`"><g><path class="ai" d="M283.32,74.89c-.79-.02-3.67-.07-6.03-.07-1.47,0-2.46,.02-3,.06-.73-.49-.79-.72-.79-.73h0c.07,0,.41-.1,.69-.12h0s2.99-.07,5.62-.07c1.54,0,2.64,.02,3.3,.07,.53,.04,.64,.16,.65,.16,.01,.09-.18,.41-.45,.69Z"/><path d="M279.82,73.46c-2.66,0-5.66,.07-5.66,.07,0,0-2.62,.18,0,1.86,.53-.06,1.74-.07,3.13-.07,2.77,0,6.23,.07,6.23,.07,0,0,1.89-1.7-.37-1.86-.75-.05-2-.07-3.33-.07h0Z"/></g><g><path class="ai" d="M283.29,72.71c-.84-.02-3.56-.09-5.8-.09-1.38,0-2.32,.02-2.87,.08-.88-.81-.79-1.13-.79-1.14,.04-.13,.4-.27,.67-.3h0s2.91-.09,5.44-.09c1.48,0,2.56,.03,3.19,.09,.33,.03,.55,.12,.6,.24,.1,.25-.16,.81-.44,1.22Z"/><path d="M279.95,71.66c1.47,0,2.53,.03,3.14,.09,.05,0,.1,.01,.14,.02-.04,.12-.11,.28-.21,.43-1.07-.03-3.49-.08-5.52-.08-1.22,0-2.1,.02-2.69,.06-.17-.17-.29-.31-.36-.41,.03,0,.06-.01,.08-.02,.37-.01,3.05-.09,5.42-.09m0-1c-2.58,0-5.49,.09-5.49,.09,0,0-2.54,.24,0,2.46,.51-.07,1.69-.1,3.04-.1,2.69,0,6.04,.1,6.04,.1,0,0,1.83-2.26-.35-2.46-.73-.07-1.94-.09-3.23-.09h0Z"/></g><g id="aa"><path class="ai" d="M282.57,69.51c-1.33-.03-5.04-.11-7.61-.15,.3-3.8,.51-22.36,.55-26.16,.77-.09,2.45-.27,3.95-.27,1.85,0,2.41,.27,2.56,.38,.68,1.04,.8,14.19,.54,26.2Z"/><path d="M279.46,43.43c1.32,0,1.9,.14,2.13,.22,.6,1.93,.72,14.04,.48,25.35-1.49-.03-4.35-.09-6.59-.13,.27-4.48,.45-19.18,.52-25.23,.85-.09,2.22-.22,3.46-.22m2.08,.08h0m-2.08-1.08c-2.08,0-4.45,.33-4.45,.33,0,0-.26,25.82-.62,27.09,3.13,.05,8.66,.17,8.66,.17,0,0,.59-26.14-.73-27.12-.49-.36-1.63-.48-2.86-.48h0Zm-7.03,27.39c-.4,0,.05,.02,1.94,.08h0s.02-.02,.03-.05c-.95-.02-1.68-.03-1.97-.03h0Z"/></g></g><g id="ab"><g><path class="ai" d="M268.32,71.22c-.79-.02-3.67-.07-6.03-.07-1.47,0-2.46,.02-3,.06-.73-.49-.79-.72-.79-.73h0c.07,0,.41-.1,.69-.12h0s2.99-.07,5.62-.07c1.54,0,2.64,.02,3.3,.07,.53,.04,.64,.16,.65,.16,.01,.11-.19,.43-.44,.69Z"/><path d="M264.82,69.8c-2.66,0-5.66,.07-5.66,.07,0,0-2.62,.18,0,1.86,.53-.06,1.74-.07,3.13-.07,2.77,0,6.23,.07,6.23,.07,0,0,1.89-1.7-.37-1.86-.75-.05-2-.07-3.33-.07h0Z"/></g><g><path class="ai" d="M268.29,69.04c-.84-.02-3.56-.09-5.79-.09-1.38,0-2.32,.03-2.87,.08-.88-.81-.79-1.13-.79-1.15,.04-.13,.4-.27,.67-.3h0s2.91-.09,5.44-.09c1.48,0,2.56,.03,3.19,.09,.33,.03,.55,.12,.6,.24,.1,.25-.16,.81-.44,1.22Z"/><path d="M264.95,67.99c1.47,0,2.53,.03,3.14,.09,.05,0,.1,.01,.14,.02-.04,.12-.11,.28-.21,.43-1.07-.03-3.49-.08-5.52-.08-1.22,0-2.1,.02-2.69,.06-.17-.17-.29-.31-.36-.41,.03,0,.06-.01,.08-.02,.37-.01,3.05-.09,5.42-.09m0-1c-2.58,0-5.49,.09-5.49,.09,0,0-2.54,.24,0,2.46,.51-.07,1.69-.1,3.04-.1,2.69,0,6.04,.1,6.04,.1,0,0,1.83-2.26-.35-2.46-.73-.07-1.94-.09-3.23-.09h0Z"/></g><g id="ac"><path class="ai" d="M267.57,66.37c-1.33-.03-5.03-.09-7.6-.14,.3-3.45,.5-18.8,.55-23.07,.77-.08,2.45-.24,3.95-.24,1.86,0,2.43,.24,2.58,.34,.66,.96,.78,12.54,.52,23.1Z"/><path d="M264.46,43.43c1.31,0,1.91,.12,2.16,.2,.58,1.83,.69,12.38,.46,22.23-1.48-.03-4.34-.08-6.59-.12,.26-3.99,.44-15.86,.51-22.12,.86-.08,2.22-.19,3.46-.19m2.1,.04h0m-2.1-1.04c-2.08,0-4.45,.29-4.45,.29,0,0-.26,22.88-.62,24.01,3.13,.05,8.66,.15,8.66,.15,0,0,.59-23.16-.73-24.03-.49-.32-1.63-.42-2.86-.42h0Zm-7.03,24.27c-.4,0,.05,.02,1.94,.07h0s.02-.01,.03-.04c-.95-.01-1.68-.02-1.97-.02h0Z"/></g></g><g id="ad"><g><path class="ai" d="M112.32,71.22c-.79-.02-3.67-.07-6.03-.07-1.47,0-2.46,.02-3,.06-.73-.49-.79-.72-.79-.73h0c.07,0,.41-.1,.69-.12h0s2.99-.07,5.62-.07c1.54,0,2.64,.02,3.3,.07,.53,.04,.64,.16,.65,.16,.01,.11-.19,.43-.44,.69Z"/><path d="M108.82,69.8c-2.66,0-5.66,.07-5.66,.07,0,0-2.62,.18,0,1.86,.53-.06,1.74-.07,3.13-.07,2.77,0,6.23,.07,6.23,.07,0,0,1.89-1.7-.37-1.86-.75-.05-2-.07-3.33-.07h0Z"/></g><g><path class="ai" d="M112.29,69.04c-.84-.02-3.56-.09-5.79-.09-1.38,0-2.32,.03-2.87,.08-.88-.81-.79-1.13-.79-1.15,.04-.13,.4-.27,.67-.3h0s2.91-.09,5.44-.09c1.48,0,2.56,.03,3.19,.09,.33,.03,.55,.12,.6,.24,.1,.25-.16,.81-.44,1.22Z"/><path d="M108.95,67.99c1.47,0,2.53,.03,3.14,.09,.05,0,.1,.01,.14,.02-.04,.12-.11,.28-.21,.43-1.07-.03-3.49-.08-5.52-.08-1.22,0-2.1,.02-2.69,.06-.17-.17-.29-.31-.36-.41,.03,0,.06-.01,.08-.02,.37-.01,3.05-.09,5.42-.09m0-1c-2.58,0-5.49,.09-5.49,.09,0,0-2.54,.24,0,2.46,.51-.07,1.69-.1,3.04-.1,2.69,0,6.04,.1,6.04,.1,0,0,1.83-2.26-.35-2.46-.73-.07-1.94-.09-3.23-.09h0Z"/></g><g id="ae"><path class="ai" d="M111.57,66.37c-1.33-.03-5.03-.09-7.6-.14,.3-3.45,.5-18.8,.55-23.07,.77-.08,2.45-.24,3.95-.24,1.86,0,2.43,.24,2.58,.34,.66,.96,.78,12.54,.52,23.1Z"/><path d="M108.46,43.43c1.31,0,1.91,.12,2.16,.2,.58,1.83,.69,12.38,.46,22.23-1.48-.03-4.34-.08-6.59-.12,.26-3.99,.44-15.86,.51-22.12,.86-.08,2.22-.19,3.46-.19m2.1,.04h0m-2.1-1.04c-2.08,0-4.45,.29-4.45,.29,0,0-.26,22.88-.62,24.01,3.13,.05,8.66,.15,8.66,.15,0,0,.59-23.16-.73-24.03-.49-.32-1.63-.42-2.86-.42h0Zm-7.03,24.27c-.4,0,.05,.02,1.94,.07h0s.02-.01,.03-.04c-.95-.01-1.68-.02-1.97-.02h0Z"/></g></g><g id="af"><g><path class="ai" d="M96.32,74.89c-.79-.02-3.67-.07-6.03-.07-1.47,0-2.46,.02-3,.06-.73-.49-.79-.72-.79-.73h0c.07,0,.41-.1,.69-.12h0s2.99-.07,5.62-.07c1.54,0,2.64,.02,3.3,.07,.53,.04,.64,.16,.65,.16,.01,.09-.18,.41-.45,.69Z"/><path d="M92.82,73.46c-2.66,0-5.66,.07-5.66,.07,0,0-2.62,.18,0,1.86,.53-.06,1.74-.07,3.13-.07,2.77,0,6.23,.07,6.23,.07,0,0,1.89-1.7-.37-1.86-.75-.05-2-.07-3.33-.07h0Z"/></g><g><path class="ai" d="M96.29,72.71c-.84-.02-3.56-.09-5.8-.09-1.38,0-2.32,.02-2.87,.08-.88-.81-.79-1.13-.79-1.14,.04-.13,.4-.27,.67-.3h0s2.91-.09,5.44-.09c1.48,0,2.56,.03,3.19,.09,.33,.03,.55,.12,.6,.24,.1,.25-.16,.81-.44,1.22Z"/><path d="M92.95,71.66c1.47,0,2.53,.03,3.14,.09,.05,0,.1,.01,.14,.02-.04,.12-.11,.28-.21,.43-1.07-.03-3.49-.08-5.52-.08-1.22,0-2.1,.02-2.69,.06-.17-.17-.29-.31-.36-.41,.03,0,.06-.01,.08-.02,.37-.01,3.05-.09,5.42-.09m0-1c-2.58,0-5.49,.09-5.49,.09,0,0-2.54,.24,0,2.46,.51-.07,1.69-.1,3.04-.1,2.69,0,6.04,.1,6.04,.1,0,0,1.83-2.26-.35-2.46-.73-.07-1.94-.09-3.23-.09h0Z"/></g><g id="ag"><path class="ai" d="M95.57,69.51c-1.33-.03-5.04-.11-7.61-.15,.3-3.8,.51-22.36,.55-26.16,.77-.09,2.45-.27,3.95-.27,1.85,0,2.41,.27,2.56,.38,.68,1.04,.8,14.19,.54,26.2Z"/><path d="M92.46,43.43c1.32,0,1.9,.14,2.13,.22,.6,1.93,.72,14.04,.48,25.35-1.49-.03-4.35-.09-6.59-.13,.27-4.48,.45-19.18,.52-25.23,.85-.09,2.22-.22,3.46-.22m2.08,.08h0m-2.08-1.08c-2.08,0-4.45,.33-4.45,.33,0,0-.26,25.82-.62,27.09,3.13,.05,8.66,.17,8.66,.17,0,0,.59-26.14-.73-27.12-.49-.36-1.63-.48-2.86-.48h0Zm-7.03,27.39c-.4,0,.05,.02,1.94,.08h0s.02-.02,.03-.05c-.95-.02-1.68-.03-1.97-.03h0Z"/></g></g></g><polyline id="ah" class="aj" points="83.56 38.36 185.3 .53 288.01 40.43"/></g><g><path class="ai" d="M388.94,184.19h5.51c4.09,0,6.88,2.52,6.88,6.3s-2.79,6.3-6.88,6.3h-5.51v-12.6Zm5.4,10.62c2.81,0,4.63-1.71,4.63-4.32s-1.82-4.32-4.63-4.32h-3.06v8.64h3.06Z"/><path class="ai" d="M413.26,194.83v1.96h-9.45v-12.6h9.2v1.96h-6.86v3.28h6.09v1.93h-6.09v3.47h7.11Z"/><path class="ai" d="M414.81,195.46l.81-1.82c1.01,.81,2.61,1.39,4.16,1.39,1.96,0,2.79-.7,2.79-1.64,0-2.72-7.49-.94-7.49-5.62,0-2.04,1.62-3.76,5.08-3.76,1.51,0,3.1,.4,4.2,1.12l-.74,1.82c-1.13-.67-2.38-.99-3.47-.99-1.94,0-2.74,.76-2.74,1.71,0,2.68,7.47,.94,7.47,5.56,0,2.02-1.64,3.75-5.1,3.75-1.96,0-3.92-.61-4.97-1.51Z"/><path class="ai" d="M427.19,184.19h2.34v12.6h-2.34v-12.6Z"/><path class="ai" d="M441.54,190.35h2.21v5.02c-1.31,1.06-3.15,1.6-4.93,1.6-3.91,0-6.79-2.72-6.79-6.48s2.88-6.48,6.82-6.48c2.11,0,3.87,.7,5.06,2.05l-1.48,1.44c-.99-.99-2.12-1.44-3.47-1.44-2.68,0-4.57,1.82-4.57,4.43s1.89,4.43,4.55,4.43c.9,0,1.78-.18,2.59-.65v-3.93Z"/><path class="ai" d="M458.03,184.19v12.6h-1.93l-6.95-8.53v8.53h-2.32v-12.6h1.93l6.95,8.53v-8.53h2.32Z"/><path class="ai" d="M466.38,184.19h5.51c4.09,0,6.88,2.52,6.88,6.3s-2.79,6.3-6.88,6.3h-5.51v-12.6Zm5.4,10.62c2.81,0,4.63-1.71,4.63-4.32s-1.82-4.32-4.63-4.32h-3.06v8.64h3.06Z"/><path class="ai" d="M481.24,184.19h2.34v12.6h-2.34v-12.6Z"/><path class="ai" d="M495.59,190.35h2.21v5.02c-1.31,1.06-3.15,1.6-4.93,1.6-3.91,0-6.79-2.72-6.79-6.48s2.88-6.48,6.82-6.48c2.11,0,3.87,.7,5.06,2.05l-1.48,1.44c-.99-.99-2.12-1.44-3.47-1.44-2.68,0-4.57,1.82-4.57,4.43s1.89,4.43,4.55,4.43c.9,0,1.78-.18,2.59-.65v-3.93Z"/><path class="ai" d="M500.88,184.19h2.34v12.6h-2.34v-12.6Z"/><path class="ai" d="M509.18,186.17h-4.18v-1.98h10.7v1.98h-4.18v10.62h-2.34v-10.62Z"/><path class="ai" d="M525,193.88h-6.3l-1.24,2.92h-2.41l5.67-12.6h2.3l5.69,12.6h-2.45l-1.26-2.92Zm-.77-1.84l-2.38-5.51-2.36,5.51h4.74Z"/><path class="ai" d="M530.31,184.19h2.34v10.62h6.59v1.98h-8.93v-12.6Z"/><path class="ai" d="M546.06,184.19h5.51c4.09,0,6.88,2.52,6.88,6.3s-2.79,6.3-6.88,6.3h-5.51v-12.6Zm5.4,10.62c2.81,0,4.63-1.71,4.63-4.32s-1.82-4.32-4.63-4.32h-3.06v8.64h3.06Z"/><path class="ai" d="M570.38,194.83v1.96h-9.45v-12.6h9.2v1.96h-6.86v3.28h6.09v1.93h-6.09v3.47h7.11Z"/><path class="ai" d="M571.92,195.46l.81-1.82c1.01,.81,2.61,1.39,4.16,1.39,1.96,0,2.79-.7,2.79-1.64,0-2.72-7.49-.94-7.49-5.62,0-2.04,1.62-3.76,5.08-3.76,1.51,0,3.1,.4,4.2,1.12l-.74,1.82c-1.13-.67-2.38-.99-3.47-.99-1.94,0-2.74,.76-2.74,1.71,0,2.68,7.47,.94,7.47,5.56,0,2.02-1.64,3.75-5.1,3.75-1.96,0-3.92-.61-4.97-1.51Z"/><path class="ai" d="M597.45,193.88h-6.3l-1.24,2.92h-2.41l5.67-12.6h2.3l5.69,12.6h-2.45l-1.26-2.92Zm-.77-1.84l-2.38-5.51-2.36,5.51h4.74Z"/><path class="ai" d="M601.68,190.5c0-3.76,2.88-6.48,6.75-6.48,2.05,0,3.82,.74,4.99,2.11l-1.51,1.42c-.92-.99-2.05-1.48-3.37-1.48-2.61,0-4.5,1.84-4.5,4.43s1.89,4.43,4.5,4.43c1.31,0,2.45-.49,3.37-1.49l1.51,1.44c-1.17,1.37-2.93,2.11-5,2.11-3.85,0-6.73-2.72-6.73-6.48Z"/><path class="ai" d="M618.08,186.17h-4.18v-1.98h10.7v1.98h-4.18v10.62h-2.34v-10.62Z"/><path class="ai" d="M626.02,191.31v-7.11h2.34v7.02c0,2.59,1.17,3.71,3.21,3.71s3.19-1.12,3.19-3.71v-7.02h2.3v7.11c0,3.67-2.07,5.67-5.51,5.67s-5.53-2-5.53-5.67Z"/><path class="ai" d="M648.23,193.88h-6.3l-1.24,2.92h-2.41l5.67-12.6h2.3l5.69,12.6h-2.45l-1.26-2.92Zm-.77-1.84l-2.38-5.51-2.36,5.51h4.74Z"/><path class="ai" d="M653.54,184.19h2.34v10.62h6.59v1.98h-8.93v-12.6Z"/><path class="ai" d="M664.32,184.19h2.34v12.6h-2.34v-12.6Z"/><path class="ai" d="M672.62,186.17h-4.18v-1.98h10.7v1.98h-4.18v10.62h-2.34v-10.62Z"/><path class="ai" d="M690.35,194.83v1.96h-9.45v-12.6h9.2v1.96h-6.86v3.28h6.09v1.93h-6.09v3.47h7.11Zm-4.39-11.67h-1.94l2.43-2.47h2.65l-3.13,2.47Z"/><path class="ai" d="M691.89,195.46l.81-1.82c1.01,.81,2.61,1.39,4.16,1.39,1.96,0,2.79-.7,2.79-1.64,0-2.72-7.49-.94-7.49-5.62,0-2.04,1.62-3.76,5.08-3.76,1.51,0,3.1,.4,4.2,1.12l-.74,1.82c-1.13-.67-2.38-.99-3.47-.99-1.94,0-2.74,.76-2.74,1.71,0,2.68,7.47,.94,7.47,5.56,0,2.02-1.64,3.75-5.1,3.75-1.96,0-3.92-.61-4.97-1.51Z"/><path class="ai" d="M708.35,190.5c0-3.76,2.88-6.48,6.75-6.48,2.05,0,3.82,.74,4.99,2.11l-1.51,1.42c-.92-.99-2.05-1.48-3.37-1.48-2.61,0-4.5,1.84-4.5,4.43s1.89,4.43,4.5,4.43c1.31,0,2.45-.49,3.37-1.49l1.51,1.44c-1.17,1.37-2.94,2.11-5.01,2.11-3.85,0-6.73-2.72-6.73-6.48Z"/><path class="ai" d="M722.13,191.31v-7.11h2.34v7.02c0,2.59,1.17,3.71,3.21,3.71s3.19-1.12,3.19-3.71v-7.02h2.3v7.11c0,3.67-2.07,5.67-5.51,5.67s-5.53-2-5.53-5.67Z"/><path class="ai" d="M736.44,184.19h2.34v10.62h6.59v1.98h-8.93v-12.6Z"/><path class="ai" d="M748.61,186.17h-4.18v-1.98h10.7v1.98h-4.18v10.62h-2.34v-10.62Z"/><path class="ai" d="M756.55,191.31v-7.11h2.34v7.02c0,2.59,1.17,3.71,3.21,3.71s3.19-1.12,3.19-3.71v-7.02h2.3v7.11c0,3.67-2.07,5.67-5.51,5.67s-5.53-2-5.53-5.67Z"/><path class="ai" d="M779.11,196.8l-2.57-3.69c-.16,.02-.32,.02-.49,.02h-2.84v3.67h-2.34v-12.6h5.19c3.31,0,5.37,1.69,5.37,4.48,0,1.91-.97,3.31-2.68,3.98l2.9,4.14h-2.52Zm-3.17-10.62h-2.74v5.02h2.74c2.05,0,3.11-.94,3.11-2.52s-1.06-2.5-3.11-2.5Z"/><path class="ai" d="M793.47,194.83v1.96h-9.45v-12.6h9.2v1.96h-6.86v3.28h6.09v1.93h-6.09v3.47h7.11Z"/><path class="ai" d="M796.08,184.19h2.34v10.62h6.59v1.98h-8.93v-12.6Z"/><path class="ai" d="M806.86,184.19h2.34v10.62h6.59v1.98h-8.93v-12.6Z"/><path class="ai" d="M827.09,194.83v1.96h-9.45v-12.6h9.2v1.96h-6.86v3.28h6.09v1.93h-6.09v3.47h7.11Z"/><path class="ai" d="M828.64,195.46l.81-1.82c1.01,.81,2.61,1.39,4.16,1.39,1.96,0,2.79-.7,2.79-1.64,0-2.72-7.49-.94-7.49-5.62,0-2.04,1.62-3.76,5.08-3.76,1.51,0,3.1,.4,4.2,1.12l-.74,1.82c-1.13-.67-2.38-.99-3.47-.99-1.94,0-2.74,.76-2.74,1.71,0,2.68,7.47,.94,7.47,5.56,0,2.02-1.64,3.75-5.1,3.75-1.96,0-3.92-.61-4.97-1.51Z"/></g></g></g></g></svg>