<?xml version="1.0" standalone="no"?>
<!DOCTYPE svg PUBLIC "-//W3C//DTD SVG 20010904//EN"
 "http://www.w3.org/TR/2001/REC-SVG-20010904/DTD/svg10.dtd">
<svg version="1.0" xmlns="http://www.w3.org/2000/svg"
 width="572.000000pt" height="572.000000pt" viewBox="0 0 572.000000 572.000000"
 preserveAspectRatio="xMidYMid meet">
<metadata>
Created by potrace 1.14, written by Peter Selinger 2001-2017
</metadata>
<g transform="translate(0.000000,572.000000) scale(0.100000,-0.100000)"
fill="#000000" stroke="none">
<path d="M1072 3583 l-133 -76 -175 -349 c-97 -191 -179 -348 -183 -348 -5 0
-39 13 -77 29 -64 26 -69 30 -66 55 10 93 -77 186 -173 186 -140 0 -212 -191
-109 -291 27 -26 43 -33 88 -37 45 -4 63 0 99 20 l44 25 67 -50 c46 -34 66
-55 63 -66 -3 -9 -96 -201 -208 -428 l-202 -412 17 -40 c10 -21 35 -64 56 -95
36 -55 62 -76 191 -149 l47 -27 -21 -41 c-19 -38 -19 -47 -9 -116 16 -103 53
-175 127 -248 77 -75 167 -121 278 -142 45 -8 96 -19 112 -25 17 -6 58 -21 93
-33 59 -21 66 -22 145 -9 161 26 498 136 577 188 42 28 147 42 393 52 l156 7
63 -34 c53 -28 73 -34 128 -33 102 0 192 60 235 154 16 36 22 40 44 35 60 -12
362 -45 436 -47 l80 -3 18 95 c11 52 20 96 22 98 2 2 16 -3 32 -11 22 -12 33
-29 46 -69 21 -67 73 -129 132 -158 62 -30 177 -26 249 9 49 24 124 90 143
124 7 14 52 27 205 57 107 21 217 42 244 45 50 7 50 7 79 -35 46 -67 130 -136
216 -180 70 -34 90 -40 145 -40 71 0 162 26 231 67 56 33 151 136 174 191 45
105 41 234 -12 333 -29 54 -141 179 -161 179 -5 0 -6 39 -2 88 15 219 -77 401
-248 486 -123 62 -189 56 -319 -30 -170 -112 -280 -301 -253 -434 l11 -51 -33
-14 c-43 -18 -340 -115 -352 -115 -5 0 -28 19 -52 41 -44 42 -130 89 -162 89
-10 0 -24 14 -32 33 -8 17 -46 106 -85 197 l-72 164 9 88 8 89 -66 19 c-69 21
-249 52 -517 91 l-163 23 -11 35 c-19 55 -93 127 -155 151 -115 42 -224 19
-313 -67 -49 -48 -91 -68 -91 -44 0 5 12 35 26 67 15 33 50 120 79 195 l52
136 -191 96 c-236 119 -364 178 -576 269 -131 56 -300 121 -304 117 -1 0 -61
-35 -134 -76z m468 -150 c304 -134 630 -294 630 -309 0 -51 -242 -593 -425
-949 -129 -253 -307 -580 -326 -600 -5 -5 -69 -10 -142 -10 -111 0 -141 -4
-191 -22 -55 -21 -61 -22 -122 -7 -156 36 -235 47 -341 46 l-112 0 -108 59
c-115 64 -137 84 -179 164 l-27 50 192 389 c105 214 193 392 196 395 3 2 11
-1 17 -7 30 -30 74 5 100 79 10 30 9 34 -17 55 l-28 22 163 318 c89 176 167
324 174 331 6 6 58 39 116 71 l105 60 55 -20 c30 -12 152 -63 270 -115z
m-1220 -453 c26 -26 25 -54 -2 -80 -41 -37 -118 -18 -118 29 0 10 9 30 21 45
25 32 70 35 99 6z m2207 -156 c48 -28 77 -64 91 -115 18 -68 -5 -113 -65 -125
-28 -6 -31 -4 -37 29 -13 69 -80 94 -159 59 -33 -15 -48 -28 -53 -46 l-6 -25
-39 20 c-57 29 -67 56 -40 112 55 113 197 155 308 91z m-377 -139 c0 -28 61
-85 110 -102 58 -20 60 -26 59 -153 l0 -95 -45 -29 c-104 -66 -166 -186 -165
-323 0 -46 3 -87 6 -93 7 -12 24 -110 18 -110 -2 0 -15 8 -29 17 l-26 16 17
-39 c9 -21 23 -49 31 -61 14 -22 12 -24 -76 -68 -49 -25 -95 -45 -101 -45 -12
0 -11 1 27 315 29 236 91 669 105 737 10 44 13 48 40 48 19 0 29 -5 29 -15z
m680 -70 c180 -25 482 -76 508 -86 24 -9 24 -11 17 -87 -15 -175 -100 -805
-137 -1019 l-21 -121 -31 4 c-17 2 -114 13 -216 25 -102 12 -191 25 -199 29
-9 5 -16 28 -18 61 -2 29 -12 71 -23 94 -11 22 -16 41 -11 43 54 18 149 111
199 193 94 156 70 395 -52 534 l-35 40 9 -35 c15 -52 12 -198 -4 -251 -19 -61
-52 -125 -89 -173 l-31 -39 -8 31 c-7 25 -3 39 22 78 33 53 56 117 65 185 9
59 -10 158 -32 176 -36 27 -99 57 -150 69 l-53 12 -1 -111 c-2 -172 -14 -182
-22 -17 -4 80 -7 180 -7 223 l0 77 30 0 c47 0 99 26 118 59 12 22 23 29 37 26
11 -3 72 -12 135 -20z m1897 -171 c67 -32 145 -117 174 -192 20 -48 23 -76 23
-177 1 -106 -2 -127 -24 -179 -34 -81 -60 -98 -157 -104 -316 -17 -545 201
-436 416 68 135 260 284 343 266 13 -3 48 -17 77 -30z m-2768 -129 c-11 -77
-21 -144 -22 -150 -4 -12 -78 -7 -92 6 -6 6 16 60 60 149 38 76 70 138 71 137
2 -1 -6 -65 -17 -142z m559 -342 c73 -35 107 -86 106 -162 0 -71 -27 -125 -90
-180 -70 -61 -129 -74 -200 -42 -102 46 -164 202 -120 304 31 73 120 121 206
111 25 -3 69 -17 98 -31z m858 -51 c-18 -18 -19 -11 -9 39 l6 34 10 -29 c7
-22 6 -32 -7 -44z m-1553 24 c43 -8 80 -16 82 -18 2 -2 -2 -51 -10 -108 -7
-58 -17 -142 -20 -187 l-7 -81 -117 -55 -116 -55 -30 18 c-16 10 -49 28 -72
40 -24 12 -43 24 -43 26 0 2 40 75 89 161 49 87 102 184 117 216 16 31 33 57
39 57 5 0 45 -7 88 -14z m1804 -19 c91 -34 173 -134 173 -211 0 -109 -146
-219 -268 -202 -103 14 -162 87 -162 201 0 74 14 114 55 164 49 57 126 76 202
48z m1427 -130 c112 -137 112 -309 0 -422 -53 -52 -174 -115 -237 -122 -59 -7
-101 8 -193 68 -91 60 -119 89 -150 154 -30 63 -31 135 -4 208 l20 54 53 -15
c74 -21 239 -20 304 2 52 17 103 62 125 112 14 30 33 20 82 -39z m-687 6 c24
-16 42 -32 40 -38 -1 -5 -11 -38 -21 -71 l-19 -62 -106 -20 c-89 -18 -194 -35
-341 -56 -20 -3 -31 4 -52 34 -43 62 -52 57 407 224 22 8 42 15 44 15 2 1 24
-11 48 -26z m-1719 -313 c52 -101 -3 -256 -110 -311 -51 -26 -104 -24 -166 7
-120 60 -169 231 -94 324 16 20 21 21 41 10 53 -28 210 -2 236 39 12 21 68
-21 93 -69z m1192 18 c38 -89 10 -171 -78 -226 -64 -41 -115 -55 -165 -48 -99
15 -167 88 -169 181 0 25 1 47 3 50 2 2 30 -3 61 -11 45 -12 70 -13 114 -5 62
12 141 51 175 87 12 13 26 24 30 24 3 0 17 -23 29 -52z m-3015 -15 c50 -9 92
-17 94 -19 2 -2 -28 -37 -67 -78 -50 -51 -82 -96 -107 -147 -39 -81 -43 -113
-19 -147 24 -35 10 -37 -51 -8 -72 36 -154 112 -184 170 -26 53 -48 163 -38
190 8 20 64 45 127 56 53 9 120 5 245 -17z m569 -9 c165 -40 376 -201 350
-268 -13 -35 -187 -104 -475 -190 -164 -49 -208 -55 -265 -36 -62 21 -104 43
-172 87 -74 49 -78 61 -46 125 65 128 152 207 289 262 114 46 193 51 319 20z
m796 -11 c-1 -23 -20 -34 -51 -31 l-34 4 35 17 c39 18 50 20 50 10z m-85 -104
c5 -5 -5 -9 -25 -9 -19 0 -66 -3 -105 -6 l-70 -5 40 20 c31 15 52 19 95 14 30
-3 59 -9 65 -14z"/>
<path d="M1378 3297 c-64 -19 -123 -59 -155 -109 -25 -37 -28 -51 -28 -122 0
-71 4 -88 29 -134 40 -71 112 -137 194 -175 55 -26 79 -31 137 -31 60 0 79 4
125 30 166 93 183 333 33 464 -85 75 -226 107 -335 77z m236 -76 c3 -5 -18
-23 -48 -40 -57 -32 -84 -63 -122 -139 -15 -32 -23 -40 -23 -26 -3 80 163 255
193 205z"/>
<path d="M763 2152 c-179 -64 -231 -228 -122 -391 73 -109 185 -173 309 -175
66 -1 82 3 128 29 89 49 132 129 132 245 0 167 -137 299 -319 307 -56 3 -90
-1 -128 -15z m222 -130 c-99 -64 -156 -141 -191 -260 l-14 -47 4 61 c2 36 13
78 26 103 28 56 96 124 157 155 74 38 85 31 18 -12z"/>
<path d="M3050 1740 c-35 -35 -24 -84 22 -95 21 -5 33 -1 52 19 32 31 32 41 1
71 -29 30 -49 31 -75 5z"/>
<path d="M3013 1519 c-35 -13 -47 -46 -29 -75 31 -47 99 -40 112 12 11 43 -38
80 -83 63z"/>
</g>
</svg>
