<?xml version="1.0" encoding="UTF-8"?><svg xmlns="http://www.w3.org/2000/svg" viewBox="0 0 582.95 149.98"><defs><style>.e{fill:#e87001;}.f{fill:#fff;}.g{fill:#d71c50;}.h{fill:#072745;}.i{fill:#e9e8e6;stroke:#eae9e7;stroke-miterlimit:10;stroke-width:1.24px;}</style></defs><g id="a"/><g id="b"><g id="c"><g><path class="e" d="M214.23,35.27h52.76v13.87h-17.7v42.3h-17.36V49.14h-17.7v-13.87Z"/><path class="e" d="M275.53,35.27h17.4v56.17h-17.4V35.27Z"/><path class="e" d="M305.19,35.27h22.83l8.8,34.18,8.74-34.18h22.81v56.17h-14.22V48.61l-10.95,42.84h-12.87l-10.93-42.84v42.84h-14.22V35.27Z"/><path class="g" d="M378.03,35.27h49.12v11.23l-31.53,32.88h32.68v12.07h-53.3v-11.65l31.2-32.53h-28.18v-11.99Z"/><path class="g" d="M436.81,35.27h17.4v56.17h-17.4V35.27Z"/><path class="g" d="M466.77,35.27h16.21l21.15,31.08v-31.08h16.36v56.17h-16.36l-21.04-30.84v30.84h-16.32V35.27Z"/><path class="g" d="M531.99,35.27h46.52v11.99h-29.12v8.93h27.01v11.46h-27.01v11.07h29.96v12.72h-47.36V35.27Z"/></g><g><path class="f" d="M216,103.21c1.23-.19,2.7-.33,4.31-.33,2.91,0,4.98,.68,6.36,1.96,1.4,1.28,2.21,3.1,2.21,5.63s-.79,4.66-2.26,6.1c-1.47,1.47-3.89,2.26-6.94,2.26-1.44,0-2.65-.07-3.68-.19v-15.44Zm2.03,13.88c.51,.09,1.26,.12,2.05,.12,4.33,0,6.68-2.42,6.68-6.66,.02-3.7-2.07-6.05-6.36-6.05-1.05,0-1.84,.09-2.38,.21v12.39Z"/><path class="f" d="M232.67,113.43c.05,2.77,1.82,3.91,3.87,3.91,1.47,0,2.35-.26,3.12-.58l.35,1.47c-.72,.33-1.96,.7-3.75,.7-3.47,0-5.54-2.28-5.54-5.68s2-6.08,5.29-6.08c3.68,0,4.66,3.24,4.66,5.31,0,.42-.05,.75-.07,.95h-7.92Zm6.01-1.47c.02-1.3-.54-3.33-2.84-3.33-2.07,0-2.98,1.91-3.14,3.33h5.98Z"/><path class="f" d="M242.92,116.59c.61,.4,1.68,.82,2.7,.82,1.49,0,2.19-.75,2.19-1.68,0-.98-.58-1.51-2.1-2.07-2.03-.72-2.98-1.84-2.98-3.19,0-1.82,1.47-3.31,3.89-3.31,1.14,0,2.14,.33,2.77,.7l-.51,1.49c-.44-.28-1.26-.65-2.31-.65-1.21,0-1.89,.7-1.89,1.54,0,.93,.68,1.35,2.14,1.91,1.96,.75,2.96,1.72,2.96,3.4,0,1.98-1.54,3.38-4.21,3.38-1.23,0-2.38-.3-3.17-.77l.51-1.56Z"/><path class="f" d="M254.7,104.25c.02,.7-.49,1.26-1.3,1.26-.72,0-1.23-.56-1.23-1.26s.54-1.28,1.28-1.28,1.26,.56,1.26,1.28Zm-2.28,14.44v-11.27h2.05v11.27h-2.05Z"/><path class="f" d="M267.58,107.42c-.05,.81-.09,1.72-.09,3.1v6.54c0,2.58-.51,4.17-1.61,5.15-1.09,1.03-2.68,1.35-4.1,1.35s-2.84-.33-3.75-.93l.51-1.56c.75,.47,1.91,.88,3.31,.88,2.1,0,3.63-1.09,3.63-3.93v-1.26h-.05c-.63,1.05-1.84,1.89-3.59,1.89-2.79,0-4.8-2.38-4.8-5.5,0-3.82,2.49-5.98,5.08-5.98,1.96,0,3.03,1.02,3.52,1.96h.05l.09-1.7h1.79Zm-2.12,4.45c0-.35-.02-.65-.12-.93-.37-1.19-1.37-2.17-2.86-2.17-1.96,0-3.35,1.65-3.35,4.26,0,2.21,1.12,4.05,3.33,4.05,1.26,0,2.4-.79,2.84-2.1,.12-.35,.16-.75,.16-1.09v-2.03Z"/><path class="f" d="M270.75,110.47c0-1.16-.02-2.12-.09-3.05h1.82l.12,1.86h.05c.56-1.07,1.86-2.12,3.73-2.12,1.56,0,3.98,.93,3.98,4.8v6.73h-2.05v-6.5c0-1.82-.68-3.33-2.61-3.33-1.35,0-2.4,.96-2.75,2.1-.09,.26-.14,.61-.14,.95v6.78h-2.05v-8.22Z"/><path class="f" d="M298.34,102.16v13.62c0,1,.02,2.14,.09,2.91h-1.84l-.09-1.96h-.05c-.63,1.26-2,2.21-3.84,2.21-2.72,0-4.82-2.3-4.82-5.73-.02-3.75,2.31-6.05,5.05-6.05,1.72,0,2.89,.82,3.4,1.72h.05v-6.73h2.05Zm-2.05,9.85c0-.26-.02-.61-.09-.86-.3-1.3-1.42-2.38-2.96-2.38-2.12,0-3.38,1.86-3.38,4.35,0,2.28,1.12,4.17,3.33,4.17,1.37,0,2.63-.91,3-2.44,.07-.28,.09-.56,.09-.88v-1.96Z"/><path class="f" d="M304.02,104.25c.02,.7-.49,1.26-1.3,1.26-.72,0-1.23-.56-1.23-1.26s.54-1.28,1.28-1.28,1.26,.56,1.26,1.28Zm-2.28,14.44v-11.27h2.05v11.27h-2.05Z"/><path class="f" d="M316.9,107.42c-.05,.81-.09,1.72-.09,3.1v6.54c0,2.58-.51,4.17-1.61,5.15-1.09,1.03-2.68,1.35-4.1,1.35s-2.84-.33-3.75-.93l.51-1.56c.75,.47,1.91,.88,3.31,.88,2.1,0,3.63-1.09,3.63-3.93v-1.26h-.05c-.63,1.05-1.84,1.89-3.59,1.89-2.79,0-4.8-2.38-4.8-5.5,0-3.82,2.49-5.98,5.08-5.98,1.96,0,3.03,1.02,3.52,1.96h.05l.09-1.7h1.79Zm-2.12,4.45c0-.35-.02-.65-.12-.93-.37-1.19-1.37-2.17-2.86-2.17-1.96,0-3.35,1.65-3.35,4.26,0,2.21,1.12,4.05,3.33,4.05,1.26,0,2.4-.79,2.84-2.1,.12-.35,.16-.75,.16-1.09v-2.03Z"/><path class="f" d="M322.35,104.25c.02,.7-.49,1.26-1.3,1.26-.72,0-1.23-.56-1.23-1.26s.54-1.28,1.28-1.28,1.26,.56,1.26,1.28Zm-2.28,14.44v-11.27h2.05v11.27h-2.05Z"/><path class="f" d="M327.99,104.18v3.24h2.93v1.56h-2.93v6.08c0,1.4,.4,2.19,1.54,2.19,.54,0,.93-.07,1.19-.14l.09,1.54c-.4,.16-1.02,.28-1.82,.28-.96,0-1.72-.3-2.21-.86-.58-.61-.79-1.61-.79-2.93v-6.15h-1.75v-1.56h1.75v-2.7l2-.54Z"/><path class="f" d="M339.47,118.69l-.16-1.42h-.07c-.63,.88-1.84,1.68-3.45,1.68-2.28,0-3.45-1.61-3.45-3.24,0-2.72,2.42-4.21,6.78-4.19v-.23c0-.93-.26-2.61-2.56-2.61-1.05,0-2.14,.33-2.93,.84l-.47-1.35c.93-.61,2.28-1,3.7-1,3.45,0,4.28,2.35,4.28,4.61v4.21c0,.98,.05,1.93,.19,2.7h-1.86Zm-.3-5.75c-2.24-.05-4.77,.35-4.77,2.54,0,1.33,.88,1.96,1.93,1.96,1.47,0,2.4-.93,2.72-1.89,.07-.21,.12-.44,.12-.65v-1.96Z"/><path class="f" d="M344.45,102.16h2.05v16.53h-2.05v-16.53Z"/><path class="f" d="M364.62,102.16v13.62c0,1,.02,2.14,.09,2.91h-1.84l-.09-1.96h-.05c-.63,1.26-2,2.21-3.84,2.21-2.72,0-4.82-2.3-4.82-5.73-.02-3.75,2.31-6.05,5.05-6.05,1.72,0,2.89,.82,3.4,1.72h.05v-6.73h2.05Zm-2.05,9.85c0-.26-.02-.61-.09-.86-.3-1.3-1.42-2.38-2.96-2.38-2.12,0-3.38,1.86-3.38,4.35,0,2.28,1.12,4.17,3.33,4.17,1.37,0,2.63-.91,3-2.44,.07-.28,.09-.56,.09-.88v-1.96Z"/><path class="f" d="M369.16,113.43c.05,2.77,1.82,3.91,3.87,3.91,1.47,0,2.35-.26,3.12-.58l.35,1.47c-.72,.33-1.96,.7-3.75,.7-3.47,0-5.54-2.28-5.54-5.68s2-6.08,5.29-6.08c3.68,0,4.66,3.24,4.66,5.31,0,.42-.05,.75-.07,.95h-7.92Zm6.01-1.47c.02-1.3-.54-3.33-2.84-3.33-2.07,0-2.98,1.91-3.14,3.33h5.98Z"/><path class="f" d="M379.4,116.59c.61,.4,1.68,.82,2.7,.82,1.49,0,2.19-.75,2.19-1.68,0-.98-.58-1.51-2.1-2.07-2.03-.72-2.98-1.84-2.98-3.19,0-1.82,1.47-3.31,3.89-3.31,1.14,0,2.14,.33,2.77,.7l-.51,1.49c-.44-.28-1.26-.65-2.31-.65-1.21,0-1.89,.7-1.89,1.54,0,.93,.68,1.35,2.14,1.91,1.96,.75,2.96,1.72,2.96,3.4,0,1.98-1.54,3.38-4.21,3.38-1.23,0-2.38-.3-3.17-.77l.51-1.56Z"/><path class="f" d="M400.08,118.69l-.16-1.42h-.07c-.63,.88-1.84,1.68-3.45,1.68-2.28,0-3.45-1.61-3.45-3.24,0-2.72,2.42-4.21,6.78-4.19v-.23c0-.93-.26-2.61-2.56-2.61-1.05,0-2.14,.33-2.93,.84l-.47-1.35c.93-.61,2.28-1,3.7-1,3.45,0,4.28,2.35,4.28,4.61v4.21c0,.98,.05,1.93,.19,2.7h-1.86Zm-.3-5.75c-2.24-.05-4.77,.35-4.77,2.54,0,1.33,.88,1.96,1.93,1.96,1.47,0,2.4-.93,2.72-1.89,.07-.21,.12-.44,.12-.65v-1.96Z"/><path class="f" d="M413.1,118.27c-.54,.28-1.72,.65-3.24,.65-3.4,0-5.61-2.3-5.61-5.75s2.38-5.98,6.05-5.98c1.21,0,2.28,.3,2.84,.58l-.47,1.58c-.49-.28-1.26-.54-2.38-.54-2.58,0-3.98,1.91-3.98,4.26,0,2.61,1.68,4.21,3.91,4.21,1.16,0,1.93-.3,2.51-.56l.35,1.54Z"/><path class="f" d="M418.27,104.18v3.24h2.93v1.56h-2.93v6.08c0,1.4,.4,2.19,1.54,2.19,.54,0,.93-.07,1.19-.14l.09,1.54c-.4,.16-1.02,.28-1.82,.28-.96,0-1.72-.3-2.21-.86-.58-.61-.79-1.61-.79-2.93v-6.15h-1.75v-1.56h1.75v-2.7l2-.54Z"/><path class="f" d="M432.94,115.62c0,1.16,.02,2.19,.09,3.07h-1.82l-.12-1.84h-.05c-.54,.91-1.72,2.1-3.73,2.1-1.77,0-3.89-.98-3.89-4.94v-6.59h2.05v6.24c0,2.14,.65,3.59,2.51,3.59,1.37,0,2.33-.96,2.7-1.86,.12-.3,.19-.67,.19-1.05v-6.92h2.05v8.2Z"/><path class="f" d="M442.58,118.69l-.16-1.42h-.07c-.63,.88-1.84,1.68-3.45,1.68-2.28,0-3.45-1.61-3.45-3.24,0-2.72,2.42-4.21,6.78-4.19v-.23c0-.93-.26-2.61-2.56-2.61-1.05,0-2.14,.33-2.93,.84l-.47-1.35c.93-.61,2.28-1,3.7-1,3.45,0,4.28,2.35,4.28,4.61v4.21c0,.98,.05,1.93,.19,2.7h-1.86Zm-.3-5.75c-2.24-.05-4.77,.35-4.77,2.54,0,1.33,.88,1.96,1.93,1.96,1.47,0,2.4-.93,2.72-1.89,.07-.21,.12-.44,.12-.65v-1.96Z"/><path class="f" d="M447.56,102.16h2.05v16.53h-2.05v-16.53Z"/><path class="f" d="M455.34,104.25c.02,.7-.49,1.26-1.3,1.26-.72,0-1.23-.56-1.23-1.26s.54-1.28,1.28-1.28,1.26,.56,1.26,1.28Zm-2.28,14.44v-11.27h2.05v11.27h-2.05Z"/><path class="f" d="M460.98,104.18v3.24h2.93v1.56h-2.93v6.08c0,1.4,.4,2.19,1.54,2.19,.54,0,.93-.07,1.19-.14l.09,1.54c-.4,.16-1.02,.28-1.82,.28-.96,0-1.72-.3-2.21-.86-.58-.61-.79-1.61-.79-2.93v-6.15h-1.75v-1.56h1.75v-2.7l2-.54Z"/><path class="f" d="M467.22,113.43c.05,2.77,1.82,3.91,3.87,3.91,1.47,0,2.35-.26,3.12-.58l.35,1.47c-.72,.33-1.96,.7-3.75,.7-3.47,0-5.54-2.28-5.54-5.68s2-6.08,5.29-6.08c3.68,0,4.66,3.24,4.66,5.31,0,.42-.05,.75-.07,.95h-7.92Zm6.01-1.47c.02-1.3-.54-3.33-2.84-3.33-2.07,0-2.98,1.91-3.14,3.33h5.98Zm.49-9.41l-2.84,3.33h-1.47l2.05-3.33h2.26Z"/><path class="f" d="M490.71,118.27c-.54,.28-1.72,.65-3.24,.65-3.4,0-5.61-2.3-5.61-5.75s2.38-5.98,6.05-5.98c1.21,0,2.28,.3,2.84,.58l-.47,1.58c-.49-.28-1.26-.54-2.38-.54-2.58,0-3.98,1.91-3.98,4.26,0,2.61,1.68,4.21,3.91,4.21,1.16,0,1.93-.3,2.51-.56l.35,1.54Z"/><path class="f" d="M502.54,115.62c0,1.16,.02,2.19,.09,3.07h-1.82l-.12-1.84h-.05c-.54,.91-1.72,2.1-3.73,2.1-1.77,0-3.89-.98-3.89-4.94v-6.59h2.05v6.24c0,2.14,.65,3.59,2.51,3.59,1.37,0,2.33-.96,2.7-1.86,.12-.3,.19-.67,.19-1.05v-6.92h2.05v8.2Z"/><path class="f" d="M505.95,102.16h2.05v16.53h-2.05v-16.53Z"/><path class="f" d="M513.91,104.18v3.24h2.93v1.56h-2.93v6.08c0,1.4,.4,2.19,1.54,2.19,.54,0,.93-.07,1.19-.14l.09,1.54c-.4,.16-1.02,.28-1.82,.28-.96,0-1.72-.3-2.21-.86-.58-.61-.79-1.61-.79-2.93v-6.15h-1.75v-1.56h1.75v-2.7l2-.54Z"/><path class="f" d="M528.58,115.62c0,1.16,.02,2.19,.09,3.07h-1.82l-.12-1.84h-.05c-.54,.91-1.72,2.1-3.73,2.1-1.77,0-3.89-.98-3.89-4.94v-6.59h2.05v6.24c0,2.14,.65,3.59,2.51,3.59,1.37,0,2.33-.96,2.7-1.86,.12-.3,.19-.67,.19-1.05v-6.92h2.05v8.2Z"/><path class="f" d="M531.98,110.94c0-1.33-.02-2.47-.09-3.52h1.79l.07,2.21h.09c.51-1.51,1.75-2.47,3.12-2.47,.23,0,.4,.02,.58,.07v1.93c-.21-.05-.42-.07-.7-.07-1.44,0-2.47,1.09-2.75,2.63-.05,.28-.09,.61-.09,.95v6.01h-2.03v-7.75Z"/><path class="f" d="M540.5,113.43c.05,2.77,1.82,3.91,3.87,3.91,1.47,0,2.35-.26,3.12-.58l.35,1.47c-.72,.33-1.96,.7-3.75,.7-3.47,0-5.54-2.28-5.54-5.68s2-6.08,5.29-6.08c3.68,0,4.66,3.24,4.66,5.31,0,.42-.05,.75-.07,.95h-7.92Zm6.01-1.47c.02-1.3-.54-3.33-2.84-3.33-2.07,0-2.98,1.91-3.14,3.33h5.98Z"/><path class="f" d="M551.03,102.16h2.05v16.53h-2.05v-16.53Z"/><path class="f" d="M556.52,102.16h2.05v16.53h-2.05v-16.53Z"/><path class="f" d="M563.16,113.43c.05,2.77,1.82,3.91,3.87,3.91,1.47,0,2.35-.26,3.12-.58l.35,1.47c-.72,.33-1.96,.7-3.75,.7-3.47,0-5.54-2.28-5.54-5.68s2-6.08,5.29-6.08c3.68,0,4.66,3.24,4.66,5.31,0,.42-.05,.75-.07,.95h-7.92Zm6.01-1.47c.02-1.3-.54-3.33-2.84-3.33-2.07,0-2.98,1.91-3.14,3.33h5.98Z"/><path class="f" d="M573.41,116.59c.61,.4,1.68,.82,2.7,.82,1.49,0,2.19-.75,2.19-1.68,0-.98-.58-1.51-2.1-2.07-2.03-.72-2.98-1.84-2.98-3.19,0-1.82,1.47-3.31,3.89-3.31,1.14,0,2.14,.33,2.77,.7l-.51,1.49c-.44-.28-1.26-.65-2.3-.65-1.21,0-1.89,.7-1.89,1.54,0,.93,.68,1.35,2.14,1.91,1.96,.75,2.96,1.72,2.96,3.4,0,1.98-1.54,3.38-4.21,3.38-1.23,0-2.38-.3-3.17-.77l.51-1.56Z"/></g></g><g id="d"><path class="i" d="M16.61,83.75C7.73,25.45,81.44-29.38,137.69,19.51c-2.48,10.77-77.22,72.43-121.09,64.24Z"/><path class="i" d="M146.05,27.38c7.65,10.3,11.21,17.75,12.69,22.39,4.03,12.64-29.86,62.09-106.85,88.57-7.19-2.16-22.08-16.32-29.13-30.48,5.65-1.76,81.81-37.98,123.29-80.48Z"/><path class="i" d="M65.17,144.35c21.79,13.39,91.3,1.69,97.03-56.73-2.81,2.84-97.03,56.73-97.03,56.73Z"/><path class="h" d="M121.88,20.06l2.29-4.05s6.51,4,7.51,5.01c-.25,.67-2.84,3.67-2.84,3.67l-6.97-4.63Z"/><path class="h" d="M114.25,16.31l1.84-4.3s-7.34-2.63-8.18-2.71c-.29,.38-1.38,3.88-1.38,4.17s7.72,2.84,7.72,2.84Z"/><path class="h" d="M98.23,12.01l.58-4.8s-8.39-.54-9.05-.33c.04,.42,0,4.51,0,4.51l8.47,.63Z"/><path class="h" d="M81.54,12.01s-6.97,.71-8.13,1.75c-.21-.38-1.33-4.46-1.33-4.46,0,0,6.34-1.75,9.05-1.67,0,.88,.42,4.38,.42,4.38Z"/><path class="h" d="M65.23,16.31s-6.8,3-7.05,3.75c-.33-.42-2.59-3.96-2.59-3.96,0,0,7.3-4.09,8.01-4.09,.25,.5,1.63,4.3,1.63,4.3Z"/><path class="h" d="M50.84,24.7s-5.92,4.92-6.13,5.59c-.17-.04-3.3-3.3-3.3-3.3,0,0,5.42-5.59,6.67-5.92,.42,.54,2.75,3.63,2.75,3.63Z"/><path class="h" d="M35.44,33.71s-4.92,7.01-5.09,7.38c.38,.38,4.05,2.38,4.05,2.38,0,0,4.26-6.59,4.63-6.84-.33-.13-3.59-2.92-3.59-2.92Z"/><path class="h" d="M26.43,49.18s-2.16,5.13-2.73,8.59c.56,.04,4.35,1.08,4.35,1.08,0,0,1.97-6.72,2.69-7.84-.32-.25-4.32-1.84-4.32-1.84Z"/><polygon class="h" points="21.76 66.58 21.26 75.46 25.81 75.46 26.35 67.12 21.76 66.58"/><circle class="h" cx="54.56" cy="55.1" r="13.31"/><circle class="h" cx="90.04" cy="34.62" r="13.31"/><path class="g" d="M5.55,72.8C-6.81,125.25,110.67,79.43,160.58,.08,159.06,47.94-34.92,166.63,5.55,72.8Z"/><path class="e" d="M156.5,30.95c51.62,11.61-31.84,98.79-122.87,116.97,82.45,5.74,212.75-119.7,122.87-116.97Z"/></g></g></svg>