<svg width="575" height="235" viewBox="0 0 575 235" fill="none" xmlns="http://www.w3.org/2000/svg">
<path d="M1 96.7519L122.94 8C122.94 8 201.273 108.586 193.804 207.988C141.125 203.254 18.9107 189.054 18.9107 189.054C18.9107 189.054 31.5536 136.986 1 96.7519Z" fill="#CBE3B9"/>
<path d="M127.429 10.3668C166.411 69.5347 198.018 114.502 196.964 210.354C19.9643 192.604 17.8572 192.604 17.8572 192.604L18.9107 199.704L201.179 223.371C201.179 223.371 279.143 167.754 355 205.621C337.089 191.421 292.839 168.937 206.973 202.663C202.232 97.9353 163.777 48.8259 127.429 10.3668Z" fill="#CBE3B9"/>
<path d="M170.625 16.2835L142.178 17.4669L172.732 13.9168C172.732 13.9168 225.411 58.8845 220.143 183.137C247.009 170.712 282.967 155.328 336.636 183.137C304.955 173.079 265.973 160.062 215.402 190.829C219.616 141.128 216.455 65.3929 170.625 16.2835Z" fill="#D4DADC"/>
<path d="M159.562 28.7088C189.063 67.7597 220.67 113.911 210.134 192.012C213.295 122.194 199.598 84.3267 159.562 28.7088Z" fill="#D4DADC"/>
<path d="M198.544 21.6086C232.259 92.6102 229.625 136.986 222.25 178.404C243.321 166.57 264.393 151.186 314.437 163.612C284.937 151.778 253.33 151.778 225.937 171.895C233.839 140.536 235.946 81.3683 198.544 21.6086Z" fill="#D4DADC"/>
<path d="M41.3413 107.284V114.715L41.0252 114.798C40.9737 114.228 40.8857 113.662 40.7618 113.106C40.6354 112.502 40.4352 112.159 40.1718 112.053C39.786 111.962 39.3853 111.99 39.0129 112.136L30.9004 114.573L39.9821 160.417C40.1927 161.757 40.5465 163.064 41.0357 164.31C41.2558 164.873 41.6232 165.348 42.0893 165.671C42.6413 165.924 43.2314 166.057 43.8277 166.061L43.933 166.617L34.2929 165.919L34.198 165.399C35.378 165.399 36.0734 165.079 36.3052 164.535C36.4898 163.349 36.4138 162.13 36.0839 160.985L27.3393 115.686L19.5639 118.052C19.0312 118.167 18.5233 118.396 18.0679 118.727C17.8466 118.94 17.7939 119.33 17.8993 119.91C17.9895 120.348 18.1238 120.773 18.2996 121.176L17.9836 121.259L15.4761 115.911L15.7921 115.816C16.182 116.514 16.5086 116.905 16.7825 116.999C17.3373 117.049 17.895 116.96 18.4155 116.739L38.9286 110.195C39.5381 110.044 40.1147 109.759 40.6248 109.355C40.806 109.077 40.9356 108.761 41.0062 108.425C41.0768 108.09 41.0868 107.742 41.0357 107.402L41.3413 107.284Z" fill="#414550"/>
<path d="M52.3511 122.242L52.4564 122.715C52.0847 122.736 51.7325 122.908 51.4661 123.2C51.3115 123.342 51.1897 123.524 51.1108 123.73C51.0319 123.936 50.9984 124.16 51.013 124.383C51.1561 125.516 51.3601 126.639 51.6241 127.744L59.1677 162.405C59.3904 163.578 59.6862 164.733 60.0527 165.86C60.2282 166.277 60.4837 166.644 60.8007 166.937C61.2347 167.272 61.7493 167.449 62.2757 167.446L62.3811 167.907L55.2589 167.399L55.1641 166.949C56.0596 167.02 56.5548 166.771 56.6496 166.215C56.6503 164.9 56.4763 163.592 56.1334 162.334L48.8953 128.703C48.6628 127.289 48.255 125.919 47.6837 124.632C47.5109 124.335 47.25 124.116 46.9472 124.014C46.6445 123.912 46.3194 123.934 46.0296 124.076L45.9348 123.626L52.3511 122.242Z" fill="#414550"/>
<path d="M76.8571 117.165L80.65 116.384L80.7869 116.928C79.5332 117.331 79.2487 118.952 79.9335 121.768C80.081 122.372 80.3128 123.2 80.6394 124.253L93.1875 164.76C93.5775 166.131 94.0893 167.455 94.7151 168.712C94.8916 169.016 95.1205 169.277 95.3883 169.481C95.6561 169.684 95.9574 169.825 96.2744 169.895L96.4114 170.452L90.4166 170.014L90.2901 169.469C91.1014 169.576 91.3437 168.842 90.9223 167.256C90.838 166.901 90.6378 166.191 90.3112 165.138L78.2794 126.336L79.1433 169.126H78.9642L60.4951 129.2L65.763 164.156C65.8437 164.758 65.9527 165.354 66.0896 165.943C66.3635 167.126 66.9008 167.801 67.7121 167.86L67.828 168.333L63.7507 168.049L63.6453 167.576C64.2564 167.576 64.6251 167.576 64.6989 167.268C64.832 166.872 64.8754 166.445 64.8253 166.026C64.8253 165.458 64.72 164.842 64.6146 164.097L59.0517 126.04C58.5685 124.68 57.8112 123.465 56.8392 122.49C56.4128 122.188 55.9073 122.058 55.4064 122.123L55.301 121.65L59.8419 120.703L77.9107 160.062L76.8571 117.165Z" fill="#414550"/>
<path d="M125.195 160.393L128.482 172.712L96.875 170.428L103.628 98.5151L88.2252 102.669C87.7276 102.733 87.2529 102.939 86.847 103.269C86.4411 103.598 86.1174 104.04 85.9073 104.55C85.6334 105.45 85.7704 107.438 86.3393 110.467L86.0337 110.538L83.8318 100.988L107.927 94.0657L101.911 168.227L123.941 169.552C125.227 169.635 125.922 169.067 126.048 167.848C126.175 166.629 125.774 164.144 124.879 160.393H125.195Z" fill="#414550"/>
<path d="M120.296 108.136L120.475 108.799C120.283 108.801 120.095 108.859 119.929 108.967C119.763 109.074 119.625 109.228 119.527 109.414C119.376 109.653 119.272 109.926 119.223 110.213C119.174 110.501 119.181 110.798 119.242 111.082C119.348 111.781 119.738 113.378 120.412 115.899L133.624 165.6C134.34 168.286 134.814 169.943 135.067 170.546C135.295 171.112 135.609 171.628 135.994 172.073C136.41 172.516 136.959 172.765 137.532 172.771L137.711 173.434L130.589 172.913L130.421 172.274C131.306 172.333 131.759 171.966 131.759 171.15C131.545 169.244 131.157 167.368 130.6 165.552L117.746 117.035C117.285 114.997 116.646 113.015 115.839 111.118C115.705 110.731 115.442 110.418 115.106 110.243C114.77 110.069 114.387 110.048 114.038 110.183L113.869 109.544L120.296 108.136Z" fill="#414550"/>
<path d="M142.473 103.533L147.141 102.562L147.341 103.308C147.024 103.405 146.747 103.621 146.555 103.921C146.363 104.22 146.269 104.584 146.287 104.953C146.414 106.79 146.768 108.598 147.341 110.325L165.663 176.262L128.988 117.839L142.326 167.304C142.618 168.508 142.969 169.694 143.38 170.854C143.577 171.427 143.858 171.959 144.212 172.428C144.682 172.842 145.218 173.151 145.792 173.339L145.982 174.025L140.851 173.658L140.672 172.984C141.588 173.055 142.052 172.688 142.052 171.883C141.819 169.908 141.406 167.965 140.819 166.085L128.724 120.987C127.903 117.709 126.846 114.511 125.564 111.426C124.503 109.012 123.274 108.045 121.876 108.526L121.697 107.852L126.227 106.917L160.247 160.736L146.119 109.852C145.35 107.106 144.728 105.461 144.233 104.929C144.049 104.69 143.815 104.506 143.552 104.392C143.289 104.279 143.006 104.24 142.726 104.278L142.473 103.533Z" fill="#414550"/>
<path d="M149.806 102.905L149.575 102.053L164.704 98.9056L167.77 109.662H167.528C166.724 107.297 165.777 104.995 164.693 102.775C164.471 102.449 164.166 102.206 163.818 102.077C163.47 101.948 163.096 101.94 162.744 102.053L154.821 103.663L164.304 137.306L172.058 136.797C172.827 136.797 173.259 136.501 173.333 136.039C173.397 135.382 173.321 134.717 173.111 134.099H173.375L175.482 141.424H175.219C175.011 140.679 174.675 139.987 174.228 139.388C174.046 139.215 173.835 139.084 173.607 139.005C173.378 138.926 173.138 138.899 172.901 138.927L164.915 139.388L171.426 162.547C172.068 165.125 172.857 167.655 173.786 170.12C174.179 171.281 174.837 172.305 175.693 173.09C176.436 173.56 177.273 173.813 178.126 173.824L182.815 174.12C183.729 174.296 184.669 174.206 185.544 173.86C185.74 173.633 185.891 173.361 185.985 173.063C186.08 172.765 186.116 172.447 186.091 172.132C185.931 170.142 185.578 168.178 185.038 166.274H185.375L188.441 177.031L170.193 175.717L169.982 174.96C170.228 174.962 170.468 174.88 170.669 174.723C170.871 174.566 171.025 174.343 171.11 174.084C171.278 173.552 171.036 172.12 170.383 169.813L153.578 109.958C153.076 108.019 152.464 106.118 151.745 104.266C151.281 103.189 150.607 102.74 149.806 102.905Z" fill="#414550"/>
<path d="M280.012 108.65V108.49H288.419V110.451H288.286C288.207 109.993 288.053 109.556 287.831 109.162C287.541 108.984 287.208 108.917 286.882 108.97H282.498V115.365H286.578C286.84 115.395 287.104 115.351 287.347 115.237C287.402 115.201 287.447 115.15 287.479 115.088C287.511 115.026 287.527 114.956 287.527 114.885H287.66V116.228H287.527C287.518 116.151 287.494 116.078 287.456 116.013C287.418 115.949 287.368 115.895 287.309 115.855C287.111 115.775 286.901 115.742 286.692 115.759H282.498V120.15C282.473 120.638 282.531 121.126 282.669 121.589C282.713 121.723 282.785 121.843 282.879 121.94C282.973 122.036 283.086 122.106 283.21 122.143C283.584 122.228 283.966 122.264 284.348 122.25H286.701C287.18 122.269 287.659 122.244 288.134 122.175C288.334 122.12 288.518 122.006 288.666 121.845C288.86 121.529 288.974 121.161 288.998 120.779H289.14V122.708H280.012V122.559C280.256 122.555 280.496 122.49 280.714 122.367C280.875 122.26 280.951 121.983 280.951 121.546V110.078C280.967 109.718 280.925 109.357 280.828 109.012C280.742 108.757 280.467 108.65 280.012 108.65Z" fill="#D4DADC"/>
<path d="M296.466 108.671L297.101 110.451H296.997C296.997 110.451 296.826 110.249 296.494 109.876C296.161 109.507 295.768 109.214 295.336 109.013C294.872 108.804 294.375 108.702 293.875 108.714C293.083 108.668 292.305 108.966 291.702 109.545C291.448 109.797 291.245 110.107 291.108 110.455C290.97 110.802 290.901 111.179 290.905 111.56C290.894 112.049 291.027 112.529 291.284 112.924C291.709 113.434 292.251 113.803 292.85 113.99C294.226 114.48 295.156 114.853 295.697 115.056C296.257 115.354 296.755 115.783 297.158 116.313C297.637 116.948 297.888 117.762 297.86 118.594C297.856 118.954 297.812 119.312 297.728 119.66C297.639 120.019 297.502 120.361 297.32 120.672C297.132 121 296.905 121.298 296.646 121.557C296.408 121.802 296.139 122.007 295.849 122.164C295.434 122.34 295 122.448 294.558 122.484C293.97 122.548 293.609 122.591 293.401 122.591H289.804V118.445H289.947C289.906 118.973 289.97 119.506 290.134 120.003C290.298 120.501 290.558 120.951 290.895 121.322C291.712 121.935 292.688 122.22 293.666 122.132C294.592 122.209 295.51 121.902 296.247 121.269C296.523 121.021 296.746 120.706 296.899 120.348C297.051 119.99 297.13 119.598 297.13 119.202C297.146 118.761 297.04 118.325 296.826 117.955C296.601 117.585 296.306 117.276 295.963 117.049C295.301 116.643 294.6 116.321 293.875 116.089C293.128 115.841 292.406 115.505 291.721 115.088C291.278 114.764 290.918 114.315 290.677 113.787C290.409 113.249 290.266 112.645 290.26 112.029C290.252 111.508 290.343 110.991 290.528 110.513C290.713 110.034 290.987 109.607 291.332 109.258C292.102 108.507 293.104 108.125 294.122 108.192C294.609 108.196 295.095 108.25 295.574 108.352C296.095 108.469 296.38 108.533 296.447 108.565C296.441 108.583 296.44 108.602 296.443 108.621C296.446 108.64 296.454 108.657 296.466 108.671Z" fill="#D4DADC"/>
<path d="M302.434 108.49V108.639C302.235 108.618 302.034 108.647 301.846 108.725C301.764 108.742 301.687 108.782 301.621 108.839C301.555 108.896 301.502 108.97 301.466 109.055C301.414 109.407 301.395 109.764 301.409 110.121V121.045C301.391 121.402 301.413 121.761 301.476 122.111C301.529 122.252 301.623 122.368 301.742 122.442C301.96 122.546 302.198 122.59 302.434 122.569V122.708H298.857V122.559C299.312 122.559 299.588 122.463 299.692 122.282C299.841 121.889 299.9 121.46 299.863 121.035V110.238C299.898 109.783 299.833 109.326 299.673 108.906C299.559 108.703 299.284 108.608 298.857 108.639V108.49H302.434Z" fill="#D4DADC"/>
<path d="M316.886 122.58V122.708H311.468C310.553 122.721 309.64 122.599 308.754 122.346C307.896 122.062 307.092 121.603 306.382 120.992C305.579 120.327 304.912 119.477 304.427 118.498C303.943 117.577 303.684 116.53 303.677 115.461C303.7 114.249 304.029 113.07 304.626 112.061C305.283 110.896 306.203 109.947 307.293 109.311C308.501 108.588 309.852 108.222 311.221 108.245C312.645 108.27 314.053 108.584 315.377 109.172L315.928 110.814H315.795C315.275 110.138 314.626 109.603 313.897 109.247C313.05 108.819 312.13 108.605 311.202 108.618C310.404 108.593 309.611 108.766 308.879 109.125C308.147 109.485 307.495 110.021 306.97 110.696C305.862 112.117 305.276 113.957 305.328 115.844C305.317 116.612 305.407 117.376 305.594 118.114C306.059 119.578 306.998 120.792 308.222 121.514C308.823 121.834 309.463 122.05 310.12 122.154C310.675 122.257 311.237 122.311 311.8 122.314H312.521C313.035 122.338 313.55 122.258 314.039 122.079C314.239 121.951 314.343 121.621 314.343 121.088V118.956C314.358 118.804 314.344 118.65 314.301 118.505C314.259 118.36 314.189 118.227 314.096 118.114C313.896 117.952 313.648 117.883 313.404 117.923V117.773H316.886V117.923C316.748 117.904 316.609 117.916 316.475 117.958C316.342 118 316.217 118.071 316.108 118.168C315.947 118.441 315.876 118.769 315.909 119.095V121.322C315.884 121.657 315.944 121.993 316.079 122.292C316.148 122.398 316.24 122.482 316.347 122.534C316.454 122.587 316.571 122.606 316.687 122.591L316.886 122.58Z" fill="#D4DADC"/>
<path d="M328.833 108.49H331.423V108.639C331.131 108.611 330.84 108.706 330.607 108.906C330.411 109.214 330.329 109.597 330.38 109.972V122.932L319.733 110.803V121.333C319.725 121.585 319.751 121.836 319.809 122.079C319.84 122.215 319.914 122.332 320.018 122.41C320.237 122.502 320.467 122.559 320.701 122.58V122.708H318.12V122.559C318.585 122.559 318.869 122.474 318.983 122.292C319.125 121.901 319.18 121.477 319.145 121.056V111.464C319.171 110.756 319.057 110.05 318.812 109.396C318.594 108.863 318.082 108.618 317.285 108.661V108.512H319.799L329.81 119.873V109.823C329.81 109.279 329.715 108.959 329.535 108.831C329.318 108.707 329.076 108.648 328.833 108.661V108.49Z" fill="#D4DADC"/>
<path d="M338.151 108.639V108.49H344.281C345.521 108.452 346.761 108.584 347.972 108.885C348.823 109.118 349.625 109.534 350.335 110.11C351.008 110.67 351.554 111.4 351.929 112.242C352.331 113.148 352.533 114.15 352.517 115.162C352.516 116.219 352.308 117.263 351.91 118.221C351.514 119.199 350.95 120.079 350.249 120.811C349.619 121.49 348.86 122 348.029 122.303C346.849 122.622 345.636 122.759 344.423 122.708H338.151V122.559H338.322C338.455 122.576 338.589 122.544 338.704 122.467C338.819 122.39 338.908 122.272 338.957 122.132C339.09 121.643 339.145 121.13 339.119 120.619V110.259C339.168 109.78 339.103 109.294 338.929 108.853C338.818 108.761 338.693 108.695 338.559 108.658C338.425 108.621 338.287 108.615 338.151 108.639ZM342.706 108.789H340.656V119.83C340.622 120.375 340.737 120.918 340.988 121.386C341.275 121.774 341.675 122.034 342.117 122.122C342.822 122.291 343.542 122.366 344.262 122.346C346.792 122.346 348.551 121.66 349.538 120.289C350.505 119.049 351.043 117.46 351.056 115.812C351.054 114.868 350.866 113.935 350.505 113.082C350.144 112.229 349.619 111.476 348.968 110.878C347.583 109.485 345.495 108.789 342.706 108.789Z" fill="#D4DADC"/>
<path d="M357.319 108.49V108.639C357.12 108.618 356.918 108.647 356.731 108.725C356.648 108.741 356.57 108.779 356.504 108.837C356.438 108.895 356.385 108.969 356.351 109.055C356.299 109.407 356.28 109.764 356.294 110.121V121.045C356.276 121.402 356.298 121.761 356.36 122.111C356.413 122.249 356.503 122.364 356.617 122.442C356.839 122.545 357.079 122.589 357.319 122.569V122.708H353.751V122.559C354.197 122.559 354.482 122.463 354.586 122.282C354.731 121.887 354.786 121.459 354.747 121.035V110.238C354.784 109.784 354.722 109.327 354.567 108.906C354.444 108.703 354.178 108.608 353.751 108.639V108.49H357.319Z" fill="#D4DADC"/>
<path d="M371.733 122.58V122.708H366.352C365.437 122.721 364.525 122.599 363.638 122.346C362.78 122.062 361.976 121.603 361.266 120.992C360.463 120.325 359.793 119.475 359.302 118.498C358.822 117.576 358.564 116.529 358.552 115.461C358.575 114.249 358.904 113.07 359.501 112.061C360.164 110.898 361.087 109.95 362.177 109.311C363.382 108.588 364.73 108.222 366.096 108.245C367.523 108.271 368.934 108.585 370.262 109.172L370.812 110.814H370.679C370.159 110.138 369.511 109.603 368.781 109.247C367.934 108.82 367.015 108.606 366.087 108.618C365.288 108.593 364.495 108.766 363.763 109.125C363.032 109.485 362.38 110.021 361.854 110.696C360.743 112.116 360.153 113.955 360.203 115.844C360.195 116.612 360.288 117.377 360.479 118.114C360.692 118.844 361.037 119.515 361.494 120.086C361.935 120.686 362.485 121.173 363.107 121.514C363.707 121.834 364.347 122.05 365.005 122.154C365.56 122.258 366.122 122.311 366.684 122.314H367.406C367.92 122.336 368.434 122.257 368.924 122.079C369.123 121.951 369.227 121.621 369.227 121.088V118.956C369.242 118.804 369.228 118.651 369.186 118.505C369.143 118.36 369.073 118.227 368.981 118.114C368.778 117.949 368.526 117.88 368.279 117.923V117.773H371.733V117.923C371.596 117.904 371.458 117.916 371.326 117.958C371.194 118 371.071 118.072 370.964 118.168C370.803 118.441 370.732 118.769 370.765 119.095V121.322C370.74 121.657 370.8 121.993 370.935 122.292C371.004 122.398 371.096 122.482 371.203 122.534C371.31 122.587 371.427 122.606 371.543 122.591L371.733 122.58Z" fill="#D4DADC"/>
<path d="M376.24 108.49V108.639C376.04 108.618 375.839 108.647 375.651 108.725C375.57 108.742 375.492 108.782 375.427 108.839C375.361 108.896 375.308 108.97 375.272 109.055C375.22 109.407 375.201 109.764 375.215 110.121V121.045C375.197 121.402 375.219 121.761 375.281 122.111C375.335 122.252 375.428 122.368 375.547 122.442C375.766 122.546 376.003 122.589 376.24 122.569V122.708H372.681V122.559C373.127 122.559 373.403 122.463 373.507 122.282C373.656 121.889 373.715 121.46 373.678 121.035V110.238C373.71 109.784 373.648 109.329 373.497 108.906C373.374 108.703 373.099 108.608 372.681 108.639V108.49H376.24Z" fill="#D4DADC"/>
<path d="M388.054 108L387.418 109.716H387.285C387.302 109.578 387.302 109.438 387.285 109.3C387.293 109.24 387.282 109.179 387.254 109.126C387.227 109.074 387.184 109.034 387.133 109.013C386.979 108.961 386.819 108.939 386.659 108.949H383.176V121.131C383.151 121.491 383.19 121.853 383.29 122.196C383.315 122.278 383.357 122.351 383.411 122.412C383.465 122.473 383.531 122.52 383.603 122.548C383.807 122.61 384.018 122.635 384.229 122.623V122.708H380.614V122.559C380.919 122.581 381.221 122.483 381.468 122.282C381.611 121.985 381.67 121.647 381.639 121.312V108.949H378.375C378.155 108.935 377.934 108.956 377.72 109.013C377.665 109.038 377.62 109.083 377.59 109.141C377.561 109.199 377.55 109.266 377.559 109.332C377.569 109.463 377.594 109.592 377.635 109.716H377.502L376.866 108H376.999C377.065 108.173 377.178 108.319 377.321 108.416C377.544 108.483 377.775 108.508 378.005 108.49H386.867C387.119 108.503 387.371 108.478 387.617 108.416C387.7 108.383 387.774 108.328 387.834 108.255C387.893 108.183 387.936 108.095 387.959 108H388.054Z" fill="#D4DADC"/>
<path d="M394.336 116.175H390.417L388.395 121.504C388.298 121.73 388.228 121.97 388.187 122.218C388.187 122.431 388.329 122.537 388.633 122.537V122.708H386.649V122.559C386.883 122.563 387.114 122.493 387.314 122.356C387.585 122.059 387.79 121.694 387.911 121.29L392.751 108.277H392.988L397.733 120.843C397.827 121.162 397.951 121.469 398.103 121.759C398.194 122.005 398.348 122.215 398.546 122.361C398.744 122.507 398.976 122.583 399.213 122.58V122.708H396.119V122.559C396.404 122.559 396.546 122.442 396.546 122.196C396.516 121.929 396.445 121.67 396.338 121.429C396.306 121.394 396.283 121.35 396.271 121.301C396.271 121.237 396.271 121.205 396.271 121.205L394.336 116.175ZM390.54 115.78H394.155L392.352 110.92L390.54 115.78Z" fill="#D4DADC"/>
<path d="M399.554 122.708V122.559C399.697 122.582 399.843 122.571 399.982 122.527C400.121 122.483 400.25 122.406 400.361 122.303C400.509 122.051 400.576 121.751 400.551 121.45V109.823C400.57 109.515 400.521 109.208 400.408 108.927C400.304 108.746 400.019 108.65 399.535 108.639V108.49H403.113V108.639C402.876 108.62 402.639 108.663 402.42 108.767C402.303 108.84 402.21 108.952 402.154 109.087C402.094 109.359 402.072 109.639 402.088 109.918V119.916C402.058 120.247 402.095 120.582 402.195 120.895C402.295 121.208 402.456 121.493 402.667 121.727C403.26 122.138 403.956 122.321 404.65 122.25H406.282C406.897 122.306 407.508 122.088 407.981 121.642C408.416 120.97 408.631 120.149 408.588 119.319H408.721V122.708H399.554Z" fill="#D4DADC"/>
<path d="M239 109.29V108.853H256.08C259.541 108.739 263.001 109.096 266.385 109.918C268.757 110.566 270.991 111.732 272.961 113.35C274.845 114.925 276.37 116.977 277.412 119.34C278.524 121.874 279.086 124.668 279.053 127.493C279.043 130.441 278.46 133.351 277.345 136.02C276.248 138.753 274.673 141.21 272.715 143.246C270.958 145.13 268.847 146.547 266.537 147.392C263.249 148.278 259.868 148.654 256.488 148.511H239V148.106H239.455C239.827 148.153 240.202 148.065 240.525 147.854C240.848 147.643 241.102 147.32 241.249 146.934C241.606 145.55 241.75 144.108 241.676 142.67V113.862C241.676 111.73 241.505 110.419 241.163 109.961C240.862 109.69 240.515 109.491 240.143 109.376C239.771 109.26 239.382 109.231 239 109.29ZM251.687 109.727H245.993V140.517C245.903 142.035 246.235 143.547 246.942 144.845C247.752 145.913 248.864 146.636 250.093 146.891C252.059 147.369 254.069 147.58 256.08 147.52C263.039 147.52 267.938 145.612 270.779 141.796C273.477 138.337 274.979 133.904 275.011 129.305C275.011 124.012 273.078 119.425 269.213 115.546C265.348 111.666 259.506 109.727 251.687 109.727Z" fill="#D4DADC"/>
<path d="M280.382 134.506V134.336H288.77V136.297H288.637C288.561 135.841 288.406 135.407 288.182 135.018C287.892 134.841 287.559 134.773 287.233 134.826H282.858V141.221H286.948C287.209 141.247 287.471 141.207 287.717 141.104C287.77 141.067 287.813 141.015 287.843 140.953C287.873 140.892 287.889 140.822 287.887 140.752H288.03V142.095H287.887C287.883 142.017 287.862 141.941 287.826 141.874C287.789 141.807 287.739 141.751 287.679 141.711C287.481 141.633 287.271 141.6 287.062 141.615H282.858V146.017C282.831 146.502 282.893 146.988 283.039 147.445C283.083 147.579 283.155 147.7 283.249 147.796C283.343 147.893 283.456 147.962 283.579 147.999C283.953 148.089 284.336 148.128 284.718 148.117H287.071C287.55 148.134 288.03 148.106 288.504 148.031C288.707 147.985 288.893 147.869 289.036 147.701C289.23 147.386 289.344 147.017 289.368 146.635H289.51V148.586H280.382V148.436C280.625 148.441 280.866 148.379 281.084 148.255C281.245 148.149 281.321 147.871 281.321 147.424V135.924C281.338 135.563 281.296 135.202 281.198 134.858C281.112 134.613 280.828 134.506 280.382 134.506Z" fill="#D4DADC"/>
<path d="M296.836 134.528L297.471 136.297H297.367L296.864 135.732C296.531 135.363 296.138 135.07 295.706 134.869C295.242 134.659 294.746 134.553 294.245 134.56C293.453 134.513 292.675 134.811 292.072 135.391C291.819 135.645 291.617 135.958 291.479 136.307C291.342 136.656 291.272 137.034 291.275 137.416C291.268 137.903 291.397 138.38 291.645 138.78C292.075 139.288 292.62 139.656 293.22 139.846C294.587 140.336 295.526 140.709 296.067 140.912C296.631 141.209 297.13 141.642 297.528 142.18C298.016 142.805 298.268 143.62 298.231 144.45C298.231 144.81 298.189 145.168 298.107 145.516C298.021 145.876 297.883 146.218 297.699 146.529C297.512 146.857 297.285 147.154 297.025 147.413C296.789 147.668 296.516 147.876 296.219 148.031C295.807 148.204 295.376 148.308 294.938 148.34C294.349 148.415 293.989 148.447 293.78 148.447H290.174V144.312H290.317C290.278 144.839 290.343 145.368 290.507 145.864C290.671 146.359 290.93 146.808 291.266 147.179C292.077 147.793 293.051 148.079 294.027 147.989C294.953 148.061 295.872 147.758 296.617 147.136C296.893 146.887 297.115 146.573 297.268 146.215C297.42 145.857 297.5 145.465 297.5 145.068C297.511 144.625 297.405 144.187 297.196 143.811C296.968 143.444 296.674 143.136 296.333 142.905C295.666 142.502 294.963 142.181 294.236 141.946C293.492 141.696 292.773 141.36 292.091 140.944C291.647 140.627 291.286 140.181 291.047 139.654C290.686 138.926 290.554 138.082 290.671 137.259C290.788 136.435 291.148 135.68 291.693 135.114C292.467 134.363 293.471 133.981 294.492 134.048C294.979 134.056 295.465 134.114 295.944 134.219C296.238 134.269 296.53 134.34 296.817 134.432L296.836 134.528Z" fill="#D4DADC"/>
<path d="M311.79 142.02H307.871L305.85 147.349C305.754 147.576 305.684 147.816 305.641 148.063C305.641 148.276 305.784 148.383 306.087 148.383V148.532H304.095V148.383C304.332 148.394 304.568 148.324 304.768 148.181C305.041 147.885 305.246 147.519 305.366 147.115L310.244 134.123H310.481L315.225 146.699C315.321 147.016 315.442 147.323 315.586 147.616C315.679 147.861 315.835 148.069 316.035 148.214C316.235 148.358 316.468 148.432 316.706 148.426V148.575H313.574V148.426C313.849 148.426 313.992 148.308 313.992 148.074C313.967 147.802 313.896 147.538 313.783 147.296C313.756 147.258 313.737 147.215 313.726 147.168C313.726 147.104 313.726 147.072 313.726 147.072L311.79 142.02ZM307.995 141.626H311.61L309.807 136.777L307.995 141.626Z" fill="#D4DADC"/>
<path d="M328.273 135.05L328.766 136.563H328.634C328.031 135.9 327.317 135.376 326.534 135.023C325.751 134.67 324.913 134.495 324.069 134.506C322.459 134.425 320.882 135.043 319.666 136.233C319.133 136.752 318.706 137.396 318.416 138.119C318.126 138.843 317.979 139.628 317.987 140.422C318.026 141.627 318.278 142.811 318.727 143.907C319.232 145.2 320.051 146.308 321.09 147.104C322.243 147.976 323.61 148.419 324.999 148.372C326 148.373 326.996 148.2 327.95 147.861C328.762 147.614 329.504 147.137 330.104 146.475H330.218L329.269 148.01C327.761 148.351 326.774 148.564 326.328 148.628C325.726 148.701 325.121 148.733 324.515 148.724C321.719 148.724 319.717 148.031 318.509 146.646C317.926 145.999 317.466 145.226 317.156 144.375C316.846 143.523 316.693 142.61 316.706 141.69C316.712 140.325 317.051 138.988 317.687 137.825C318.323 136.662 319.231 135.716 320.312 135.093C322.155 134.084 324.246 133.795 326.252 134.272C326.717 134.382 327.173 134.532 327.618 134.72L328.216 134.965L328.273 135.05Z" fill="#D4DADC"/>
<path d="M341.614 133.846L340.979 135.561H340.846C340.859 135.427 340.859 135.291 340.846 135.156C340.852 135.096 340.84 135.036 340.813 134.984C340.785 134.932 340.744 134.892 340.694 134.869C340.54 134.818 340.38 134.797 340.219 134.805H336.813V146.976C336.788 147.336 336.827 147.698 336.927 148.042C336.953 148.121 336.994 148.193 337.046 148.253C337.098 148.314 337.161 148.361 337.23 148.394C337.439 148.445 337.653 148.467 337.866 148.458V148.607H334.241V148.458C334.697 148.458 334.981 148.34 335.095 148.181C335.24 147.885 335.299 147.546 335.266 147.211V134.805H331.935C331.712 134.791 331.489 134.813 331.271 134.869C331.167 134.869 331.119 135.007 331.119 135.178C331.13 135.309 331.155 135.438 331.195 135.561H331.053L330.417 133.846H330.56C330.62 134.025 330.734 134.176 330.882 134.272C331.106 134.328 331.336 134.35 331.565 134.336H340.419C340.673 134.345 340.928 134.324 341.178 134.272C341.261 134.237 341.336 134.18 341.395 134.106C341.455 134.032 341.497 133.942 341.519 133.846H341.614Z" fill="#D4DADC"/>
<path d="M354.757 148.575H352.223V146.379C351.646 147.105 350.938 147.685 350.146 148.08C349.354 148.475 348.497 148.676 347.63 148.671C346.485 148.74 345.358 148.317 344.48 147.488C344.086 147.065 343.779 146.552 343.577 145.984C343.376 145.416 343.286 144.805 343.313 144.194V135.668C343.349 135.329 343.29 134.986 343.142 134.688C343.028 134.549 342.762 134.485 342.335 134.485V134.336H345.884V134.485C345.607 134.457 345.33 134.524 345.087 134.677C344.935 134.794 344.86 135.093 344.86 135.562V143.384C344.804 144.021 344.87 144.664 345.055 145.269C345.241 145.874 345.539 146.427 345.932 146.891C346.605 147.575 347.481 147.955 348.389 147.957C349.118 147.939 349.835 147.745 350.49 147.386C351.146 147.027 351.724 146.513 352.185 145.878V136.286C352.185 135.444 352.119 134.943 351.976 134.783C351.889 134.697 351.786 134.632 351.675 134.591C351.564 134.551 351.447 134.537 351.331 134.549H351.198V134.4H354.719V134.549C354.428 134.526 354.139 134.608 353.893 134.783C353.761 134.998 353.704 135.26 353.732 135.519V147.104C353.72 147.404 353.739 147.704 353.789 147.999C353.841 148.146 353.934 148.269 354.054 148.351C354.26 148.464 354.49 148.512 354.719 148.49L354.757 148.575Z" fill="#D4DADC"/>
<path d="M363.297 142.02H359.378L357.357 147.349C357.261 147.577 357.191 147.816 357.148 148.063C357.148 148.276 357.3 148.383 357.594 148.383V148.532H355.611V148.383C355.846 148.394 356.078 148.323 356.275 148.181C356.548 147.885 356.753 147.519 356.873 147.115L361.712 134.091H361.959L366.704 146.667C366.8 146.985 366.924 147.292 367.074 147.584C367.165 147.828 367.32 148.036 367.518 148.181C367.716 148.325 367.948 148.399 368.184 148.394V148.543H365.071V148.394C365.356 148.394 365.498 148.276 365.498 148.042C365.468 147.771 365.398 147.508 365.29 147.264C365.285 147.25 365.282 147.236 365.28 147.221C365.28 147.157 365.28 147.125 365.28 147.125L363.297 142.02ZM359.501 141.626H363.107L361.304 136.777L359.501 141.626Z" fill="#D4DADC"/>
<path d="M368.516 148.575V148.426C368.658 148.447 368.802 148.436 368.941 148.394C369.079 148.352 369.209 148.279 369.322 148.181C369.468 147.924 369.535 147.621 369.512 147.317V135.668C369.531 135.365 369.482 135.061 369.37 134.783C369.265 134.592 368.981 134.496 368.497 134.485V134.336H372.074V134.485C371.836 134.462 371.597 134.51 371.381 134.624C371.261 134.69 371.166 134.804 371.116 134.943C371.059 135.216 371.037 135.495 371.049 135.775V145.761C371.02 146.093 371.056 146.427 371.156 146.741C371.256 147.054 371.418 147.338 371.628 147.573C372.22 147.988 372.916 148.175 373.611 148.106H375.243C375.869 148.164 376.49 147.941 376.97 147.488C377.41 146.814 377.625 145.988 377.578 145.154H377.71V148.575H368.516Z" fill="#D4DADC"/>
<path d="M382.55 134.336V134.485C382.351 134.468 382.151 134.497 381.962 134.57C381.743 134.645 381.62 134.762 381.582 134.911C381.53 135.263 381.511 135.621 381.525 135.977V146.891C381.507 147.248 381.529 147.606 381.592 147.957C381.638 148.098 381.729 148.216 381.848 148.287C382.07 148.392 382.31 148.435 382.55 148.415V148.564H378.982V148.415C379.428 148.415 379.713 148.33 379.817 148.149C379.956 147.749 380.011 147.318 379.979 146.891V136.084C380.017 135.633 379.955 135.179 379.798 134.762C379.675 134.549 379.409 134.464 378.982 134.485V134.336H382.55Z" fill="#D4DADC"/>
<path d="M394.402 133.846L393.766 135.561H393.633C393.646 135.427 393.646 135.291 393.633 135.156C393.639 135.096 393.628 135.036 393.6 134.984C393.573 134.932 393.531 134.892 393.481 134.869C393.328 134.818 393.167 134.797 393.007 134.805H389.525V146.976C389.5 147.336 389.539 147.698 389.638 148.042C389.695 148.199 389.804 148.325 389.942 148.394C390.151 148.445 390.364 148.467 390.578 148.458V148.607H386.962V148.458C387.408 148.458 387.693 148.34 387.807 148.181C387.976 147.897 388.062 147.562 388.054 147.221V134.805H384.723C384.5 134.791 384.277 134.813 384.059 134.869C383.954 134.869 383.907 135.007 383.907 135.178C383.917 135.309 383.943 135.438 383.983 135.561H383.841L383.205 133.846H383.309C383.37 134.025 383.484 134.176 383.632 134.272C383.856 134.328 384.086 134.35 384.315 134.336H393.168C393.423 134.345 393.677 134.324 393.927 134.272C394.011 134.237 394.085 134.18 394.145 134.106C394.204 134.032 394.247 133.942 394.269 133.846H394.402Z" fill="#D4DADC"/>
<path d="M395.104 134.506V134.336H403.502V136.297H403.369C403.287 135.842 403.129 135.408 402.904 135.018C402.615 134.841 402.282 134.773 401.955 134.826H397.552V141.221H401.642C401.903 141.247 402.165 141.207 402.411 141.104C402.464 141.067 402.508 141.015 402.537 140.953C402.567 140.892 402.583 140.822 402.581 140.752H402.724V142.095H402.581C402.577 142.017 402.556 141.941 402.52 141.874C402.483 141.807 402.433 141.751 402.373 141.711C402.172 141.632 401.959 141.599 401.746 141.615H397.552V146.017C397.528 146.501 397.586 146.986 397.723 147.445C397.77 147.58 397.844 147.7 397.939 147.796C398.035 147.893 398.149 147.962 398.273 147.999C398.647 148.09 399.03 148.129 399.412 148.117H401.765C402.244 148.134 402.724 148.106 403.198 148.031C403.4 147.982 403.585 147.867 403.73 147.701C403.924 147.386 404.038 147.017 404.062 146.635H404.195V148.586H395.066V148.436C395.31 148.444 395.552 148.381 395.768 148.255C395.93 148.149 396.015 147.871 396.015 147.424V135.924C396.03 135.562 395.985 135.201 395.882 134.858C395.835 134.613 395.569 134.506 395.104 134.506ZM399.849 130.371H401.481L398.729 133.355H398.302L399.849 130.371Z" fill="#D4DADC"/>
<path d="M411.567 134.528L412.203 136.297H412.089L411.586 135.732C411.259 135.361 410.868 135.068 410.438 134.869C409.974 134.659 409.477 134.553 408.977 134.56C408.184 134.511 407.406 134.809 406.804 135.391C406.551 135.645 406.348 135.958 406.211 136.307C406.074 136.656 406.004 137.034 406.007 137.416C406 137.903 406.129 138.38 406.377 138.78C406.807 139.288 407.351 139.656 407.952 139.846C409.319 140.336 410.258 140.709 410.799 140.912C411.361 141.212 411.86 141.645 412.26 142.18C412.748 142.805 413 143.62 412.962 144.45C412.962 144.81 412.921 145.168 412.839 145.516C412.753 145.876 412.615 146.218 412.431 146.529C412.243 146.857 412.017 147.154 411.757 147.413C411.52 147.668 411.248 147.876 410.951 148.031C410.539 148.202 410.108 148.307 409.67 148.34C409.081 148.415 408.721 148.447 408.502 148.447H404.944V144.312H405.077C405.036 144.839 405.1 145.369 405.264 145.865C405.428 146.361 405.688 146.81 406.026 147.179C406.838 147.793 407.812 148.079 408.787 147.989C409.714 148.061 410.632 147.758 411.378 147.136C411.653 146.887 411.875 146.573 412.028 146.215C412.181 145.857 412.26 145.465 412.26 145.068C412.271 144.625 412.165 144.187 411.956 143.811C411.728 143.444 411.434 143.136 411.093 142.905C410.426 142.504 409.723 142.183 408.996 141.946C408.25 141.693 407.528 141.357 406.842 140.944C406.402 140.623 406.046 140.178 405.808 139.654C405.447 138.926 405.314 138.082 405.431 137.259C405.548 136.435 405.908 135.68 406.453 135.114C407.227 134.363 408.231 133.981 409.252 134.048C409.74 134.056 410.225 134.114 410.704 134.219C410.996 134.267 411.284 134.338 411.567 134.432V134.528Z" fill="#D4DADC"/>
<path d="M430.953 135.05L431.456 136.563H431.324C430.105 135.226 428.463 134.486 426.759 134.506C425.146 134.423 423.565 135.042 422.347 136.233C421.813 136.752 421.386 137.396 421.096 138.119C420.806 138.843 420.66 139.628 420.667 140.422C420.706 141.628 420.961 142.814 421.417 143.907C421.931 145.282 422.806 146.45 423.924 147.255C425.042 148.06 426.352 148.464 427.68 148.415C428.681 148.416 429.676 148.244 430.631 147.903C431.444 147.659 432.186 147.182 432.785 146.518H432.908L431.959 148.053C430.451 148.394 429.473 148.607 429.018 148.671C428.419 148.743 427.817 148.775 427.215 148.767C424.419 148.767 422.416 148.074 421.208 146.688C420.624 146.042 420.163 145.27 419.851 144.418C419.54 143.567 419.385 142.653 419.396 141.732C419.402 140.368 419.741 139.031 420.377 137.867C421.013 136.704 421.921 135.759 423.002 135.135C424.238 134.415 425.613 134.049 427.006 134.069C427.66 134.058 428.313 134.133 428.951 134.293C429.413 134.405 429.866 134.554 430.308 134.741L430.906 134.986L430.953 135.05Z" fill="#D4DADC"/>
<path d="M446.212 148.575H443.678V146.379C443.101 147.105 442.393 147.685 441.601 148.08C440.81 148.475 439.952 148.676 439.086 148.671C437.94 148.74 436.814 148.317 435.935 147.488C435.542 147.065 435.234 146.552 435.033 145.984C434.831 145.416 434.741 144.805 434.768 144.194V135.668C434.805 135.329 434.745 134.986 434.597 134.688C434.483 134.549 434.218 134.485 433.791 134.485V134.336H437.34V134.485C437.063 134.457 436.785 134.524 436.543 134.677C436.391 134.794 436.315 135.093 436.315 135.562V143.384C436.259 144.021 436.326 144.664 436.511 145.269C436.696 145.874 436.995 146.427 437.387 146.891C438.061 147.575 438.936 147.955 439.845 147.957C440.574 147.939 441.29 147.745 441.946 147.386C442.601 147.027 443.179 146.513 443.64 145.878V136.286C443.64 135.444 443.574 134.943 443.432 134.783C443.344 134.697 443.242 134.632 443.131 134.591C443.02 134.551 442.902 134.537 442.786 134.549H442.654V134.4H446.174V134.549C445.884 134.526 445.594 134.608 445.348 134.783C445.216 134.998 445.159 135.26 445.187 135.519V147.104C445.175 147.404 445.194 147.704 445.244 147.999C445.296 148.146 445.389 148.269 445.51 148.351C445.716 148.464 445.945 148.512 446.174 148.49L446.212 148.575Z" fill="#D4DADC"/>
<path d="M447.199 148.575V148.426C447.341 148.447 447.485 148.436 447.624 148.394C447.762 148.352 447.892 148.279 448.005 148.181C448.151 147.924 448.218 147.621 448.195 147.317V135.668C448.214 135.365 448.165 135.061 448.053 134.783C447.948 134.592 447.664 134.496 447.18 134.485V134.336H450.757V134.485C450.519 134.462 450.28 134.51 450.064 134.624C449.944 134.69 449.85 134.804 449.799 134.943C449.742 135.216 449.72 135.495 449.732 135.775V145.761C449.703 146.093 449.739 146.427 449.839 146.741C449.94 147.054 450.101 147.338 450.311 147.573C450.903 147.988 451.599 148.175 452.294 148.106H453.926C454.552 148.164 455.173 147.941 455.653 147.488C456.093 146.814 456.308 145.988 456.261 145.154H456.375V148.575H447.199Z" fill="#D4DADC"/>
<path d="M466.632 133.846L465.996 135.561H465.864C465.876 135.427 465.876 135.291 465.864 135.156C465.87 135.098 465.86 135.038 465.835 134.986C465.809 134.934 465.769 134.893 465.721 134.869C465.567 134.819 465.407 134.797 465.247 134.805H461.764V146.976C461.74 147.336 461.779 147.698 461.878 148.042C461.905 148.121 461.945 148.193 461.998 148.253C462.05 148.314 462.113 148.361 462.182 148.394C462.387 148.445 462.598 148.466 462.808 148.458V148.607H459.221V148.458C459.677 148.458 459.961 148.34 460.075 148.181C460.22 147.885 460.279 147.546 460.246 147.211V134.805H456.915C456.692 134.791 456.469 134.813 456.251 134.869C456.147 134.869 456.099 135.007 456.099 135.178C456.105 135.309 456.128 135.438 456.166 135.561H456.033L455.397 133.846H455.54C455.6 134.022 455.71 134.172 455.853 134.272C456.077 134.327 456.307 134.348 456.536 134.336H465.399C465.653 134.345 465.907 134.323 466.158 134.272C466.241 134.238 466.315 134.181 466.373 134.107C466.431 134.032 466.471 133.942 466.49 133.846H466.632Z" fill="#D4DADC"/>
<path d="M479.775 148.575H477.251V146.379C476.673 147.105 475.966 147.685 475.174 148.08C474.382 148.475 473.524 148.676 472.658 148.671C471.512 148.74 470.386 148.317 469.508 147.488C469.114 147.065 468.806 146.552 468.605 145.984C468.403 145.416 468.313 144.805 468.34 144.194V135.668C468.377 135.329 468.317 134.986 468.17 134.688C468.056 134.549 467.79 134.485 467.363 134.485V134.336H470.912V134.485C470.635 134.457 470.357 134.524 470.115 134.677C469.963 134.794 469.887 135.093 469.887 135.562V143.384C469.831 144.021 469.898 144.664 470.083 145.269C470.268 145.874 470.567 146.427 470.959 146.891C471.633 147.575 472.509 147.955 473.417 147.957C474.146 147.939 474.863 147.745 475.518 147.386C476.173 147.027 476.751 146.513 477.213 145.878V136.286C477.213 135.444 477.146 134.943 477.004 134.783C476.916 134.697 476.814 134.632 476.703 134.591C476.592 134.551 476.475 134.537 476.359 134.549H476.302V134.4H479.822V134.549C479.532 134.526 479.242 134.608 478.997 134.783C478.864 134.998 478.807 135.26 478.835 135.519V147.104C478.823 147.404 478.842 147.704 478.892 147.999C478.944 148.146 479.038 148.269 479.158 148.351C479.364 148.464 479.594 148.512 479.822 148.49L479.775 148.575Z" fill="#D4DADC"/>
<path d="M481.255 134.485V134.336H485.05C485.999 134.336 486.702 134.336 487.129 134.41C487.59 134.462 488.038 134.614 488.448 134.858C488.877 135.09 489.234 135.461 489.472 135.924C489.712 136.413 489.83 136.965 489.814 137.523C489.809 138.266 489.597 138.989 489.207 139.59C488.751 140.285 488.161 140.854 487.48 141.253L488.429 142.788C488.637 143.182 489.178 144.024 490.061 145.335C490.615 146.262 491.312 147.071 492.12 147.722C492.549 147.992 493.032 148.139 493.524 148.149C494.069 148.115 494.598 147.928 495.061 147.605L495.118 147.797C494.292 148.466 493.289 148.8 492.272 148.745C491.552 148.764 490.849 148.504 490.279 148.01C489.185 146.795 488.215 145.447 487.385 143.992L486.037 141.786H484.851H483.769V147.221C483.75 147.548 483.805 147.874 483.931 148.17C484.035 148.351 484.301 148.447 484.709 148.447V148.596H481.264V148.447C481.701 148.447 481.967 148.33 482.071 148.159C482.205 147.825 482.261 147.458 482.232 147.093V135.764C482.241 135.454 482.193 135.146 482.09 134.858C481.995 134.613 481.72 134.496 481.255 134.485ZM483.76 134.72V141.391H485.155C486.038 141.473 486.916 141.176 487.613 140.56C487.877 140.282 488.086 139.942 488.223 139.565C488.361 139.188 488.424 138.782 488.41 138.375C488.4 137.472 488.122 136.599 487.622 135.892C487.278 135.464 486.848 135.134 486.368 134.93C485.887 134.726 485.371 134.654 484.861 134.72H483.76Z" fill="#D4DADC"/>
<path d="M495.963 134.506V134.336H504.351V136.297H504.218C504.142 135.841 503.987 135.407 503.763 135.018C503.473 134.841 503.14 134.773 502.814 134.826H498.401V141.221H502.491C502.752 141.247 503.015 141.207 503.26 141.104C503.313 141.066 503.357 141.014 503.389 140.953C503.42 140.891 503.438 140.823 503.44 140.752H503.573V142.095H503.44C503.433 142.016 503.409 141.941 503.371 141.874C503.333 141.808 503.282 141.752 503.222 141.711C503.024 141.631 502.814 141.599 502.605 141.615H498.401V146.017C498.379 146.502 498.441 146.986 498.582 147.445C498.626 147.579 498.698 147.7 498.792 147.796C498.886 147.893 499 147.962 499.123 147.999C499.497 148.089 499.879 148.128 500.261 148.117H502.615C503.093 148.134 503.573 148.106 504.047 148.031C504.25 147.985 504.436 147.869 504.579 147.701C504.773 147.386 504.888 147.017 504.911 146.635H505.053V148.586H495.925V148.436C496.168 148.441 496.41 148.379 496.627 148.255C496.788 148.149 496.864 147.871 496.864 147.424V135.924C496.882 135.563 496.84 135.202 496.741 134.858C496.693 134.613 496.418 134.506 495.963 134.506Z" fill="#D4DADC"/>
<path d="M505.518 148.575V148.426C505.662 148.447 505.808 148.437 505.948 148.395C506.088 148.352 506.219 148.28 506.334 148.181C506.48 147.924 506.547 147.621 506.524 147.317V135.668C506.54 135.364 506.488 135.059 506.372 134.783C506.277 134.592 505.993 134.496 505.509 134.485V134.336H509.086V134.485C508.845 134.463 508.604 134.51 508.384 134.624C508.266 134.69 508.174 134.804 508.128 134.943C508.066 135.215 508.044 135.495 508.061 135.775V145.761C508.03 146.093 508.065 146.428 508.166 146.742C508.266 147.056 508.428 147.34 508.64 147.573C509.232 147.989 509.928 148.176 510.623 148.106H512.256C512.878 148.163 513.496 147.941 513.973 147.488C514.416 146.815 514.635 145.989 514.59 145.154H514.723V148.575H505.518Z" fill="#D4DADC"/>
<path d="M515.586 148.575V148.426C515.728 148.447 515.873 148.436 516.011 148.394C516.15 148.352 516.279 148.279 516.393 148.181C516.539 147.924 516.605 147.621 516.582 147.317V135.668C516.601 135.365 516.552 135.061 516.44 134.783C516.336 134.592 516.051 134.496 515.567 134.485V134.336H519.144V134.485C518.907 134.462 518.668 134.51 518.452 134.624C518.332 134.69 518.237 134.804 518.186 134.943C518.125 135.215 518.102 135.495 518.12 135.775V145.761C518.09 146.093 518.127 146.427 518.227 146.741C518.327 147.054 518.488 147.338 518.699 147.573C519.291 147.988 519.987 148.175 520.682 148.106H522.314C522.94 148.164 523.56 147.941 524.041 147.488C524.477 146.812 524.691 145.987 524.648 145.154H524.781V148.575H515.586Z" fill="#D4DADC"/>
<path d="M526.147 134.506V134.336H534.536V136.297H534.403C534.33 135.839 534.171 135.403 533.938 135.018C533.648 134.841 533.315 134.773 532.989 134.826H528.586V141.221H532.676C532.937 141.247 533.199 141.207 533.444 141.104C533.498 141.067 533.541 141.015 533.571 140.953C533.601 140.892 533.616 140.822 533.615 140.752H533.758V142.095H533.615C533.611 142.017 533.59 141.941 533.553 141.874C533.517 141.807 533.467 141.751 533.406 141.711C533.206 141.632 532.993 141.599 532.78 141.615H528.586V146.017C528.562 146.501 528.62 146.986 528.757 147.445C528.803 147.58 528.877 147.7 528.973 147.796C529.069 147.893 529.183 147.962 529.307 147.999C529.681 148.09 530.063 148.129 530.446 148.117H532.799C533.278 148.134 533.757 148.106 534.232 148.031C534.434 147.982 534.619 147.867 534.763 147.701C534.957 147.386 535.072 147.017 535.095 146.635H535.228V148.586H526.109V148.436C526.353 148.441 526.594 148.379 526.812 148.255C526.963 148.149 527.049 147.871 527.049 147.424V135.924C527.062 135.563 527.02 135.203 526.925 134.858C526.878 134.613 526.593 134.506 526.147 134.506Z" fill="#D4DADC"/>
<path d="M542.602 134.528L543.237 136.297H543.133L542.63 135.732C542.297 135.363 541.904 135.07 541.472 134.869C541.008 134.659 540.512 134.553 540.011 134.56C539.219 134.513 538.441 134.811 537.838 135.391C537.585 135.645 537.383 135.958 537.245 136.307C537.108 136.656 537.038 137.034 537.041 137.416C537.034 137.903 537.163 138.38 537.411 138.78C537.841 139.288 538.385 139.656 538.986 139.846C540.353 140.336 541.292 140.709 541.833 140.912C542.397 141.209 542.896 141.642 543.294 142.18C543.782 142.805 544.034 143.62 543.996 144.45C543.997 144.81 543.955 145.168 543.873 145.516C543.787 145.876 543.649 146.218 543.465 146.529C543.278 146.857 543.051 147.154 542.791 147.413C542.555 147.668 542.282 147.876 541.985 148.031C541.573 148.202 541.142 148.307 540.704 148.34C540.115 148.415 539.755 148.447 539.537 148.447H535.978V144.312H536.083C536.044 144.839 536.109 145.368 536.273 145.864C536.437 146.359 536.696 146.808 537.032 147.179C537.843 147.793 538.817 148.079 539.793 147.989C540.719 148.061 541.638 147.758 542.383 147.136C542.659 146.887 542.881 146.573 543.034 146.215C543.186 145.857 543.266 145.465 543.266 145.068C543.277 144.625 543.171 144.187 542.962 143.811C542.734 143.444 542.44 143.136 542.099 142.905C541.432 142.502 540.729 142.181 540.002 141.946C539.258 141.696 538.539 141.36 537.857 140.944C537.413 140.627 537.052 140.181 536.813 139.654C536.452 138.926 536.32 138.082 536.437 137.259C536.554 136.435 536.914 135.68 537.459 135.114C538.245 134.35 539.268 133.966 540.305 134.048C540.793 134.056 541.279 134.114 541.757 134.219C542.052 134.269 542.343 134.34 542.63 134.432L542.602 134.528Z" fill="#D4DADC"/>
</svg>
