<svg width="266" height="190" viewBox="0 0 266 190" fill="none" xmlns="http://www.w3.org/2000/svg">
<g clip-path="url(#clip0_33_282)">
<path d="M0 60.1363L91.5458 0.883728C91.5458 0.883728 150.354 68.0366 144.746 134.399C105.198 131.239 13.4463 121.759 13.4463 121.759C13.4463 121.759 22.9379 86.9974 0 60.1363Z" fill="#CBE3B9"/>
<path d="M94.9152 2.46381C124.181 41.9655 147.91 71.9868 147.119 135.98C14.2372 124.129 12.6553 124.129 12.6553 124.129L13.4462 128.869L150.282 144.67C150.282 144.67 208.813 107.538 265.763 132.819C252.316 123.339 219.096 108.328 154.633 130.844C151.073 60.9263 122.203 28.1399 94.9152 2.46381Z" fill="#CBE3B9"/>
<path d="M127.345 6.41393L105.989 7.20396L128.927 4.83386C128.927 4.83386 168.475 34.8552 164.52 117.809C184.689 109.513 211.685 99.2429 251.976 117.809C228.192 111.093 198.927 102.403 160.961 122.944C164.124 89.7625 161.751 39.2003 127.345 6.41393Z" fill="#D4DADC"/>
<path d="M119.04 14.7093C141.187 40.7804 164.916 71.5917 157.006 123.734C159.379 77.122 149.097 51.8409 119.04 14.7093Z" fill="#D4DADC"/>
<path d="M148.305 9.96912C173.616 57.3712 171.639 86.9974 166.102 114.649C181.921 106.748 197.74 96.4778 235.311 104.773C213.164 96.8729 189.435 96.8729 168.87 110.303C174.802 89.3675 176.384 49.8658 148.305 9.96912Z" fill="#D4DADC"/>
<path d="M30.2858 67.1676V72.129L30.0485 72.1843C30.0098 71.8034 29.9438 71.4259 29.8507 71.0545C29.7558 70.6516 29.6055 70.4225 29.4078 70.3514C29.1181 70.2906 28.8173 70.3097 28.5377 70.4067L22.4473 72.0342L29.2654 102.64C29.4235 103.535 29.6891 104.408 30.0564 105.239C30.2216 105.615 30.4975 105.932 30.8473 106.148C31.2617 106.317 31.7047 106.406 32.1524 106.409L32.2315 106.78L24.9942 106.314L24.923 105.966C25.8089 105.966 26.3309 105.753 26.505 105.389C26.6436 104.598 26.5865 103.784 26.3389 103.019L19.7739 72.7768L13.9366 74.3569C13.5367 74.4334 13.1553 74.5863 12.8134 74.8072C12.6473 74.9494 12.6078 75.2101 12.6869 75.5972C12.7546 75.8895 12.8554 76.1731 12.9874 76.4426L12.7502 76.4979L10.8677 72.9269L11.105 72.8637C11.3976 73.3298 11.6428 73.5905 11.8485 73.6538C12.265 73.6869 12.6836 73.6275 13.0745 73.4799L28.4745 69.1111C28.932 69.0104 29.3649 68.8197 29.7479 68.5501C29.8839 68.3644 29.9812 68.1534 30.0342 67.9295C30.0872 67.7056 30.0947 67.4734 30.0564 67.2466L30.2858 67.1676Z" fill="#414550"/>
<path d="M38.5513 77.1536L38.6304 77.4696C38.3514 77.4835 38.087 77.5987 37.8869 77.7936C37.7709 77.8883 37.6794 78.0095 37.6202 78.1471C37.561 78.2846 37.5358 78.4343 37.5468 78.5836C37.6542 79.3401 37.8074 80.0893 38.0056 80.8273L43.6688 103.967C43.8361 104.751 44.0581 105.522 44.3332 106.274C44.4651 106.552 44.6568 106.798 44.8948 106.993C45.2206 107.217 45.607 107.335 46.0022 107.333L46.0813 107.641L40.7344 107.301L40.6632 107.001C41.3355 107.049 41.7073 106.883 41.7784 106.511C41.7789 105.633 41.6483 104.76 41.3909 103.92L35.957 81.4672C35.7824 80.5233 35.4762 79.6085 35.0474 78.7495C34.9176 78.5511 34.7217 78.405 34.4945 78.337C34.2672 78.269 34.0231 78.2836 33.8056 78.3782L33.7344 78.078L38.5513 77.1536Z" fill="#414550"/>
<path d="M56.9487 73.7643L59.7961 73.2429L59.899 73.6063C58.9577 73.875 58.7442 74.9573 59.2583 76.8376C59.369 77.2405 59.543 77.7935 59.7882 78.4966L69.2086 105.54C69.5014 106.455 69.8856 107.339 70.3555 108.178C70.488 108.381 70.6598 108.556 70.8608 108.691C71.0619 108.827 71.2881 108.921 71.5261 108.968L71.6289 109.34L67.1283 109.047L67.0334 108.684C67.6425 108.755 67.8244 108.265 67.508 107.206C67.4447 106.969 67.2944 106.495 67.0492 105.792L58.0165 79.8871L58.6651 108.455H58.5306L44.6651 81.799L48.6199 105.137C48.6804 105.538 48.7623 105.937 48.8651 106.33C49.0707 107.12 49.4741 107.57 50.0831 107.609L50.1701 107.925L47.1091 107.736L47.03 107.42C47.4888 107.42 47.7656 107.42 47.821 107.214C47.9209 106.95 47.9535 106.665 47.9159 106.385C47.9159 106.006 47.8368 105.595 47.7577 105.097L43.5814 79.6896C43.2187 78.7819 42.6501 77.9706 41.9204 77.3195C41.6003 77.1178 41.2208 77.0314 40.8447 77.0746L40.7656 76.7586L44.1747 76.1265L57.7396 102.403L56.9487 73.7643Z" fill="#414550"/>
<path d="M93.2382 102.624L95.706 110.849L71.9771 109.324L77.0472 61.3134L65.4834 64.0864C65.1098 64.1291 64.7535 64.267 64.4487 64.487C64.1439 64.707 63.901 65.0017 63.7432 65.3426C63.5376 65.943 63.6404 67.2703 64.0675 69.2928L63.8382 69.3402L62.1851 62.9646L80.2743 58.3429L75.7579 107.854L92.2969 108.739C93.2619 108.794 93.7839 108.415 93.8788 107.602C93.9738 106.788 93.6732 105.129 93.0009 102.624H93.2382Z" fill="#414550"/>
<path d="M89.5602 67.7364L89.6947 68.1788C89.5507 68.1805 89.4096 68.2192 89.2849 68.2911C89.1602 68.3631 89.0562 68.4659 88.9828 68.5897C88.8695 68.7492 88.7917 68.9313 88.7549 69.1235C88.718 69.3156 88.7229 69.5135 88.7693 69.7036C88.8484 70.1697 89.141 71.2363 89.6472 72.919L99.5659 106.1C100.104 107.894 100.46 109 100.649 109.403C100.821 109.78 101.056 110.125 101.346 110.422C101.658 110.718 102.07 110.884 102.5 110.888L102.635 111.33L97.2879 110.983L97.1613 110.556C97.8258 110.596 98.1659 110.351 98.1659 109.806C98.0055 108.533 97.7139 107.281 97.2958 106.069L87.6461 73.6775C87.2995 72.3171 86.82 70.994 86.2145 69.7273C86.1132 69.469 85.916 69.2598 85.6639 69.1435C85.4118 69.0272 85.1244 69.0127 84.8619 69.1032L84.7354 68.6766L89.5602 67.7364Z" fill="#414550"/>
<path d="M106.21 64.6632L109.714 64.0154L109.864 64.5131C109.626 64.5779 109.418 64.7223 109.274 64.9222C109.13 65.1221 109.059 65.3654 109.073 65.6112C109.168 66.8378 109.434 68.0451 109.864 69.198L123.619 113.219L96.0858 74.2147L106.099 107.238C106.318 108.042 106.582 108.834 106.89 109.608C107.039 109.991 107.25 110.346 107.515 110.659C107.868 110.936 108.271 111.142 108.702 111.267L108.844 111.726L104.992 111.481L104.858 111.03C105.546 111.078 105.894 110.833 105.894 110.296C105.719 108.977 105.409 107.68 104.968 106.424L95.888 76.3162C95.2716 74.1276 94.478 71.9928 93.5151 69.9327C92.7189 68.321 91.7961 67.6758 90.7468 67.9971L90.6123 67.5468L94.0134 66.9227L119.554 102.853L108.947 68.882C108.369 67.0491 107.903 65.9509 107.531 65.5954C107.393 65.436 107.217 65.3129 107.02 65.2371C106.822 65.1614 106.61 65.1352 106.4 65.1609L106.21 64.6632Z" fill="#414550"/>
<path d="M111.715 64.2444L111.541 63.6756L122.899 61.5741L125.201 68.7555H125.019C124.416 67.176 123.705 65.6397 122.891 64.1575C122.724 63.9397 122.495 63.7773 122.234 63.6913C121.973 63.6054 121.692 63.5999 121.428 63.6756L115.48 64.7501L122.599 87.2107L128.42 86.871C128.998 86.871 129.322 86.6735 129.377 86.3654C129.426 85.9265 129.369 85.4823 129.211 85.0697H129.409L130.991 89.96H130.793C130.637 89.4625 130.385 89.0007 130.049 88.6012C129.913 88.4853 129.754 88.3983 129.583 88.3454C129.411 88.2924 129.231 88.2746 129.053 88.2931L123.057 88.6012L127.946 104.062C128.428 105.783 129.02 107.472 129.717 109.118C130.013 109.893 130.506 110.577 131.149 111.101C131.707 111.415 132.336 111.583 132.976 111.591L136.496 111.789C137.182 111.906 137.888 111.846 138.544 111.615C138.692 111.463 138.805 111.282 138.876 111.083C138.947 110.884 138.974 110.672 138.956 110.461C138.835 109.133 138.57 107.822 138.165 106.551H138.418L140.72 113.732L127.02 112.855L126.862 112.35C127.046 112.351 127.226 112.296 127.378 112.191C127.529 112.087 127.645 111.938 127.708 111.765C127.835 111.409 127.653 110.454 127.162 108.913L114.547 68.953C114.17 67.6583 113.71 66.389 113.17 65.153C112.822 64.434 112.316 64.1338 111.715 64.2444Z" fill="#414550"/>
<path d="M45.9863 155.821V155.702H52.9942V157.156H52.8835C52.8177 156.816 52.689 156.492 52.5038 156.2C52.2625 156.069 51.985 156.019 51.7129 156.058H48.0586V160.798H51.4598C51.6779 160.82 51.8982 160.788 52.1005 160.703C52.1463 160.677 52.1843 160.639 52.2106 160.593C52.237 160.547 52.2509 160.495 52.2507 160.443H52.3615V161.438H52.2507C52.2433 161.381 52.2231 161.327 52.1916 161.279C52.16 161.231 52.1181 161.191 52.0688 161.161C51.9043 161.102 51.7291 161.078 51.5547 161.09H48.0586V164.345C48.0381 164.707 48.0864 165.069 48.201 165.412C48.2378 165.511 48.298 165.601 48.3764 165.672C48.4549 165.743 48.5493 165.795 48.6519 165.823C48.9641 165.886 49.2826 165.912 49.601 165.902H51.5626C51.9616 165.916 52.361 165.897 52.7569 165.846C52.9236 165.805 53.0765 165.721 53.1999 165.601C53.3616 165.368 53.4572 165.095 53.4767 164.811H53.5954V166.241H45.9863V166.131C46.1897 166.128 46.3898 166.08 46.5716 165.989C46.7061 165.91 46.7694 165.704 46.7694 165.38V156.879C46.7827 156.612 46.7479 156.345 46.6666 156.089C46.5954 155.9 46.366 155.821 45.9863 155.821Z" fill="#D4DADC"/>
<path d="M59.7015 155.837L60.2314 157.156H60.1444C60.1444 157.156 60.002 157.006 59.7252 156.729C59.4477 156.456 59.1201 156.239 58.7602 156.089C58.3732 155.935 57.9589 155.859 57.5421 155.868C56.8816 155.834 56.2331 156.055 55.7308 156.484C55.519 156.671 55.35 156.901 55.2354 157.159C55.1207 157.416 55.0631 157.696 55.0664 157.978C55.0572 158.34 55.1685 158.696 55.3828 158.989C55.7367 159.367 56.1884 159.641 56.6879 159.779C57.8348 160.142 58.6099 160.419 59.0608 160.569C59.528 160.79 59.9431 161.108 60.2789 161.501C60.6784 161.972 60.8871 162.575 60.8642 163.192C60.8608 163.459 60.8236 163.724 60.7534 163.982C60.6799 164.248 60.5651 164.501 60.4133 164.732C60.257 164.976 60.0681 165.196 59.8517 165.388C59.6536 165.57 59.4297 165.722 59.1873 165.838C58.842 165.969 58.4797 166.048 58.1116 166.075C57.6212 166.123 57.3207 166.154 57.1467 166.154H54.1489V163.081H54.2676C54.2335 163.473 54.2867 163.868 54.4235 164.236C54.5603 164.605 54.7771 164.939 55.0585 165.214C55.7389 165.668 56.5526 165.88 57.3681 165.815C58.1395 165.871 58.9048 165.644 59.5195 165.175C59.7495 164.991 59.935 164.758 60.0624 164.492C60.1897 164.227 60.2556 163.936 60.2551 163.642C60.2686 163.315 60.1802 162.992 60.002 162.718C59.8142 162.444 59.5685 162.215 59.2823 162.046C58.7305 161.745 58.1468 161.507 57.5421 161.335C56.9193 161.151 56.3175 160.902 55.7467 160.593C55.3776 160.352 55.0777 160.02 54.8766 159.629C54.6534 159.23 54.5337 158.782 54.5286 158.325C54.5219 157.939 54.5982 157.556 54.7524 157.201C54.9065 156.847 55.135 156.53 55.4224 156.271C56.0647 155.715 56.8992 155.431 57.7478 155.481C58.1539 155.484 58.5589 155.524 58.958 155.6C59.393 155.686 59.6303 155.734 59.6856 155.758C59.6809 155.771 59.6799 155.785 59.6827 155.799C59.6855 155.813 59.692 155.826 59.7015 155.837Z" fill="#D4DADC"/>
<path d="M64.6768 155.702V155.813C64.5106 155.797 64.343 155.818 64.1864 155.876C64.1181 155.889 64.0539 155.918 63.9989 155.961C63.9439 156.003 63.8998 156.058 63.87 156.121C63.8266 156.382 63.8107 156.647 63.8225 156.911V165.009C63.8071 165.274 63.8257 165.539 63.8779 165.799C63.9222 165.903 64.0002 165.989 64.0994 166.044C64.2813 166.122 64.4794 166.154 64.6768 166.139V166.241H61.6948V166.131C62.0745 166.131 62.3039 166.06 62.3909 165.925C62.5155 165.634 62.5645 165.316 62.5332 165.001V156.998C62.5624 156.661 62.5081 156.322 62.3751 156.01C62.2801 155.86 62.0508 155.789 61.6948 155.813V155.702H64.6768Z" fill="#D4DADC"/>
<path d="M76.7231 166.147V166.241H72.2067C71.4441 166.251 70.6835 166.161 69.9445 165.973C69.2293 165.762 68.559 165.422 67.9671 164.969C67.2979 164.477 66.7423 163.846 66.3378 163.121C65.9344 162.438 65.7188 161.662 65.7129 160.869C65.7322 159.971 66.0065 159.097 66.5039 158.349C67.0516 157.485 67.8185 156.782 68.7264 156.311C69.7335 155.775 70.8602 155.503 72.001 155.521C73.1879 155.539 74.3616 155.772 75.4654 156.208L75.9242 157.425H75.8135C75.3801 156.924 74.8394 156.527 74.2315 156.263C73.5257 155.946 72.7591 155.787 71.9852 155.797C71.3199 155.778 70.6586 155.907 70.0488 156.173C69.4389 156.439 68.8956 156.837 68.4575 157.338C67.5344 158.391 67.0454 159.754 67.0892 161.154C67.0798 161.722 67.1545 162.289 67.3106 162.836C67.6984 163.921 68.4805 164.821 69.5016 165.357C70.0018 165.594 70.5352 165.753 71.0835 165.831C71.5463 165.907 72.0144 165.947 72.4835 165.949H73.0846C73.5135 165.967 73.942 165.908 74.3502 165.775C74.5163 165.68 74.6033 165.436 74.6033 165.04V163.46C74.6159 163.348 74.604 163.234 74.5685 163.126C74.533 163.018 74.4747 162.92 74.3976 162.836C74.231 162.716 74.0239 162.665 73.8202 162.694V162.583H76.7231V162.694C76.6083 162.68 76.4919 162.689 76.3806 162.72C76.2693 162.752 76.1653 162.804 76.0745 162.876C75.94 163.078 75.8812 163.322 75.9084 163.563V165.214C75.8882 165.462 75.9375 165.711 76.0507 165.933C76.1078 166.012 76.1848 166.074 76.2738 166.113C76.3627 166.151 76.4605 166.166 76.557 166.154L76.7231 166.147Z" fill="#D4DADC"/>
<path d="M86.6816 155.702H88.841V155.813C88.5975 155.792 88.3549 155.862 88.1607 156.01C87.9972 156.239 87.9291 156.523 87.9709 156.8V166.407L79.0963 157.417V165.222C79.09 165.409 79.1113 165.595 79.1596 165.775C79.1853 165.876 79.2473 165.963 79.3336 166.02C79.5167 166.089 79.7083 166.131 79.9031 166.147V166.241H77.7517V166.131C78.1393 166.131 78.3766 166.068 78.4715 165.933C78.5893 165.643 78.6354 165.329 78.6059 165.017V157.907C78.6277 157.382 78.5332 156.858 78.3291 156.374C78.1472 155.979 77.7201 155.797 77.0557 155.829V155.718H79.1517L87.4963 164.14V156.69C87.4963 156.287 87.4172 156.05 87.267 155.955C87.0861 155.863 86.8844 155.819 86.6816 155.829V155.702Z" fill="#D4DADC"/>
<path d="M94.4487 155.813V155.702H99.5583C100.592 155.674 101.625 155.772 102.635 155.995C103.344 156.167 104.013 156.476 104.605 156.903C105.166 157.318 105.621 157.859 105.933 158.483C106.269 159.155 106.437 159.897 106.424 160.648C106.422 161.432 106.25 162.205 105.918 162.915C105.588 163.64 105.117 164.293 104.533 164.835C104.008 165.338 103.375 165.716 102.683 165.941C101.699 166.178 100.688 166.279 99.677 166.241H94.4487V166.131H94.5911C94.702 166.144 94.814 166.12 94.9099 166.063C95.0057 166.006 95.08 165.918 95.121 165.815C95.2316 165.452 95.2772 165.072 95.2555 164.693V157.014C95.2968 156.658 95.2422 156.298 95.0973 155.971C95.0052 155.903 94.9003 155.854 94.789 155.827C94.6776 155.8 94.5619 155.795 94.4487 155.813ZM98.2453 155.924H96.5369V164.108C96.5081 164.512 96.6048 164.915 96.8137 165.262C97.0531 165.549 97.3865 165.742 97.7549 165.807C98.3422 165.932 98.9422 165.988 99.5425 165.973C101.652 165.973 103.118 165.465 103.94 164.448C104.746 163.529 105.195 162.352 105.206 161.13C105.204 160.43 105.047 159.738 104.747 159.106C104.446 158.474 104.008 157.915 103.466 157.472C102.311 156.44 100.571 155.924 98.2453 155.924Z" fill="#D4DADC"/>
<path d="M110.426 155.702V155.813C110.26 155.797 110.092 155.818 109.936 155.876C109.867 155.888 109.802 155.917 109.747 155.959C109.692 156.002 109.648 156.058 109.619 156.121C109.576 156.382 109.56 156.647 109.572 156.911V165.009C109.557 165.274 109.575 165.539 109.627 165.799C109.671 165.901 109.746 165.987 109.841 166.044C110.026 166.121 110.226 166.153 110.426 166.139V166.241H107.452V166.131C107.824 166.131 108.061 166.06 108.148 165.925C108.269 165.633 108.315 165.315 108.283 165.001V156.998C108.313 156.662 108.262 156.323 108.132 156.01C108.03 155.86 107.808 155.789 107.452 155.813V155.702H110.426Z" fill="#D4DADC"/>
<path d="M122.441 166.147V166.241H117.956C117.193 166.251 116.433 166.161 115.694 165.973C114.978 165.762 114.308 165.422 113.716 164.969C113.047 164.475 112.489 163.845 112.079 163.121C111.679 162.437 111.464 161.661 111.454 160.869C111.473 159.971 111.748 159.097 112.245 158.349C112.798 157.487 113.567 156.784 114.476 156.311C115.48 155.775 116.604 155.503 117.742 155.521C118.932 155.54 120.108 155.773 121.215 156.208L121.673 157.425H121.563C121.129 156.924 120.589 156.527 119.981 156.263C119.275 155.947 118.508 155.788 117.734 155.797C117.069 155.778 116.408 155.907 115.798 156.173C115.188 156.439 114.645 156.837 114.207 157.338C113.281 158.39 112.789 159.753 112.83 161.154C112.823 161.723 112.901 162.29 113.06 162.836C113.237 163.377 113.526 163.875 113.906 164.298C114.273 164.743 114.732 165.104 115.251 165.357C115.751 165.594 116.284 165.753 116.833 165.831C117.295 165.908 117.764 165.947 118.233 165.949H118.834C119.263 165.966 119.691 165.907 120.099 165.775C120.265 165.68 120.352 165.436 120.352 165.04V163.46C120.365 163.348 120.353 163.234 120.318 163.126C120.282 163.018 120.224 162.92 120.147 162.836C119.978 162.714 119.768 162.663 119.561 162.694V162.583H122.441V162.694C122.327 162.68 122.212 162.689 122.102 162.721C121.992 162.752 121.889 162.805 121.8 162.876C121.665 163.078 121.607 163.322 121.634 163.563V165.214C121.614 165.462 121.663 165.711 121.776 165.933C121.833 166.012 121.91 166.074 121.999 166.113C122.088 166.151 122.186 166.166 122.282 166.154L122.441 166.147Z" fill="#D4DADC"/>
<path d="M126.198 155.702V155.813C126.031 155.797 125.864 155.819 125.707 155.876C125.639 155.889 125.575 155.918 125.52 155.961C125.465 156.003 125.421 156.058 125.391 156.121C125.347 156.382 125.331 156.647 125.343 156.911V165.009C125.328 165.274 125.347 165.539 125.399 165.799C125.443 165.903 125.521 165.989 125.62 166.044C125.802 166.121 126 166.153 126.198 166.139V166.241H123.231V166.131C123.603 166.131 123.833 166.06 123.92 165.925C124.044 165.634 124.093 165.316 124.062 165.001V156.998C124.088 156.662 124.037 156.324 123.912 156.01C123.809 155.86 123.579 155.789 123.231 155.813V155.702H126.198Z" fill="#D4DADC"/>
<path d="M136.045 155.339L135.515 156.611H135.405C135.419 156.509 135.419 156.405 135.405 156.303C135.411 156.258 135.402 156.213 135.379 156.174C135.356 156.135 135.32 156.105 135.278 156.089C135.15 156.051 135.016 156.035 134.882 156.042H131.98V165.072C131.959 165.339 131.991 165.608 132.075 165.862C132.096 165.922 132.13 165.977 132.175 166.022C132.221 166.067 132.275 166.102 132.336 166.123C132.506 166.169 132.682 166.187 132.858 166.178V166.241H129.844V166.131C130.098 166.147 130.35 166.075 130.556 165.925C130.675 165.706 130.724 165.455 130.698 165.206V156.042H127.977C127.794 156.032 127.61 156.048 127.432 156.089C127.386 156.108 127.348 156.142 127.323 156.185C127.299 156.228 127.29 156.278 127.297 156.326C127.306 156.424 127.327 156.519 127.36 156.611H127.25L126.72 155.339H126.83C126.885 155.467 126.98 155.575 127.099 155.647C127.285 155.697 127.477 155.716 127.669 155.702H135.056C135.266 155.712 135.476 155.693 135.681 155.647C135.75 155.623 135.812 155.582 135.862 155.528C135.911 155.474 135.947 155.409 135.966 155.339H136.045Z" fill="#D4DADC"/>
<path d="M141.282 161.398H138.015L136.33 165.349C136.249 165.517 136.191 165.695 136.156 165.878C136.156 166.036 136.275 166.115 136.528 166.115V166.241H134.875V166.131C135.07 166.134 135.262 166.082 135.429 165.981C135.655 165.76 135.825 165.489 135.927 165.191L139.961 155.544H140.159L144.113 164.859C144.192 165.095 144.296 165.323 144.422 165.538C144.498 165.72 144.626 165.876 144.791 165.984C144.956 166.092 145.15 166.149 145.347 166.147V166.241H142.769V166.131C143.006 166.131 143.125 166.044 143.125 165.862C143.099 165.664 143.04 165.472 142.951 165.293C142.924 165.267 142.905 165.234 142.895 165.199C142.895 165.151 142.895 165.127 142.895 165.127L141.282 161.398ZM138.118 161.106H141.131L139.629 157.504L138.118 161.106Z" fill="#D4DADC"/>
<path d="M145.632 166.241V166.131C145.751 166.148 145.872 166.14 145.988 166.107C146.104 166.074 146.212 166.018 146.304 165.941C146.428 165.755 146.484 165.532 146.463 165.309V156.69C146.479 156.462 146.438 156.234 146.344 156.026C146.257 155.892 146.02 155.821 145.616 155.813V155.702H148.598V155.813C148.401 155.798 148.203 155.831 148.021 155.908C147.924 155.961 147.846 156.044 147.799 156.145C147.749 156.346 147.731 156.554 147.744 156.761V164.171C147.719 164.417 147.75 164.665 147.833 164.897C147.917 165.13 148.051 165.341 148.226 165.515C148.721 165.819 149.301 165.954 149.879 165.902H151.24C151.753 165.944 152.262 165.782 152.656 165.451C153.019 164.953 153.198 164.344 153.162 163.729H153.273V166.241H145.632Z" fill="#D4DADC"/>
<path d="M11.8013 156.295V155.971H26.0386C28.9233 155.886 31.8076 156.152 34.6284 156.761C36.605 157.241 38.4676 158.106 40.1097 159.305C41.6797 160.472 42.9508 161.993 43.8194 163.745C44.7462 165.623 45.2151 167.694 45.1877 169.789C45.1794 171.974 44.6935 174.131 43.764 176.109C42.8495 178.135 41.5369 179.956 39.9041 181.465C38.44 182.862 36.6802 183.913 34.7549 184.539C32.0137 185.195 29.1956 185.474 26.3787 185.368H11.8013V185.068H12.1809C12.4906 185.103 12.8033 185.038 13.0726 184.881C13.342 184.724 13.5535 184.485 13.6758 184.199C13.9733 183.173 14.0937 182.105 14.0318 181.039V159.684C14.0318 158.104 13.8894 157.132 13.6047 156.793C13.3535 156.592 13.0642 156.444 12.7542 156.359C12.4441 156.273 12.1199 156.251 11.8013 156.295ZM22.3764 156.619H17.6306V179.443C17.5553 180.568 17.8317 181.689 18.4216 182.65C19.0965 183.442 20.0238 183.978 21.0476 184.167C22.6866 184.522 24.3622 184.678 26.0386 184.633C31.8389 184.633 35.9229 183.219 38.2905 180.391C40.5396 177.827 41.7915 174.541 41.8182 171.132C41.8182 167.208 40.2073 163.808 36.9855 160.932C33.7636 158.057 28.8939 156.619 22.3764 156.619Z" fill="#D4DADC"/>
<path d="M46.2949 174.987V174.861H53.287V176.314H53.1763C53.1129 175.977 52.9839 175.654 52.7966 175.366C52.5552 175.235 52.2778 175.185 52.0057 175.224H48.3593V179.964H51.7684C51.9857 179.983 52.2046 179.954 52.409 179.877C52.4534 179.85 52.4898 179.812 52.5148 179.766C52.5397 179.72 52.5524 179.669 52.5514 179.617H52.6701V180.612H52.5514C52.5479 180.554 52.5302 180.498 52.4998 180.448C52.4695 180.399 52.4275 180.357 52.3774 180.328C52.2126 180.269 52.0377 180.245 51.8633 180.257H48.3593V183.519C48.337 183.879 48.3881 184.239 48.5096 184.578C48.5464 184.678 48.6066 184.767 48.685 184.838C48.7635 184.91 48.8579 184.961 48.9605 184.989C49.2723 185.055 49.5909 185.085 49.9096 185.076H51.8712C52.2704 185.089 52.67 185.068 53.0655 185.013C53.2347 184.978 53.3893 184.893 53.5085 184.768C53.6702 184.534 53.7658 184.261 53.7853 183.978H53.904V185.423H46.2949V185.313C46.4981 185.316 46.699 185.27 46.8802 185.178C47.0147 185.099 47.078 184.894 47.078 184.562V176.038C47.0924 175.77 47.0575 175.503 46.9751 175.248C46.904 175.066 46.6667 174.987 46.2949 174.987Z" fill="#D4DADC"/>
<path d="M60.0106 175.003L60.5405 176.314H60.4535L60.0343 175.896C59.7568 175.622 59.4292 175.405 59.0693 175.256C58.6824 175.1 58.2684 175.022 57.8512 175.027C57.1907 174.992 56.5422 175.213 56.0399 175.643C55.8287 175.831 55.6602 176.063 55.5457 176.322C55.4311 176.581 55.3731 176.861 55.3755 177.144C55.3697 177.505 55.4776 177.859 55.684 178.155C56.0426 178.531 56.4962 178.804 56.997 178.945C58.136 179.309 58.919 179.585 59.3699 179.735C59.8398 179.956 60.2556 180.277 60.588 180.675C60.9947 181.139 61.2047 181.742 61.1733 182.358C61.1734 182.625 61.1388 182.89 61.0704 183.148C60.9984 183.415 60.8835 183.668 60.7303 183.899C60.574 184.142 60.3851 184.362 60.1688 184.554C59.9714 184.743 59.7442 184.898 59.4964 185.013C59.1535 185.14 58.7938 185.218 58.4286 185.242C57.9382 185.297 57.6377 185.321 57.4637 185.321H54.458V182.255H54.5767C54.5443 182.646 54.5984 183.039 54.7351 183.406C54.8718 183.773 55.0877 184.106 55.3676 184.381C56.0443 184.836 56.8561 185.048 57.6693 184.981C58.4415 185.034 59.2075 184.81 59.8286 184.349C60.0582 184.165 60.2434 183.931 60.3707 183.666C60.498 183.401 60.5641 183.11 60.5642 182.816C60.5734 182.487 60.4853 182.163 60.3111 181.884C60.1209 181.612 59.8757 181.384 59.5913 181.213C59.0357 180.914 58.4497 180.676 57.8433 180.501C57.2234 180.316 56.6244 180.067 56.0558 179.759C55.6853 179.524 55.3848 179.194 55.1857 178.803C54.8847 178.263 54.7741 177.638 54.8717 177.027C54.9692 176.417 55.2692 175.857 55.7235 175.437C56.3687 174.881 57.2058 174.597 58.0569 174.647C58.4632 174.654 58.8682 174.696 59.2671 174.774C59.5127 174.811 59.7557 174.864 59.9947 174.932L60.0106 175.003Z" fill="#D4DADC"/>
<path d="M72.4757 180.557H69.2091L67.5243 184.507C67.4444 184.675 67.3859 184.853 67.3503 185.036C67.3503 185.194 67.4689 185.273 67.7221 185.273V185.384H66.061V185.273C66.2592 185.282 66.4551 185.229 66.6226 185.123C66.85 184.904 67.021 184.633 67.1209 184.333L71.1865 174.703H71.3842L75.339 184.025C75.4187 184.26 75.5193 184.487 75.6396 184.704C75.7171 184.886 75.8475 185.041 76.0139 185.148C76.1803 185.255 76.375 185.31 76.5729 185.305V185.415H73.9627V185.305C74.1921 185.305 74.3107 185.218 74.3107 185.044C74.2903 184.843 74.2312 184.647 74.1367 184.467C74.1146 184.439 74.0984 184.407 74.0893 184.373C74.0893 184.325 74.0893 184.302 74.0893 184.302L72.4757 180.557ZM69.3119 180.264H72.3254L70.8226 176.67L69.3119 180.264Z" fill="#D4DADC"/>
<path d="M86.2152 175.39L86.6265 176.512H86.5157C86.0134 176.02 85.4187 175.632 84.7658 175.37C84.1129 175.109 83.4147 174.978 82.7112 174.987C81.3686 174.927 80.0543 175.385 79.0412 176.267C78.5963 176.652 78.2406 177.129 77.9989 177.665C77.7571 178.201 77.635 178.784 77.6412 179.372C77.6738 180.265 77.8835 181.143 78.2581 181.955C78.6792 182.914 79.3617 183.735 80.2276 184.325C81.1886 184.971 82.3284 185.3 83.4864 185.265C84.3209 185.266 85.1506 185.138 85.9462 184.886C86.623 184.703 87.2413 184.35 87.7417 183.859H87.8366L87.0457 184.997C85.7881 185.25 84.9654 185.408 84.5937 185.455C84.092 185.509 83.5875 185.533 83.083 185.526C80.7523 185.526 79.0833 185.013 78.0762 183.986C77.5906 183.506 77.2071 182.933 76.9488 182.302C76.6906 181.671 76.5629 180.994 76.5734 180.312C76.5785 179.3 76.8615 178.309 77.3915 177.447C77.9214 176.585 78.6781 175.884 79.579 175.422C81.1157 174.674 82.8582 174.46 84.5304 174.813C84.9179 174.895 85.2987 175.006 85.6694 175.145L86.1677 175.327L86.2152 175.39Z" fill="#D4DADC"/>
<path d="M97.3358 174.497L96.8058 175.769H96.6951C96.7059 175.669 96.7059 175.569 96.6951 175.469C96.7002 175.425 96.6905 175.38 96.6677 175.341C96.6448 175.303 96.61 175.273 96.5685 175.256C96.4402 175.218 96.3066 175.202 96.1731 175.208H93.3335V184.23C93.3131 184.497 93.3453 184.766 93.4284 185.02C93.4506 185.079 93.4845 185.132 93.528 185.177C93.5715 185.222 93.6238 185.257 93.6815 185.281C93.8555 185.319 94.0335 185.335 94.2115 185.329V185.439H91.19V185.329C91.5697 185.329 91.807 185.242 91.9019 185.123C92.0222 184.904 92.0719 184.653 92.0443 184.404V175.208H89.268C89.0821 175.198 88.8957 175.214 88.7143 175.256C88.6273 175.256 88.5878 175.358 88.5878 175.485C88.5962 175.582 88.6175 175.678 88.651 175.769H88.5324L88.0024 174.497H88.1211C88.1715 174.63 88.2665 174.742 88.39 174.813C88.5768 174.855 88.7684 174.871 88.9595 174.861H96.3392C96.5512 174.868 96.7633 174.852 96.9719 174.813C97.0414 174.787 97.1036 174.745 97.1532 174.69C97.2028 174.635 97.2383 174.569 97.2567 174.497H97.3358Z" fill="#D4DADC"/>
<path d="M108.291 185.416H106.179V183.788C105.698 184.326 105.108 184.756 104.448 185.049C103.788 185.341 103.073 185.491 102.351 185.487C101.395 185.538 100.457 185.225 99.7246 184.61C99.3966 184.296 99.14 183.916 98.9721 183.495C98.8042 183.074 98.7291 182.621 98.7517 182.168V175.848C98.7821 175.597 98.7323 175.343 98.6093 175.121C98.5144 175.019 98.2929 174.971 97.937 174.971V174.861H100.895V174.971C100.664 174.951 100.433 175 100.231 175.113C100.104 175.2 100.041 175.422 100.041 175.769V181.568C99.9944 182.04 100.05 182.516 100.204 182.965C100.359 183.413 100.608 183.824 100.935 184.167C101.496 184.675 102.226 184.956 102.983 184.957C103.591 184.944 104.188 184.8 104.735 184.534C105.281 184.268 105.763 183.887 106.147 183.417V176.306C106.147 175.682 106.092 175.311 105.973 175.192C105.9 175.128 105.815 175.08 105.722 175.05C105.63 175.02 105.532 175.009 105.435 175.019H105.325V174.908H108.259V175.019C108.017 175.001 107.776 175.062 107.571 175.192C107.461 175.352 107.413 175.546 107.436 175.738V184.325C107.426 184.548 107.442 184.77 107.484 184.989C107.527 185.098 107.605 185.189 107.705 185.25C107.877 185.333 108.069 185.369 108.259 185.352L108.291 185.416Z" fill="#D4DADC"/>
<path d="M115.409 180.557H112.143L110.458 184.507C110.378 184.675 110.319 184.853 110.284 185.036C110.284 185.194 110.41 185.273 110.656 185.273V185.384H109.002V185.273C109.198 185.281 109.391 185.229 109.556 185.123C109.784 184.904 109.954 184.633 110.054 184.333L114.088 174.679H114.294L118.249 184.001C118.329 184.237 118.433 184.465 118.557 184.681C118.633 184.862 118.762 185.016 118.927 185.123C119.092 185.23 119.286 185.285 119.483 185.281V185.392H116.888V185.281C117.126 185.281 117.244 185.194 117.244 185.02C117.219 184.82 117.16 184.625 117.07 184.444C117.067 184.433 117.064 184.423 117.062 184.412C117.062 184.365 117.062 184.341 117.062 184.341L115.409 180.557ZM112.245 180.264H115.251L113.748 176.67L112.245 180.264Z" fill="#D4DADC"/>
<path d="M119.759 185.416V185.305C119.878 185.321 119.998 185.313 120.114 185.282C120.229 185.25 120.337 185.197 120.432 185.123C120.553 184.933 120.609 184.708 120.59 184.483V175.848C120.606 175.623 120.565 175.398 120.471 175.192C120.384 175.05 120.147 174.979 119.744 174.971V174.861H122.726V174.971C122.527 174.954 122.328 174.99 122.148 175.074C122.048 175.123 121.969 175.208 121.927 175.311C121.88 175.513 121.861 175.72 121.871 175.927V183.33C121.847 183.575 121.877 183.823 121.961 184.056C122.044 184.288 122.178 184.499 122.354 184.673C122.847 184.98 123.428 185.119 124.007 185.068H125.367C125.889 185.111 126.406 184.946 126.807 184.61C127.173 184.11 127.352 183.498 127.313 182.88H127.424V185.416H119.759Z" fill="#D4DADC"/>
<path d="M131.458 174.861V174.971C131.292 174.959 131.125 174.98 130.967 175.034C130.786 175.09 130.683 175.177 130.651 175.287C130.608 175.548 130.592 175.813 130.604 176.077V184.167C130.588 184.432 130.607 184.697 130.659 184.957C130.698 185.062 130.774 185.149 130.873 185.202C131.057 185.28 131.258 185.312 131.458 185.297V185.408H128.484V185.297C128.856 185.297 129.093 185.234 129.18 185.099C129.296 184.803 129.342 184.484 129.314 184.167V176.156C129.346 175.822 129.295 175.486 129.164 175.177C129.061 175.019 128.84 174.955 128.484 174.971V174.861H131.458Z" fill="#D4DADC"/>
<path d="M141.337 174.497L140.807 175.769H140.696C140.707 175.669 140.707 175.569 140.696 175.469C140.701 175.425 140.692 175.38 140.669 175.341C140.646 175.303 140.611 175.273 140.57 175.256C140.441 175.218 140.308 175.202 140.174 175.208H137.271V184.23C137.251 184.497 137.283 184.766 137.366 185.02C137.413 185.137 137.504 185.231 137.619 185.281C137.793 185.319 137.971 185.335 138.149 185.329V185.439H135.136V185.329C135.507 185.329 135.745 185.242 135.84 185.123C135.98 184.913 136.052 184.665 136.045 184.412V175.208H133.269C133.083 175.198 132.897 175.214 132.715 175.256C132.628 175.256 132.589 175.358 132.589 175.485C132.597 175.582 132.618 175.678 132.652 175.769H132.533L132.003 174.497H132.09C132.141 174.63 132.236 174.742 132.359 174.813C132.546 174.855 132.738 174.871 132.929 174.861H140.309C140.521 174.868 140.733 174.852 140.941 174.813C141.011 174.787 141.073 174.745 141.123 174.69C141.172 174.635 141.208 174.569 141.226 174.497H141.337Z" fill="#D4DADC"/>
<path d="M141.922 174.987V174.861H148.922V176.314H148.812C148.743 175.977 148.612 175.655 148.424 175.366C148.183 175.235 147.905 175.185 147.633 175.224H143.963V179.964H147.372C147.589 179.983 147.808 179.954 148.013 179.877C148.057 179.85 148.093 179.812 148.118 179.766C148.143 179.72 148.156 179.669 148.155 179.617H148.274V180.612H148.155C148.152 180.554 148.134 180.498 148.103 180.448C148.073 180.399 148.031 180.357 147.981 180.328C147.814 180.269 147.636 180.245 147.459 180.257H143.963V183.519C143.943 183.878 143.991 184.237 144.105 184.578C144.144 184.678 144.206 184.767 144.285 184.838C144.365 184.91 144.461 184.961 144.564 184.989C144.876 185.056 145.194 185.085 145.513 185.076H147.475C147.874 185.089 148.274 185.068 148.669 185.013C148.838 184.976 148.992 184.891 149.112 184.768C149.274 184.534 149.369 184.261 149.389 183.978H149.5V185.423H141.891V185.313C142.094 185.318 142.295 185.272 142.476 185.178C142.61 185.099 142.682 184.894 142.682 184.562V176.038C142.694 175.77 142.657 175.502 142.571 175.248C142.531 175.066 142.31 174.987 141.922 174.987ZM145.877 171.922H147.238L144.944 174.134H144.588L145.877 171.922Z" fill="#D4DADC"/>
<path d="M155.645 175.003L156.175 176.314H156.08L155.661 175.896C155.388 175.621 155.063 175.403 154.704 175.256C154.317 175.1 153.903 175.022 153.486 175.027C152.825 174.991 152.176 175.211 151.675 175.643C151.464 175.831 151.295 176.063 151.181 176.322C151.066 176.581 151.008 176.861 151.01 177.144C151.005 177.505 151.112 177.859 151.319 178.155C151.678 178.531 152.131 178.804 152.632 178.945C153.771 179.309 154.554 179.585 155.005 179.735C155.473 179.958 155.889 180.278 156.223 180.675C156.63 181.139 156.84 181.742 156.808 182.358C156.808 182.625 156.774 182.89 156.705 183.148C156.633 183.415 156.518 183.668 156.365 183.899C156.209 184.142 156.02 184.362 155.804 184.554C155.606 184.743 155.379 184.898 155.131 185.013C154.788 185.139 154.429 185.217 154.063 185.242C153.573 185.297 153.273 185.321 153.091 185.321H150.125V182.255H150.235C150.201 182.646 150.255 183.039 150.391 183.407C150.528 183.774 150.745 184.107 151.026 184.381C151.703 184.836 152.515 185.048 153.328 184.981C154.1 185.034 154.866 184.81 155.487 184.349C155.717 184.165 155.902 183.931 156.029 183.666C156.157 183.401 156.223 183.11 156.223 182.816C156.232 182.487 156.144 182.163 155.97 181.884C155.779 181.612 155.534 181.384 155.25 181.213C154.694 180.915 154.108 180.677 153.502 180.501C152.88 180.314 152.279 180.065 151.706 179.759C151.34 179.521 151.043 179.192 150.844 178.803C150.543 178.263 150.433 177.638 150.53 177.027C150.628 176.417 150.928 175.857 151.382 175.437C152.027 174.881 152.864 174.597 153.715 174.647C154.122 174.654 154.527 174.696 154.926 174.774C155.169 174.809 155.409 174.862 155.645 174.932V175.003Z" fill="#D4DADC"/>
<path d="M171.805 175.39L172.224 176.512H172.113C171.097 175.52 169.729 174.972 168.309 174.987C166.964 174.925 165.646 175.384 164.631 176.267C164.186 176.652 163.83 177.129 163.588 177.665C163.347 178.202 163.225 178.784 163.231 179.372C163.263 180.266 163.475 181.145 163.856 181.955C164.284 182.975 165.013 183.84 165.945 184.437C166.878 185.034 167.969 185.334 169.076 185.297C169.911 185.298 170.74 185.17 171.536 184.918C172.213 184.737 172.832 184.383 173.331 183.891H173.434L172.643 185.028C171.386 185.281 170.571 185.439 170.191 185.487C169.692 185.54 169.19 185.564 168.688 185.558C166.358 185.558 164.689 185.044 163.682 184.017C163.195 183.538 162.81 182.966 162.551 182.334C162.291 181.703 162.162 181.026 162.171 180.344C162.176 179.332 162.459 178.341 162.989 177.479C163.519 176.616 164.276 175.916 165.176 175.453C166.207 174.919 167.354 174.648 168.514 174.663C169.059 174.655 169.604 174.711 170.136 174.829C170.52 174.912 170.899 175.023 171.267 175.161L171.765 175.343L171.805 175.39Z" fill="#D4DADC"/>
<path d="M184.523 185.416H182.411V183.788C181.93 184.326 181.34 184.756 180.68 185.049C180.02 185.341 179.305 185.491 178.583 185.487C177.628 185.538 176.689 185.225 175.957 184.61C175.629 184.296 175.372 183.916 175.205 183.495C175.037 183.074 174.961 182.621 174.984 182.168V175.848C175.015 175.597 174.965 175.343 174.842 175.121C174.747 175.019 174.525 174.971 174.169 174.971V174.861H177.128V174.971C176.897 174.951 176.665 175 176.463 175.113C176.337 175.2 176.273 175.422 176.273 175.769V181.568C176.227 182.04 176.282 182.516 176.437 182.965C176.591 183.413 176.84 183.824 177.167 184.167C177.729 184.675 178.459 184.956 179.216 184.957C179.823 184.944 180.421 184.8 180.967 184.534C181.513 184.268 181.995 183.887 182.38 183.417V176.306C182.38 175.682 182.324 175.311 182.206 175.192C182.133 175.128 182.047 175.08 181.955 175.05C181.862 175.02 181.764 175.009 181.668 175.019H181.557V174.908H184.491V175.019C184.249 175.001 184.008 175.062 183.803 175.192C183.693 175.352 183.645 175.546 183.669 175.738V184.325C183.659 184.548 183.675 184.77 183.716 184.989C183.76 185.098 183.837 185.189 183.938 185.25C184.11 185.333 184.301 185.369 184.491 185.352L184.523 185.416Z" fill="#D4DADC"/>
<path d="M185.346 185.416V185.305C185.464 185.321 185.585 185.313 185.7 185.282C185.816 185.25 185.924 185.197 186.018 185.123C186.14 184.933 186.196 184.708 186.176 184.483V175.848C186.192 175.623 186.151 175.398 186.058 175.192C185.971 175.05 185.733 174.979 185.33 174.971V174.861H188.312V174.971C188.114 174.954 187.915 174.99 187.735 175.074C187.634 175.123 187.556 175.208 187.513 175.311C187.466 175.513 187.448 175.72 187.458 175.927V183.33C187.433 183.575 187.464 183.823 187.547 184.056C187.631 184.288 187.765 184.499 187.94 184.673C188.434 184.98 189.014 185.119 189.593 185.068H190.954C191.475 185.111 191.993 184.946 192.393 184.61C192.76 184.11 192.939 183.498 192.9 182.88H192.994V185.416H185.346Z" fill="#D4DADC"/>
<path d="M201.545 174.497L201.015 175.769H200.904C200.914 175.669 200.914 175.569 200.904 175.469C200.91 175.425 200.901 175.381 200.88 175.343C200.858 175.304 200.825 175.274 200.785 175.256C200.657 175.219 200.523 175.203 200.39 175.208H197.487V184.23C197.467 184.497 197.499 184.766 197.582 185.02C197.604 185.079 197.638 185.132 197.682 185.177C197.725 185.222 197.777 185.257 197.835 185.281C198.006 185.319 198.182 185.335 198.357 185.329V185.439H195.367V185.329C195.747 185.329 195.984 185.242 196.079 185.123C196.199 184.904 196.249 184.653 196.221 184.404V175.208H193.445C193.259 175.198 193.073 175.214 192.892 175.256C192.805 175.256 192.765 175.358 192.765 175.485C192.77 175.582 192.788 175.678 192.82 175.769H192.71L192.18 174.497H192.298C192.349 174.628 192.44 174.739 192.559 174.813C192.746 174.854 192.938 174.87 193.129 174.861H200.516C200.728 174.867 200.941 174.851 201.149 174.813C201.218 174.788 201.28 174.746 201.328 174.691C201.377 174.636 201.41 174.569 201.426 174.497H201.545Z" fill="#D4DADC"/>
<path d="M212.5 185.416H210.396V183.788C209.915 184.326 209.324 184.756 208.664 185.049C208.004 185.341 207.29 185.491 206.567 185.487C205.612 185.538 204.673 185.225 203.941 184.61C203.613 184.296 203.357 183.916 203.189 183.495C203.021 183.074 202.946 182.621 202.968 182.168V175.848C202.999 175.597 202.949 175.343 202.826 175.121C202.731 175.019 202.51 174.971 202.154 174.971V174.861H205.112V174.971C204.881 174.951 204.65 175 204.448 175.113C204.321 175.2 204.258 175.422 204.258 175.769V181.568C204.211 182.04 204.267 182.516 204.421 182.965C204.575 183.413 204.824 183.824 205.152 184.167C205.713 184.675 206.443 184.956 207.2 184.957C207.808 184.944 208.405 184.8 208.951 184.534C209.498 184.268 209.98 183.887 210.364 183.417V176.306C210.364 175.682 210.309 175.311 210.19 175.192C210.117 175.128 210.032 175.08 209.939 175.05C209.847 175.02 209.749 175.009 209.652 175.019H209.605V174.908H212.539V175.019C212.297 175.001 212.056 175.062 211.851 175.192C211.741 175.352 211.693 175.546 211.717 175.738V184.325C211.706 184.548 211.722 184.77 211.764 184.989C211.807 185.098 211.885 185.189 211.985 185.25C212.157 185.333 212.349 185.369 212.539 185.352L212.5 185.416Z" fill="#D4DADC"/>
<path d="M213.733 174.971V174.861H216.897C217.688 174.861 218.274 174.861 218.629 174.916C219.014 174.954 219.387 175.067 219.729 175.248C220.087 175.42 220.384 175.695 220.583 176.038C220.783 176.4 220.881 176.809 220.868 177.223C220.864 177.774 220.687 178.31 220.362 178.756C219.982 179.271 219.49 179.692 218.922 179.988L219.713 181.126C219.887 181.418 220.338 182.042 221.074 183.014C221.535 183.701 222.117 184.301 222.79 184.783C223.148 184.984 223.55 185.092 223.961 185.099C224.415 185.075 224.855 184.936 225.242 184.697L225.289 184.839C224.601 185.335 223.764 185.583 222.916 185.542C222.317 185.556 221.73 185.363 221.255 184.997C220.344 184.096 219.535 183.097 218.843 182.018L217.72 180.383H216.731H215.829V184.412C215.813 184.654 215.859 184.896 215.964 185.115C216.051 185.25 216.272 185.321 216.612 185.321V185.431H213.741V185.321C214.105 185.321 214.327 185.234 214.414 185.107C214.526 184.86 214.572 184.588 214.548 184.317V175.919C214.556 175.69 214.515 175.461 214.429 175.248C214.35 175.066 214.121 174.979 213.733 174.971ZM215.822 175.145V180.091H216.984C217.72 180.151 218.452 179.931 219.033 179.474C219.254 179.268 219.427 179.017 219.542 178.737C219.657 178.458 219.71 178.157 219.697 177.855C219.689 177.186 219.458 176.538 219.041 176.014C218.754 175.697 218.396 175.452 217.995 175.301C217.595 175.15 217.164 175.097 216.739 175.145H215.822Z" fill="#D4DADC"/>
<path d="M225.993 174.987V174.861H232.985V176.314H232.874C232.811 175.977 232.682 175.654 232.495 175.366C232.253 175.235 231.976 175.185 231.704 175.224H228.026V179.964H231.435C231.652 179.983 231.871 179.954 232.076 179.877C232.12 179.849 232.157 179.811 232.183 179.765C232.209 179.72 232.224 179.669 232.226 179.617H232.337V180.612H232.226C232.22 180.554 232.2 180.498 232.168 180.449C232.137 180.399 232.094 180.358 232.044 180.328C231.879 180.269 231.704 180.244 231.53 180.257H228.026V183.519C228.007 183.879 228.059 184.238 228.176 184.578C228.213 184.678 228.273 184.767 228.352 184.838C228.43 184.91 228.524 184.961 228.627 184.989C228.939 185.055 229.257 185.085 229.576 185.076H231.538C231.937 185.089 232.336 185.068 232.732 185.013C232.901 184.978 233.056 184.893 233.175 184.768C233.337 184.534 233.432 184.261 233.452 183.978H233.57V185.423H225.961V185.313C226.165 185.316 226.365 185.27 226.547 185.178C226.681 185.099 226.744 184.894 226.744 184.562V176.038C226.759 175.77 226.724 175.503 226.642 175.248C226.602 175.066 226.373 174.987 225.993 174.987Z" fill="#D4DADC"/>
<path d="M233.959 185.416V185.305C234.078 185.321 234.2 185.313 234.317 185.282C234.434 185.251 234.543 185.197 234.639 185.123C234.761 184.933 234.816 184.708 234.797 184.483V175.848C234.81 175.622 234.767 175.397 234.67 175.192C234.591 175.05 234.354 174.979 233.951 174.971V174.861H236.933V174.971C236.732 174.955 236.53 174.99 236.347 175.074C236.249 175.123 236.172 175.208 236.134 175.311C236.083 175.512 236.064 175.72 236.078 175.927V183.33C236.052 183.576 236.082 183.824 236.165 184.057C236.249 184.289 236.384 184.5 236.561 184.673C237.054 184.981 237.635 185.12 238.214 185.068H239.574C240.093 185.11 240.608 184.945 241.006 184.61C241.376 184.111 241.558 183.499 241.52 182.88H241.631V185.416H233.959Z" fill="#D4DADC"/>
<path d="M242.35 185.416V185.305C242.469 185.321 242.589 185.313 242.705 185.282C242.82 185.25 242.928 185.197 243.023 185.123C243.144 184.933 243.2 184.708 243.181 184.483V175.848C243.196 175.623 243.156 175.398 243.062 175.192C242.975 175.05 242.738 174.979 242.334 174.971V174.861H245.316V174.971C245.118 174.954 244.919 174.99 244.739 175.074C244.639 175.123 244.56 175.208 244.518 175.311C244.466 175.512 244.448 175.72 244.462 175.927V183.33C244.437 183.575 244.468 183.823 244.551 184.056C244.635 184.288 244.769 184.499 244.945 184.673C245.438 184.98 246.018 185.119 246.598 185.068H247.958C248.48 185.111 248.997 184.946 249.398 184.61C249.761 184.108 249.94 183.497 249.904 182.88H250.015V185.416H242.35Z" fill="#D4DADC"/>
<path d="M251.154 174.987V174.861H258.146V176.314H258.035C257.974 175.975 257.842 175.651 257.648 175.366C257.406 175.235 257.129 175.185 256.857 175.224H253.187V179.964H256.596C256.813 179.983 257.032 179.954 257.236 179.877C257.281 179.85 257.317 179.812 257.342 179.766C257.367 179.72 257.38 179.669 257.379 179.617H257.497V180.612H257.379C257.375 180.554 257.357 180.498 257.327 180.448C257.297 180.399 257.255 180.357 257.205 180.328C257.037 180.269 256.86 180.245 256.683 180.257H253.187V183.519C253.166 183.878 253.215 184.237 253.329 184.578C253.368 184.678 253.429 184.767 253.509 184.838C253.589 184.91 253.684 184.961 253.788 184.989C254.099 185.056 254.418 185.085 254.737 185.076H256.698C257.098 185.089 257.497 185.068 257.893 185.013C258.061 184.976 258.215 184.891 258.336 184.768C258.497 184.534 258.593 184.261 258.613 183.978H258.723V185.423H251.122V185.313C251.325 185.316 251.526 185.27 251.707 185.178C251.834 185.099 251.905 184.894 251.905 184.562V176.038C251.916 175.771 251.881 175.503 251.802 175.248C251.763 175.066 251.525 174.987 251.154 174.987Z" fill="#D4DADC"/>
<path d="M264.87 175.003L265.399 176.314H265.312L264.893 175.896C264.616 175.622 264.288 175.405 263.928 175.256C263.541 175.1 263.127 175.022 262.71 175.027C262.05 174.992 261.401 175.213 260.899 175.643C260.688 175.831 260.519 176.063 260.405 176.322C260.29 176.581 260.232 176.861 260.235 177.144C260.229 177.505 260.337 177.859 260.543 178.155C260.902 178.532 261.355 178.804 261.856 178.945C262.995 179.309 263.778 179.585 264.229 179.735C264.699 179.956 265.115 180.277 265.447 180.675C265.854 181.139 266.064 181.742 266.032 182.358C266.032 182.625 265.998 182.89 265.929 183.148C265.857 183.415 265.742 183.668 265.589 183.899C265.433 184.142 265.244 184.362 265.028 184.554C264.83 184.743 264.603 184.898 264.355 185.013C264.012 185.139 263.653 185.217 263.288 185.242C262.797 185.297 262.497 185.321 262.315 185.321H259.349V182.255H259.436C259.403 182.646 259.457 183.039 259.594 183.406C259.731 183.773 259.947 184.106 260.227 184.381C260.903 184.836 261.715 185.048 262.528 184.981C263.301 185.034 264.066 184.81 264.688 184.349C264.917 184.165 265.102 183.931 265.23 183.666C265.357 183.401 265.423 183.11 265.423 182.816C265.432 182.487 265.344 182.163 265.17 181.884C264.98 181.612 264.735 181.384 264.45 181.213C263.895 180.914 263.309 180.676 262.702 180.502C262.082 180.316 261.483 180.067 260.915 179.759C260.544 179.524 260.244 179.194 260.045 178.803C259.744 178.263 259.633 177.638 259.731 177.027C259.828 176.417 260.128 175.857 260.583 175.437C261.238 174.871 262.091 174.587 262.955 174.647C263.362 174.654 263.767 174.696 264.166 174.774C264.411 174.811 264.654 174.864 264.893 174.932L264.87 175.003Z" fill="#D4DADC"/>
</g>
<defs>
<clipPath id="clip0_33_282">
<rect width="266" height="190" fill="white"/>
</clipPath>
</defs>
</svg>
