<svg xmlns="http://www.w3.org/2000/svg" xmlns:xlink="http://www.w3.org/1999/xlink" viewBox="0 0 150.63 68.18"><defs><style>.cls-1,.cls-10,.cls-11,.cls-13,.cls-2,.cls-3,.cls-4,.cls-5,.cls-6,.cls-7,.cls-8,.cls-9{stroke:#000;stroke-miterlimit:10;}.cls-1,.cls-2,.cls-3,.cls-4,.cls-5{stroke-width:0.75px;}.cls-1{fill:url(#Dégradé_sans_nom_270);}.cls-2{fill:url(#Dégradé_sans_nom_269);}.cls-3{fill:url(#Dégradé_sans_nom_268);}.cls-13,.cls-4,.cls-8{fill:none;}.cls-13,.cls-4{stroke-linecap:round;}.cls-5{fill:#aa6b00;}.cls-6{fill:#958d81;}.cls-10,.cls-11,.cls-13,.cls-6,.cls-7,.cls-8,.cls-9{stroke-width:0.5px;}.cls-7{fill:#4b4741;}.cls-9{fill:url(#Dégradé_sans_nom_181);}.cls-10{fill:#db9c6a;}.cls-11{fill:url(#Dégradé_sans_nom_165);}.cls-12{fill:url(#Dégradé_sans_nom_23);}.cls-14{fill:#fff;}</style><linearGradient id="Dégradé_sans_nom_270" x1="11.87" y1="60.64" x2="54.7" y2="19.42" gradientTransform="translate(2.13 -1.68) rotate(2.98)" gradientUnits="userSpaceOnUse"><stop offset="0" stop-color="#d3820f"/><stop offset="0.9" stop-color="#d3ac4d"/><stop offset="0.94" stop-color="#e8c074"/><stop offset="0.98" stop-color="#f9d194"/><stop offset="1" stop-color="#ffd7a0"/></linearGradient><linearGradient id="Dégradé_sans_nom_269" x1="10.02" y1="60.11" x2="51.75" y2="19.95" gradientTransform="translate(6.85 -4.45) rotate(9.26)" gradientUnits="userSpaceOnUse"><stop offset="0" stop-color="#d3820f"/><stop offset="0.64" stop-color="#d3ac4d"/><stop offset="0.71" stop-color="#d7b055"/><stop offset="0.81" stop-color="#e2bb6a"/><stop offset="0.94" stop-color="#f5cd8d"/><stop offset="1" stop-color="#ffd7a0"/></linearGradient><linearGradient id="Dégradé_sans_nom_268" x1="7.57" y1="56.33" x2="48.29" y2="17.14" gradientUnits="userSpaceOnUse"><stop offset="0" stop-color="#d3820f"/><stop offset="0.4" stop-color="#d3ac4d"/><stop offset="0.64" stop-color="#e8c074"/><stop offset="0.87" stop-color="#f9d194"/><stop offset="1" stop-color="#ffd7a0"/></linearGradient><linearGradient id="Dégradé_sans_nom_181" x1="64.31" y1="49.95" x2="64.82" y2="41.85" gradientUnits="userSpaceOnUse"><stop offset="0.02" stop-color="#db9c6a"/><stop offset="1" stop-color="#ffd3a0"/></linearGradient><linearGradient id="Dégradé_sans_nom_165" x1="54.97" y1="16.61" x2="71.44" y2="11.37" gradientUnits="userSpaceOnUse"><stop offset="0.02" stop-color="#d46200"/><stop offset="0.38" stop-color="#cb5a00"/><stop offset="0.98" stop-color="#b24600"/><stop offset="1" stop-color="#b14500"/></linearGradient><linearGradient id="Dégradé_sans_nom_23" x1="60.76" y1="17.32" x2="69.44" y2="14.45" gradientUnits="userSpaceOnUse"><stop offset="0.02" stop-color="#d4001d"/><stop offset="0.85" stop-color="#951e2d"/></linearGradient></defs><g id="Calque_2" data-name="Calque 2"><g id="feuilles"><rect id="page_dessous" class="cls-1" x="14.3" y="16.55" width="37.96" height="46.95" transform="translate(-2.04 1.79) rotate(-2.98)"/><rect id="page_milieu" class="cls-2" x="11.91" y="16.55" width="37.96" height="46.95" transform="translate(-6.04 5.49) rotate(-9.26)"/><g id="page_dessus"><path id="Page_dessus-2" data-name="Page_dessus" class="cls-3" d="M49.33,56.86l-4,1L44,56.24a.2.2,0,0,0-.36.09l-.39,2.36L13,67.71S4,35.57,4.09,35.58s1.58-1,1.58-1c.26-.29.22-.48-.15-.63L4,33.52c.07,0,2.09-1.89,2.09-1.89.21-.21.19-.56,0-.55,0,0-3.14.12-3.19.05S.46,22.45.46,22.45l30-8.28L38,17.84Z"/><g id="ligne_ecriture"><line class="cls-4" x1="7.14" y1="26.52" x2="32.25" y2="19.26"/><line class="cls-4" x1="7.98" y1="29.42" x2="33.08" y2="22.16"/><line class="cls-4" x1="9.54" y1="32.13" x2="34.65" y2="24.87"/><line class="cls-4" x1="10.13" y1="35.13" x2="35.23" y2="27.87"/><line class="cls-4" x1="11" y1="38.15" x2="36.1" y2="30.89"/><line class="cls-4" x1="11.86" y1="41.13" x2="36.97" y2="33.87"/><line class="cls-4" x1="13" y1="44.08" x2="38.1" y2="36.81"/><line class="cls-4" x1="13.86" y1="47.04" x2="38.96" y2="39.77"/><line class="cls-4" x1="14.68" y1="49.9" x2="39.79" y2="42.64"/><line class="cls-4" x1="15.59" y1="53.02" x2="40.69" y2="45.76"/><line class="cls-4" x1="16.64" y1="55.71" x2="41.74" y2="48.44"/><line class="cls-4" x1="36.12" y1="52.01" x2="41.74" y2="50.38"/></g><polyline class="cls-5" points="37.2 17.88 30.89 14.82 32.63 20.52 37.2 17.88 30.89 14.82"/></g></g><g id="chandelle"><g id="pot"><path class="cls-6" d="M74.64,48.14q-10.53-2.28-18.78,0a2.53,2.53,0,0,0-.87.16,6.05,6.05,0,0,0-4.09-1.56,5.69,5.69,0,1,0,0,11.36,6.1,6.1,0,0,0,3.21-.9,7.64,7.64,0,0,0,4.22,4.1c-.65.33-1,.72-1,1.14,0,1.27,3.44,2.3,7.69,2.3s7.69-1,7.69-2.3c0-.46-.46-.89-1.24-1.25C74,59.93,75.68,58,75.68,55.74a4.54,4.54,0,0,0-.23-1.42,2.64,2.64,0,0,0,1.83-2.5v-1A2.65,2.65,0,0,0,74.64,48.14ZM50.4,54.46c-1.73-.76-2.73-2.29-2.23-3.42s2.3-1.43,4-.67a5.18,5.18,0,0,1,1,.61v.84a2.61,2.61,0,0,0,1,2.08c0,.1-.06.2-.1.3C53.45,55,51.9,55.12,50.4,54.46Z"/><ellipse class="cls-7" cx="65.39" cy="49.1" rx="11.02" ry="2.36"/><path class="cls-8" d="M55,48.3A2.41,2.41,0,0,0,53.22,51"/><path class="cls-8" d="M75.45,54.32a35.26,35.26,0,0,1-21.19-.42,4,4,0,0,0-.15,3.3"/></g><g id="cire"><path class="cls-9" d="M74.75,29.5c.67-3.11-3.93-4.06-9.4-4.2-5.94-.14-9.49,1.35-8.82,4.2,1.25,6.29.9,12.92-.28,20.87a.11.11,0,0,0,.09.13,43,43,0,0,0,16.57.29.11.11,0,0,0,.09-.13A71,71,0,0,1,73,32a.08.08,0,0,1,0-.07A3.59,3.59,0,0,0,74.75,29.5Z"/><g id="flamme"><ellipse class="cls-10" cx="65.65" cy="28.01" rx="6.63" ry="1.49"/><path class="cls-11" d="M72.28,15.55c0-2-3.48-11.79-2.89-14.9,0,0-10,8.55-10.9,14.56-1,6.74,2.56,9.27,7,9.1C70.62,24.11,73.05,19.89,72.28,15.55Z"/><path class="cls-12" d="M70.2,17.18c0-1.45-3.39-7.81-3-10.1,0,0-6.07,5.42-6.7,9.84-.71,5,1.79,6.85,4.9,6.73C69,23.5,70.74,20.38,70.2,17.18Z"/></g><path class="cls-4" d="M64.39,17.76a13,13,0,0,0,1,5.89A4.35,4.35,0,0,1,65.35,28"/></g><path class="cls-13" d="M56.53,29.5A3.13,3.13,0,0,0,59,31.23a4.48,4.48,0,0,0,2.38-.66.22.22,0,0,1,.33.11c.24.82,1.07,3.1,2.66,3.1a2.45,2.45,0,0,0,2.34-1.68.08.08,0,0,1,.14,0c.23.35.95,1.11,3,1.06,2.66-.06,3.16-1.21,3.16-1.21"/></g><g id="texte"><path class="cls-14" d="M94.8,34.66V38H93.23V36.08H90.85v6.43h1.62v1.41h-5V42.51h1.62V36.08h-2.4V38H85.09V34.66Z"/><path class="cls-14" d="M100.59,42.59v1.33h-4.4V42.59h1.35V38.9H96.19V37.57h3v5Zm-3.17-6.5a.81.81,0,0,1-.34-.66.83.83,0,0,1,.34-.69,1.27,1.27,0,0,1,.83-.27,1.32,1.32,0,0,1,.86.27.85.85,0,0,1,.33.69.83.83,0,0,1-.33.67,1.32,1.32,0,0,1-.86.26A1.27,1.27,0,0,1,97.42,36.09Z"/><path class="cls-14" d="M115.65,42.59v1.33h-3.93V42.59h1.07V40.31a1.5,1.5,0,0,0-.29-1,1,1,0,0,0-.83-.37,2.75,2.75,0,0,0-2,1.22v2.39h1.07v1.33h-3.87V42.59H108V40.31a1.5,1.5,0,0,0-.29-1,1,1,0,0,0-.86-.37,2,2,0,0,0-1,.32,4,4,0,0,0-1,.94v2.35h1.09v1.33h-4.13V42.59h1.35V38.9h-1.35V37.57h3v1.3A4.2,4.2,0,0,1,106,37.78a2.88,2.88,0,0,1,1.42-.38,2,2,0,0,1,1.3.42,2.33,2.33,0,0,1,.76,1.22,4.53,4.53,0,0,1,1.28-1.21,2.8,2.8,0,0,1,1.49-.43,1.93,1.93,0,0,1,1.61.75,3.36,3.36,0,0,1,.59,2.13v2.31Z"/><path class="cls-14" d="M124.06,41.79a2.46,2.46,0,0,1-.47,1.24,2.79,2.79,0,0,1-1,.81,2.69,2.69,0,0,1-1.16.27,2.8,2.8,0,0,1-1.37-.32,5.86,5.86,0,0,1-1.29-1,4.87,4.87,0,0,0-.68,1.29l-1.37-.55a5,5,0,0,1,.89-1.65,5.49,5.49,0,0,1,1.09-1c.36-.24.83-.52,1.41-.83l.83-.49a4,4,0,0,0-1.06-.53,4.61,4.61,0,0,0-1.45-.2v1.42h-1.41V37.39h1a6.81,6.81,0,0,1,1.62.16,3.81,3.81,0,0,1,1.12.46,8.59,8.59,0,0,1,1.06.81,3.27,3.27,0,0,0,.63-1.46l1.42.54a5.17,5.17,0,0,1-.62,1.55,3.65,3.65,0,0,1-.94,1,8,8,0,0,1-1.37.79,7.9,7.9,0,0,0-1.43.81,4,4,0,0,0,.85.48,2.17,2.17,0,0,0,.78.16,1.29,1.29,0,0,0,.91-.38,1.62,1.62,0,0,0,.51-.93Z"/><path class="cls-14" d="M129.86,42.59v1.33h-4.4V42.59h1.34V38.9h-1.34V37.57h3v5Zm-3.18-6.5a.82.82,0,0,1-.33-.66.85.85,0,0,1,.33-.69,1.47,1.47,0,0,1,1.7,0,.85.85,0,0,1,.33.69.83.83,0,0,1-.33.67,1.5,1.5,0,0,1-1.7,0Z"/><path class="cls-14" d="M140.44,42.59v1.33h-4V42.59h1.11v-2.2a1.46,1.46,0,0,0-.34-1,1.27,1.27,0,0,0-1-.38,3.22,3.22,0,0,0-2.22,1.35v2.26h1.1v1.33H131V42.59h1.35V38.9H131V37.57h3V39a6.43,6.43,0,0,1,1.4-1.22,2.84,2.84,0,0,1,1.44-.4,2.15,2.15,0,0,1,1.77.76,3.42,3.42,0,0,1,.62,2.21v2.22Z"/><path class="cls-14" d="M148.38,43a4.61,4.61,0,0,1-3.12,1.16,4.16,4.16,0,0,1-1.78-.38,3.28,3.28,0,0,1-1.34-1.1,3,3,0,0,1-.51-1.74,3.34,3.34,0,0,1,.51-1.85,3.56,3.56,0,0,1,1.36-1.22,3.92,3.92,0,0,1,1.81-.43,4,4,0,0,1,1.49.26,2.39,2.39,0,0,1,1,.72,1.66,1.66,0,0,1,.37,1.07,1.55,1.55,0,0,1-.37,1.05,2.22,2.22,0,0,1-1,.65,3.64,3.64,0,0,1-1.29.22,5.06,5.06,0,0,1-1.2-.14,7.71,7.71,0,0,1-1.12-.37,1.72,1.72,0,0,0,.6,1.35,2.25,2.25,0,0,0,1.48.5,3.66,3.66,0,0,0,2.35-.86ZM144.28,39a2.22,2.22,0,0,0-.83.89,5,5,0,0,0,1.71.29,2.07,2.07,0,0,0,1-.21.63.63,0,0,0,.37-.57.62.62,0,0,0-.29-.53,1.42,1.42,0,0,0-.79-.2A2.19,2.19,0,0,0,144.28,39Z"/><path class="cls-14" d="M85.86,57.42a1.33,1.33,0,0,1-.42-.06.45.45,0,0,1-.26-.2.37.37,0,0,1-.27-.12.55.55,0,0,1-.13-.41,1.76,1.76,0,0,1,.35-1c.23-.35.5-.79.82-1.32a4.34,4.34,0,0,1,.3-.46c.13-.18.26-.37.39-.58a5.51,5.51,0,0,0,.37-.61,2.88,2.88,0,0,0,.21-.53l-.25,0-.24,0h-.15a.35.35,0,0,1-.27-.08.24.24,0,0,1-.07-.18v-.15a7.69,7.69,0,0,0,.85-.13,11.9,11.9,0,0,0,1.18-.28,4.49,4.49,0,0,1,1.22-.16,1.73,1.73,0,0,1,1.06.28,1.1,1.1,0,0,1,.39.95,3.06,3.06,0,0,1-.24,1.13,5.86,5.86,0,0,1-.65,1.2,6.53,6.53,0,0,1-.93,1.1,5.48,5.48,0,0,1-1.07.84,5.07,5.07,0,0,1-.7.34,6.91,6.91,0,0,1-.77.25A3.22,3.22,0,0,1,85.86,57.42Zm0-.31A2.64,2.64,0,0,0,87,56.84a4.42,4.42,0,0,0,1-.7,6.68,6.68,0,0,0,.86-.91c.14-.18.31-.4.48-.66s.35-.54.51-.82a7.56,7.56,0,0,0,.4-.81,2,2,0,0,0,.16-.67.57.57,0,0,0-.12-.39.54.54,0,0,0-.44-.15,4.84,4.84,0,0,0-.65.06l-.86.12-.8.14a.46.46,0,0,1,0,.2,1.46,1.46,0,0,1-.15.57,5.94,5.94,0,0,1-.36.71c-.14.24-.28.47-.42.68l-.32.5c-.19.28-.37.57-.56.9a5.85,5.85,0,0,0-.44,1,.74.74,0,0,0,0,.25.28.28,0,0,0,.11.22A.75.75,0,0,0,85.87,57.11Z"/><path class="cls-14" d="M91.34,57.31a.87.87,0,0,1-.65-.24.85.85,0,0,1-.25-.66,2.2,2.2,0,0,1,.13-.69,3.82,3.82,0,0,1,.25-.58,4.19,4.19,0,0,1,.61-.84,3.54,3.54,0,0,1,.74-.63,1.37,1.37,0,0,1,.69-.23.85.85,0,0,1,.52.16.54.54,0,0,1,.21.44.91.91,0,0,1,0,.26,1.35,1.35,0,0,1-.18.29,3.47,3.47,0,0,1-1,.88,4.43,4.43,0,0,1-1.22.47c0,.09,0,.18-.08.28s0,.17,0,.25,0,.08,0,.11v.1a.42.42,0,0,0,.1.32.39.39,0,0,0,.26.09A1.21,1.21,0,0,0,91.9,57a3.2,3.2,0,0,0,.51-.29l.37-.26.23-.23a3.18,3.18,0,0,0,.26-.26l.21-.23.19-.24,0,0s.07,0,.07.1a.16.16,0,0,1-.05.1l-.39.47a6.1,6.1,0,0,1-.41.46,3.15,3.15,0,0,1-.66.51A1.81,1.81,0,0,1,91.34,57.31Zm-.1-1.52a5.48,5.48,0,0,0,.66-.35,4.65,4.65,0,0,0,.74-.56,3.18,3.18,0,0,0,.59-.69A.43.43,0,0,0,93.3,54c0-.11,0-.16-.17-.16a.71.71,0,0,0-.3.09,3.17,3.17,0,0,0-1,.8A4.8,4.8,0,0,0,91.24,55.79Z"/><path class="cls-14" d="M94.75,57.4a1.46,1.46,0,0,1-.88-.34,1.25,1.25,0,0,1-.35-.4.55.55,0,0,1-.07-.28q0-.18.12-.18s.08,0,.14.09a1.08,1.08,0,0,1,.14.24,3.24,3.24,0,0,0,.21.38.41.41,0,0,0,.36.16.44.44,0,0,0,.36-.25,2.35,2.35,0,0,0,.22-.65,7.37,7.37,0,0,0,.13-.84c0-.29,0-.56.05-.81s0-.43,0-.57l-1,1.19-.86,1a.15.15,0,0,1-.08,0s0,0,0-.06a.39.39,0,0,1,0-.2l.49-.59.53-.65c.18-.22.34-.42.49-.59l.31-.39a.86.86,0,0,1,.15-.53,1,1,0,0,1,.38-.28,1.08,1.08,0,0,1,.42-.08.64.64,0,0,1,.27,0s.08.05.08.08,0,0-.11.06a.59.59,0,0,0-.38.28,1.37,1.37,0,0,0-.13.52c0,.2,0,.42,0,.64s0,.7,0,1.07a4.68,4.68,0,0,1-.14,1,.64.64,0,0,1-.06.16l-.07.18a7,7,0,0,0,.6-.48,5.46,5.46,0,0,0,.47-.44l.21-.23.19-.24a.09.09,0,0,1,.06,0s.07,0,.07.09a.17.17,0,0,1-.06.11c-.15.18-.31.37-.47.58a3.34,3.34,0,0,1-.52.54l-.31.25a2,2,0,0,1-.37.25A1.24,1.24,0,0,1,94.75,57.4Z"/><path class="cls-14" d="M97.43,57.15A.65.65,0,0,1,97,57a.71.71,0,0,1-.17-.55,2.38,2.38,0,0,1,0-.36,3.7,3.7,0,0,1,.32-1,8.52,8.52,0,0,1,.44-.82c.15-.23.24-.38.28-.46a.65.65,0,0,1,.29-.21,1,1,0,0,1,.38-.11c.09,0,.14,0,.14.09a.2.2,0,0,1-.06.14c-.11.18-.23.38-.38.6s-.28.46-.41.71a6.74,6.74,0,0,0-.33.74,1.93,1.93,0,0,0-.13.67.48.48,0,0,0,.06.26.23.23,0,0,0,.22.1.67.67,0,0,0,.41-.17,5,5,0,0,0,.45-.38c.14-.14.24-.26.31-.34l.21-.23a2.2,2.2,0,0,0,.2-.23l0,0c.05,0,.07,0,.07.1a.16.16,0,0,1,0,.1l-.24.29-.25.29c-.12.14-.25.28-.4.43A2.07,2.07,0,0,1,98,57,1.06,1.06,0,0,1,97.43,57.15Zm1.51-4.35a.28.28,0,0,1-.2-.08.29.29,0,0,1-.08-.19.38.38,0,0,1,.12-.29.36.36,0,0,1,.26-.11.28.28,0,0,1,.22.09.26.26,0,0,1,.06.24.45.45,0,0,1-.14.24A.33.33,0,0,1,98.94,52.8Z"/><path class="cls-14" d="M98.23,61a.68.68,0,0,1-.61-.22.78.78,0,0,1-.14-.46,1.71,1.71,0,0,1,.28-.77,3.39,3.39,0,0,1,.64-.68,6,6,0,0,1,.82-.58c.3-.18.58-.34.86-.48l.72-.37a3,3,0,0,0,.42-.24,5.87,5.87,0,0,0,.25-.93,3.19,3.19,0,0,0,0-.79,6.42,6.42,0,0,1-.32.57,4.09,4.09,0,0,1-.49.65,2.4,2.4,0,0,1-.46.4.89.89,0,0,1-.5.16.49.49,0,0,1-.47-.24,1.16,1.16,0,0,1-.13-.56,1.41,1.41,0,0,1,0-.2,1.13,1.13,0,0,1,0-.18,3.7,3.7,0,0,1,.26-.7,6.16,6.16,0,0,1,.37-.63,3.08,3.08,0,0,1,.33-.42,2.71,2.71,0,0,1,.75-.64,1.8,1.8,0,0,1,.89-.24,1.38,1.38,0,0,1,.86.31.34.34,0,0,1,.17.27c0,.11,0,.17-.13.17s-.13,0-.16-.14a.49.49,0,0,0-.47-.4,1.15,1.15,0,0,0-.65.22,3.22,3.22,0,0,0-.65.59,6,6,0,0,0-.55.77,4.05,4.05,0,0,0-.39.78,1.77,1.77,0,0,0-.15.62c0,.2.08.29.23.29a.73.73,0,0,0,.46-.21,2.43,2.43,0,0,0,.48-.52,7.36,7.36,0,0,0,.41-.62,2.9,2.9,0,0,0,.23-.5.58.58,0,0,1,.18-.32.43.43,0,0,1,.24-.08H102l.08,0s0,.09,0,.17v.26c0,.21,0,.47,0,.78a6.88,6.88,0,0,1-.13.91l.12-.08.56-.43a3.23,3.23,0,0,0,.41-.38l.22-.23.18-.23a.09.09,0,0,1,.06,0s.06,0,.06.09a.15.15,0,0,1,0,.11l-.49.58a3.71,3.71,0,0,1-.32.3c-.17.15-.35.29-.54.43a2.29,2.29,0,0,1-.29.18,7,7,0,0,1-.58,1.42,6.79,6.79,0,0,1-.85,1.24,4.39,4.39,0,0,1-1,.88A2.2,2.2,0,0,1,98.23,61Zm0-.23a1.49,1.49,0,0,0,.88-.32,4.65,4.65,0,0,0,.87-.81,7,7,0,0,0,.73-1.07,5.67,5.67,0,0,0,.48-1.06c-.13.08-.32.18-.58.31s-.55.28-.86.46a7.8,7.8,0,0,0-.91.58,3.49,3.49,0,0,0-.73.7,1.35,1.35,0,0,0-.32.8.41.41,0,0,0,.09.28A.39.39,0,0,0,98.18,60.75Z"/><path class="cls-14" d="M102.75,57.21a14.13,14.13,0,0,0,.79-1.7c.21-.54.45-1.1.72-1.65a.66.66,0,0,1,.31-.31.94.94,0,0,1,.36-.08.9.9,0,0,1,.25,0,1.46,1.46,0,0,1-.17.31c-.09.15-.19.32-.29.51l-.33.61c-.14.27-.28.56-.4.85l.3-.39a7.66,7.66,0,0,1,.49-.6q.27-.33.57-.63a4.29,4.29,0,0,1,.6-.5,1,1,0,0,1,.52-.19.49.49,0,0,1,.31.11.37.37,0,0,1,.13.3,1.28,1.28,0,0,1-.23.64c-.15.25-.31.49-.46.72l-.16.25-.25.43a4.6,4.6,0,0,0-.22.45.79.79,0,0,0-.1.33c0,.09,0,.13.1.13a.76.76,0,0,0,.44-.17,3.78,3.78,0,0,0,.43-.38,4.57,4.57,0,0,0,.33-.36c.08-.08.15-.17.22-.25s.13-.16.2-.23l.05,0s.07,0,.07.1a.21.21,0,0,1,0,.11,3.47,3.47,0,0,0-.25.29l-.25.29c-.08.09-.16.19-.25.28l-.26.26a1.34,1.34,0,0,1-.88.44A.37.37,0,0,1,105,57a.72.72,0,0,1-.1-.4,1.35,1.35,0,0,1,.15-.58,5.09,5.09,0,0,1,.35-.63c.14-.21.28-.43.42-.63s.26-.4.36-.57a1,1,0,0,0,.14-.43c0-.05,0-.07-.08-.07a.66.66,0,0,0-.25.16c-.13.11-.27.23-.42.38l-.41.41c-.13.13-.21.23-.26.28-.18.2-.36.42-.53.64l-.49.66a2.57,2.57,0,0,0-.23.38l-.22.4a.22.22,0,0,1-.15.12l-.25,0h-.17A.44.44,0,0,0,102.75,57.21Z"/><path class="cls-14" d="M109.64,57.19a.63.63,0,0,1-.51-.18.67.67,0,0,1-.14-.43,1.72,1.72,0,0,1,.16-.7c.11-.25.2-.44.28-.58a5.44,5.44,0,0,1,.7-.9,4,4,0,0,1,.87-.7,1.69,1.69,0,0,1,.87-.27,1.24,1.24,0,0,1,.56.13l.1-.22.09-.18.65-1.15a2.7,2.7,0,0,1,.59-.74,1.49,1.49,0,0,1,.82-.33c-.2.26-.37.5-.52.72s-.29.42-.42.64-.27.45-.4.71l-.48.91a.23.23,0,0,1,0,.09.17.17,0,0,1,0,.13.14.14,0,0,1-.1,0q-.23.45-.45.93c-.14.31-.26.59-.35.85a2,2,0,0,0-.13.61c0,.16,0,.24.16.24a.52.52,0,0,0,.24-.08,2.13,2.13,0,0,0,.49-.35,4.08,4.08,0,0,0,.46-.47l.22-.23c.06-.08.13-.16.18-.24l.06,0s.07,0,.07.09a.16.16,0,0,1-.05.11c-.12.16-.25.32-.38.47a4.58,4.58,0,0,1-.42.46l-.09.09a.47.47,0,0,1-.1.1,4.25,4.25,0,0,1-.46.32.88.88,0,0,1-.43.13.39.39,0,0,1-.37-.17.84.84,0,0,1-.09-.4,1.73,1.73,0,0,1,0-.32,1.77,1.77,0,0,1,.07-.29c0-.08,0-.17.08-.27a1.66,1.66,0,0,1,.12-.31c-.16.25-.35.51-.55.78a4.36,4.36,0,0,1-.66.69A1.18,1.18,0,0,1,109.64,57.19Zm.07-.28a1.15,1.15,0,0,0,.55-.27,6.14,6.14,0,0,0,.54-.51c.2-.2.37-.4.54-.6l.38-.45c.09-.21.18-.44.29-.67l.33-.69a.54.54,0,0,0-.2,0,1.13,1.13,0,0,0-.64.25,3.75,3.75,0,0,0-.68.6,7.11,7.11,0,0,0-.69.85,4.73,4.73,0,0,0-.46.83,1.68,1.68,0,0,0-.1.29,1,1,0,0,0,0,.22C109.54,56.85,109.59,56.91,109.71,56.91Z"/><path class="cls-14" d="M114.05,57.15a.65.65,0,0,1-.42-.16.71.71,0,0,1-.17-.55,2.38,2.38,0,0,1,0-.36,3.7,3.7,0,0,1,.32-1,8.52,8.52,0,0,1,.44-.82c.15-.23.24-.38.28-.46a.65.65,0,0,1,.29-.21,1,1,0,0,1,.38-.11c.09,0,.14,0,.14.09a.2.2,0,0,1-.06.14c-.11.18-.23.38-.38.6s-.28.46-.41.71a6.74,6.74,0,0,0-.33.74,1.93,1.93,0,0,0-.13.67.48.48,0,0,0,.06.26.23.23,0,0,0,.22.1.67.67,0,0,0,.41-.17,5,5,0,0,0,.45-.38c.14-.14.24-.26.31-.34l.21-.23a2.2,2.2,0,0,0,.2-.23l0,0s.07,0,.07.1a.16.16,0,0,1-.05.1l-.24.29-.25.29c-.12.14-.25.28-.4.43a2.07,2.07,0,0,1-.47.37A1.06,1.06,0,0,1,114.05,57.15Zm1.51-4.35a.28.28,0,0,1-.2-.08.29.29,0,0,1-.08-.19.38.38,0,0,1,.12-.29.36.36,0,0,1,.26-.11.28.28,0,0,1,.22.09.26.26,0,0,1,.06.24.45.45,0,0,1-.14.24A.33.33,0,0,1,115.56,52.8Z"/><path class="cls-14" d="M114.85,61a.68.68,0,0,1-.61-.22.78.78,0,0,1-.14-.46,1.71,1.71,0,0,1,.28-.77,3.39,3.39,0,0,1,.64-.68,6,6,0,0,1,.82-.58c.29-.18.58-.34.85-.48l.72-.37a2.73,2.73,0,0,0,.43-.24,7.18,7.18,0,0,0,.25-.93,3.19,3.19,0,0,0,0-.79,6.42,6.42,0,0,1-.32.57,4.09,4.09,0,0,1-.49.65,2.17,2.17,0,0,1-.47.4.84.84,0,0,1-.49.16.48.48,0,0,1-.47-.24,1.16,1.16,0,0,1-.14-.56,1.5,1.5,0,0,1,0-.2.57.57,0,0,1,0-.18,3.7,3.7,0,0,1,.26-.7,6.16,6.16,0,0,1,.37-.63,3.08,3.08,0,0,1,.33-.42,2.71,2.71,0,0,1,.75-.64,1.79,1.79,0,0,1,.88-.24,1.38,1.38,0,0,1,.87.31.34.34,0,0,1,.17.27c0,.11,0,.17-.13.17s-.13,0-.16-.14a.49.49,0,0,0-.47-.4,1.15,1.15,0,0,0-.65.22,3.22,3.22,0,0,0-.65.59,6,6,0,0,0-.55.77,4.05,4.05,0,0,0-.39.78,1.77,1.77,0,0,0-.15.62c0,.2.08.29.23.29a.75.75,0,0,0,.46-.21,3.07,3.07,0,0,0,.48-.52,7.36,7.36,0,0,0,.41-.62,2.9,2.9,0,0,0,.23-.5.58.58,0,0,1,.18-.32.43.43,0,0,1,.23-.08h.09l.08,0s0,.09,0,.17v.26c0,.21,0,.47,0,.78a6.88,6.88,0,0,1-.13.91l.12-.08.56-.43a2.51,2.51,0,0,0,.4-.38,1.56,1.56,0,0,0,.22-.23,2.11,2.11,0,0,0,.19-.23.07.07,0,0,1,.06,0s.06,0,.06.09a.21.21,0,0,1,0,.11l-.49.58a3.71,3.71,0,0,1-.32.3,6.17,6.17,0,0,1-.55.43,2.2,2.2,0,0,1-.28.18,7,7,0,0,1-.58,1.42,6.79,6.79,0,0,1-.85,1.24,4.24,4.24,0,0,1-1,.88A2.14,2.14,0,0,1,114.85,61Zm0-.23a1.49,1.49,0,0,0,.88-.32,4.65,4.65,0,0,0,.87-.81,7.77,7.77,0,0,0,.73-1.07,5.67,5.67,0,0,0,.48-1.06c-.13.08-.32.18-.58.31s-.55.28-.87.46a8.6,8.6,0,0,0-.9.58,3.49,3.49,0,0,0-.73.7,1.35,1.35,0,0,0-.32.8.45.45,0,0,0,.08.28A.43.43,0,0,0,114.8,60.75Z"/><path class="cls-14" d="M120.52,57.15a.65.65,0,0,1-.42-.16.71.71,0,0,1-.18-.55,1.59,1.59,0,0,1,0-.36,3.7,3.7,0,0,1,.32-1,8.52,8.52,0,0,1,.44-.82c.14-.23.24-.38.28-.46a.6.6,0,0,1,.29-.21,1,1,0,0,1,.38-.11c.09,0,.13,0,.13.09a.19.19,0,0,1,0,.14l-.38.6c-.14.23-.28.46-.41.71a6.74,6.74,0,0,0-.33.74,1.93,1.93,0,0,0-.13.67.48.48,0,0,0,.06.26.23.23,0,0,0,.22.1.69.69,0,0,0,.41-.17,3.86,3.86,0,0,0,.44-.38,4.14,4.14,0,0,0,.32-.34l.21-.23a1.37,1.37,0,0,0,.19-.23l.06,0s.07,0,.07.1a.16.16,0,0,1,0,.1l-.24.29-.25.29c-.12.14-.25.28-.4.43a2.32,2.32,0,0,1-.47.37A1.06,1.06,0,0,1,120.52,57.15ZM122,52.8a.26.26,0,0,1-.19-.08.25.25,0,0,1-.08-.19.42.42,0,0,1,.11-.29.4.4,0,0,1,.26-.11.3.3,0,0,1,.23.09.32.32,0,0,1,.06.24.45.45,0,0,1-.14.24A.33.33,0,0,1,122,52.8Z"/><path class="cls-14" d="M122.75,57.18a.64.64,0,0,1-.41-.14.63.63,0,0,1-.16-.49.91.91,0,0,1,0-.17l0-.19a5.82,5.82,0,0,1,.36-1.07c.19-.43.42-.9.71-1.44h-.42c-.08,0-.12,0-.12-.07s0,0,.06-.07a.39.39,0,0,1,.17,0h.4c.12-.21.22-.38.3-.5l.19-.28a2.43,2.43,0,0,1,.52-.51,1.15,1.15,0,0,1,.42-.17l.25,0a3.59,3.59,0,0,0-.34.43,6.33,6.33,0,0,0-.36.54q-.18.28-.3.51h1.12q.12,0,.12.06a.09.09,0,0,1-.06.08.34.34,0,0,1-.18,0H124l-.32.57c-.09.16-.18.34-.27.52l-.34.68a5.8,5.8,0,0,0-.22.58,1.46,1.46,0,0,0-.07.41.41.41,0,0,0,.09.3.28.28,0,0,0,.22.09.67.67,0,0,0,.3-.09,1.93,1.93,0,0,0,.49-.35c.16-.16.31-.31.46-.48l.21-.23.19-.23,0,0s.07,0,.07.09a.16.16,0,0,1,0,.11l-.48.58a6.85,6.85,0,0,1-.66.66A1.28,1.28,0,0,1,122.75,57.18Z"/><path class="cls-14" d="M125.09,57.19a.6.6,0,0,1-.5-.18.63.63,0,0,1-.15-.43,1.9,1.9,0,0,1,.16-.7c.11-.25.2-.44.28-.58a5.51,5.51,0,0,1,.71-.9,4,4,0,0,1,.86-.7,1.75,1.75,0,0,1,.88-.27,1.29,1.29,0,0,1,.43.07,1.42,1.42,0,0,1,.4.24.61.61,0,0,1,.14.14.24.24,0,0,1,0,.13c0,.11-.05.17-.15.17s-.11,0-.14-.14a.48.48,0,0,0-.46-.37,1.13,1.13,0,0,0-.63.25,5.39,5.39,0,0,0-.69.61,6.18,6.18,0,0,0-.68.85,4.16,4.16,0,0,0-.46.83,1.19,1.19,0,0,0-.11.29,1,1,0,0,0,0,.22c0,.13.06.19.17.19a1.11,1.11,0,0,0,.55-.27,5,5,0,0,0,.54-.51c.19-.19.36-.39.53-.59l.38-.45c0-.06.07-.12.11-.17l.09-.13a.35.35,0,0,1,.15-.09.76.76,0,0,1,.21,0,.67.67,0,0,1,.22,0c.06,0,.07.08,0,.16a2.08,2.08,0,0,1-.12.22l-.28.52c-.1.19-.2.38-.28.57l-.11.28a.69.69,0,0,0,0,.22c0,.1,0,.15.11.15a.52.52,0,0,0,.23-.09,2.36,2.36,0,0,0,.49-.35c.16-.16.32-.31.46-.48l.22-.23.18-.23a.09.09,0,0,1,.06,0s.06,0,.06.1a.14.14,0,0,1,0,.1l-.24.29-.25.29c-.09.09-.17.19-.25.28s-.17.18-.26.26a1.39,1.39,0,0,1-.87.44.38.38,0,0,1-.3-.13.56.56,0,0,1-.12-.4,1.71,1.71,0,0,1,.08-.47,1.09,1.09,0,0,1,.07-.24l.09-.26a5.31,5.31,0,0,1-.5.7,3,3,0,0,1-.6.58A1.13,1.13,0,0,1,125.09,57.19Z"/><path class="cls-14" d="M129.15,57.18a.48.48,0,0,1-.35-.14.63.63,0,0,1-.14-.48,1,1,0,0,1,0-.17l0-.2a4.64,4.64,0,0,1,.23-.76c.12-.31.26-.64.42-1s.33-.69.49-1,.33-.6.47-.84a5.39,5.39,0,0,1,.76-1,2.45,2.45,0,0,1,.62-.5,1,1,0,0,1,.46-.12c-.19.21-.39.47-.62.78s-.47.68-.73,1.11-.6,1.07-.84,1.52a10.79,10.79,0,0,0-.61,1.4,2,2,0,0,0-.14.68c0,.25.08.37.25.37a.77.77,0,0,0,.45-.19,5,5,0,0,0,.39-.36l.39-.41.33-.39a.09.09,0,0,1,.06,0s.06,0,.06.1a.14.14,0,0,1,0,.1l-.24.29a3.23,3.23,0,0,1-.25.29,3,3,0,0,1-.24.28l-.27.26a2.11,2.11,0,0,1-.45.31A1.24,1.24,0,0,1,129.15,57.18Z"/><path class="cls-14" d="M133.49,57.19a.56.56,0,0,1-.65-.61,1.72,1.72,0,0,1,.16-.7,4.57,4.57,0,0,1,.28-.58,5,5,0,0,1,.7-.9,4,4,0,0,1,.86-.7,1.75,1.75,0,0,1,.88-.27,1.24,1.24,0,0,1,.56.13l.1-.22.09-.18.65-1.15a2.89,2.89,0,0,1,.58-.74,1.52,1.52,0,0,1,.82-.33c-.19.26-.37.5-.51.72s-.29.42-.42.64-.27.45-.41.71-.3.56-.47.91l0,.09a.21.21,0,0,1,0,.13.16.16,0,0,1-.1,0q-.24.45-.45.93c-.14.31-.26.59-.35.85a2.1,2.1,0,0,0-.14.61c0,.16.06.24.17.24a.6.6,0,0,0,.24-.08,2.36,2.36,0,0,0,.49-.35,4,4,0,0,0,.45-.47c.09-.08.16-.16.23-.23l.18-.24a.09.09,0,0,1,.06,0s.06,0,.06.09a.15.15,0,0,1,0,.11c-.13.16-.25.32-.39.47a6.1,6.1,0,0,1-.41.46l-.09.09-.1.1a3.55,3.55,0,0,1-.47.32.87.87,0,0,1-.42.13.38.38,0,0,1-.37-.17.84.84,0,0,1-.09-.4,1.72,1.72,0,0,1,0-.32c0-.11.05-.21.07-.29s.05-.17.09-.27a2.83,2.83,0,0,1,.11-.31c-.16.25-.34.51-.55.78a3.62,3.62,0,0,1-.66.69A1.15,1.15,0,0,1,133.49,57.19Zm.06-.28a1.08,1.08,0,0,0,.55-.27,5,5,0,0,0,.55-.51q.28-.3.54-.6c.16-.19.29-.34.37-.45s.19-.44.3-.67.21-.46.33-.69a.65.65,0,0,0-.21,0,1.13,1.13,0,0,0-.63.25,3.8,3.8,0,0,0-.69.6,7,7,0,0,0-.68.85,4.73,4.73,0,0,0-.46.83,1.83,1.83,0,0,0-.11.29c0,.09,0,.16,0,.22S133.44,56.91,133.55,56.91Z"/><path class="cls-14" d="M138.17,57.31a.83.83,0,0,1-.89-.9,2,2,0,0,1,.13-.69,3.08,3.08,0,0,1,.24-.58,4.62,4.62,0,0,1,.61-.84,3.82,3.82,0,0,1,.74-.63,1.44,1.44,0,0,1,.7-.23.8.8,0,0,1,.51.16.54.54,0,0,1,.22.44.69.69,0,0,1-.06.26,1.28,1.28,0,0,1-.17.29,3.5,3.5,0,0,1-1,.88,4.36,4.36,0,0,1-1.21.47,2.29,2.29,0,0,0-.08.28l-.06.25s0,.08,0,.11a.34.34,0,0,0,0,.1A.43.43,0,0,0,138,57a.37.37,0,0,0,.26.09,1.13,1.13,0,0,0,.51-.13,2.9,2.9,0,0,0,.52-.29l.36-.26.24-.23c.08-.07.16-.16.26-.26l.21-.23.18-.24s0,0,.06,0,.06,0,.06.1a.14.14,0,0,1,0,.1c-.13.16-.26.32-.4.47a6,6,0,0,1-.4.46,3.24,3.24,0,0,1-.67.51A1.76,1.76,0,0,1,138.17,57.31Zm-.1-1.52a6.38,6.38,0,0,0,.67-.35,4.18,4.18,0,0,0,.73-.56,2.93,2.93,0,0,0,.59-.69.46.46,0,0,0,.08-.22c0-.11-.06-.16-.18-.16a.64.64,0,0,0-.29.09,3.17,3.17,0,0,0-.95.8A5.24,5.24,0,0,0,138.07,55.79Z"/><path class="cls-14" d="M141.58,57.4a1.48,1.48,0,0,1-.88-.34,1.36,1.36,0,0,1-.34-.4.57.57,0,0,1-.08-.28q0-.18.12-.18a.21.21,0,0,1,.14.09.82.82,0,0,1,.15.24,3.24,3.24,0,0,0,.21.38.38.38,0,0,0,.35.16.42.42,0,0,0,.36-.25,2.34,2.34,0,0,0,.23-.65q.07-.41.12-.84c0-.29,0-.56,0-.81s0-.43,0-.57l-1,1.19-.86,1a.15.15,0,0,1-.08,0s0,0,0-.06a.31.31,0,0,1,0-.2c.15-.18.31-.37.48-.59l.54-.65.48-.59.32-.39a.86.86,0,0,1,.15-.53,1,1,0,0,1,.37-.28,1.11,1.11,0,0,1,.42-.08.66.66,0,0,1,.28,0s.07.05.07.08,0,0-.11.06a.57.57,0,0,0-.37.28,1.59,1.59,0,0,0-.14.52c0,.2,0,.42,0,.64s0,.7,0,1.07a6.69,6.69,0,0,1-.14,1l-.06.16a1.34,1.34,0,0,0-.07.18q.3-.23.6-.48a5.11,5.11,0,0,0,.46-.44l.22-.23.19-.24a.05.05,0,0,1,.05,0c.05,0,.07,0,.07.09a.21.21,0,0,1,0,.11,7,7,0,0,0-.47.58,3.34,3.34,0,0,1-.52.54c-.09.06-.19.15-.31.25a2.07,2.07,0,0,1-.38.25A1.18,1.18,0,0,1,141.58,57.4Z"/><path class="cls-14" d="M85.36,66.19a.6.6,0,0,1-.5-.18.63.63,0,0,1-.15-.43,1.9,1.9,0,0,1,.16-.7c.11-.25.2-.44.28-.58a5.51,5.51,0,0,1,.71-.9,4,4,0,0,1,.86-.7,1.75,1.75,0,0,1,.87-.27,1.25,1.25,0,0,1,.43.07,1.33,1.33,0,0,1,.41.24.61.61,0,0,1,.14.14.38.38,0,0,1,0,.13c0,.11,0,.17-.15.17s-.11,0-.14-.14a.48.48,0,0,0-.46-.37,1.13,1.13,0,0,0-.63.25,5.39,5.39,0,0,0-.69.61,6.18,6.18,0,0,0-.68.85,4.16,4.16,0,0,0-.46.83,1.19,1.19,0,0,0-.11.29,1,1,0,0,0,0,.22c0,.13.06.19.17.19a1.11,1.11,0,0,0,.55-.27,5,5,0,0,0,.54-.51c.19-.19.36-.39.53-.59l.38-.45c0-.06.07-.12.11-.17l.09-.13a.35.35,0,0,1,.15-.09.76.76,0,0,1,.21,0,.67.67,0,0,1,.22,0c.06,0,.07.08,0,.16a2.08,2.08,0,0,1-.12.22l-.28.52c-.1.19-.2.38-.28.57l-.11.28a.69.69,0,0,0,0,.22c0,.1,0,.15.11.15a.52.52,0,0,0,.23-.09,2.36,2.36,0,0,0,.49-.35c.16-.16.32-.31.46-.48l.22-.23.18-.23a.09.09,0,0,1,.06,0s.06,0,.06.1a.14.14,0,0,1,0,.1l-.24.29c-.08.1-.17.19-.26.29l-.24.28-.26.26a1.39,1.39,0,0,1-.87.44.38.38,0,0,1-.3-.13.56.56,0,0,1-.12-.4,1.71,1.71,0,0,1,.08-.47,1.09,1.09,0,0,1,.07-.24l.09-.26a5.31,5.31,0,0,1-.5.7A3,3,0,0,1,86,66,1.13,1.13,0,0,1,85.36,66.19Z"/><path class="cls-14" d="M89.94,66.31a1,1,0,0,1-.69-.22A.85.85,0,0,1,89,65.4a2.48,2.48,0,0,1,.11-.69,3.52,3.52,0,0,1,.21-.57,4,4,0,0,1,.56-.84,3.15,3.15,0,0,1,.7-.63,1.34,1.34,0,0,1,.69-.23.59.59,0,0,1,.49.21.73.73,0,0,1,.18.47.57.57,0,0,1-.12.37,1.71,1.71,0,0,1-.27.3.29.29,0,0,1-.16.09s-.06,0-.06-.08a.69.69,0,0,1,.06-.21,1.63,1.63,0,0,1,.09-.23l.12-.33a.59.59,0,0,0,0-.22.73.73,0,0,0-.47.18,5.05,5.05,0,0,0-.62.56,4,4,0,0,0-.53.74c0,.06-.08.16-.15.33a5.15,5.15,0,0,0-.2.52,1.72,1.72,0,0,0-.09.52.5.5,0,0,0,.09.31.33.33,0,0,0,.3.13,1.22,1.22,0,0,0,.42-.09,2,2,0,0,0,.77-.44,6.86,6.86,0,0,0,.67-.65l.21-.23a1.92,1.92,0,0,0,.18-.22l0,0h0s.06,0,.06.09a.21.21,0,0,1,0,.13l-.23.28-.24.29A5.89,5.89,0,0,1,91,66,1.66,1.66,0,0,1,89.94,66.31Z"/><path class="cls-14" d="M92.62,66.18a.61.61,0,0,1-.4-.14.63.63,0,0,1-.17-.49.91.91,0,0,1,0-.17l0-.19a5.27,5.27,0,0,1,.37-1.07c.18-.43.42-.9.7-1.44h-.42c-.08,0-.12,0-.12-.07s0,0,.06-.07a.39.39,0,0,1,.17,0h.4l.3-.5a3,3,0,0,1,.2-.28,2.22,2.22,0,0,1,.52-.51,1.12,1.12,0,0,1,.41-.17l.25,0a5,5,0,0,0-.34.43c-.12.17-.24.36-.36.54s-.22.36-.3.51h1.12c.08,0,.13,0,.13.06s0,.06-.07.08a.3.3,0,0,1-.18,0H93.82l-.31.57-.28.52-.33.68a6.22,6.22,0,0,0-.23.58,1.94,1.94,0,0,0-.07.41.41.41,0,0,0,.09.3.29.29,0,0,0,.22.09.71.71,0,0,0,.31-.09,2.08,2.08,0,0,0,.48-.35c.16-.16.32-.31.46-.48a2.19,2.19,0,0,0,.21-.23,2.11,2.11,0,0,0,.19-.23l0,0s.07,0,.07.09a.15.15,0,0,1,0,.11l-.49.58a6.85,6.85,0,0,1-.66.66A1.28,1.28,0,0,1,92.62,66.18Z"/><path class="cls-14" d="M96.63,66.18c-.25,0-.38-.16-.38-.46a2.2,2.2,0,0,1,.08-.52,5.8,5.8,0,0,1,.21-.63c-.16.24-.33.49-.51.73a4.14,4.14,0,0,1-.57.6.91.91,0,0,1-.57.23.4.4,0,0,1-.41-.2,1,1,0,0,1-.11-.44,1.84,1.84,0,0,1,0-.41,1.68,1.68,0,0,1,.08-.28c.11-.28.25-.58.42-.92s.31-.63.44-.88a.82.82,0,0,1,.36-.32.87.87,0,0,1,.4-.13c.11,0,.17,0,.17.11a.58.58,0,0,1-.11.26c-.07.1-.16.25-.28.45s-.24.42-.38.67l-.39.74a1.82,1.82,0,0,0-.24.8c0,.19,0,.28.16.28a.45.45,0,0,0,.24-.1,3,3,0,0,0,.34-.32c.05-.06.14-.17.27-.35s.25-.38.41-.6l.45-.66.36-.53a1.71,1.71,0,0,1,.56-.69,1.46,1.46,0,0,1,.71-.17.9.9,0,0,0-.27.28l-.32.48a4.8,4.8,0,0,0-.24.43c-.09.17-.17.36-.26.55s-.17.38-.23.55a3.68,3.68,0,0,0-.12.39,1.69,1.69,0,0,0-.06.39c0,.17,0,.26.13.26l.11,0a2.13,2.13,0,0,0,.49-.35c.16-.16.31-.31.46-.48l.21-.23a2,2,0,0,0,.18-.23s0,0,.06,0,.07,0,.07.09a.16.16,0,0,1,0,.11l-.48.58q-.24.27-.51.54a1.49,1.49,0,0,1-.48.32A1.16,1.16,0,0,1,96.63,66.18Z"/><path class="cls-14" d="M98.88,66.19a.6.6,0,0,1-.5-.18.63.63,0,0,1-.15-.43,1.9,1.9,0,0,1,.16-.7c.11-.25.2-.44.28-.58a5.51,5.51,0,0,1,.71-.9,4,4,0,0,1,.86-.7,1.75,1.75,0,0,1,.87-.27,1.25,1.25,0,0,1,.43.07,1.33,1.33,0,0,1,.41.24.61.61,0,0,1,.14.14.38.38,0,0,1,0,.13c0,.11,0,.17-.15.17s-.11,0-.14-.14a.48.48,0,0,0-.46-.37,1.13,1.13,0,0,0-.63.25,5.39,5.39,0,0,0-.69.61,6.18,6.18,0,0,0-.68.85,4.16,4.16,0,0,0-.46.83,1.19,1.19,0,0,0-.11.29,1,1,0,0,0,0,.22c0,.13.06.19.17.19a1.11,1.11,0,0,0,.55-.27,5,5,0,0,0,.54-.51,7.08,7.08,0,0,0,.52-.59l.39-.45.1-.17.1-.13a.35.35,0,0,1,.15-.09.76.76,0,0,1,.21,0,.67.67,0,0,1,.22,0c.06,0,.07.08,0,.16a2.08,2.08,0,0,1-.12.22l-.28.52c-.1.19-.2.38-.28.57l-.11.28a.69.69,0,0,0,0,.22c0,.1,0,.15.11.15a.52.52,0,0,0,.23-.09,2.36,2.36,0,0,0,.49-.35c.16-.16.32-.31.46-.48a2.19,2.19,0,0,0,.21-.23,2.11,2.11,0,0,0,.19-.23.09.09,0,0,1,.06,0s.06,0,.06.1a.14.14,0,0,1,0,.1l-.24.29c-.08.1-.17.19-.26.29l-.24.28c-.09.09-.17.18-.26.26a1.39,1.39,0,0,1-.87.44.38.38,0,0,1-.3-.13.56.56,0,0,1-.12-.4,1.71,1.71,0,0,1,.08-.47,1.09,1.09,0,0,1,.07-.24l.09-.26a5.31,5.31,0,0,1-.5.7,3,3,0,0,1-.6.58A1.13,1.13,0,0,1,98.88,66.19Z"/><path class="cls-14" d="M102.94,66.18a.48.48,0,0,1-.35-.14.63.63,0,0,1-.14-.48,1,1,0,0,1,0-.17.75.75,0,0,1,0-.2,4.64,4.64,0,0,1,.23-.76c.12-.31.26-.64.42-1s.33-.69.49-1,.33-.6.47-.84a5.87,5.87,0,0,1,.75-1,2.66,2.66,0,0,1,.63-.5,1,1,0,0,1,.46-.12,8.5,8.5,0,0,0-.62.78c-.23.31-.47.68-.73,1.11s-.6,1.07-.84,1.52a10.79,10.79,0,0,0-.61,1.4,2,2,0,0,0-.14.68c0,.25.08.37.25.37a.72.72,0,0,0,.44-.19,3.9,3.9,0,0,0,.4-.36l.39-.41.33-.39a.09.09,0,0,1,.06,0s.06,0,.06.1a.14.14,0,0,1,0,.1l-.24.29-.25.29a3,3,0,0,1-.24.28l-.27.26a2.11,2.11,0,0,1-.45.31A1.28,1.28,0,0,1,102.94,66.18Z"/><path class="cls-14" d="M105.32,66.15a.63.63,0,0,1-.42-.16.71.71,0,0,1-.18-.55,1.59,1.59,0,0,1,0-.36,3.7,3.7,0,0,1,.32-1,8.52,8.52,0,0,1,.44-.82c.14-.23.24-.38.28-.46a.6.6,0,0,1,.29-.21,1,1,0,0,1,.38-.11c.09,0,.13,0,.13.09a.19.19,0,0,1,0,.14l-.38.6c-.14.23-.28.46-.41.71a4.32,4.32,0,0,0-.33.74,2,2,0,0,0-.14.67.48.48,0,0,0,.06.26.24.24,0,0,0,.23.1.69.69,0,0,0,.41-.17,3.86,3.86,0,0,0,.44-.38,4.14,4.14,0,0,0,.32-.34l.21-.23a2.11,2.11,0,0,0,.19-.23s0,0,.06,0,.06,0,.06.1a.14.14,0,0,1,0,.1l-.24.29-.25.29c-.12.14-.25.28-.4.43a2.63,2.63,0,0,1-.47.37A1.08,1.08,0,0,1,105.32,66.15Zm1.5-4.35a.26.26,0,0,1-.19-.08.25.25,0,0,1-.08-.19.42.42,0,0,1,.11-.29.4.4,0,0,1,.26-.11.3.3,0,0,1,.23.09.32.32,0,0,1,.06.24.45.45,0,0,1-.14.24A.33.33,0,0,1,106.82,61.8Z"/><path class="cls-14" d="M107.55,66.18a.64.64,0,0,1-.41-.14.63.63,0,0,1-.16-.49.91.91,0,0,1,0-.17l0-.19a5.82,5.82,0,0,1,.36-1.07c.19-.43.42-.9.71-1.44h-.42c-.08,0-.12,0-.12-.07s0,0,.06-.07a.39.39,0,0,1,.17,0h.4c.12-.21.22-.38.3-.5l.19-.28a2.43,2.43,0,0,1,.52-.51,1.15,1.15,0,0,1,.42-.17l.25,0a3.59,3.59,0,0,0-.34.43,6.33,6.33,0,0,0-.36.54q-.18.28-.3.51H110q.12,0,.12.06a.09.09,0,0,1-.06.08.34.34,0,0,1-.18,0h-1.11l-.32.57c-.09.16-.18.34-.27.52s-.2.41-.34.68a5.8,5.8,0,0,0-.22.58,1.46,1.46,0,0,0-.07.41.41.41,0,0,0,.09.3.28.28,0,0,0,.22.09.67.67,0,0,0,.3-.09,2.13,2.13,0,0,0,.49-.35c.16-.16.31-.31.46-.48l.21-.23.19-.23.05,0s.07,0,.07.09a.16.16,0,0,1,0,.11l-.48.58a6.85,6.85,0,0,1-.66.66A1.28,1.28,0,0,1,107.55,66.18Z"/><path class="cls-14" d="M110.28,66.31a.83.83,0,0,1-.89-.9,2.18,2.18,0,0,1,.12-.69,3.82,3.82,0,0,1,.25-.58,4.19,4.19,0,0,1,.61-.84,3.54,3.54,0,0,1,.74-.63,1.38,1.38,0,0,1,.7-.23.84.84,0,0,1,.51.16.54.54,0,0,1,.21.44.91.91,0,0,1,0,.26,1.35,1.35,0,0,1-.18.29,3.47,3.47,0,0,1-1,.88,4.43,4.43,0,0,1-1.22.47c0,.09,0,.18-.08.28s0,.17,0,.25,0,.08,0,.11v.1a.42.42,0,0,0,.1.32.39.39,0,0,0,.26.09,1.21,1.21,0,0,0,.52-.13,3.2,3.2,0,0,0,.51-.29l.37-.26.23-.23a3.18,3.18,0,0,0,.26-.26l.21-.23.19-.24,0,0s.07,0,.07.1a.14.14,0,0,1,0,.1l-.4.47a6.1,6.1,0,0,1-.41.46,3.15,3.15,0,0,1-.66.51A1.81,1.81,0,0,1,110.28,66.31Zm-.1-1.52a5.48,5.48,0,0,0,.66-.35,4.24,4.24,0,0,0,.74-.56,3.18,3.18,0,0,0,.59-.69.46.46,0,0,0,.08-.22c0-.11-.06-.16-.18-.16a.71.71,0,0,0-.3.09,3.13,3.13,0,0,0-.94.8A4.84,4.84,0,0,0,110.18,64.79Zm1.48-2.9s-.06,0-.06-.08a.1.1,0,0,1,0-.08c.14-.12.3-.27.47-.44l.37-.37a.36.36,0,0,1,.11-.1.23.23,0,0,1,.15,0,.37.37,0,0,1,.23.06c0,.05.07.08.07.11s-.05.06-.15.15l-.33.24-.28.2a1.57,1.57,0,0,0-.2.13l-.25.15-.16.08Z"/><path class="cls-14" d="M113.69,66.4a1.46,1.46,0,0,1-.88-.34,1.22,1.22,0,0,1-.34-.4.48.48,0,0,1-.08-.28q0-.18.12-.18s.08,0,.14.09a1.67,1.67,0,0,1,.15.24,2.24,2.24,0,0,0,.2.38.41.41,0,0,0,.36.16.44.44,0,0,0,.36-.25,2.35,2.35,0,0,0,.22-.65,7.37,7.37,0,0,0,.13-.84c0-.29,0-.56.05-.81s0-.43,0-.57l-1,1.19-.86,1s0,0-.08,0,0,0,0-.06a.32.32,0,0,1,.06-.2l.48-.59.53-.65c.18-.22.34-.42.49-.59l.31-.39a.86.86,0,0,1,.15-.53,1,1,0,0,1,.38-.28,1.08,1.08,0,0,1,.42-.08.64.64,0,0,1,.27,0s.08.05.08.08,0,0-.11.06a.59.59,0,0,0-.38.28,1.59,1.59,0,0,0-.13.52c0,.2,0,.42,0,.64s0,.7,0,1.07a5.42,5.42,0,0,1-.15,1,.64.64,0,0,1-.06.16l-.07.18c.21-.15.41-.31.61-.48s.35-.32.46-.44l.21-.23.19-.24a.09.09,0,0,1,.06,0s.07,0,.07.09a.17.17,0,0,1-.06.11c-.15.18-.31.37-.47.58a3.34,3.34,0,0,1-.52.54l-.31.25a2,2,0,0,1-.37.25A1.24,1.24,0,0,1,113.69,66.4Z"/><path class="cls-14" d="M118.68,66.31a1,1,0,0,1-.69-.22.85.85,0,0,1-.27-.69,2.48,2.48,0,0,1,.11-.69,3.52,3.52,0,0,1,.21-.57,4.39,4.39,0,0,1,.56-.84,3.38,3.38,0,0,1,.7-.63,1.37,1.37,0,0,1,.69-.23.59.59,0,0,1,.49.21.73.73,0,0,1,.18.47.57.57,0,0,1-.12.37,1.73,1.73,0,0,1-.26.3.34.34,0,0,1-.17.09s0,0,0-.08a.59.59,0,0,1,0-.21s0-.12.09-.23l.12-.33a.43.43,0,0,0,0-.22.69.69,0,0,0-.46.18,4.45,4.45,0,0,0-.63.56,4,4,0,0,0-.52.74l-.16.33a5.15,5.15,0,0,0-.2.52,2.06,2.06,0,0,0-.08.52.57.57,0,0,0,.08.31.33.33,0,0,0,.3.13,1.22,1.22,0,0,0,.42-.09,1.93,1.93,0,0,0,.77-.44,6.86,6.86,0,0,0,.67-.65l.21-.23a2,2,0,0,0,.19-.22l0,0h0s.06,0,.06.09a.21.21,0,0,1,0,.13l-.23.28-.24.29a5.38,5.38,0,0,1-.82.75A1.62,1.62,0,0,1,118.68,66.31Z"/><path class="cls-14" d="M123,66.18c-.25,0-.38-.16-.38-.46a2.2,2.2,0,0,1,.08-.52,5.8,5.8,0,0,1,.21-.63c-.16.24-.33.49-.51.73a3.7,3.7,0,0,1-.58.6.87.87,0,0,1-.56.23c-.21,0-.35-.06-.41-.2a1,1,0,0,1-.11-.44,2.71,2.71,0,0,1,0-.41,1.54,1.54,0,0,1,.09-.28c.11-.28.25-.58.41-.92l.45-.88a.82.82,0,0,1,.36-.32.87.87,0,0,1,.4-.13c.11,0,.17,0,.17.11a.52.52,0,0,1-.12.26l-.27.45c-.12.2-.24.42-.38.67s-.27.5-.39.74a1.82,1.82,0,0,0-.24.8c0,.19,0,.28.16.28a.4.4,0,0,0,.23-.1,1.91,1.91,0,0,0,.34-.32,2.4,2.4,0,0,0,.27-.35l.42-.6.45-.66c.14-.22.27-.39.36-.53a1.71,1.71,0,0,1,.56-.69,1.43,1.43,0,0,1,.71-.17.8.8,0,0,0-.27.28l-.32.48a4.8,4.8,0,0,0-.24.43c-.09.17-.18.36-.26.55s-.17.38-.23.55l-.13.39a2.3,2.3,0,0,0,0,.39c0,.17,0,.26.13.26l.11,0a2.36,2.36,0,0,0,.49-.35c.16-.16.31-.31.46-.48l.21-.23.18-.23s0,0,.06,0,.06,0,.06.09a.15.15,0,0,1,0,.11l-.48.58q-.24.27-.51.54a1.61,1.61,0,0,1-.48.32A1.16,1.16,0,0,1,123,66.18Z"/><path class="cls-14" d="M125.2,66.18a.5.5,0,0,1-.35-.14.67.67,0,0,1-.14-.48,1,1,0,0,1,0-.17l0-.2a5.9,5.9,0,0,1,.23-.76c.12-.31.26-.64.42-1s.33-.69.5-1,.32-.6.46-.84a5.39,5.39,0,0,1,.76-1,2.45,2.45,0,0,1,.62-.5,1,1,0,0,1,.47-.12q-.28.31-.63.78c-.23.31-.47.68-.73,1.11s-.6,1.07-.84,1.52a10.79,10.79,0,0,0-.61,1.4,2.34,2.34,0,0,0-.14.68c0,.25.08.37.25.37a.77.77,0,0,0,.45-.19,5,5,0,0,0,.39-.36l.39-.41.33-.39s0,0,.06,0,.06,0,.06.1a.14.14,0,0,1,0,.1l-.24.29a3.07,3.07,0,0,1-.24.29c-.08.09-.16.19-.25.28l-.27.26a2.11,2.11,0,0,1-.45.31A1.24,1.24,0,0,1,125.2,66.18Z"/><path class="cls-14" d="M127.48,66.18a.64.64,0,0,1-.41-.14.63.63,0,0,1-.16-.49.91.91,0,0,1,0-.17l0-.19a5.82,5.82,0,0,1,.36-1.07c.19-.43.42-.9.71-1.44h-.42c-.08,0-.12,0-.12-.07s0,0,.06-.07a.39.39,0,0,1,.17,0h.4c.12-.21.22-.38.3-.5l.19-.28a2.43,2.43,0,0,1,.52-.51,1.15,1.15,0,0,1,.42-.17l.25,0a3.59,3.59,0,0,0-.34.43,6.33,6.33,0,0,0-.36.54q-.18.28-.3.51h1.12q.12,0,.12.06a.09.09,0,0,1-.06.08.34.34,0,0,1-.18,0h-1.11c-.12.21-.22.4-.31.57s-.19.34-.28.52l-.33.68a4.29,4.29,0,0,0-.23.58,1.46,1.46,0,0,0-.07.41.41.41,0,0,0,.09.3.28.28,0,0,0,.22.09.67.67,0,0,0,.3-.09,1.93,1.93,0,0,0,.49-.35c.16-.16.31-.31.46-.48l.21-.23a2.11,2.11,0,0,0,.19-.23l.05,0s.07,0,.07.09a.16.16,0,0,1,0,.11l-.48.58a6.85,6.85,0,0,1-.66.66A1.28,1.28,0,0,1,127.48,66.18Z"/><path class="cls-14" d="M131.48,66.18c-.25,0-.37-.16-.37-.46a2.2,2.2,0,0,1,.08-.52,5.8,5.8,0,0,1,.21-.63c-.16.24-.33.49-.52.73a3.29,3.29,0,0,1-.57.6.87.87,0,0,1-.56.23.42.42,0,0,1-.42-.2,1,1,0,0,1-.1-.44,1.84,1.84,0,0,1,0-.41,1.54,1.54,0,0,1,.09-.28c.11-.28.25-.58.41-.92l.45-.88a.82.82,0,0,1,.36-.32.87.87,0,0,1,.4-.13c.11,0,.16,0,.16.11a.48.48,0,0,1-.11.26l-.27.45c-.12.2-.25.42-.38.67s-.27.5-.39.74a1.82,1.82,0,0,0-.24.8c0,.19.05.28.16.28a.4.4,0,0,0,.23-.1,1.91,1.91,0,0,0,.34-.32,2.4,2.4,0,0,0,.27-.35l.42-.6.45-.66c.14-.22.26-.39.36-.53a1.71,1.71,0,0,1,.56-.69,1.42,1.42,0,0,1,.7-.17.9.9,0,0,0-.26.28c-.1.16-.21.32-.32.48a4.8,4.8,0,0,0-.24.43c-.09.17-.18.36-.26.55s-.17.38-.23.55-.1.3-.13.39a2.3,2.3,0,0,0-.05.39c0,.17,0,.26.13.26l.11,0a2.08,2.08,0,0,0,.48-.35c.17-.16.32-.31.47-.48l.21-.23.18-.23a.09.09,0,0,1,.06,0s.06,0,.06.09a.15.15,0,0,1,0,.11l-.48.58-.51.54a1.61,1.61,0,0,1-.48.32A1.16,1.16,0,0,1,131.48,66.18Z"/><path class="cls-14" d="M134.79,66.2a.52.52,0,0,1-.35-.14.58.58,0,0,1-.14-.41,1.64,1.64,0,0,1,0-.23,1,1,0,0,1,.06-.18,1.82,1.82,0,0,1,.21-.43c.1-.17.21-.36.34-.55l.32-.52a1,1,0,0,0,.16-.5.42.42,0,0,0-.2-.36l-.15-.11-.13-.09-.31.5-.55.74c-.19.26-.38.5-.55.71l-.45.55a.11.11,0,0,1-.07,0,.14.14,0,0,1-.09,0,.08.08,0,0,1,0-.1c.29-.33.57-.66.83-1a12.07,12.07,0,0,0,.74-1.08l.26-.45a1.12,1.12,0,0,1-.14-.15,1.46,1.46,0,0,1-.17-.24.45.45,0,0,1-.09-.24.16.16,0,0,1,.07-.14.36.36,0,0,1,.21-.05q.38,0,.36.81a1.11,1.11,0,0,0,.34.18l.36.13A.78.78,0,0,1,136,63a.45.45,0,0,1,.11.33,1.18,1.18,0,0,1-.1.44,2.55,2.55,0,0,1-.25.43c-.08.11-.18.24-.28.4a4.53,4.53,0,0,0-.3.46,1.64,1.64,0,0,0-.21.42.58.58,0,0,0-.06.2c0,.1.05.15.13.15a.75.75,0,0,0,.3-.1,2.08,2.08,0,0,0,.48-.35,4.08,4.08,0,0,0,.46-.47l.22-.23.18-.24s0,0,.06,0,.06,0,.06.1a.14.14,0,0,1,0,.1l-.47.57a3.91,3.91,0,0,1-.52.55,3.84,3.84,0,0,1-.43.3A1,1,0,0,1,134.79,66.2Z"/><path class="cls-14" d="M137.43,66.31a.86.86,0,0,1-.64-.24.85.85,0,0,1-.25-.66,2.2,2.2,0,0,1,.13-.69,3,3,0,0,1,.25-.58,4.19,4.19,0,0,1,.61-.84,3.78,3.78,0,0,1,.73-.63,1.44,1.44,0,0,1,.7-.23.8.8,0,0,1,.51.16.52.52,0,0,1,.22.44.69.69,0,0,1-.06.26,1,1,0,0,1-.17.29,3.5,3.5,0,0,1-1,.88,4.36,4.36,0,0,1-1.21.47,2.29,2.29,0,0,0-.08.28c0,.09,0,.17-.05.25a.52.52,0,0,0,0,.11s0,.07,0,.1a.43.43,0,0,0,.11.32.39.39,0,0,0,.26.09A1.21,1.21,0,0,0,138,66a3.2,3.2,0,0,0,.51-.29l.37-.26.23-.23.26-.26.21-.23.19-.24,0,0s.07,0,.07.1a.16.16,0,0,1,0,.1l-.39.47c-.14.16-.27.32-.41.46a3,3,0,0,1-.67.51A1.76,1.76,0,0,1,137.43,66.31Zm-.09-1.52a5.48,5.48,0,0,0,.66-.35,4.65,4.65,0,0,0,.74-.56,3.18,3.18,0,0,0,.59-.69.43.43,0,0,0,.07-.22c0-.11-.06-.16-.17-.16a.71.71,0,0,0-.3.09,3.17,3.17,0,0,0-1,.8A4.8,4.8,0,0,0,137.34,64.79Z"/><path class="cls-14" d="M140.07,66.18a.52.52,0,0,1-.35-.14.67.67,0,0,1-.14-.48,1,1,0,0,1,0-.17l0-.2a5.9,5.9,0,0,1,.23-.76c.12-.31.26-.64.42-1s.33-.69.5-1,.32-.6.46-.84a5.39,5.39,0,0,1,.76-1,2.31,2.31,0,0,1,.63-.5.9.9,0,0,1,.46-.12q-.29.31-.63.78c-.23.31-.47.68-.73,1.11s-.6,1.07-.84,1.52a10.79,10.79,0,0,0-.61,1.4,2.34,2.34,0,0,0-.14.68c0,.25.08.37.25.37a.77.77,0,0,0,.45-.19,5,5,0,0,0,.39-.36,4.83,4.83,0,0,0,.39-.41c.11-.13.23-.26.33-.39s0,0,.06,0,.07,0,.07.1a.16.16,0,0,1,0,.1,3.25,3.25,0,0,0-.23.29l-.25.29c-.08.09-.16.19-.25.28l-.27.26a1.7,1.7,0,0,1-.45.31A1.24,1.24,0,0,1,140.07,66.18Z"/><path class="cls-14" d="M142.27,66.18a.5.5,0,0,1-.35-.14.67.67,0,0,1-.14-.48,1,1,0,0,1,0-.17l0-.2a5.9,5.9,0,0,1,.23-.76c.12-.31.26-.64.42-1s.33-.69.5-1,.32-.6.46-.84a5.39,5.39,0,0,1,.76-1,2.45,2.45,0,0,1,.62-.5,1,1,0,0,1,.47-.12q-.28.31-.63.78c-.23.31-.47.68-.73,1.11s-.6,1.07-.84,1.52a10.79,10.79,0,0,0-.61,1.4,2.34,2.34,0,0,0-.14.68c0,.25.08.37.25.37a.77.77,0,0,0,.45-.19,5,5,0,0,0,.39-.36l.39-.41.33-.39.06,0s.06,0,.06.1a.14.14,0,0,1,0,.1l-.24.29a3.07,3.07,0,0,1-.24.29c-.08.09-.16.19-.25.28l-.27.26a2.11,2.11,0,0,1-.45.31A1.24,1.24,0,0,1,142.27,66.18Z"/><path class="cls-14" d="M144.93,66.31a.87.87,0,0,1-.65-.24.85.85,0,0,1-.25-.66,2.2,2.2,0,0,1,.13-.69,3.82,3.82,0,0,1,.25-.58,4.19,4.19,0,0,1,.61-.84,3.54,3.54,0,0,1,.74-.63,1.37,1.37,0,0,1,.69-.23.85.85,0,0,1,.52.16.54.54,0,0,1,.21.44.91.91,0,0,1-.05.26,1.35,1.35,0,0,1-.18.29,3.47,3.47,0,0,1-1,.88,4.43,4.43,0,0,1-1.22.47c0,.09,0,.18-.08.28s0,.17-.05.25,0,.08,0,.11v.1a.42.42,0,0,0,.1.32.39.39,0,0,0,.26.09,1.21,1.21,0,0,0,.52-.13,3.2,3.2,0,0,0,.51-.29l.37-.26c.08-.08.16-.15.23-.23a3.18,3.18,0,0,0,.26-.26l.21-.23.19-.24.05,0c.05,0,.07,0,.07.1a.16.16,0,0,1,0,.1l-.39.47a6.1,6.1,0,0,1-.41.46,3.15,3.15,0,0,1-.66.51A1.81,1.81,0,0,1,144.93,66.31Zm-.1-1.52a5.48,5.48,0,0,0,.66-.35,4.65,4.65,0,0,0,.74-.56,3.18,3.18,0,0,0,.59-.69.43.43,0,0,0,.07-.22c0-.11,0-.16-.17-.16a.71.71,0,0,0-.3.09,3.17,3.17,0,0,0-.95.8A4.8,4.8,0,0,0,144.83,64.79Z"/><path class="cls-14" d="M148.34,66.4a1.46,1.46,0,0,1-.88-.34,1.25,1.25,0,0,1-.35-.4.55.55,0,0,1-.07-.28q0-.18.12-.18a.26.26,0,0,1,.14.09,1.08,1.08,0,0,1,.14.24,3.24,3.24,0,0,0,.21.38.4.4,0,0,0,.36.16.44.44,0,0,0,.36-.25,2.35,2.35,0,0,0,.22-.65,5.66,5.66,0,0,0,.12-.84,8,8,0,0,0,0-.81q0-.36,0-.57l-1,1.19-.86,1a.15.15,0,0,1-.08,0s0,0,0-.06a.39.39,0,0,1,0-.2l.49-.59c.17-.22.35-.43.53-.65s.34-.42.49-.59l.31-.39a.86.86,0,0,1,.15-.53,1,1,0,0,1,.38-.28,1,1,0,0,1,.41-.08.66.66,0,0,1,.28,0s.08.05.08.08,0,0-.11.06a.59.59,0,0,0-.38.28,1.37,1.37,0,0,0-.13.52c0,.2,0,.42,0,.64s0,.7-.05,1.07a5.5,5.5,0,0,1-.14,1,.64.64,0,0,1-.06.16l-.07.18c.2-.15.41-.31.6-.48a5.46,5.46,0,0,0,.47-.44l.21-.23.19-.24.06,0s.06,0,.06.09a.15.15,0,0,1,0,.11c-.15.18-.31.37-.47.58a3.34,3.34,0,0,1-.52.54l-.31.25a2,2,0,0,1-.37.25A1.24,1.24,0,0,1,148.34,66.4Z"/></g></g></svg>