<?xml version="1.0" encoding="UTF-8"?><svg xmlns="http://www.w3.org/2000/svg" viewBox="0 0 442.72 268.82"><defs><style>.d{fill:#fff;}.e{fill:none;stroke:#fff;stroke-miterlimit:10;stroke-width:4px;}</style></defs><g id="a"/><g id="b"><g id="c"><g><g><path class="d" d="M127.91,57.25v42.46h-5.48V57.25h5.48Z"/><path class="d" d="M173.27,81.07c-.32-5.92-.69-13.04-.63-18.33h-.19c-1.45,4.98-3.21,10.27-5.35,16.13l-7.5,20.6h-4.16l-6.87-20.22c-2.02-5.99-3.72-11.47-4.91-16.51h-.13c-.13,5.29-.44,12.41-.82,18.77l-1.13,18.21h-5.23l2.96-42.46h6.99l7.25,20.54c1.76,5.23,3.21,9.89,4.28,14.3h.19c1.07-4.28,2.58-8.95,4.47-14.3l7.56-20.54h6.99l2.65,42.46h-5.36l-1.07-18.65Z"/><path class="d" d="M185.24,96.5l23.56-34.46v-.19h-21.55v-4.6h28.67v3.34l-23.44,34.34v.19h23.75v4.6h-31v-3.21Z"/><path class="d" d="M228.45,57.25v42.46h-5.48V57.25h5.48Z"/><path class="d" d="M238.03,99.71V57.25h5.99l13.61,21.48c3.15,4.98,5.61,9.45,7.62,13.8l.13-.06c-.5-5.67-.63-10.84-.63-17.45v-17.77h5.17v42.46h-5.54l-13.48-21.55c-2.96-4.73-5.8-9.58-7.94-14.18l-.19,.06c.31,5.36,.44,10.46,.44,17.52v18.15h-5.17Z"/><path class="d" d="M301.47,79.81h-16.51v15.31h18.4v4.6h-23.88V57.25h22.93v4.6h-17.45v13.42h16.51v4.54Z"/><path class="d" d="M120.45,136.11c1.96-.3,4.29-.52,6.84-.52,4.63,0,7.92,1.07,10.1,3.11,2.22,2.04,3.51,4.92,3.51,8.95s-1.26,7.4-3.59,9.69c-2.33,2.33-6.18,3.59-11.03,3.59-2.29,0-4.22-.11-5.85-.3v-24.53Zm3.22,22.05c.81,.15,2,.19,3.26,.19,6.88,0,10.62-3.85,10.62-10.58,.04-5.88-3.29-9.62-10.1-9.62-1.67,0-2.92,.15-3.77,.33v19.69Z"/><path class="d" d="M146.94,152.35c.07,4.4,2.89,6.22,6.14,6.22,2.33,0,3.74-.41,4.96-.93l.55,2.33c-1.15,.52-3.11,1.11-5.96,1.11-5.51,0-8.81-3.63-8.81-9.03s3.18-9.66,8.4-9.66c5.85,0,7.4,5.14,7.4,8.44,0,.67-.07,1.18-.11,1.52h-12.58Zm9.55-2.33c.04-2.07-.85-5.29-4.51-5.29-3.29,0-4.74,3.03-5,5.29h9.51Z"/><path class="d" d="M163.22,157.38c.96,.63,2.66,1.29,4.29,1.29,2.37,0,3.48-1.18,3.48-2.66,0-1.55-.92-2.41-3.33-3.29-3.22-1.15-4.74-2.92-4.74-5.07,0-2.89,2.33-5.25,6.18-5.25,1.81,0,3.4,.52,4.4,1.11l-.81,2.37c-.7-.44-2-1.04-3.66-1.04-1.92,0-3,1.11-3,2.44,0,1.48,1.07,2.15,3.4,3.03,3.11,1.18,4.7,2.74,4.7,5.4,0,3.15-2.44,5.37-6.7,5.37-1.96,0-3.77-.48-5.03-1.22l.81-2.48Z"/><path class="d" d="M181.94,137.77c.04,1.11-.78,2-2.07,2-1.15,0-1.96-.89-1.96-2s.85-2.04,2.04-2.04,2,.89,2,2.04Zm-3.63,22.94v-17.91h3.26v17.91h-3.26Z"/><path class="d" d="M202.4,142.81c-.07,1.29-.15,2.74-.15,4.92v10.4c0,4.11-.81,6.62-2.55,8.18-1.74,1.63-4.25,2.15-6.51,2.15s-4.51-.52-5.96-1.48l.81-2.48c1.18,.74,3.03,1.41,5.25,1.41,3.33,0,5.77-1.74,5.77-6.25v-2h-.07c-1,1.67-2.92,3-5.7,3-4.44,0-7.62-3.77-7.62-8.73,0-6.07,3.96-9.51,8.07-9.51,3.11,0,4.81,1.63,5.59,3.11h.07l.15-2.7h2.85Zm-3.37,7.07c0-.56-.04-1.04-.18-1.48-.59-1.89-2.18-3.44-4.55-3.44-3.11,0-5.33,2.63-5.33,6.77,0,3.52,1.78,6.44,5.29,6.44,2,0,3.81-1.26,4.51-3.33,.19-.56,.26-1.18,.26-1.74v-3.22Z"/><path class="d" d="M207.44,147.65c0-1.85-.04-3.37-.15-4.85h2.89l.18,2.96h.07c.89-1.7,2.96-3.37,5.92-3.37,2.48,0,6.33,1.48,6.33,7.62v10.69h-3.26v-10.32c0-2.89-1.07-5.29-4.14-5.29-2.15,0-3.81,1.52-4.37,3.33-.15,.41-.22,.96-.22,1.52v10.77h-3.26v-13.06Z"/><path class="d" d="M251.28,134.44v21.65c0,1.59,.04,3.4,.15,4.63h-2.92l-.15-3.11h-.07c-1,2-3.18,3.52-6.11,3.52-4.33,0-7.66-3.66-7.66-9.1-.04-5.96,3.66-9.62,8.03-9.62,2.74,0,4.59,1.3,5.4,2.74h.07v-10.69h3.26Zm-3.26,15.65c0-.41-.04-.96-.15-1.37-.48-2.07-2.26-3.77-4.7-3.77-3.37,0-5.37,2.96-5.37,6.92,0,3.63,1.78,6.62,5.29,6.62,2.18,0,4.18-1.44,4.77-3.89,.11-.44,.15-.89,.15-1.41v-3.11Z"/><path class="d" d="M260.31,137.77c.04,1.11-.78,2-2.07,2-1.15,0-1.96-.89-1.96-2s.85-2.04,2.04-2.04,2,.89,2,2.04Zm-3.63,22.94v-17.91h3.26v17.91h-3.26Z"/><path class="d" d="M280.77,142.81c-.07,1.29-.15,2.74-.15,4.92v10.4c0,4.11-.81,6.62-2.55,8.18-1.74,1.63-4.25,2.15-6.51,2.15s-4.51-.52-5.96-1.48l.81-2.48c1.18,.74,3.03,1.41,5.25,1.41,3.33,0,5.77-1.74,5.77-6.25v-2h-.07c-1,1.67-2.92,3-5.7,3-4.44,0-7.62-3.77-7.62-8.73,0-6.07,3.96-9.51,8.07-9.51,3.11,0,4.81,1.63,5.59,3.11h.07l.15-2.7h2.85Zm-3.37,7.07c0-.56-.04-1.04-.18-1.48-.59-1.89-2.18-3.44-4.55-3.44-3.11,0-5.33,2.63-5.33,6.77,0,3.52,1.78,6.44,5.29,6.44,2,0,3.81-1.26,4.51-3.33,.19-.56,.26-1.18,.26-1.74v-3.22Z"/><path class="d" d="M289.43,137.77c.04,1.11-.78,2-2.07,2-1.15,0-1.96-.89-1.96-2s.85-2.04,2.04-2.04,2,.89,2,2.04Zm-3.63,22.94v-17.91h3.26v17.91h-3.26Z"/><path class="d" d="M298.38,137.66v5.14h4.66v2.48h-4.66v9.66c0,2.22,.63,3.48,2.44,3.48,.85,0,1.48-.11,1.89-.22l.15,2.44c-.63,.26-1.63,.44-2.89,.44-1.52,0-2.74-.48-3.52-1.37-.92-.96-1.26-2.55-1.26-4.66v-9.77h-2.78v-2.48h2.78v-4.29l3.18-.85Z"/><path class="d" d="M316.62,160.71l-.26-2.26h-.11c-1,1.41-2.92,2.66-5.48,2.66-3.63,0-5.48-2.55-5.48-5.14,0-4.33,3.85-6.7,10.77-6.66v-.37c0-1.48-.41-4.14-4.07-4.14-1.67,0-3.4,.52-4.66,1.33l-.74-2.15c1.48-.96,3.63-1.59,5.88-1.59,5.48,0,6.81,3.74,6.81,7.33v6.7c0,1.55,.07,3.07,.3,4.29h-2.96Zm-.48-9.14c-3.55-.07-7.58,.56-7.58,4.03,0,2.11,1.41,3.11,3.07,3.11,2.33,0,3.81-1.48,4.33-3,.11-.33,.18-.7,.18-1.04v-3.11Z"/><path class="d" d="M324.54,134.44h3.26v26.27h-3.26v-26.27Z"/><path class="d" d="M356.58,134.44v21.65c0,1.59,.04,3.4,.15,4.63h-2.92l-.15-3.11h-.07c-1,2-3.18,3.52-6.11,3.52-4.33,0-7.66-3.66-7.66-9.1-.04-5.96,3.66-9.62,8.03-9.62,2.74,0,4.59,1.3,5.4,2.74h.07v-10.69h3.26Zm-3.26,15.65c0-.41-.04-.96-.15-1.37-.48-2.07-2.26-3.77-4.7-3.77-3.37,0-5.37,2.96-5.37,6.92,0,3.63,1.78,6.62,5.29,6.62,2.18,0,4.18-1.44,4.77-3.89,.11-.44,.15-.89,.15-1.41v-3.11Z"/><path class="d" d="M363.8,152.35c.07,4.4,2.89,6.22,6.14,6.22,2.33,0,3.74-.41,4.96-.93l.55,2.33c-1.15,.52-3.11,1.11-5.96,1.11-5.51,0-8.81-3.63-8.81-9.03s3.18-9.66,8.4-9.66c5.85,0,7.4,5.14,7.4,8.44,0,.67-.07,1.18-.11,1.52h-12.58Zm9.55-2.33c.04-2.07-.85-5.29-4.51-5.29-3.29,0-4.74,3.03-5,5.29h9.51Z"/><path class="d" d="M380.08,157.38c.96,.63,2.66,1.29,4.29,1.29,2.37,0,3.48-1.18,3.48-2.66,0-1.55-.92-2.41-3.33-3.29-3.22-1.15-4.74-2.92-4.74-5.07,0-2.89,2.33-5.25,6.18-5.25,1.81,0,3.4,.52,4.4,1.11l-.81,2.37c-.7-.44-2-1.04-3.66-1.04-1.92,0-3,1.11-3,2.44,0,1.48,1.07,2.15,3.4,3.03,3.11,1.18,4.7,2.74,4.7,5.4,0,3.15-2.44,5.37-6.7,5.37-1.96,0-3.77-.48-5.03-1.22l.81-2.48Z"/><path class="d" d="M130.26,196.71l-.26-2.26h-.11c-1,1.41-2.92,2.66-5.48,2.66-3.63,0-5.48-2.55-5.48-5.14,0-4.33,3.85-6.7,10.77-6.66v-.37c0-1.48-.41-4.14-4.07-4.14-1.67,0-3.4,.52-4.66,1.33l-.74-2.15c1.48-.96,3.63-1.59,5.88-1.59,5.48,0,6.81,3.74,6.81,7.33v6.7c0,1.55,.07,3.07,.3,4.29h-2.96Zm-.48-9.14c-3.55-.07-7.58,.56-7.58,4.03,0,2.11,1.41,3.11,3.07,3.11,2.33,0,3.81-1.48,4.33-3,.11-.33,.18-.7,.18-1.04v-3.11Z"/><path class="d" d="M150.94,196.05c-.85,.44-2.74,1.04-5.14,1.04-5.4,0-8.92-3.66-8.92-9.14s3.77-9.51,9.62-9.51c1.92,0,3.63,.48,4.51,.93l-.74,2.52c-.78-.44-2-.85-3.77-.85-4.11,0-6.33,3.03-6.33,6.77,0,4.14,2.66,6.7,6.22,6.7,1.85,0,3.07-.48,4-.89l.55,2.44Z"/><path class="d" d="M159.15,173.66v5.14h4.66v2.48h-4.66v9.66c0,2.22,.63,3.48,2.44,3.48,.85,0,1.48-.11,1.89-.22l.15,2.44c-.63,.26-1.63,.44-2.89,.44-1.52,0-2.74-.48-3.52-1.37-.92-.96-1.26-2.55-1.26-4.66v-9.77h-2.78v-2.48h2.78v-4.29l3.18-.85Z"/><path class="d" d="M182.46,191.83c0,1.85,.04,3.48,.15,4.88h-2.89l-.19-2.92h-.07c-.85,1.44-2.74,3.33-5.92,3.33-2.81,0-6.18-1.55-6.18-7.84v-10.47h3.26v9.92c0,3.4,1.04,5.7,4,5.7,2.18,0,3.7-1.52,4.29-2.96,.19-.48,.3-1.07,.3-1.67v-10.99h3.26v13.02Z"/><path class="d" d="M197.78,196.71l-.26-2.26h-.11c-1,1.41-2.92,2.66-5.48,2.66-3.63,0-5.48-2.55-5.48-5.14,0-4.33,3.85-6.7,10.77-6.66v-.37c0-1.48-.41-4.14-4.07-4.14-1.67,0-3.4,.52-4.66,1.33l-.74-2.15c1.48-.96,3.63-1.59,5.88-1.59,5.48,0,6.81,3.74,6.81,7.33v6.7c0,1.55,.07,3.07,.3,4.29h-2.96Zm-.48-9.14c-3.55-.07-7.58,.56-7.58,4.03,0,2.11,1.41,3.11,3.07,3.11,2.33,0,3.81-1.48,4.33-3,.11-.33,.18-.7,.18-1.04v-3.11Z"/><path class="d" d="M205.7,170.44h3.26v26.27h-3.26v-26.27Z"/><path class="d" d="M218.06,173.77c.04,1.11-.78,2-2.07,2-1.15,0-1.96-.89-1.96-2s.85-2.04,2.04-2.04,2,.89,2,2.04Zm-3.63,22.94v-17.91h3.26v17.91h-3.26Z"/><path class="d" d="M227.01,173.66v5.14h4.66v2.48h-4.66v9.66c0,2.22,.63,3.48,2.44,3.48,.85,0,1.48-.11,1.89-.22l.15,2.44c-.63,.26-1.63,.44-2.89,.44-1.52,0-2.74-.48-3.52-1.37-.92-.96-1.26-2.55-1.26-4.66v-9.77h-2.78v-2.48h2.78v-4.29l3.18-.85Z"/><path class="d" d="M236.93,188.35c.07,4.4,2.89,6.22,6.14,6.22,2.33,0,3.74-.41,4.96-.93l.55,2.33c-1.15,.52-3.11,1.11-5.96,1.11-5.51,0-8.81-3.63-8.81-9.03s3.18-9.66,8.4-9.66c5.85,0,7.4,5.14,7.4,8.44,0,.67-.07,1.18-.11,1.52h-12.58Zm9.55-2.33c.04-2.07-.85-5.29-4.51-5.29-3.29,0-4.74,3.03-5,5.29h9.51Zm.78-14.95l-4.51,5.29h-2.33l3.26-5.29h3.59Z"/><path class="d" d="M253.21,193.38c.96,.63,2.66,1.29,4.29,1.29,2.37,0,3.48-1.18,3.48-2.66,0-1.55-.92-2.41-3.33-3.29-3.22-1.15-4.74-2.92-4.74-5.07,0-2.89,2.33-5.25,6.18-5.25,1.81,0,3.4,.52,4.4,1.11l-.81,2.37c-.7-.44-2-1.04-3.66-1.04-1.92,0-3,1.11-3,2.44,0,1.48,1.07,2.15,3.4,3.03,3.11,1.18,4.7,2.74,4.7,5.4,0,3.15-2.44,5.37-6.7,5.37-1.96,0-3.77-.48-5.03-1.22l.81-2.48Z"/><path class="d" d="M288.91,196.05c-.85,.44-2.74,1.04-5.14,1.04-5.4,0-8.92-3.66-8.92-9.14s3.77-9.51,9.62-9.51c1.92,0,3.63,.48,4.51,.93l-.74,2.52c-.78-.44-2-.85-3.77-.85-4.11,0-6.33,3.03-6.33,6.77,0,4.14,2.66,6.7,6.22,6.7,1.85,0,3.07-.48,4-.89l.55,2.44Z"/><path class="d" d="M307.71,191.83c0,1.85,.04,3.48,.15,4.88h-2.89l-.19-2.92h-.07c-.85,1.44-2.74,3.33-5.92,3.33-2.81,0-6.18-1.55-6.18-7.84v-10.47h3.26v9.92c0,3.4,1.04,5.7,4,5.7,2.18,0,3.7-1.52,4.29-2.96,.19-.48,.3-1.07,.3-1.67v-10.99h3.26v13.02Z"/><path class="d" d="M313.11,170.44h3.26v26.27h-3.26v-26.27Z"/><path class="d" d="M325.76,173.66v5.14h4.66v2.48h-4.66v9.66c0,2.22,.63,3.48,2.44,3.48,.85,0,1.48-.11,1.89-.22l.15,2.44c-.63,.26-1.63,.44-2.89,.44-1.52,0-2.74-.48-3.52-1.37-.92-.96-1.26-2.55-1.26-4.66v-9.77h-2.78v-2.48h2.78v-4.29l3.18-.85Z"/><path class="d" d="M349.07,191.83c0,1.85,.04,3.48,.15,4.88h-2.89l-.19-2.92h-.07c-.85,1.44-2.74,3.33-5.92,3.33-2.81,0-6.18-1.55-6.18-7.84v-10.47h3.26v9.92c0,3.4,1.04,5.7,4,5.7,2.18,0,3.7-1.52,4.29-2.96,.19-.48,.3-1.07,.3-1.67v-10.99h3.26v13.02Z"/><path class="d" d="M354.47,184.39c0-2.11-.04-3.92-.15-5.59h2.85l.11,3.52h.15c.81-2.41,2.78-3.92,4.96-3.92,.37,0,.63,.04,.92,.11v3.07c-.33-.07-.67-.11-1.11-.11-2.29,0-3.92,1.74-4.37,4.18-.07,.44-.15,.96-.15,1.52v9.55h-3.22v-12.32Z"/><path class="d" d="M368.02,188.35c.07,4.4,2.89,6.22,6.14,6.22,2.33,0,3.74-.41,4.96-.93l.55,2.33c-1.15,.52-3.11,1.11-5.96,1.11-5.51,0-8.81-3.63-8.81-9.03s3.18-9.66,8.4-9.66c5.85,0,7.4,5.14,7.4,8.44,0,.67-.07,1.18-.11,1.52h-12.58Zm9.55-2.33c.04-2.07-.85-5.29-4.51-5.29-3.29,0-4.74,3.03-5,5.29h9.51Z"/><path class="d" d="M384.74,170.44h3.26v26.27h-3.26v-26.27Z"/><path class="d" d="M393.47,170.44h3.26v26.27h-3.26v-26.27Z"/><path class="d" d="M404.02,188.35c.07,4.4,2.89,6.22,6.14,6.22,2.33,0,3.74-.41,4.96-.93l.55,2.33c-1.15,.52-3.11,1.11-5.96,1.11-5.51,0-8.81-3.63-8.81-9.03s3.18-9.66,8.4-9.66c5.85,0,7.4,5.14,7.4,8.44,0,.67-.07,1.18-.11,1.52h-12.58Zm9.55-2.33c.04-2.07-.85-5.29-4.51-5.29-3.29,0-4.74,3.03-5,5.29h9.51Z"/><path class="d" d="M420.29,193.38c.96,.63,2.66,1.29,4.29,1.29,2.37,0,3.48-1.18,3.48-2.66,0-1.55-.92-2.41-3.33-3.29-3.22-1.15-4.74-2.92-4.74-5.07,0-2.89,2.33-5.25,6.18-5.25,1.81,0,3.4,.52,4.4,1.11l-.81,2.37c-.7-.44-2-1.04-3.66-1.04-1.92,0-3,1.11-3,2.44,0,1.48,1.07,2.15,3.4,3.03,3.11,1.18,4.7,2.74,4.7,5.4,0,3.15-2.44,5.37-6.7,5.37-1.96,0-3.77-.48-5.03-1.22l.81-2.48Z"/></g><g><polyline class="e" points="409.15 30.58 398.62 30.62 398.55 38.22 94.63 38.19 94.72 231.88 57.19 264.13 57.19 44.13 9.53 44.13 2.02 44.11 2.04 8.09 9.53 8.05 9.53 0"/><polyline class="e" points="9.02 2.01 407.15 2.01 407.15 30.3"/></g><g><polyline class="e" points="399.64 38.16 104.34 38.26 104.26 225.41 57.19 264.56 57.19 44.13 2 44.13 2 8.13"/><polyline class="e" points="1.51 8.11 398.62 8.13 398.46 38.25"/></g></g></g></g></svg>