<svg xmlns="http://www.w3.org/2000/svg" viewBox="0 0 431.3 159.9">
  <g id="Calque_2" data-name="Calque 2">
    <g id="logo">
      <path d="M106.3,136H8a6,6,0,0,1-6-6V27.2a5.8,5.8,0,0,1,3-5.1,6.1,6.1,0,0,1,3-.8h98.3a6,6,0,0,1,6,5.9V130A6,6,0,0,1,106.3,136Z" style="fill: #b11616;stroke: #070606;stroke-miterlimit: 10"/>
      <path id="page" d="M93,7.9,8,21.3H98.5S101.9,11.9,93,7.9Z" style="fill: #eeebeb;stroke: #070606;stroke-miterlimit: 10"/>
      <path d="M5,22.1,70.3.5s6.9-1,6.9,9.9" style="fill: #b11616;stroke: #070606;stroke-miterlimit: 10"/>
      <path id="t" d="M48,54.9H15.2a4.3,4.3,0,1,0,0,8.5H27.3V97.9a4.3,4.3,0,1,0,8.6,0V63.4H48a4.3,4.3,0,1,0,0-8.5Z" style="fill: #eeebeb;stroke: #070606;stroke-miterlimit: 10"/>
      <path id="z" d="M91.1,94H67.4L95.2,61.9a4.2,4.2,0,0,0-.4-6h0a4.3,4.3,0,0,0-3.6-1H58.8a4.2,4.2,0,0,0-4.2,4.3,4.2,4.2,0,0,0,4.2,4.3H82.5L55,95.1a4.5,4.5,0,0,0-.6,4.7,4.1,4.1,0,0,0,3.9,2.7H91.1a4.3,4.3,0,0,0,4.3-4.3A4.3,4.3,0,0,0,91.1,94Z" style="fill: #eeebeb;stroke: #070606;stroke-miterlimit: 10"/>
      <g>
        <g>
          <path d="M127.8,56.5l2.2.6,3.2.5,3.3.2-8.7.8Zm43.1,1.3v2.4H127.8V57.8ZM133.7,60v.2a5.3,5.3,0,0,0-3.7,1.6,5,5,0,0,0-1.5,3.7v1.1h-.7V60Zm12.5,43v5.2h-5.8v-.7h1a4.4,4.4,0,0,0,3.2-1.3A4.9,4.9,0,0,0,146,103Zm6.5-44.9v50.1H146V58.1Zm-.2,44.9h.2a4.5,4.5,0,0,0,1.4,3.2,4.2,4.2,0,0,0,3.2,1.3h.9v.7h-5.7Zm18.4-46.5v2.1l-8.8-.8,3.4-.2,3.2-.5Zm0,3.5v6.7h-.7V65.5a5,5,0,0,0-1.5-3.7,5.5,5.5,0,0,0-3.8-1.6V60Z" style="fill: #eeebeb"/>
          <path d="M181.4,69.7h-.2a3.7,3.7,0,0,0-1.4-2.8,4.7,4.7,0,0,0-3.3-1.1h-.9V65h5.8Zm0,33.9v4.6h-5.8v-.7h1a5.2,5.2,0,0,0,3.2-1.1,4,4,0,0,0,1.4-2.8ZM187.7,65v43.2h-6.5V65Zm-.2,4.7V65h5.8v.8h-.9a4.6,4.6,0,0,0-3.2,1.1,3.4,3.4,0,0,0-1.4,2.8Zm0,33.9h.2a3.7,3.7,0,0,0,1.4,2.8,5.2,5.2,0,0,0,3.2,1.1h.9v.7h-5.8Z" style="fill: #eeebeb"/>
          <path d="M204.2,103.5v4.7h-7.3v-.7h1a5.1,5.1,0,0,0,3.2-1,4.1,4.1,0,0,0,1.6-3ZM208.3,64h.8l1.7,5.2-4.5,39h-4.2Zm-1.6,40.6a2.9,2.9,0,0,0,.5,1.9,2.5,2.5,0,0,0,2.1,1.1h1v.6h-4.2v-3.6ZM209.1,64l20.1,35.8-2.4,9.6L207.5,74.8Zm38,0,.6,5.7L230,102.1a29.5,29.5,0,0,0-1.7,4,13.2,13.2,0,0,0-.8,3.3h-.7l-1.6-5Zm.6,0,6.5,44.2h-7.3l-4.4-32.9L247.1,64Zm-1.4,40.6h.6v3.6h-4.3v-.6h1.1a2.5,2.5,0,0,0,2.2-1.1A3.3,3.3,0,0,0,246.3,104.6Zm5.7-1.1h1.5a4.2,4.2,0,0,0,1.7,3,5.1,5.1,0,0,0,3.2,1h1v.7H252Z" style="fill: #eeebeb"/>
          <path d="M298.1,64v.7l-27.6,43.5h-7.4v-.6l25.7-40.3H264.1V65h26.1l3.2-.2,3-.3A7.1,7.1,0,0,0,298.1,64Zm-34-.2a11.3,11.3,0,0,0,2,.5l3,.4,3,.3-8,.7Zm0,3.4h5.4a5.5,5.5,0,0,0-3.4,1.4,5,5,0,0,0-1.2,3.5V73h-.8Zm34.2,38.7-.5,2.3H267.7v-2.3Zm3.7-9-3.6,11.3H286.8l2.5-2.3a15.1,15.1,0,0,0,5.7-1.2,9.5,9.5,0,0,0,3.8-3.1,19,19,0,0,0,2.5-4.7Z" style="fill: #eeebeb"/>
          <path d="M313.2,69.7h-.3a3.4,3.4,0,0,0-1.4-2.8,4.3,4.3,0,0,0-3.2-1.1h-1V65h5.9Zm0,33.9v4.6h-5.9v-.7h1a4.8,4.8,0,0,0,3.2-1.1,3.7,3.7,0,0,0,1.4-2.8ZM319.4,65v43.2h-6.5V65Zm-.2,4.7V65H325v.8h-.9a4.7,4.7,0,0,0-3.3,1.1,3.7,3.7,0,0,0-1.4,2.8Zm0,33.9h.2a4,4,0,0,0,1.4,2.8,5.2,5.2,0,0,0,3.3,1.1h.9v.7h-5.8Z" style="fill: #eeebeb"/>
          <path d="M336,103.8v4.4h-5.4v-.7h1.2a3.7,3.7,0,0,0,2.8-1.1,3.4,3.4,0,0,0,1.2-2.6ZM335.8,64l5.4,6.3v37.9h-5.4V72.7a60.3,60.3,0,0,0-.7-8.7Zm0,0,40.6,37.4.8,7.9L336.6,71.7Zm5.4,39.8a3.4,3.4,0,0,0,1.2,2.6,3.7,3.7,0,0,0,2.8,1.1h1.2v.7H341v-4.4Zm30.6-34.3a4.3,4.3,0,0,0-1.3-2.7,3.9,3.9,0,0,0-2.8-1h-1.2V65h5.4v4.5Zm5.4-4.5v35.3c0,1.5,0,3,.1,4.4s.3,2.9.5,4.6h-.6l-5.4-6.5V65Zm-.2,4.5V65h5.4v.8h-1.3a3.8,3.8,0,0,0-2.7,1,3.7,3.7,0,0,0-1.2,2.7Z" style="fill: #eeebeb"/>
          <path d="M393.2,69.6H393a3.8,3.8,0,0,0-1.2-2.8,3.9,3.9,0,0,0-2.8-1h-1V65h5.9Zm0,34,.7,4.6H388v-.7h1a3.9,3.9,0,0,0,2.8-1.1,3.8,3.8,0,0,0,1.2-2.8ZM399.6,65v43.2H393V65Zm18.7,0v2.5H399.4V65ZM415,85.5v2.4H399.4V85.5Zm3.1,20.3.5,2.4H399.4v-2.4Zm4.2-8.9-3.5,11.3H407.3l2.4-2.4a13.5,13.5,0,0,0,5.7-1.1,10.4,10.4,0,0,0,3.7-3.2,13.6,13.6,0,0,0,2.5-4.6Zm-4-33v1.9l-8-.8a26.3,26.3,0,0,0,4.7-.4A17.5,17.5,0,0,0,418.3,63.9ZM415,80.8v4.8h-4.6a3.6,3.6,0,0,0,2.9-1.2,4,4,0,0,0,.9-2.7v-.8Zm0,7v4.8h-.8v-.8a4,4,0,0,0-.9-2.7,3.6,3.6,0,0,0-2.9-1.2H415Zm3.3-20.5v5.9h-.7v-1a4.7,4.7,0,0,0-1.3-3.4,4.2,4.2,0,0,0-3.3-1.3v-.2Z" style="fill: #eeebeb"/>
        </g>
        <g>
          <path d="M5.2,147.8H9.1a7.3,7.3,0,0,1,4.8,1.6,5.9,5.9,0,0,1,1.7,4.4,5.8,5.8,0,0,1-1.7,4.3,6.8,6.8,0,0,1-4.8,1.6H2.9v-.2h.2a1.1,1.1,0,0,0,.8-.3.9.9,0,0,0,.3-.7v-9.9a4.4,4.4,0,0,0-2.8.8l-.7.8a1.9,1.9,0,0,0-.5.9H0a4.1,4.1,0,0,1,1.7-2.5A7,7,0,0,1,5.2,147.8Zm6.6,9.8a6.4,6.4,0,0,0,1-3.9,6.3,6.3,0,0,0-1-3.8,3.6,3.6,0,0,0-2.9-1.4H6.8V159H8.9A3.6,3.6,0,0,0,11.8,157.6Z" style="fill: #eeebeb"/>
          <path d="M16.9,159.5a1.1,1.1,0,0,0,.8-.3,1.1,1.1,0,0,0,.3-.7V149a1.1,1.1,0,0,0-.5-.9h-.8v-.2h7.7l.9-.2v3h-.2v-.2a1.7,1.7,0,0,0-.5-1.3,1.7,1.7,0,0,0-1.2-.5H20.6v5h2.2a1.6,1.6,0,0,0,1.1-.5,1.5,1.5,0,0,0,.4-1h.1v3.9h-.1v-.2a1.5,1.5,0,0,0-.7-1.2l-.8-.2H20.6V159h2.2a3.2,3.2,0,0,0,2.1-.8,3.6,3.6,0,0,0,1.2-2h.2l-.8,3.5H16.7v-.2Z" style="fill: #eeebeb"/>
          <path d="M27.6,158.1a3.6,3.6,0,0,1,.5-2.1h.2a.4.4,0,0,0-.1.3,2.5,2.5,0,0,0,.9,2,2.9,2.9,0,0,0,2.3.9,3.5,3.5,0,0,0,1.8-.5,1.8,1.8,0,0,0,.6-1.4c0-.7-.5-1.3-1.4-1.8l-2.9-1.9a5.1,5.1,0,0,1-1.3-1.2,4.2,4.2,0,0,1-.4-1.5,3.4,3.4,0,0,1,1-2.5,3.8,3.8,0,0,1,2.6-.8h3.4l-.2,2.5h-.2a1.8,1.8,0,0,0-.6-1.4,2.6,2.6,0,0,0-1.8-.5,2,2,0,0,0-1.9.8,1.2,1.2,0,0,0-.3.9q0,.8,1.2,1.5l3.2,2.1a2.7,2.7,0,0,1,1.6,2.6,3.3,3.3,0,0,1-1.3,2.8,5.3,5.3,0,0,1-3.2.9l-2.2-.2a3.7,3.7,0,0,1-1.4-.8A1.9,1.9,0,0,1,27.6,158.1Z" style="fill: #eeebeb"/>
          <path d="M37.4,159.5a.9.9,0,0,0,.7-.3,1.3,1.3,0,0,0,.4-.7V149a1,1,0,0,0-.4-.7.9.9,0,0,0-.7-.3h-.2v-.2h5.1v.2h-.2a1.3,1.3,0,0,0-.8.3.9.9,0,0,0-.3.7v9.5a1.1,1.1,0,0,0,.3.7,1.3,1.3,0,0,0,.8.3h.2v.2H37.2v-.2Z" style="fill: #eeebeb"/>
          <path d="M56.6,154.2h-.3c-.3,0-.5,0-.6.2s-.2.3-.2.5v2.8a6.6,6.6,0,0,1-2.2,1.6,9.9,9.9,0,0,1-3.5.6,6.3,6.3,0,0,1-4.6-1.6,6.2,6.2,0,0,1-1.8-4.6,5.8,5.8,0,0,1,1.8-4.5,6.4,6.4,0,0,1,4.7-1.6,12.3,12.3,0,0,1,2.7.2,7.7,7.7,0,0,1,2,.7v2.9h-.2A4.2,4.2,0,0,0,53,149a4.4,4.4,0,0,0-2.6-.7,3.8,3.8,0,0,0-3.1,1.4,6.4,6.4,0,0,0-1.1,4.1,6.8,6.8,0,0,0,1,4,3.4,3.4,0,0,0,2.8,1.4,3.5,3.5,0,0,0,2.3-.7,2.1,2.1,0,0,0,.6-1v-2.6c0-.2,0-.4-.2-.5s-.4-.2-.6-.2h-.3V154h4.8Z" style="fill: #eeebeb"/>
          <path d="M70.7,148a1.1,1.1,0,0,0-.7.3.9.9,0,0,0-.3.7v8.8a10.9,10.9,0,0,0,.1,1.9v.2h-.2l-8.6-8.1v6.7a1,1,0,0,0,.4.7.9.9,0,0,0,.7.3h.3v.2H57.4v-.2h.3a1,1,0,0,0,1-1v-8.8a10.3,10.3,0,0,0-.1-1.9v-.3h.2l8.6,8.2V149a1,1,0,0,0-.4-.7.9.9,0,0,0-.7-.3h-.3v-.2h5.2v.2Z" style="fill: #eeebeb"/>
          <path d="M87.4,149.4a5.5,5.5,0,0,1,1.8,4.3,5.6,5.6,0,0,1-1.8,4.4,6.4,6.4,0,0,1-4.7,1.6H76.5v-.2h.2a1.1,1.1,0,0,0,.8-.3,1.1,1.1,0,0,0,.3-.7v-9.6a1.1,1.1,0,0,0-.3-.7l-.8-.2h-.2v-.2h6.2A6.4,6.4,0,0,1,87.4,149.4ZM82.5,159a3.1,3.1,0,0,0,2.1-.7,4.4,4.4,0,0,0,1.4-1.8,7.9,7.9,0,0,0,.4-2.8,6.3,6.3,0,0,0-1-3.8,3.6,3.6,0,0,0-2.9-1.4H80.4V159Z" style="fill: #eeebeb"/>
          <path d="M90.5,159.5a.9.9,0,0,0,.7-.3,1.3,1.3,0,0,0,.4-.7V149a1,1,0,0,0-.4-.7.9.9,0,0,0-.7-.3h-.2v-.2h5.1v.2h-.2a1.3,1.3,0,0,0-.8.3.9.9,0,0,0-.3.7v9.5a1.1,1.1,0,0,0,.3.7,1.3,1.3,0,0,0,.8.3h.2v.2H90.3v-.2Z" style="fill: #eeebeb"/>
          <path d="M109.6,154.2h-.2c-.3,0-.5,0-.6.2a.5.5,0,0,0-.3.5v2.8a5.3,5.3,0,0,1-2.1,1.6,9.9,9.9,0,0,1-3.5.6,6.3,6.3,0,0,1-4.6-1.6,6.2,6.2,0,0,1-1.8-4.6,5.8,5.8,0,0,1,1.8-4.5,6.4,6.4,0,0,1,4.7-1.6,12.3,12.3,0,0,1,2.7.2,7.7,7.7,0,0,1,2,.7v2.9h-.1a4.2,4.2,0,0,0-1.5-2.4,4.4,4.4,0,0,0-2.6-.7,3.8,3.8,0,0,0-3.1,1.4,6.4,6.4,0,0,0-1.1,4.1,6.8,6.8,0,0,0,1,4,3.2,3.2,0,0,0,2.8,1.4,3.5,3.5,0,0,0,2.3-.7,2.1,2.1,0,0,0,.6-1v-2.6c0-.2,0-.4-.2-.5a.8.8,0,0,0-.7-.2h-.2V154h4.7Z" style="fill: #eeebeb"/>
          <path d="M110.4,159.5a1.1,1.1,0,0,0,.8-.3,1.1,1.1,0,0,0,.3-.7V149a.9.9,0,0,0-.3-.7,1.1,1.1,0,0,0-.8-.3h-.2v-.2h5.2v.2h-.2a1.1,1.1,0,0,0-.8.3.9.9,0,0,0-.3.7v9.5a1.1,1.1,0,0,0,.3.7,1.1,1.1,0,0,0,.8.3h.2v.2h-5.2v-.2Z" style="fill: #eeebeb"/>
          <path d="M123,148.5v10a1,1,0,0,0,.4.7.9.9,0,0,0,.7.3h.2v.2h-5.1v-.2h.2a.9.9,0,0,0,.7-.3,1,1,0,0,0,.4-.7v-10h-2.3a1.9,1.9,0,0,0-1.3.5,1.6,1.6,0,0,0-.4,1.2v.2h-.2v-2.9l.9.2h8l1.3-.2h.7v2.9H127v-.2a1.3,1.3,0,0,0-.5-1.2,1.7,1.7,0,0,0-1.2-.5Z" style="fill: #eeebeb"/>
          <path d="M138.9,159.5h.1v.2h-5.4v-.2h.1l.6-.2.2-.4c0-.2-.1-.3-.1-.4l-.8-2.1h-4l-.9,2.1c-.1.1-.1.2-.1.4l.2.4.6.2h.1v.2h-3.6v-.2h.1l.8-.2c.2-.2.5-.4.6-.7l4-8.9a8.5,8.5,0,0,0,.8-2.2h.2l5,11a1.9,1.9,0,0,0,.7.8Zm-9-3.9h3.4l-1.7-4.1Z" style="fill: #eeebeb"/>
          <path d="M139.4,159.5a1.1,1.1,0,0,0,.8-.3,1.1,1.1,0,0,0,.3-.7V149a.9.9,0,0,0-.3-.7,1.1,1.1,0,0,0-.8-.3h-.2v-.2h5.2v.2h-.2a1,1,0,0,0-1,1v10h2.2a3.2,3.2,0,0,0,2.1-.8,4.3,4.3,0,0,0,1.2-2h.2l-.8,3.5h-8.8v-.2Z" style="fill: #eeebeb"/>
          <path d="M164.8,149.4a5.5,5.5,0,0,1,1.8,4.3,5.6,5.6,0,0,1-1.8,4.4,6.4,6.4,0,0,1-4.7,1.6h-6.2v-.2h.2a1.1,1.1,0,0,0,.8-.3,1.1,1.1,0,0,0,.3-.7v-9.6a1.1,1.1,0,0,0-.3-.7l-.8-.2h-.2v-.2h6.2A6.4,6.4,0,0,1,164.8,149.4Zm-4.9,9.6a3.1,3.1,0,0,0,2.1-.7,4.4,4.4,0,0,0,1.4-1.8,7.9,7.9,0,0,0,.4-2.8,6.3,6.3,0,0,0-1-3.8,3.6,3.6,0,0,0-2.9-1.4h-2.1V159Z" style="fill: #eeebeb"/>
          <path d="M167.9,159.5a.9.9,0,0,0,.7-.3,1.3,1.3,0,0,0,.4-.7V149a1.5,1.5,0,0,0-.6-.9h-.7v-.2h7.6l.9-.2v3H176v-.2a1.7,1.7,0,0,0-.4-1.3,1.7,1.7,0,0,0-1.2-.5h-2.9v5h2.3a1.4,1.4,0,0,0,1-.5,1.2,1.2,0,0,0,.4-1h.2v3.9h-.2v-.2a1.3,1.3,0,0,0-.7-1.2l-.7-.2h-2.3V159h2.2a2.9,2.9,0,0,0,2.1-.8,3.7,3.7,0,0,0,1.3-2h.1l-.7,3.5h-8.8v-.2Z" style="fill: #eeebeb"/>
          <path d="M178.5,158.1a4.6,4.6,0,0,1,.5-2.1h.2v.3a2.8,2.8,0,0,0,.8,2,3,3,0,0,0,2.3.9,3,3,0,0,0,1.8-.5,1.8,1.8,0,0,0,.6-1.4,2.1,2.1,0,0,0-1.3-1.8l-3-1.9a3.4,3.4,0,0,1-1.2-1.2,2.8,2.8,0,0,1-.4-1.5,3,3,0,0,1,1-2.5,3.7,3.7,0,0,1,2.6-.8h3.4l-.3,2.5h-.1a1.9,1.9,0,0,0-.7-1.4,2.3,2.3,0,0,0-1.7-.5,2.2,2.2,0,0,0-2,.8,1.2,1.2,0,0,0-.3.9q0,.8,1.2,1.5l3.3,2.1a2.8,2.8,0,0,1,1.5,2.6,3.5,3.5,0,0,1-1.2,2.8,5.4,5.4,0,0,1-3.3.9l-2.1-.2a3.5,3.5,0,0,1-1.5-.8C178.6,158.7,178.5,158.4,178.5,158.1Z" style="fill: #eeebeb"/>
          <path d="M204.3,159.5h.1v.2H199v-.2h.2l.5-.2.2-.4c0-.2,0-.3-.1-.4l-.8-2.1h-4l-.9,2.1c0,.1-.1.2-.1.4l.2.4.6.2h.1v.2h-3.6v-.2h.1l.8-.2.7-.7,3.9-8.9a8.5,8.5,0,0,0,.8-2.2h.2l5,11a1.9,1.9,0,0,0,.7.8Zm-9-3.9h3.4l-1.7-4.1Z" style="fill: #eeebeb"/>
          <path d="M211.2,159.9a7.7,7.7,0,0,1-5.2-1.6,5.9,5.9,0,0,1-1.9-4.6,5.9,5.9,0,0,1,1.9-4.5,7.3,7.3,0,0,1,5.1-1.6,9.3,9.3,0,0,1,4.2.9v2.9h-.1a4.1,4.1,0,0,0-7.1-1.7,6.2,6.2,0,0,0-1.2,4,6.8,6.8,0,0,0,1.1,4,3.7,3.7,0,0,0,3,1.5,3.8,3.8,0,0,0,3-1,6,6,0,0,0,1.5-3.5h.1l.2,3C214.9,159.2,213.3,159.9,211.2,159.9Z" style="fill: #eeebeb"/>
          <path d="M223.6,148.5v10a.9.9,0,0,0,.3.7,1.1,1.1,0,0,0,.8.3h.2v.2h-5.2v-.2h.2a1.1,1.1,0,0,0,.8-.3.9.9,0,0,0,.3-.7v-10h-2.3a1.7,1.7,0,0,0-1.7,1.7v.2h-.1v-2.9l.8.2h8l1.4-.2h.6v2.9h-.1v-.2a1.7,1.7,0,0,0-1.7-1.7Z" style="fill: #eeebeb"/>
          <path d="M241.4,148h-.3c-.2,0-.5,0-.6.2a.6.6,0,0,0-.3.6v6.6a4.2,4.2,0,0,1-1.3,3.3,5.2,5.2,0,0,1-3.6,1.2,6.1,6.1,0,0,1-4.1-1.2,3.9,3.9,0,0,1-1.4-3.3v-6.6a.9.9,0,0,0-.3-.6.7.7,0,0,0-.6-.2h-.3v-.2h4.9v.2h-.3a.7.7,0,0,0-.6.2.6.6,0,0,0-.3.6v6.5a4.1,4.1,0,0,0,.9,2.8,3.4,3.4,0,0,0,4.9.1,4,4,0,0,0,.9-2.7v-6.7a.6.6,0,0,0-.3-.6c-.1-.2-.4-.2-.6-.2h-.3v-.2h3.6Z" style="fill: #eeebeb"/>
          <path d="M253.8,159.5h.1v.2h-5.4v-.2h.1l.6-.2.2-.4c0-.2-.1-.3-.1-.4l-.8-2.1h-4l-.9,2.1c-.1.1-.1.2-.1.4l.2.4.6.2h.1v.2h-3.6v-.2h.1l.8-.2c.2-.2.5-.4.6-.7l4-8.9a8.5,8.5,0,0,0,.8-2.2h.2l5,11a1.9,1.9,0,0,0,.7.8Zm-9-3.9h3.4l-1.7-4.1Z" style="fill: #eeebeb"/>
          <path d="M254.3,159.5a1.1,1.1,0,0,0,.8-.3,1.1,1.1,0,0,0,.3-.7V149a.9.9,0,0,0-.3-.7,1.1,1.1,0,0,0-.8-.3h-.2v-.2h5.2v.2H259a1,1,0,0,0-1,1v10h2.2a3.2,3.2,0,0,0,2.1-.8,4.3,4.3,0,0,0,1.2-2h.2l-.8,3.5h-8.8v-.2Z" style="fill: #eeebeb"/>
          <path d="M264.7,159.5a.9.9,0,0,0,.7-.3.9.9,0,0,0,.4-.7V149a.8.8,0,0,0-.4-.7.9.9,0,0,0-.7-.3h-.2v-.2h5.1v.2h-.2a1.3,1.3,0,0,0-.8.3.9.9,0,0,0-.3.7v9.5a1.1,1.1,0,0,0,.3.7,1.3,1.3,0,0,0,.8.3h.2v.2h-5.1v-.2Z" style="fill: #eeebeb"/>
          <path d="M277.3,148.5v10a.9.9,0,0,0,.3.7,1.1,1.1,0,0,0,.8.3h.2v.2h-5.2v-.2h.2a1.1,1.1,0,0,0,.8-.3.9.9,0,0,0,.3-.7v-10h-2.3a1.7,1.7,0,0,0-1.7,1.7v.2h-.1v-2.9l.8.2h8l1.4-.2h.6v2.9h-.2v-.2a1.6,1.6,0,0,0-.4-1.2,1.7,1.7,0,0,0-1.3-.5Z" style="fill: #eeebeb"/>
          <path d="M282.6,159.5a.9.9,0,0,0,.7-.3,2.5,2.5,0,0,0,.4-.7V149a1.5,1.5,0,0,0-.6-.9h-.8v-.2H290l.9-.2v3h-.2a1.5,1.5,0,0,0-.8-1.5,1.1,1.1,0,0,0-.8-.3h-2.9v5h2.3a1.4,1.4,0,0,0,1-.5,1.2,1.2,0,0,0,.4-1h.2v3.9h-.2v-.2a1.3,1.3,0,0,0-.7-1.2l-.7-.2h-2.3V159h2.2a2.9,2.9,0,0,0,2.1-.8,3.7,3.7,0,0,0,1.3-2h.1l-.7,3.5h-8.9v-.2Zm4.3-12.8h-.1a14.4,14.4,0,0,1,2.5-2.8,2.6,2.6,0,0,1,1.1,1.4A9.8,9.8,0,0,1,286.9,146.7Z" style="fill: #eeebeb"/>
          <path d="M293.2,158.1a4.6,4.6,0,0,1,.5-2.1h.2v.3a2.8,2.8,0,0,0,.8,2,3,3,0,0,0,2.3.9,3,3,0,0,0,1.8-.5,1.8,1.8,0,0,0,.6-1.4,2.1,2.1,0,0,0-1.3-1.8l-3-1.9a5.1,5.1,0,0,1-1.3-1.2,4,4,0,0,1-.3-1.5,3,3,0,0,1,1-2.5,3.7,3.7,0,0,1,2.6-.8h3.4l-.3,2.5h-.1a1.9,1.9,0,0,0-.7-1.4,2.3,2.3,0,0,0-1.7-.5,2.2,2.2,0,0,0-2,.8,1.2,1.2,0,0,0-.3.9q0,.8,1.2,1.5l3.3,2.1a2.8,2.8,0,0,1,1.5,2.6,3.5,3.5,0,0,1-1.2,2.8,5.4,5.4,0,0,1-3.3.9l-2.1-.2a3.5,3.5,0,0,1-1.5-.8C293.3,158.7,293.2,158.4,293.2,158.1Z" style="fill: #eeebeb"/>
          <path d="M314.2,159.9a7.3,7.3,0,0,1-5.1-1.6,5.6,5.6,0,0,1-1.9-4.6,5.5,5.5,0,0,1,1.9-4.5,7.2,7.2,0,0,1,5-1.6,9.4,9.4,0,0,1,4.3.9v2.9h-.1a3.8,3.8,0,0,0-4-3.1,4.2,4.2,0,0,0-3.2,1.4,6.8,6.8,0,0,0-1.1,4,6.1,6.1,0,0,0,1.1,4,3.4,3.4,0,0,0,3,1.5,4,4,0,0,0,3-1,6,6,0,0,0,1.5-3.5h.1l.2,3C318,159.2,316.4,159.9,314.2,159.9Z" style="fill: #eeebeb"/>
          <path d="M333.1,148h-.3a.7.7,0,0,0-.6.2c-.2.1-.2.3-.2.6v6.6a4.2,4.2,0,0,1-1.4,3.3,4.8,4.8,0,0,1-3.5,1.2,6.6,6.6,0,0,1-4.2-1.2,4.2,4.2,0,0,1-1.4-3.3v-6.6a1.4,1.4,0,0,0-.2-.6.8.8,0,0,0-.7-.2h-.3v-.2h4.9v.2H325a.7.7,0,0,0-.9.8v6.5a4.1,4.1,0,0,0,.9,2.8,2.9,2.9,0,0,0,2.4,1.1,3,3,0,0,0,2.4-1,4,4,0,0,0,.9-2.7v-6.7c0-.3,0-.5-.2-.6a.8.8,0,0,0-.7-.2h-.2v-.2h3.5Z" style="fill: #eeebeb"/>
          <path d="M334.4,159.5a1.1,1.1,0,0,0,.8-.3,1.1,1.1,0,0,0,.3-.7V149a.9.9,0,0,0-.3-.7,1.1,1.1,0,0,0-.8-.3h-.2v-.2h5.2v.2h-.2a1.1,1.1,0,0,0-.8.3.9.9,0,0,0-.3.7v10h2.2a3.2,3.2,0,0,0,2.1-.8,3.6,3.6,0,0,0,1.2-2h.2l-.8,3.5h-8.8v-.2Z" style="fill: #eeebeb"/>
          <path d="M349.5,148.5v10a.9.9,0,0,0,.3.7,1.1,1.1,0,0,0,.8.3h.2v.2h-5.2v-.2h.3a1.1,1.1,0,0,0,.7-.3.9.9,0,0,0,.3-.7v-10h-2.2a1.7,1.7,0,0,0-1.3.5,1.6,1.6,0,0,0-.4,1.2v.2h-.2v-2.9l.8.2h8l1.4-.2h.6v2.9h-.1v-.2a1.7,1.7,0,0,0-1.7-1.7Z" style="fill: #eeebeb"/>
          <path d="M367.3,148H367a.7.7,0,0,0-.6.2.6.6,0,0,0-.3.6v6.6a4.2,4.2,0,0,1-1.3,3.3,5.2,5.2,0,0,1-3.6,1.2,6.3,6.3,0,0,1-4.1-1.2,4.2,4.2,0,0,1-1.4-3.3v-6.6a.9.9,0,0,0-.3-.6.7.7,0,0,0-.6-.2h-.3v-.2h4.9v.2h-.3a.7.7,0,0,0-.6.2.6.6,0,0,0-.3.6v6.5a4.1,4.1,0,0,0,.9,2.8,3.1,3.1,0,0,0,2.5,1.1,3,3,0,0,0,2.4-1,4,4,0,0,0,.9-2.7v-6.7a.7.7,0,0,0-.9-.8h-.3v-.2h3.6Z" style="fill: #eeebeb"/>
          <path d="M373.1,148.5h-.8v10a1.1,1.1,0,0,0,.5.9h.8v.2h-5.2v-.2h.3a1.1,1.1,0,0,0,.9-.5.9.9,0,0,0,.1-.5V149a1,1,0,0,0-1-1h-.3v-.2h5.9a5.1,5.1,0,0,1,2.8.7,4.5,4.5,0,0,1,.9,1,3.2,3.2,0,0,1,.3,1.4,3.3,3.3,0,0,1-.3,1.5,2.7,2.7,0,0,1-.9,1.2,2.3,2.3,0,0,1-1.6.6,3.7,3.7,0,0,1,1.8,1.5c1.2,2,2.1,3.2,2.7,3.5a1.8,1.8,0,0,0,1.1.3v.2h-1.7a5.7,5.7,0,0,1-2.4-.4,3.6,3.6,0,0,1-1.6-1.4l-.8-1.5a11.4,11.4,0,0,1-.6-1.4,1.7,1.7,0,0,0-1.1-1.1v-.2h.5a1.7,1.7,0,0,0,1.3-.5,2.2,2.2,0,0,0,.8-1.4,1.8,1.8,0,0,0,.1-.6,2.8,2.8,0,0,0-.6-2,2.1,2.1,0,0,0-1.4-.7Z" style="fill: #eeebeb"/>
          <path d="M381.1,159.5a.9.9,0,0,0,.7-.3.9.9,0,0,0,.4-.7V149a1.1,1.1,0,0,0-.6-.9h-.7v-.2h7.6l.9-.2v3h-.2v-.2a1.7,1.7,0,0,0-.4-1.3,1.7,1.7,0,0,0-1.2-.5h-2.9v5H387a1.4,1.4,0,0,0,1-.5,1.2,1.2,0,0,0,.4-1h.2v3.9h-.2v-.2a1.3,1.3,0,0,0-.7-1.2l-.7-.2h-2.3V159h2.2a2.9,2.9,0,0,0,2.1-.8,3.7,3.7,0,0,0,1.3-2h.2l-.8,3.5h-8.8v-.2Z" style="fill: #eeebeb"/>
          <path d="M391.7,159.5a1.1,1.1,0,0,0,.8-.3,1.1,1.1,0,0,0,.3-.7V149a.9.9,0,0,0-.3-.7,1.1,1.1,0,0,0-.8-.3h-.2v-.2h5.2v.2h-.2a1.1,1.1,0,0,0-.8.3.9.9,0,0,0-.3.7v10h2.2a3.2,3.2,0,0,0,2.1-.8,3.1,3.1,0,0,0,1.2-2h.2l-.8,3.5h-8.8v-.2Z" style="fill: #eeebeb"/>
          <path d="M402.1,159.5a1.1,1.1,0,0,0,.8-.3,1.1,1.1,0,0,0,.3-.7V149a.9.9,0,0,0-.3-.7,1.1,1.1,0,0,0-.8-.3h-.2v-.2h5.2v.2h-.2a1,1,0,0,0-1,1v10H408a3.2,3.2,0,0,0,2.1-.8,4.3,4.3,0,0,0,1.2-2h.2l-.8,3.5h-8.8v-.2Z" style="fill: #eeebeb"/>
          <path d="M412.5,159.5a.9.9,0,0,0,.7-.3,1.3,1.3,0,0,0,.4-.7V149a1.5,1.5,0,0,0-.6-.9h-.7v-.2h7.6l.9-.2v3h-.2v-.2a1.7,1.7,0,0,0-.4-1.3,1.7,1.7,0,0,0-1.2-.5h-2.9v5h2.3a1.4,1.4,0,0,0,1-.5,1.2,1.2,0,0,0,.4-1h.2v3.9h-.2v-.2a1.3,1.3,0,0,0-.7-1.2l-.7-.2h-2.3V159h2.2a2.9,2.9,0,0,0,2.1-.8,3.7,3.7,0,0,0,1.3-2h.1l-.7,3.5h-8.8v-.2Z" style="fill: #eeebeb"/>
          <path d="M423.1,158.1a3.7,3.7,0,0,1,.6-2.1h.1v.3a2.8,2.8,0,0,0,.8,2,3.2,3.2,0,0,0,2.3.9,3,3,0,0,0,1.8-.5,1.8,1.8,0,0,0,.6-1.4,2.1,2.1,0,0,0-1.3-1.8l-3-1.9a3.4,3.4,0,0,1-1.2-1.2,2.8,2.8,0,0,1-.4-1.5,3,3,0,0,1,1-2.5,3.7,3.7,0,0,1,2.6-.8h3.4l-.3,2.5H430a1.6,1.6,0,0,0-.7-1.4,2.3,2.3,0,0,0-1.7-.5,2,2,0,0,0-1.9.8,1.2,1.2,0,0,0-.3.9c0,.5.3,1,1.1,1.5l3.3,2.1a2.8,2.8,0,0,1,1.5,2.6,3.5,3.5,0,0,1-1.2,2.8,5.4,5.4,0,0,1-3.3.9l-2.1-.2a3.5,3.5,0,0,1-1.5-.8C423.2,158.7,423.1,158.4,423.1,158.1Z" style="fill: #eeebeb"/>
        </g>
      </g>
    </g>
  </g>
</svg>
