<?xml version="1.0" encoding="UTF-8"?><svg xmlns="http://www.w3.org/2000/svg" viewBox="0 0 330.15 236.77"><defs><style>.d{fill:#fff;stroke:#000;}.d,.e{stroke-miterlimit:10;}.e{fill:none;stroke:#050000;}</style></defs><g id="a"/><g id="b"><g id="c"><g><g><path d="M30.89,7.48c10.04-3.72,71.35-23.53,132.69,21.93,.9,.67,2.13,.69,3.03,.04,24.74-17.81,44.37-39.5,129.69-23.67,1.17,.22,2.04,1.21,2.1,2.4l.39,7.42c.07,1.36,1.2,2.43,2.57,2.43h26.23c1.42,0,2.57,1.15,2.57,2.57V230.14c0,.32-.06,.64-.18,.93-.74,1.85-3.79,8.31-9.18,4.53-6.24-4.37-70.48-33.64-155.2-12.63-.34,.09-.71,.1-1.06,.04-51.99-9.27-98.55-14.31-156.09,13.34-.61,.29-1.32,.34-1.96,.12C0,234.25,0,227.41,0,227.41V23.27s-.27-4.8,4.81-4.8H25.74c1.28,0,2.36-.94,2.54-2.21l.96-6.74c.13-.93,.76-1.72,1.64-2.04Z"/><path class="d" d="M42.33,15.68c11.19-2.86,68.7-14.81,115.26,27.45,.53,.48,.83,1.16,.84,1.87,.47,30.54,.09,131.4,0,153.73,0,1.94-2.07,3.16-3.78,2.25-12.29-6.59-53.85-25.44-111.23-15.35-1.58,.28-3.03-.92-3.03-2.52V18.17c0-1.18,.8-2.2,1.94-2.49Z"/><path class="d" d="M287.49,15.68c-11.19-2.86-68.7-14.81-115.26,27.45-.53,.48-.83,1.16-.84,1.87-.47,30.54-.09,131.4,0,153.73,0,1.94,2.07,3.16,3.78,2.25,12.29-6.59,53.85-25.44,111.23-15.35,1.58,.28,3.03-.92,3.03-2.52V18.17c0-1.18-.8-2.2-1.94-2.49Z"/><path class="d" d="M227.94,202.56c39.62-.09,74.77,12,85.67,16.15,1.68,.64,3.47-.61,3.47-2.4V34.7c0-1.42-1.15-2.57-2.57-2.57h-9.74c-1.42,0-2.57,1.15-2.57,2.57V193.6c0,.23-.03,.45-.09,.67-.37,1.35-2.09,5.84-8.65,4.8-29.08-4.62-50.86-3.82-65.9-1.61-3.16,.46-2.82,5.11,.37,5.11Z"/><path class="d" d="M102.25,202.56c-39.62-.09-74.77,12-85.67,16.15-1.68,.64-3.47-.61-3.47-2.4V34.7c0-1.42,1.15-2.57,2.57-2.57h9.74c1.42,0,2.57,1.15,2.57,2.57V193.6c0,.23,.03,.45,.09,.67,.37,1.35,2.09,5.84,8.65,4.8,29.08-4.62,50.86-3.82,65.9-1.61,3.16,.46,2.82,5.11-.37,5.11Z"/></g><line class="e" x1="48.3" y1="40.5" x2="144.91" y2="54.36"/><line class="e" x1="48.38" y1="69.56" x2="144.83" y2="84.49"/><line class="e" x1="48.41" y1="98.97" x2="144.8" y2="114.25"/><line class="e" x1="48.39" y1="128.66" x2="144.81" y2="143.75"/><line class="e" x1="48.3" y1="158.84" x2="144.9" y2="172.76"/><line class="e" x1="278.59" y1="40.49" x2="181.99" y2="54.35"/><line class="e" x1="278.51" y1="69.54" x2="182.07" y2="84.48"/><line class="e" x1="278.49" y1="98.96" x2="182.09" y2="114.24"/><line class="e" x1="278.5" y1="128.64" x2="182.08" y2="143.74"/><line class="e" x1="278.59" y1="158.82" x2="181.99" y2="172.74"/></g></g></g></svg>