<svg xmlns="http://www.w3.org/2000/svg" viewBox="0 0 118.66 118.66"><defs><style>.cls-1{fill:#6e72d0;}.cls-2{fill:#fff;}.cls-3{fill:gold;}.cls-4{fill:none;stroke:gold;stroke-miterlimit:10;}</style></defs><g id="Calque_2" data-name="Calque 2"><g id="venyl"><g id="disque"><circle class="cls-1" cx="59.33" cy="59.33" r="59.33"/><circle class="cls-2" cx="59.33" cy="59.33" r="20.85"/><circle class="cls-3" cx="59.33" cy="59.33" r="2.14"/><path class="cls-4" d="M69.22,80.44S79.37,75.63,81,67.61"/><path class="cls-4" d="M71.89,82.05A21.47,21.47,0,0,0,82.58,70.82"/><path class="cls-4" d="M85.52,71.62A25.07,25.07,0,0,1,73.76,84.45"/><path class="cls-4" d="M87.66,73.76S82.85,82.31,75.9,86.59"/><path class="cls-4" d="M89.17,76.43A36.44,36.44,0,0,1,75.1,90.3"/><path class="cls-4" d="M93,75.9s-5.88,11.76-15,16"/><path class="cls-4" d="M97.28,73.23s-2.14,11.91-17.1,20.92"/><path class="cls-4" d="M78.57,98.35A41.31,41.31,0,0,0,99.46,75.9"/><path class="cls-4" d="M102.57,75.9S96.74,92.1,81,100"/><path class="cls-4" d="M79.64,103.78s17.64-7.57,24.59-24.67"/><path class="cls-4" d="M81,106.11s17.37-7.23,24.85-24.87"/><path class="cls-4" d="M81,109.47a53.17,53.17,0,0,0,28.57-29"/><path class="cls-4" d="M49.71,37.26S39.75,42,38.18,49.84"/><path class="cls-4" d="M47.09,35.69a21,21,0,0,0-10.49,11"/><path class="cls-4" d="M33.72,45.91A24.61,24.61,0,0,1,45.25,33.33"/><path class="cls-4" d="M31.62,43.82s4.72-8.39,11.54-12.59"/><path class="cls-4" d="M30.14,41.19A35.71,35.71,0,0,1,43.94,27.6"/><path class="cls-4" d="M26.38,41.72S32.15,30.19,41.06,26"/><path class="cls-4" d="M22.19,44.34S24.29,32.66,39,23.82"/><path class="cls-4" d="M40.54,19.7a40.54,40.54,0,0,0-20.49,22"/><path class="cls-4" d="M17,41.72s5.71-15.89,21.18-23.67"/><path class="cls-4" d="M39.49,14.37s-17.3,7.43-24.12,24.2"/><path class="cls-4" d="M38.18,12.09s-17,7.09-24.38,24.39"/><path class="cls-4" d="M38.18,8.79a52.14,52.14,0,0,0-28,28.47"/></g></g></g></svg>