<svg viewBox="0 0 490.92 263.59" xmlns="http://www.w3.org/2000/svg"><g transform="translate(0 -.41)"><path d="m116.69 23.58h63.37v-23.17l-153.51.07v23.14h63.05v159.6c-10.24-2.35-35.4-5.17-56.74 16.19-27.51 27.59-6.31 50.85-6.31 50.85s10.6 12.74 31.79 10.58a85.7 85.7 0 0 0 36-12.12s25.42-16.89 22.43-39.59z" fill="#6e72d0"/><g stroke="#ffd700" stroke-miterlimit="10" stroke-width="2"><path d="m322.59 188a3.26 3.26 0 0 1 -2-1.53 4.57 4.57 0 0 1 -.77-2.44 4.23 4.23 0 0 1 1.93-3.74 7.71 7.71 0 0 1 4.39-1.3 9.48 9.48 0 0 1 6.16 2.29 8.22 8.22 0 0 1 2.78 6.72 9.57 9.57 0 0 1 -1.23 4.57 13.2 13.2 0 0 1 -3.52 4.12 20.24 20.24 0 0 1 -5.5 3.05 20 20 0 0 1 -7.19 1.22h-40.08l33-68h-13.14a43.93 43.93 0 0 0 -6.05.38c-1.78.26-2.67.84-2.67 1.76a2.86 2.86 0 0 0 1.3 2.4 2.83 2.83 0 0 1 1.3 2.44 4.18 4.18 0 0 1 -1.91 3.2 7.66 7.66 0 0 1 -4.95 1.53 7.33 7.33 0 0 1 -6.49-3.28 13.51 13.51 0 0 1 -2.21-7.71 7.71 7.71 0 0 1 3.43-6.48q3.43-2.52 12.28-2.52h37.93l-32.74 65.6c.61 0 1.81.06 3.59.16l5.72.3 5.95.31c1.93.1 3.4.15 4.42.15a8.86 8.86 0 0 0 4.36-.92 3.56 3.56 0 0 0 1.91-2.28z"/><path d="m334 102.71a10.06 10.06 0 0 1 2.9-7.17 9.5 9.5 0 0 1 7.17-3.05 10.42 10.42 0 0 1 10.22 10.22 9.5 9.5 0 0 1 -3.05 7.17 10.06 10.06 0 0 1 -7.17 2.9 9.91 9.91 0 0 1 -10.07-10.07zm18 22v51.87c0 1 .05 2.29.15 3.82a19.4 19.4 0 0 0 .84 4.5 10.62 10.62 0 0 0 2.06 3.81 4.75 4.75 0 0 0 3.81 1.6q7.49 0 11-16.63h5.64a62.29 62.29 0 0 1 -4.27 15.18 29.65 29.65 0 0 1 -5.49 8.47 13.74 13.74 0 0 1 -5.95 3.74 21 21 0 0 1 -5.49.84 16.48 16.48 0 0 1 -8.7-2.06 16 16 0 0 1 -5.34-5.26 20.94 20.94 0 0 1 -2.74-7.18 39.39 39.39 0 0 1 -.77-7.62v-55.11z"/><path d="m385 124.68v11.6a33.79 33.79 0 0 1 4.65-6.64 17.51 17.51 0 0 1 4.81-3.74 17.27 17.27 0 0 1 4.65-1.6 25.29 25.29 0 0 1 4.2-.38q6.87 0 11.06 2.59a17.19 17.19 0 0 1 6.33 6.64 26.85 26.85 0 0 1 2.82 8.85 64.94 64.94 0 0 1 .69 9.23q0 2.75-.15 6c-.1 2.19-.21 4.43-.31 6.72l-.3 6.86q-.17 3.43-.16 6.33c0 .82.05 2 .16 3.44a20.67 20.67 0 0 0 .76 4.34 9.89 9.89 0 0 0 2 3.74 4.94 4.94 0 0 0 4 1.6q3.51 0 6.33-4t4.65-12.67h5.65a62.29 62.29 0 0 1 -4.27 15.18 29.65 29.65 0 0 1 -5.57 8.53 14 14 0 0 1 -5.8 3.74 19.38 19.38 0 0 1 -5.34.84 16.46 16.46 0 0 1 -8.24-1.91 15.91 15.91 0 0 1 -5.49-5.11 22.42 22.42 0 0 1 -3.13-7.48 39 39 0 0 1 -1-8.84c0-.92 0-2.62.07-5.11s.1-5.17.16-8 .1-5.55.15-8.09.08-4.32.08-5.34a35.54 35.54 0 0 0 -.77-8.08 13.75 13.75 0 0 0 -2.13-5 7.9 7.9 0 0 0 -3.13-2.59 9.27 9.27 0 0 0 -3.74-.77 10.65 10.65 0 0 0 -8.16 3.82q-3.43 3.81-5.57 12.81v48.81h-15.25v-76.32z"/><path d="m488.7 143.75q0 10.68-8.77 17.85t-24.33 8.85a34.74 34.74 0 0 0 2.21 9.92 17.81 17.81 0 0 0 3.89 6 12.1 12.1 0 0 0 5.26 3.05 22.65 22.65 0 0 0 6.18.84 25.4 25.4 0 0 0 9.23-1.67 15.75 15.75 0 0 0 7.25-5.8c.1.71.17 1.4.23 2.06s.07 1.24.07 1.75a11.37 11.37 0 0 1 -1.75 6.26 17 17 0 0 1 -4.73 4.8 22.06 22.06 0 0 1 -6.87 3.13 30.73 30.73 0 0 1 -8.16 1.07 29.86 29.86 0 0 1 -10.41-1.86 25.62 25.62 0 0 1 -9.38-6.1 30.77 30.77 0 0 1 -6.75-10.9 45.16 45.16 0 0 1 -2.6-16.32 73.07 73.07 0 0 1 1.45-13.89 49.31 49.31 0 0 1 4.88-13.88 32.87 32.87 0 0 1 9-10.68 22 22 0 0 1 13.81-4.27 32.35 32.35 0 0 1 7.4.84 17 17 0 0 1 6.48 3 15.54 15.54 0 0 1 4.66 6 23.88 23.88 0 0 1 1.75 9.95zm-33.26 20.75q10.83-1.68 17.17-7.63a19.3 19.3 0 0 0 6.33-14.64q0-5.8-2-8.32a6.79 6.79 0 0 0 -5.65-2.52 9.37 9.37 0 0 0 -6.94 3.06 24.46 24.46 0 0 0 -5 7.85 49.84 49.84 0 0 0 -3 10.68 68.3 68.3 0 0 0 -.91 11.52z"/></g><path d="m158.44 92.37h-11c-29.17 12.34 0 23.11 0 23.11s11.21.45 11 0c30.12-11.67 0-23.11 0-23.11zm-.87 21.81h-5.69c-16.82-13 0-19.57 0-19.57h2.25c14.58 8.98 3.44 19.57 3.44 19.57z" fill="#6e72d0"/><path d="m322.53 187a3.24 3.24 0 0 1 -2-1.52 4.6 4.6 0 0 1 -.77-2.44 4.22 4.22 0 0 1 1.93-3.74 7.71 7.71 0 0 1 4.39-1.3 9.48 9.48 0 0 1 6.16 2.29 8.21 8.21 0 0 1 2.76 6.71 9.6 9.6 0 0 1 -1.23 4.58 13.2 13.2 0 0 1 -3.52 4.12 20.24 20.24 0 0 1 -5.5 3.05 20 20 0 0 1 -7.19 1.22h-40.07l33.05-68h-13.19a43.93 43.93 0 0 0 -6.05.38c-1.78.26-2.67.84-2.67 1.76a2.86 2.86 0 0 0 1.29 2.44 2.83 2.83 0 0 1 1.3 2.44 4.19 4.19 0 0 1 -1.9 3.2 7.71 7.71 0 0 1 -5 1.53 7.35 7.35 0 0 1 -6.49-3.28 13.51 13.51 0 0 1 -2.21-7.71 7.71 7.71 0 0 1 3.43-6.48q3.44-2.52 12.28-2.52h37.94l-32.75 65.6c.61 0 1.81.05 3.59.16l5.72.3 5.95.3c1.93.11 3.4.16 4.42.16a8.86 8.86 0 0 0 4.36-.92 3.6 3.6 0 0 0 1.97-2.33z"/><path d="m333.94 101.69a10.06 10.06 0 0 1 2.9-7.17 9.5 9.5 0 0 1 7.17-3 10.42 10.42 0 0 1 10.22 10.22 9.5 9.5 0 0 1 -3.05 7.17 10.06 10.06 0 0 1 -7.17 2.9 9.91 9.91 0 0 1 -10.07-10.07zm18 22v51.87c0 1 .05 2.29.15 3.82a19.4 19.4 0 0 0 .84 4.5 10.77 10.77 0 0 0 2.06 3.81 4.75 4.75 0 0 0 3.81 1.6q7.49 0 11-16.63h5.64a62.29 62.29 0 0 1 -4.27 15.18 29.65 29.65 0 0 1 -5.49 8.47 13.74 13.74 0 0 1 -5.95 3.74 21 21 0 0 1 -5.49.84 16.48 16.48 0 0 1 -8.7-2.06 16 16 0 0 1 -5.34-5.27 20.81 20.81 0 0 1 -2.74-7.17 40.19 40.19 0 0 1 -.77-7.62v-55.11z"/><path d="m384.89 123.66v11.59a34 34 0 0 1 4.65-6.63 17.51 17.51 0 0 1 4.81-3.74 16.93 16.93 0 0 1 4.65-1.6 25.29 25.29 0 0 1 4.2-.38q6.87 0 11.06 2.59a17.12 17.12 0 0 1 6.33 6.64 26.77 26.77 0 0 1 2.82 8.85 64.94 64.94 0 0 1 .69 9.23q0 2.74-.15 6c-.1 2.19-.21 4.43-.31 6.72l-.3 6.86q-.15 3.44-.15 6.33c0 .82.05 2 .15 3.43a20.65 20.65 0 0 0 .76 4.35 9.89 9.89 0 0 0 2 3.74 4.94 4.94 0 0 0 4 1.6q3.51 0 6.33-4t4.57-12.61h5.64a62.29 62.29 0 0 1 -4.27 15.18 29.65 29.65 0 0 1 -5.49 8.47 14 14 0 0 1 -5.8 3.74 19.32 19.32 0 0 1 -5.34.84 16.46 16.46 0 0 1 -8.24-1.91 16 16 0 0 1 -5.49-5.11 22.42 22.42 0 0 1 -3.13-7.48 39 39 0 0 1 -1-8.85c0-.91 0-2.61.07-5.11s.11-5.16.16-8 .1-5.54.15-8.08.08-4.32.08-5.34a35.63 35.63 0 0 0 -.77-8.09 13.77 13.77 0 0 0 -2.13-5 8 8 0 0 0 -3.13-2.6 9.44 9.44 0 0 0 -3.74-.76 10.65 10.65 0 0 0 -8.16 3.82q-3.43 3.81-5.57 12.81v48.82h-15.2v-76.32z"/><path d="m488.63 142.73q0 10.68-8.77 17.85t-24.33 8.85a34.82 34.82 0 0 0 2.21 9.92 17.81 17.81 0 0 0 3.89 6 12.15 12.15 0 0 0 5.26 3 22.7 22.7 0 0 0 6.18.84 25.37 25.37 0 0 0 9.23-1.68 15.62 15.62 0 0 0 7.25-5.79c.1.71.17 1.4.23 2.06s.07 1.24.07 1.75a11.4 11.4 0 0 1 -1.75 6.26 17 17 0 0 1 -4.73 4.8 22.29 22.29 0 0 1 -6.87 3.13 30.73 30.73 0 0 1 -8.16 1.07 29.86 29.86 0 0 1 -10.34-1.79 25.62 25.62 0 0 1 -9.38-6.1 30.77 30.77 0 0 1 -6.79-10.91 45.41 45.41 0 0 1 -2.6-16.32 73 73 0 0 1 1.45-13.89 49.31 49.31 0 0 1 4.88-13.88 32.77 32.77 0 0 1 9-10.68 22 22 0 0 1 13.8-4.27 32.35 32.35 0 0 1 7.4.84 16.93 16.93 0 0 1 6.49 3.05 15.58 15.58 0 0 1 4.65 6 23.93 23.93 0 0 1 1.73 9.89zm-33.26 20.75q10.83-1.68 17.17-7.63a19.31 19.31 0 0 0 6.33-14.64q0-5.81-2-8.32a6.79 6.79 0 0 0 -5.65-2.52 9.4 9.4 0 0 0 -6.94 3 24.62 24.62 0 0 0 -5 7.86 49.84 49.84 0 0 0 -3 10.68 68.3 68.3 0 0 0 -.91 11.57z"/><path d="m136.7 214.83v30.3a11.33 11.33 0 0 1 2.65.94l2.65 1.27a22.61 22.61 0 0 0 2.86 1.1 11.07 11.07 0 0 0 3.28.46 7.76 7.76 0 0 0 3.27-.84 5.67 5.67 0 0 1 .12 1.14 4.52 4.52 0 0 1 -.31 1.68 4 4 0 0 1 -.94 1.37 4.61 4.61 0 0 1 -1.48 1 5 5 0 0 1 -1.93.36 6 6 0 0 1 -3.26-1c-1.07-.7-2.16-1.46-3.26-2.29a34.51 34.51 0 0 0 -3.46-2.29 7.58 7.58 0 0 0 -3.83-1h-.49a2.81 2.81 0 0 0 -.49.05v-29.96a8.91 8.91 0 0 0 -4.49 2.76 7.25 7.25 0 0 0 -1.65 4.87 8.92 8.92 0 0 0 .17 1.93 6.73 6.73 0 0 0 .42 1.35 3.65 3.65 0 0 0 .62 1 8.61 8.61 0 0 0 .74.74 6.34 6.34 0 0 1 -4-1.17c-1-.77-1.48-2.09-1.48-4a7.4 7.4 0 0 1 1.06-3.83 11.15 11.15 0 0 1 2.82-3.18 14.38 14.38 0 0 1 8.7-3h.92l.86.07z"/><path d="m156 230.09a6.18 6.18 0 0 1 -2.44 5 12.61 12.61 0 0 1 -6.76 2.45 10 10 0 0 0 .61 2.76 5 5 0 0 0 1.08 1.67 3.42 3.42 0 0 0 1.47.85 6.08 6.08 0 0 0 1.71.23 7.1 7.1 0 0 0 2.57-.46 4.4 4.4 0 0 0 2-1.61q0 .3.06.57a4.35 4.35 0 0 1 0 .49 3.15 3.15 0 0 1 -.48 1.73 4.8 4.8 0 0 1 -1.32 1.34 6.25 6.25 0 0 1 -1.9.87 8.46 8.46 0 0 1 -2.27.29 8.35 8.35 0 0 1 -2.88-.52 7.27 7.27 0 0 1 -2.61-1.7 8.59 8.59 0 0 1 -1.88-3 12.59 12.59 0 0 1 -.72-4.53 20.17 20.17 0 0 1 .4-3.86 13.92 13.92 0 0 1 1.35-3.86 9.21 9.21 0 0 1 2.5-3 6.15 6.15 0 0 1 3.84-1.19 9.2 9.2 0 0 1 2.05.23 4.79 4.79 0 0 1 1.81.85 4.48 4.48 0 0 1 1.29 1.67 6.75 6.75 0 0 1 .52 2.73zm-9.24 5.76a8.71 8.71 0 0 0 4.76-2.12 5.32 5.32 0 0 0 1.76-4.06 3.73 3.73 0 0 0 -.55-2.31 1.86 1.86 0 0 0 -1.57-.7 2.61 2.61 0 0 0 -1.92.84 7 7 0 0 0 -1.38 2.19 14.05 14.05 0 0 0 -.83 3 19.65 19.65 0 0 0 -.24 3.16z"/><path d="m172.64 224.79v14.41a4.69 4.69 0 0 0 .72 3 2.29 2.29 0 0 0 1.82.86 2.52 2.52 0 0 0 1.19-.31 3.62 3.62 0 0 0 1.06-.91 5.09 5.09 0 0 0 .76-1.45 5.79 5.79 0 0 0 .3-2v-13.6h4.23v14.41a10.62 10.62 0 0 0 .09 1.4 3.35 3.35 0 0 0 .36 1.21 2.33 2.33 0 0 0 .76.86 2.12 2.12 0 0 0 1.25.34 2.89 2.89 0 0 0 2.21-.95 7.43 7.43 0 0 0 1.46-2.48 15.78 15.78 0 0 0 .82-3.41 28 28 0 0 0 .26-3.75c0-.79 0-1.58-.09-2.35a13.48 13.48 0 0 0 -.29-2.1 1.11 1.11 0 0 1 -.55.28 3.35 3.35 0 0 1 -.56.06 1.75 1.75 0 0 1 -1.52-.72 2.6 2.6 0 0 1 -.51-1.53 2.26 2.26 0 0 1 .55-1.5 2 2 0 0 1 1.61-.66 2.46 2.46 0 0 1 1.38.43 3.38 3.38 0 0 1 1.14 1.33 8.49 8.49 0 0 1 .77 2.39 20.87 20.87 0 0 1 .27 3.65 31.9 31.9 0 0 1 -.4 5 18.49 18.49 0 0 1 -1.34 4.68 10.43 10.43 0 0 1 -2.41 3.5 5.21 5.21 0 0 1 -3.69 1.37 6.23 6.23 0 0 1 -3.13-.84 5.24 5.24 0 0 1 -2.21-2.46 6 6 0 0 1 -2 2.52 4.6 4.6 0 0 1 -2.52.78 8.17 8.17 0 0 1 -2.34-.33 4.59 4.59 0 0 1 -1.9-1.13 5.38 5.38 0 0 1 -1.27-2 8.85 8.85 0 0 1 -.47-3.07v-14.93z"/><path d="m208.07 230.09a6.18 6.18 0 0 1 -2.44 5 12.61 12.61 0 0 1 -6.76 2.45 10 10 0 0 0 .61 2.76 5 5 0 0 0 1.08 1.67 3.42 3.42 0 0 0 1.47.85 6.08 6.08 0 0 0 1.71.23 7.32 7.32 0 0 0 3.82-1.06 7.48 7.48 0 0 0 2.88-3.56h1.35a12.22 12.22 0 0 1 -1.52 3 11.85 11.85 0 0 1 -2.29 2.5 11.52 11.52 0 0 1 -2.84 1.72 8.27 8.27 0 0 1 -6 .13 6.13 6.13 0 0 1 -2.43-1.68 8.63 8.63 0 0 1 -1.72-3 13.8 13.8 0 0 1 -.66-4.57 20.23 20.23 0 0 1 .41-3.86 13.92 13.92 0 0 1 1.35-3.86 9.21 9.21 0 0 1 2.5-3 6.13 6.13 0 0 1 3.84-1.19 9.27 9.27 0 0 1 2 .23 4.79 4.79 0 0 1 1.81.85 4.48 4.48 0 0 1 1.29 1.67 6.75 6.75 0 0 1 .54 2.72zm-9.24 5.76a8.71 8.71 0 0 0 4.76-2.12 5.32 5.32 0 0 0 1.76-4.06 3.73 3.73 0 0 0 -.55-2.31 1.87 1.87 0 0 0 -1.57-.7 2.61 2.61 0 0 0 -1.92.84 6.79 6.79 0 0 0 -1.38 2.19 14.05 14.05 0 0 0 -.83 3 19.65 19.65 0 0 0 -.27 3.16z"/><path d="m210.44 216.91 4.19-.59.05 10a6.06 6.06 0 0 1 1.69-1.19 5.38 5.38 0 0 1 2.33-.46 7.57 7.57 0 0 1 2.38.4 6 6 0 0 1 2.28 1.42 7.45 7.45 0 0 1 1.74 2.8 12.87 12.87 0 0 1 .68 4.53 18.88 18.88 0 0 1 -.57 4.66 12.29 12.29 0 0 1 -1.74 4 8.92 8.92 0 0 1 -2.9 2.74 7.91 7.91 0 0 1 -4.07 1 7.14 7.14 0 0 1 -2.44-.4 4.62 4.62 0 0 1 -1.93-1.31 6.58 6.58 0 0 1 -1.27-2.42 12.72 12.72 0 0 1 -.46-3.71zm11.56 17.92a15.14 15.14 0 0 0 -.3-3.09 9.56 9.56 0 0 0 -.87-2.52 5.11 5.11 0 0 0 -1.41-1.7 3.19 3.19 0 0 0 -1.9-.61 3.14 3.14 0 0 0 -1.57.4 5.51 5.51 0 0 0 -1.33 1v11.19q0 3.81 2.52 3.81a3.37 3.37 0 0 0 2.11-.7 5.45 5.45 0 0 0 1.53-1.88 10.24 10.24 0 0 0 .92-2.72 16.34 16.34 0 0 0 .3-3.18z"/><path d="m241.76 242.38a.92.92 0 0 1 -.55-.43 1.22 1.22 0 0 1 .32-1.71 2.11 2.11 0 0 1 1.22-.36 2.62 2.62 0 0 1 1.71.63 2.31 2.31 0 0 1 .77 1.87 2.63 2.63 0 0 1 -.34 1.27 3.62 3.62 0 0 1 -1 1.14 5.34 5.34 0 0 1 -1.53.85 5.47 5.47 0 0 1 -2 .34h-11.11l9.18-18.9h-3.66a12.14 12.14 0 0 0 -1.68.11c-.49.07-.74.23-.74.48a.79.79 0 0 0 .36.68.8.8 0 0 1 .36.68 1.18 1.18 0 0 1 -.53.89 2.14 2.14 0 0 1 -1.38.42 2 2 0 0 1 -1.8-.91 3.73 3.73 0 0 1 -.61-2.14 2.14 2.14 0 0 1 .95-1.8 6 6 0 0 1 3.41-.7h10.54l-9.1 18.21 1 .05 1.59.08 1.65.09h1.23a2.44 2.44 0 0 0 1.21-.26 1 1 0 0 0 .53-.58z"/><path d="m244.93 218.69a2.78 2.78 0 0 1 .81-2 2.62 2.62 0 0 1 2-.85 2.9 2.9 0 0 1 2.84 2.84 2.62 2.62 0 0 1 -.85 2 2.78 2.78 0 0 1 -2 .81 2.77 2.77 0 0 1 -2.8-2.8zm5 6.1v14.41 1.06a4.92 4.92 0 0 0 .23 1.25 3.09 3.09 0 0 0 .57 1.06 1.32 1.32 0 0 0 1.06.44c1.39 0 2.4-1.54 3-4.62h1.57a17.29 17.29 0 0 1 -1.19 4.22 8.08 8.08 0 0 1 -1.52 2.35 3.77 3.77 0 0 1 -1.65 1 5.68 5.68 0 0 1 -1.53.23 4.61 4.61 0 0 1 -2.42-.57 4.49 4.49 0 0 1 -1.48-1.46 5.76 5.76 0 0 1 -.76-2 11.36 11.36 0 0 1 -.21-2.12v-15.3z"/><path d="m259.09 224.79v3.21a8.91 8.91 0 0 1 1.29-1.84 4.89 4.89 0 0 1 1.33-1 4.64 4.64 0 0 1 1.3-.44 7 7 0 0 1 1.16-.11 5.8 5.8 0 0 1 3.08.72 4.81 4.81 0 0 1 1.75 1.84 7.48 7.48 0 0 1 .79 2.46 17.8 17.8 0 0 1 .19 2.57v1.67s-.06 1.23-.09 1.86-.06 1.27-.08 1.91 0 1.22 0 1.76v.95a5.48 5.48 0 0 0 .21 1.21 2.74 2.74 0 0 0 .55 1 1.36 1.36 0 0 0 1.1.44 2.17 2.17 0 0 0 1.76-1.1 9.79 9.79 0 0 0 1.29-3.52h1.57a17.29 17.29 0 0 1 -1.19 4.22 8.08 8.08 0 0 1 -1.52 2.35 3.83 3.83 0 0 1 -1.61 1 5.19 5.19 0 0 1 -1.48.23 4.28 4.28 0 0 1 -3.82-1.94 6.61 6.61 0 0 1 -.87-2.08 11 11 0 0 1 -.27-2.46c0-.25 0-.73 0-1.42s0-1.43 0-2.22 0-1.54 0-2.25 0-1.2 0-1.48a10 10 0 0 0 -.21-2.25 3.88 3.88 0 0 0 -.59-1.4 2.24 2.24 0 0 0 -.87-.72 2.58 2.58 0 0 0 -1-.21 3 3 0 0 0 -2.27 1.06 8.26 8.26 0 0 0 -1.54 3.56v13.63h-4.24v-21.21z"/><path d="m287.91 230.09a6.18 6.18 0 0 1 -2.44 5 12.61 12.61 0 0 1 -6.76 2.45 10 10 0 0 0 .61 2.76 5 5 0 0 0 1.08 1.67 3.42 3.42 0 0 0 1.47.85 6.08 6.08 0 0 0 1.71.23 7.1 7.1 0 0 0 2.57-.46 4.4 4.4 0 0 0 2-1.61q0 .3.06.57a4.35 4.35 0 0 1 0 .49 3.15 3.15 0 0 1 -.48 1.73 4.8 4.8 0 0 1 -1.32 1.34 6.25 6.25 0 0 1 -1.9.87 8.46 8.46 0 0 1 -2.27.29 8.35 8.35 0 0 1 -2.88-.52 7.27 7.27 0 0 1 -2.61-1.7 8.61 8.61 0 0 1 -1.89-3 12.59 12.59 0 0 1 -.72-4.53 20.23 20.23 0 0 1 .41-3.86 13.92 13.92 0 0 1 1.35-3.86 9.21 9.21 0 0 1 2.5-3 6.13 6.13 0 0 1 3.84-1.19 9.27 9.27 0 0 1 2.05.23 4.67 4.67 0 0 1 1.8.85 4.4 4.4 0 0 1 1.3 1.67 6.75 6.75 0 0 1 .52 2.73zm-9.24 5.76a8.71 8.71 0 0 0 4.76-2.12 5.32 5.32 0 0 0 1.76-4.06 3.73 3.73 0 0 0 -.55-2.31 1.87 1.87 0 0 0 -1.57-.7 2.61 2.61 0 0 0 -1.92.84 6.62 6.62 0 0 0 -1.38 2.19 13.48 13.48 0 0 0 -.83 3 19.65 19.65 0 0 0 -.27 3.16z"/><path d="m315.92 216.32v22.88 1.06a6 6 0 0 0 .23 1.25 3.09 3.09 0 0 0 .57 1.06 1.32 1.32 0 0 0 1.06.44c1.39 0 2.4-1.54 3.05-4.62h1.57a17.34 17.34 0 0 1 -1.18 4.22 8.09 8.09 0 0 1 -1.53 2.35 3.77 3.77 0 0 1 -1.65 1 5.68 5.68 0 0 1 -1.53.23 3.86 3.86 0 0 1 -1.67-.33 4 4 0 0 1 -1.19-.89 4.72 4.72 0 0 1 -.78-1.28 8.15 8.15 0 0 1 -.47-1.52 6.89 6.89 0 0 1 -2.05 2.84 5.22 5.22 0 0 1 -3.46 1.18 6.89 6.89 0 0 1 -2.56-.5 6.11 6.11 0 0 1 -2.33-1.68 9 9 0 0 1 -1.7-3 13.48 13.48 0 0 1 -.65-4.51 19.61 19.61 0 0 1 .44-4.07 13.49 13.49 0 0 1 1.42-3.85 9.2 9.2 0 0 1 2.5-2.89 6.39 6.39 0 0 1 4.77-1 4.3 4.3 0 0 1 1.1.36 3.77 3.77 0 0 1 1 .68 3.59 3.59 0 0 1 .76 1.06v-9.87zm-7.92 26.68a2.69 2.69 0 0 0 1.3-.36 4.3 4.3 0 0 0 1.18-1 5.29 5.29 0 0 0 .87-1.47 4.84 4.84 0 0 0 .34-1.83v-9.69a3.81 3.81 0 0 0 -.91-1.25 2.25 2.25 0 0 0 -1.59-.57 3.27 3.27 0 0 0 -2.33.91 6.85 6.85 0 0 0 -1.57 2.3 12.7 12.7 0 0 0 -.87 3 19.19 19.19 0 0 0 -.27 3.13 10.26 10.26 0 0 0 1 5.22 3.18 3.18 0 0 0 2.85 1.61z"/><path d="m334.1 230.09a6.18 6.18 0 0 1 -2.44 5 12.58 12.58 0 0 1 -6.76 2.45 10 10 0 0 0 .61 2.76 4.89 4.89 0 0 0 1.09 1.67 3.33 3.33 0 0 0 1.46.85 6.08 6.08 0 0 0 1.71.23 7.1 7.1 0 0 0 2.57-.46 4.4 4.4 0 0 0 2-1.61q0 .3.06.57a4.57 4.57 0 0 1 0 .49 3.15 3.15 0 0 1 -.49 1.73 4.67 4.67 0 0 1 -1.32 1.34 6.25 6.25 0 0 1 -1.9.87 8.46 8.46 0 0 1 -2.27.29 8.35 8.35 0 0 1 -2.88-.52 7.27 7.27 0 0 1 -2.54-1.75 8.74 8.74 0 0 1 -1.88-3 12.59 12.59 0 0 1 -.72-4.53 20.17 20.17 0 0 1 .4-3.86 13.92 13.92 0 0 1 1.35-3.86 9.21 9.21 0 0 1 2.5-3 6.15 6.15 0 0 1 3.84-1.19 9.36 9.36 0 0 1 2.06.23 4.82 4.82 0 0 1 1.8.85 4.48 4.48 0 0 1 1.29 1.67 6.75 6.75 0 0 1 .46 2.78zm-9.24 5.76a8.78 8.78 0 0 0 4.77-2.12 5.34 5.34 0 0 0 1.75-4.06 3.73 3.73 0 0 0 -.55-2.31 1.86 1.86 0 0 0 -1.56-.7 2.62 2.62 0 0 0 -1.93.84 7 7 0 0 0 -1.38 2.19 14.05 14.05 0 0 0 -.83 3 19.65 19.65 0 0 0 -.27 3.16z"/><path d="m350.71 224.79v2.93a5.57 5.57 0 0 1 2.33-2.59 5.67 5.67 0 0 1 4.26-.25 4.37 4.37 0 0 1 1.42.8 4.72 4.72 0 0 1 1 1.19 6.86 6.86 0 0 1 .66 1.48 9 9 0 0 1 1.23-2 5.75 5.75 0 0 1 1.27-1.15 3.52 3.52 0 0 1 1.25-.5 6.82 6.82 0 0 1 1.12-.11 5.8 5.8 0 0 1 3.08.72 4.92 4.92 0 0 1 1.76 1.84 7.7 7.7 0 0 1 .78 2.46 17.8 17.8 0 0 1 .19 2.57v1.67s-.06 1.23-.09 1.86-.05 1.27-.08 1.91 0 1.22 0 1.76v.95a6.13 6.13 0 0 0 .21 1.21 2.74 2.74 0 0 0 .55 1 1.36 1.36 0 0 0 1.1.44 2.17 2.17 0 0 0 1.76-1.1 9.6 9.6 0 0 0 1.29-3.52h1.57a17.34 17.34 0 0 1 -1.18 4.22 8.09 8.09 0 0 1 -1.53 2.35 3.77 3.77 0 0 1 -1.61 1 5.19 5.19 0 0 1 -1.48.23 4.28 4.28 0 0 1 -3.82-1.94 6.61 6.61 0 0 1 -.87-2.08 11 11 0 0 1 -.27-2.46c0-.25 0-.73 0-1.42s0-1.43 0-2.22 0-1.54 0-2.25 0-1.2 0-1.48a9.92 9.92 0 0 0 -.22-2.25 3.88 3.88 0 0 0 -.59-1.4 2.11 2.11 0 0 0 -.8-.66 2.69 2.69 0 0 0 -3.18.85 7.57 7.57 0 0 0 -1.16 3.56v13.59h-4.24v-14.17c0-.51 0-1-.06-1.49a4.21 4.21 0 0 0 -.32-1.29 2.25 2.25 0 0 0 -.72-.91 2.1 2.1 0 0 0 -1.27-.34 2.27 2.27 0 0 0 -2.06 1.12 12.92 12.92 0 0 0 -1.29 3.5v13.58h-4.24v-21.21z"/><path d="m390.16 224.79v14.41 1.06a4.92 4.92 0 0 0 .23 1.25 3.09 3.09 0 0 0 .57 1.06 1.31 1.31 0 0 0 1.06.44q2.07 0 3.05-4.62h1.57a17.29 17.29 0 0 1 -1.19 4.22 8.3 8.3 0 0 1 -1.45 2.39 3.74 3.74 0 0 1 -1.66 1 5.56 5.56 0 0 1 -1.52.23 3.56 3.56 0 0 1 -2.86-1.22 4.51 4.51 0 0 1 -.79-1.28 9.4 9.4 0 0 1 -.46-1.48 6.54 6.54 0 0 1 -2.12 3 4.61 4.61 0 0 1 -2.76.95 8.15 8.15 0 0 1 -2.33-.33 4.59 4.59 0 0 1 -1.9-1.13 5.38 5.38 0 0 1 -1.27-2 8.62 8.62 0 0 1 -.47-3.07v-14.88h4.24v14.41a4.69 4.69 0 0 0 .72 3 2.27 2.27 0 0 0 1.82.86 2.55 2.55 0 0 0 1.19-.31 3.76 3.76 0 0 0 1.06-.91 5.09 5.09 0 0 0 .76-1.45 5.8 5.8 0 0 0 .29-2v-13.6z"/><path d="m411.39 238.39a16.47 16.47 0 0 1 -2.52 2.82 27.26 27.26 0 0 1 -2.52 2 4.58 4.58 0 0 1 -1.19 1.42 7 7 0 0 1 -1.54.94 8.65 8.65 0 0 1 -1.66.53 7.67 7.67 0 0 1 -1.5.16 6.89 6.89 0 0 1 -3.07-.59 5.36 5.36 0 0 1 -1.93-1.5 5.6 5.6 0 0 1 -1-2 8.71 8.71 0 0 1 -.29-2.14 4 4 0 0 1 .44-1.93 2.78 2.78 0 0 1 1.08-1.16q1.11-3.18 2.16-6.29a29.14 29.14 0 0 0 1.4-6.25l4.28-.85q1 4 1.68 6.57c.43 1.69.79 3.13 1.06 4.3s.46 2.2.59 3.09a20.5 20.5 0 0 1 .19 2.95 13.88 13.88 0 0 0 1.35-1l1.23-1zm-8.85 1.7a16.09 16.09 0 0 0 -.15-2.33q-.15-1-.45-2.25c-.19-.82-.44-1.81-.74-3s-.64-2.68-1-4.52a19 19 0 0 1 -1 4.54c-.52 1.44-1 2.92-1.41 4.45a2.2 2.2 0 0 1 .65.7 2.1 2.1 0 0 1 .28 1.16 1.63 1.63 0 0 1 -.43 1.23 1.29 1.29 0 0 1 -.93.42 1.39 1.39 0 0 1 -1.14-.59 4.53 4.53 0 0 0 1.18 2.31 3.11 3.11 0 0 0 2.25.83 3.22 3.22 0 0 0 2.16-.7 2.85 2.85 0 0 0 .73-2.25z"/><path d="m408.85 218.69a2.78 2.78 0 0 1 .81-2 2.61 2.61 0 0 1 2-.85 2.9 2.9 0 0 1 2.84 2.84 2.62 2.62 0 0 1 -.85 2 2.8 2.8 0 0 1 -2 .81 2.77 2.77 0 0 1 -2.8-2.8zm5 6.1v14.41 1.06a5.41 5.41 0 0 0 .24 1.25 2.93 2.93 0 0 0 .57 1.06 1.31 1.31 0 0 0 1.06.44q2.07 0 3.05-4.62h1.57a17.29 17.29 0 0 1 -1.19 4.22 8.3 8.3 0 0 1 -1.52 2.35 3.74 3.74 0 0 1 -1.66 1 5.56 5.56 0 0 1 -1.52.23 4.59 4.59 0 0 1 -2.42-.57 4.49 4.49 0 0 1 -1.48-1.46 5.76 5.76 0 0 1 -.76-2 10.61 10.61 0 0 1 -.22-2.12v-15.3z"/><path d="m434.36 224.79v30.73l-4.24 1.06v-12.85a6.36 6.36 0 0 1 -2 1.81 5.31 5.31 0 0 1 -2.69.69 6.89 6.89 0 0 1 -2.56-.5 6 6 0 0 1 -2.33-1.68 8.86 8.86 0 0 1 -1.7-3 13.46 13.46 0 0 1 -.66-4.51 19.65 19.65 0 0 1 .45-4.07 13.49 13.49 0 0 1 1.42-3.85 9.2 9.2 0 0 1 2.5-2.89 6 6 0 0 1 3.69-1.14 6.16 6.16 0 0 1 2.16.44 3.12 3.12 0 0 1 1.73 1.68v-1.91zm-7.88 18.21a2.75 2.75 0 0 0 1.21-.29 3.74 3.74 0 0 0 1.12-.85 5.27 5.27 0 0 0 .87-1.3 4.53 4.53 0 0 0 .44-1.59v-10.4a3.32 3.32 0 0 0 -.91-1.17 2.24 2.24 0 0 0 -1.54-.53 3.31 3.31 0 0 0 -2.34.91 6.82 6.82 0 0 0 -1.56 2.3 12.7 12.7 0 0 0 -.87 3 18.19 18.19 0 0 0 -.28 3.13 10.24 10.24 0 0 0 1 5.22 3.18 3.18 0 0 0 2.86 1.57z"/><path d="m452 224.79v14.41 1.06a6 6 0 0 0 .23 1.25 3 3 0 0 0 .58 1.06 1.29 1.29 0 0 0 1.06.44q2.07 0 3.05-4.62h1.57a17.75 17.75 0 0 1 -1.19 4.22 8.09 8.09 0 0 1 -1.53 2.35 3.71 3.71 0 0 1 -1.65 1 5.63 5.63 0 0 1 -1.53.23 3.89 3.89 0 0 1 -1.67-.33 4 4 0 0 1 -1.19-.89 4.72 4.72 0 0 1 -.78-1.28 9.44 9.44 0 0 1 -.47-1.48 6.46 6.46 0 0 1 -2.11 3 4.61 4.61 0 0 1 -2.76.95 8.05 8.05 0 0 1 -2.33-.33 4.69 4.69 0 0 1 -1.91-1.13 5.5 5.5 0 0 1 -1.27-2 8.85 8.85 0 0 1 -.47-3.07v-14.84h4.24v14.41a4.69 4.69 0 0 0 .72 3 2.29 2.29 0 0 0 1.83.86 2.48 2.48 0 0 0 1.18-.31 3.5 3.5 0 0 0 1.06-.91 5.1 5.1 0 0 0 .77-1.45 6.06 6.06 0 0 0 .29-2v-13.6z"/><path d="m470.13 230.09a6.15 6.15 0 0 1 -2.44 5 12.58 12.58 0 0 1 -6.76 2.45 9.58 9.58 0 0 0 .62 2.76 4.73 4.73 0 0 0 1.08 1.67 3.33 3.33 0 0 0 1.46.85 6.11 6.11 0 0 0 1.72.23 7 7 0 0 0 2.56-.46 4.3 4.3 0 0 0 2-1.61c0 .2.05.39.07.57s0 .35 0 .49a3.15 3.15 0 0 1 -.49 1.73 4.63 4.63 0 0 1 -1.31 1.34 6.31 6.31 0 0 1 -1.91.87 8.46 8.46 0 0 1 -2.27.29 8.35 8.35 0 0 1 -2.88-.52 7.27 7.27 0 0 1 -2.58-1.75 8.74 8.74 0 0 1 -1.88-3 12.59 12.59 0 0 1 -.72-4.53 20.17 20.17 0 0 1 .4-3.86 13.62 13.62 0 0 1 1.36-3.86 9.08 9.08 0 0 1 2.5-3 6.12 6.12 0 0 1 3.83-1.19 9.36 9.36 0 0 1 2.06.23 4.82 4.82 0 0 1 1.8.85 4.29 4.29 0 0 1 1.29 1.67 6.59 6.59 0 0 1 .49 2.78zm-9.24 5.76a8.71 8.71 0 0 0 4.77-2.12 5.35 5.35 0 0 0 1.76-4.06 3.8 3.8 0 0 0 -.55-2.31 1.87 1.87 0 0 0 -1.57-.7 2.62 2.62 0 0 0 -1.93.84 7 7 0 0 0 -1.38 2.19 13.48 13.48 0 0 0 -.82 3 18.63 18.63 0 0 0 -.28 3.16z"/><path d="m146.83 125.89h15.26v52.11l-10.75 20.57s-4.51-4.55-4.51-22.06z" fill="#6e72d0"/></g><circle cx="59.33" cy="204.26" fill="#6e72d0" r="59.33"/><circle cx="59.33" cy="204.26" fill="#fff" r="20.85"/><circle cx="59.33" cy="204.26" fill="#ffd700" r="2.14"/><g transform="translate(0 -.41)"><path d="m69.22 225.78s10.15-4.78 11.78-12.78" fill="none" stroke="#ffd700" stroke-miterlimit="10"/><path d="m71.89 227.39a21.47 21.47 0 0 0 10.69-11.23" fill="none" stroke="#ffd700" stroke-miterlimit="10"/><path d="m85.52 217a25.07 25.07 0 0 1 -11.76 12.83" fill="none" stroke="#ffd700" stroke-miterlimit="10"/><path d="m87.66 219.1s-4.81 8.55-11.76 12.83" fill="none" stroke="#ffd700" stroke-miterlimit="10"/><path d="m89.17 221.77a36.44 36.44 0 0 1 -14.07 13.87" fill="none" stroke="#ffd700" stroke-miterlimit="10"/><path d="m93 221.24s-5.88 11.76-15 16" fill="none" stroke="#ffd700" stroke-miterlimit="10"/><path d="m97.28 218.57s-2.14 11.91-17.1 20.92" fill="none" stroke="#ffd700" stroke-miterlimit="10"/><path d="m78.57 243.69a41.31 41.31 0 0 0 20.89-22.45" fill="none" stroke="#ffd700" stroke-miterlimit="10"/><path d="m102.57 221.24s-5.83 16.2-21.57 24.13" fill="none" stroke="#ffd700" stroke-miterlimit="10"/><path d="m79.64 249.12s17.64-7.57 24.59-24.67" fill="none" stroke="#ffd700" stroke-miterlimit="10"/><path d="m81 251.45s17.37-7.23 24.85-24.87" fill="none" stroke="#ffd700" stroke-miterlimit="10"/><path d="m81 254.81a53.17 53.17 0 0 0 28.57-29" fill="none" stroke="#ffd700" stroke-miterlimit="10"/><path d="m49.71 182.6s-10 4.72-11.53 12.58" fill="none" stroke="#ffd700" stroke-miterlimit="10"/><path d="m47.09 181a21 21 0 0 0 -10.49 11" fill="none" stroke="#ffd700" stroke-miterlimit="10"/><path d="m33.72 191.25a24.61 24.61 0 0 1 11.53-12.58" fill="none" stroke="#ffd700" stroke-miterlimit="10"/><path d="m31.62 189.16s4.72-8.39 11.54-12.58" fill="none" stroke="#ffd700" stroke-miterlimit="10"/><path d="m30.14 186.54a35.7 35.7 0 0 1 13.8-13.6" fill="none" stroke="#ffd700" stroke-miterlimit="10"/><path d="m26.38 187.06s5.77-11.53 14.68-15.73" fill="none" stroke="#ffd700" stroke-miterlimit="10"/><path d="m22.19 189.68s2.1-11.68 16.81-20.52" fill="none" stroke="#ffd700" stroke-miterlimit="10"/><path d="m40.54 165a40.54 40.54 0 0 0 -20.49 22" fill="none" stroke="#ffd700" stroke-miterlimit="10"/><path d="m17 187.06s5.71-15.89 21.18-23.67" fill="none" stroke="#ffd700" stroke-miterlimit="10"/><path d="m39.49 159.71s-17.3 7.43-24.12 24.2" fill="none" stroke="#ffd700" stroke-miterlimit="10"/><path d="m38.18 157.43s-17 7.09-24.38 24.39" fill="none" stroke="#ffd700" stroke-miterlimit="10"/><path d="m38.18 154.13a52.14 52.14 0 0 0 -28 28.47" fill="none" stroke="#ffd700" stroke-miterlimit="10"/><path d="m258.76 104.54v71s-14.33-4.5-27.95 3.34-12.18 15-12.18 15-1.38 9.22 13.42 10.58 26.71-7.71 26.71-7.71 7-4.84 7.09-9.55 0-82.58 0-82.58v-10.3s1.71-4.4-6.52-4.4c0 0-10.36 5.63-31.55 41.65 0 0-25.42-42.38-31.23-42.35-7.93 0-7.1 3.2-7.1 3.2v81.9s-14.32-4.5-27.94 3.33-12.18 15-12.18 15-1.38 9.23 13.42 10.58 26.7-7.7 26.7-7.7 7-4.85 7.1-9.55v-82.62l31.23 43z" fill="#6e72d0"/></g></svg>