<svg xmlns="http://www.w3.org/2000/svg" viewBox="0 0 283.63 197.94"><defs><style>.cls-1{fill:#c60c0c;}.cls-2{fill:#fff;}</style></defs><g id="Calque_2" data-name="Calque 2"><g id="Calque_1-2" data-name="Calque 1"><path class="cls-1" d="M151.38,10.68l-5.85,9.4-13.84-8.31,5.66-9.6L133.77,0,63.15,119.77l8.1.18,6.44-12.64,14.54,7.61-2.65,5.42,5.42.12L156.61,13.85ZM103.91,94l-6.48,12.22a.83.83,0,0,1-1.12.34l-12.22-6.48a.83.83,0,0,1-.35-1.12l6.48-12.22a.84.84,0,0,1,1.13-.34l12.21,6.48A.82.82,0,0,1,103.91,94ZM115.68,73.2,109.2,85.42a.82.82,0,0,1-1.12.34L95.86,79.29a.84.84,0,0,1-.35-1.13L102,65.94a.84.84,0,0,1,1.13-.34l12.21,6.48A.83.83,0,0,1,115.68,73.2Zm12.46-21.46L121.66,64a.83.83,0,0,1-1.12.34l-12.22-6.48A.83.83,0,0,1,108,56.7l6.48-12.22a.83.83,0,0,1,1.13-.34l12.22,6.47A.84.84,0,0,1,128.14,51.74ZM140.6,30.28,134.12,42.5a.83.83,0,0,1-1.12.34l-12.22-6.48a.82.82,0,0,1-.34-1.12L126.91,23a.84.84,0,0,1,1.13-.35l12.22,6.48A.84.84,0,0,1,140.6,30.28Z" transform="translate(-1.26)"/><path class="cls-1" d="M247.21,66.16l-6.14,10.69-13.15-8.31,5.65-9.82L230,56.77l-38.08,63.69,32,.69,29-51.92Zm-22.84,41-6.48,12.22a.83.83,0,0,1-1.12.35l-12.22-6.48a.84.84,0,0,1-.35-1.13l6.48-12.21a.83.83,0,0,1,1.13-.35L224,106A.83.83,0,0,1,224.37,107.12Zm11.77-20.76-6.48,12.21a.83.83,0,0,1-1.12.35l-12.22-6.48a.84.84,0,0,1-.35-1.13l6.48-12.21a.84.84,0,0,1,1.13-.35l12.22,6.48A.84.84,0,0,1,236.14,86.36Z" transform="translate(-1.26)"/><path class="cls-1" d="M111.27,120.12l65.07,1.38L183.27,109s4.15-6.23-5.54-11.08-31.16-17.31-31.16-17.31-9-7.61-14.54,2.77C125.91,94.9,111.27,120.12,111.27,120.12Z" transform="translate(-1.26)"/><path class="cls-1" d="M168.73,19.73l48.46,29.08L199.88,79.27S195.73,91,184,83.42s-29.08-17.3-29.08-17.3S143.8,62,152.11,48.81C161.24,34.35,168.73,19.73,168.73,19.73Z" transform="translate(-1.26)"/><path class="cls-2" d="M79.51,170.22l.15-36.3-6.85,0,0-4.2,19.15.08,0,4.2-6.65,0-.15,36.3Z" transform="translate(-1.26)"/><path class="cls-2" d="M96,170.29l.17-40.5,5.55,0-.17,40.5Z" transform="translate(-1.26)"/><path class="cls-2" d="M108,170.34l.93-40.5,5.55,0,7,32.88,7.34-32.82,5.5,0,.57,40.51-4.55,0L130,141l-7,29.36h-3.2L113.18,141l-.58,29.4Z" transform="translate(-1.26)"/><path class="cls-2" d="M139.85,170.48l0-4,12-32.35L140.76,134l0-4.05,17.15.08v2.44l-12.7,33.95,12.55.05,0,4.05Z" transform="translate(-1.26)"/><path class="cls-2" d="M162.25,170.57l.18-40.49,5.55,0-.18,40.5Z" transform="translate(-1.26)"/><path class="cls-2" d="M174.35,170.63l.18-40.5h3.85l11.38,27,.12-26.9,4.7,0-.18,40.5h-3.6L179.27,143l-.12,27.65Z" transform="translate(-1.26)"/><path class="cls-2" d="M200.75,170.74l.18-40.5,15.7.07,0,4.2-10.05,0-.06,13.4,8.15,0,0,4-8.15,0-.06,14.84,10.15,0,0,4.05Z" transform="translate(-1.26)"/><path class="cls-2" d="M1.26,194.36v-16.2H4.78a6.15,6.15,0,0,1,2.85.55,3.11,3.11,0,0,1,1.5,1.65,7.23,7.23,0,0,1,.45,2.74v6a8.22,8.22,0,0,1-.45,2.9,3.51,3.51,0,0,1-1.46,1.79,5.28,5.28,0,0,1-2.71.61Zm2.26-1.62H4.8a2.57,2.57,0,0,0,1.76-.48,2.16,2.16,0,0,0,.63-1.4,20,20,0,0,0,.11-2.22v-5.26a10.25,10.25,0,0,0-.16-2,1.72,1.72,0,0,0-.7-1.14,3.14,3.14,0,0,0-1.7-.36H3.52Z" transform="translate(-1.26)"/><path class="cls-2" d="M14.82,194.52a3.58,3.58,0,0,1-2.1-.53,2.81,2.81,0,0,1-1-1.56,9.62,9.62,0,0,1-.29-2.53v-2.64a9.21,9.21,0,0,1,.3-2.56,2.71,2.71,0,0,1,1.05-1.54,3.56,3.56,0,0,1,2.07-.52,3.23,3.23,0,0,1,2.15.6,3,3,0,0,1,.91,1.73,14.05,14.05,0,0,1,.22,2.71v.94H13.54v2.32a4.06,4.06,0,0,0,.13,1.14,1.1,1.1,0,0,0,1.17.86,1.06,1.06,0,0,0,.73-.23,1.23,1.23,0,0,0,.34-.66,5.05,5.05,0,0,0,.09-1v-.7h2.08v.44a4.55,4.55,0,0,1-.74,2.74A2.94,2.94,0,0,1,14.82,194.52Zm-1.28-7.06H16v-1a8,8,0,0,0-.08-1.21,1.25,1.25,0,0,0-.33-.74,1.07,1.07,0,0,0-.79-.25,1.15,1.15,0,0,0-.79.24,1.39,1.39,0,0,0-.37.81,9.19,9.19,0,0,0-.1,1.57Z" transform="translate(-1.26)"/><path class="cls-2" d="M22.72,194.52a3,3,0,0,1-2.28-.89,3.74,3.74,0,0,1-1-2.35l1.78-.54a4.08,4.08,0,0,0,.54,1.65,1.29,1.29,0,0,0,1.12.55,1.12,1.12,0,0,0,.88-.33,1.28,1.28,0,0,0,.3-.89,1.77,1.77,0,0,0-.22-.9,3.09,3.09,0,0,0-.72-.82l-2-1.7a5.5,5.5,0,0,1-1-1.16,3.07,3.07,0,0,1-.41-1.66,3,3,0,0,1,.37-1.55,2.42,2.42,0,0,1,1-1,3.52,3.52,0,0,1,1.57-.33,2.56,2.56,0,0,1,2.11.89,3.76,3.76,0,0,1,.83,2.15l-1.44.54a4.79,4.79,0,0,0-.24-1.05,1.62,1.62,0,0,0-.44-.7,1.05,1.05,0,0,0-.74-.25,1,1,0,0,0-.83.35,1.19,1.19,0,0,0-.31.83,1.4,1.4,0,0,0,.13.59,1.87,1.87,0,0,0,.45.57l2,1.88a7.69,7.69,0,0,1,.79.82,3.72,3.72,0,0,1,.61,1,3.24,3.24,0,0,1,.24,1.3,3.09,3.09,0,0,1-.4,1.64,2.51,2.51,0,0,1-1.12,1A4,4,0,0,1,22.72,194.52Z" transform="translate(-1.26)"/><path class="cls-2" d="M27.66,181.08v-2.24H29.8v2.24Zm0,13.28V182.8H29.8v11.56Z" transform="translate(-1.26)"/><path class="cls-2" d="M35.1,197.94a7.76,7.76,0,0,1-1.88-.22,2.87,2.87,0,0,1-1.32-.7,1.7,1.7,0,0,1-.48-1.26,1.92,1.92,0,0,1,.24-1,2.56,2.56,0,0,1,.62-.73,3.6,3.6,0,0,1,.8-.51,1.67,1.67,0,0,1-.84-.51,1.16,1.16,0,0,1-.28-.73,1.76,1.76,0,0,1,.34-1.1,7,7,0,0,1,.94-1,3.23,3.23,0,0,1-1-1.28,5.48,5.48,0,0,1-.34-2.16,6,6,0,0,1,.37-2.27,2.84,2.84,0,0,1,1.1-1.38,3.18,3.18,0,0,1,1.79-.47,3,3,0,0,1,1.51.32,2,2,0,0,1,.87,1,3.58,3.58,0,0,1,.54-.55,3.78,3.78,0,0,1,1-.65l.32-.14L40,184a3.7,3.7,0,0,0-.69.19l-.8.3a1.54,1.54,0,0,0-.47.25,4.69,4.69,0,0,1,.25,1,7,7,0,0,1,.11,1.14,6.61,6.61,0,0,1-.3,2.08,2.8,2.8,0,0,1-1,1.41,3.16,3.16,0,0,1-1.91.51c-.17,0-.36,0-.56,0s-.38-.06-.54-.1c-.08.12-.16.26-.25.42a.92.92,0,0,0-.13.46.41.41,0,0,0,.23.35,2.05,2.05,0,0,0,.73.17l1.8.16a3,3,0,0,1,2,.82,2.79,2.79,0,0,1,.66,2,2.83,2.83,0,0,1-.44,1.59,2.66,2.66,0,0,1-1.33,1A6.79,6.79,0,0,1,35.1,197.94Zm.16-1.68a3.94,3.94,0,0,0,1.68-.27.91.91,0,0,0,.54-.87,1.21,1.21,0,0,0-.13-.6.88.88,0,0,0-.47-.38,3.33,3.33,0,0,0-1-.2l-1.82-.16a5.77,5.77,0,0,0-.42.44,1.86,1.86,0,0,0-.32.47,1.18,1.18,0,0,0-.12.53.87.87,0,0,0,.44.78A3.48,3.48,0,0,0,35.26,196.26Zm-.1-6.94a1.38,1.38,0,0,0,.73-.17,1.07,1.07,0,0,0,.41-.5,2.84,2.84,0,0,0,.19-.81c0-.32,0-.68,0-1.08s0-.77,0-1.09a3.09,3.09,0,0,0-.18-.84,1,1,0,0,0-.4-.53,1.29,1.29,0,0,0-.73-.18,1.36,1.36,0,0,0-.73.18,1.08,1.08,0,0,0-.43.51,3.17,3.17,0,0,0-.2.82,9.29,9.29,0,0,0-.06,1.13c0,.36,0,.69.05,1a2.67,2.67,0,0,0,.2.81,1.34,1.34,0,0,0,.43.54A1.25,1.25,0,0,0,35.16,189.32Z" transform="translate(-1.26)"/><path class="cls-2" d="M40.8,194.36V182.8h2.14v1.14a6.12,6.12,0,0,1,1.28-.92,3.11,3.11,0,0,1,1.54-.38,1.47,1.47,0,0,1,1.07.36,1.93,1.93,0,0,1,.52.9,4.06,4.06,0,0,1,.15,1.1v9.36H45.36v-8.74a2,2,0,0,0-.18-1,.76.76,0,0,0-.74-.34,1.58,1.58,0,0,0-.75.21,4.52,4.52,0,0,0-.75.51v9.32Z" transform="translate(-1.26)"/><path class="cls-2" d="M56.84,194.52a2.46,2.46,0,0,1-2.18-1.07,6.82,6.82,0,0,1-.72-3.63v-2.24a12.54,12.54,0,0,1,.22-2.45,3.67,3.67,0,0,1,.83-1.81,2.26,2.26,0,0,1,1.79-.68,2.11,2.11,0,0,1,1.06.26,3.38,3.38,0,0,1,.86.64v-5.38h2.14v16.2H58.7v-.74a3.66,3.66,0,0,1-.83.65A2.15,2.15,0,0,1,56.84,194.52Zm.54-1.68a2.21,2.21,0,0,0,.64-.11,3.54,3.54,0,0,0,.68-.33v-7.58a3.11,3.11,0,0,0-.62-.35,1.81,1.81,0,0,0-.74-.15,1,1,0,0,0-1,.71,5,5,0,0,0-.26,1.71V190a10.74,10.74,0,0,0,.09,1.45,2.16,2.16,0,0,0,.37,1A1,1,0,0,0,57.38,192.84Z" transform="translate(-1.26)"/><path class="cls-2" d="M63.14,181.08v-2.24h2.14v2.24Zm0,13.28V182.8h2.14v11.56Z" transform="translate(-1.26)"/><path class="cls-2" d="M70.58,197.94a7.76,7.76,0,0,1-1.88-.22,2.87,2.87,0,0,1-1.32-.7,1.7,1.7,0,0,1-.48-1.26,1.92,1.92,0,0,1,.24-1,2.41,2.41,0,0,1,.62-.73,3.6,3.6,0,0,1,.8-.51,1.67,1.67,0,0,1-.84-.51,1.16,1.16,0,0,1-.28-.73,1.76,1.76,0,0,1,.34-1.1,6.45,6.45,0,0,1,.94-1,3.23,3.23,0,0,1-1-1.28,5.48,5.48,0,0,1-.34-2.16,6,6,0,0,1,.37-2.27,2.84,2.84,0,0,1,1.1-1.38,3.16,3.16,0,0,1,1.79-.47,3,3,0,0,1,1.51.32,2,2,0,0,1,.87,1,3.14,3.14,0,0,1,.54-.55,3.78,3.78,0,0,1,1-.65l.32-.14.54,1.38a3.7,3.7,0,0,0-.69.19l-.8.3a1.42,1.42,0,0,0-.47.25,4.69,4.69,0,0,1,.25,1,7,7,0,0,1,.11,1.14,6.61,6.61,0,0,1-.3,2.08,2.8,2.8,0,0,1-1,1.41,3.16,3.16,0,0,1-1.91.51c-.17,0-.36,0-.56,0s-.38-.06-.54-.1c-.08.12-.16.26-.25.42a.92.92,0,0,0-.13.46.39.39,0,0,0,.23.35,2.05,2.05,0,0,0,.73.17l1.8.16a3,3,0,0,1,2,.82,2.79,2.79,0,0,1,.66,2,2.83,2.83,0,0,1-.44,1.59,2.66,2.66,0,0,1-1.33,1A6.88,6.88,0,0,1,70.58,197.94Zm.16-1.68a3.94,3.94,0,0,0,1.68-.27.91.91,0,0,0,.54-.87,1.21,1.21,0,0,0-.13-.6.92.92,0,0,0-.47-.38,3.33,3.33,0,0,0-1-.2l-1.82-.16a5.77,5.77,0,0,0-.42.44,1.63,1.63,0,0,0-.32.47,1.18,1.18,0,0,0-.12.53.87.87,0,0,0,.44.78A3.48,3.48,0,0,0,70.74,196.26Zm-.1-6.94a1.38,1.38,0,0,0,.73-.17,1.07,1.07,0,0,0,.41-.5,2.84,2.84,0,0,0,.19-.81c0-.32,0-.68,0-1.08s0-.77,0-1.09a3.09,3.09,0,0,0-.18-.84,1,1,0,0,0-.4-.53,1.29,1.29,0,0,0-.73-.18,1.36,1.36,0,0,0-.73.18,1,1,0,0,0-.43.51,3.17,3.17,0,0,0-.2.82,9.29,9.29,0,0,0-.06,1.13,8.13,8.13,0,0,0,.05,1,2.67,2.67,0,0,0,.2.81,1.34,1.34,0,0,0,.43.54A1.23,1.23,0,0,0,70.64,189.32Z" transform="translate(-1.26)"/><path class="cls-2" d="M76.42,181.08v-2.24h2.14v2.24Zm0,13.28V182.8h2.14v11.56Z" transform="translate(-1.26)"/><path class="cls-2" d="M83.94,194.52a2.78,2.78,0,0,1-1.45-.34,1.93,1.93,0,0,1-.8-1,3.85,3.85,0,0,1-.25-1.46v-7.54H80.22V182.8h1.22v-3.38h2.14v3.38h1.86v1.42H83.58v7.4a1.63,1.63,0,0,0,.22,1,1,1,0,0,0,.84.29l.37,0,.41,0v1.58l-.74.09C84.45,194.51,84.21,194.52,83.94,194.52Z" transform="translate(-1.26)"/><path class="cls-2" d="M89.1,194.52a1.92,1.92,0,0,1-1.2-.39,2.76,2.76,0,0,1-.82-1,2.91,2.91,0,0,1-.3-1.29,4.13,4.13,0,0,1,.36-1.82,3.57,3.57,0,0,1,1-1.25,6.53,6.53,0,0,1,1.46-.89c.55-.26,1.13-.5,1.75-.74v-.82a7.25,7.25,0,0,0-.08-1.16,1.24,1.24,0,0,0-.33-.69,1.05,1.05,0,0,0-.75-.23,1.11,1.11,0,0,0-.71.2,1.08,1.08,0,0,0-.39.57,2.77,2.77,0,0,0-.12.87v.58l-2.12-.08a4.16,4.16,0,0,1,.88-2.83,3.35,3.35,0,0,1,2.6-.91,2.89,2.89,0,0,1,2.44.94,4.39,4.39,0,0,1,.72,2.72v5.28c0,.36,0,.7,0,1s0,.64.08.93l.09.81h-2l-.15-.81c-.06-.33-.11-.63-.13-.89a3.22,3.22,0,0,1-.77,1.27A2.1,2.1,0,0,1,89.1,194.52Zm.84-1.84a1.11,1.11,0,0,0,.6-.18,3.31,3.31,0,0,0,.5-.41,4.08,4.08,0,0,0,.3-.37v-3.28c-.34.18-.65.37-.94.56a4.34,4.34,0,0,0-.77.59,2.21,2.21,0,0,0-.52.7,1.94,1.94,0,0,0-.19.89,2,2,0,0,0,.26,1.1A.85.85,0,0,0,89.94,192.68Z" transform="translate(-1.26)"/><path class="cls-2" d="M95.74,194.36v-16.2h2.14v16.2Z" transform="translate(-1.26)"/><path class="cls-2" d="M107.38,194.52a2.45,2.45,0,0,1-2.18-1.07,6.82,6.82,0,0,1-.72-3.63v-2.24a12.54,12.54,0,0,1,.22-2.45,3.58,3.58,0,0,1,.83-1.81,2.24,2.24,0,0,1,1.79-.68,2.13,2.13,0,0,1,1.06.26,3.57,3.57,0,0,1,.86.64v-5.38h2.14v16.2h-2.14v-.74a3.9,3.9,0,0,1-.83.65A2.18,2.18,0,0,1,107.38,194.52Zm.54-1.68a2.21,2.21,0,0,0,.64-.11,3.84,3.84,0,0,0,.68-.33v-7.58a3.42,3.42,0,0,0-.62-.35,1.85,1.85,0,0,0-.74-.15,1,1,0,0,0-1,.71,4.81,4.81,0,0,0-.26,1.71V190a10.74,10.74,0,0,0,.09,1.45,2.16,2.16,0,0,0,.37,1A1,1,0,0,0,107.92,192.84Z" transform="translate(-1.26)"/><path class="cls-2" d="M116.74,194.52a3.58,3.58,0,0,1-2.1-.53,2.76,2.76,0,0,1-1-1.56,9.22,9.22,0,0,1-.29-2.53v-2.64a9.21,9.21,0,0,1,.3-2.56,2.71,2.71,0,0,1,1-1.54,3.56,3.56,0,0,1,2.07-.52,3.23,3.23,0,0,1,2.15.6,3,3,0,0,1,.91,1.73,14.9,14.9,0,0,1,.22,2.71v.94h-4.56v2.32a4.06,4.06,0,0,0,.13,1.14,1.13,1.13,0,0,0,.42.65,1.23,1.23,0,0,0,.75.21,1.06,1.06,0,0,0,.73-.23,1.3,1.3,0,0,0,.34-.66,5.05,5.05,0,0,0,.09-1v-.7H120v.44a4.55,4.55,0,0,1-.74,2.74A3,3,0,0,1,116.74,194.52Zm-1.28-7.06h2.46v-1a8,8,0,0,0-.08-1.21,1.38,1.38,0,0,0-.33-.74,1.07,1.07,0,0,0-.79-.25,1.15,1.15,0,0,0-.79.24,1.34,1.34,0,0,0-.37.81,9.19,9.19,0,0,0-.1,1.57Z" transform="translate(-1.26)"/><path class="cls-2" d="M124.64,194.52a3,3,0,0,1-2.28-.89,3.69,3.69,0,0,1-1-2.35l1.78-.54a3.8,3.8,0,0,0,.54,1.65,1.28,1.28,0,0,0,1.12.55,1.14,1.14,0,0,0,.88-.33,1.28,1.28,0,0,0,.3-.89,1.87,1.87,0,0,0-.22-.9,3.09,3.09,0,0,0-.72-.82l-2-1.7a5.5,5.5,0,0,1-1-1.16,3.5,3.5,0,0,1,0-3.21,2.36,2.36,0,0,1,1-1,3.49,3.49,0,0,1,1.57-.33,2.56,2.56,0,0,1,2.11.89,3.83,3.83,0,0,1,.83,2.15l-1.44.54a6.3,6.3,0,0,0-.24-1.05,1.72,1.72,0,0,0-.44-.7,1.07,1.07,0,0,0-.74-.25,1,1,0,0,0-.83.35,1.19,1.19,0,0,0-.31.83,1.4,1.4,0,0,0,.13.59,1.61,1.61,0,0,0,.45.57l2,1.88a7.69,7.69,0,0,1,.79.82,4,4,0,0,1,.61,1,3.24,3.24,0,0,1,.24,1.3,3.19,3.19,0,0,1-.4,1.64,2.51,2.51,0,0,1-1.12,1A4,4,0,0,1,124.64,194.52Z" transform="translate(-1.26)"/><path class="cls-2" d="M136.1,194.52a1.92,1.92,0,0,1-1.2-.39,2.76,2.76,0,0,1-.82-1,2.91,2.91,0,0,1-.3-1.29,4.13,4.13,0,0,1,.36-1.82,3.57,3.57,0,0,1,1-1.25,6.53,6.53,0,0,1,1.46-.89c.55-.26,1.13-.5,1.75-.74v-.82a7.25,7.25,0,0,0-.08-1.16,1.24,1.24,0,0,0-.33-.69,1.05,1.05,0,0,0-.75-.23,1.11,1.11,0,0,0-.71.2,1.08,1.08,0,0,0-.39.57,2.77,2.77,0,0,0-.12.87v.58l-2.12-.08a4.16,4.16,0,0,1,.88-2.83,3.35,3.35,0,0,1,2.6-.91,2.89,2.89,0,0,1,2.44.94,4.39,4.39,0,0,1,.72,2.72v5.28c0,.36,0,.7,0,1s0,.64.08.93l.09.81h-2l-.15-.81c-.06-.33-.11-.63-.13-.89a3.22,3.22,0,0,1-.77,1.27A2.1,2.1,0,0,1,136.1,194.52Zm.84-1.84a1.11,1.11,0,0,0,.6-.18,3.31,3.31,0,0,0,.5-.41,4.08,4.08,0,0,0,.3-.37v-3.28c-.34.18-.65.37-.94.56a4.34,4.34,0,0,0-.77.59,2.21,2.21,0,0,0-.52.7,1.94,1.94,0,0,0-.19.89,2,2,0,0,0,.26,1.1A.85.85,0,0,0,136.94,192.68Z" transform="translate(-1.26)"/><path class="cls-2" d="M145.7,194.52a3.43,3.43,0,0,1-2.15-.57,2.75,2.75,0,0,1-1-1.61,10.29,10.29,0,0,1-.25-2.42v-2.66a9.91,9.91,0,0,1,.26-2.49,2.68,2.68,0,0,1,1-1.58,3.45,3.45,0,0,1,2.13-.55,3.77,3.77,0,0,1,2,.41,2.13,2.13,0,0,1,.95,1.22,6.77,6.77,0,0,1,.26,2V187h-1.94v-.7a6.1,6.1,0,0,0-.1-1.2,1.08,1.08,0,0,0-.36-.64,1.16,1.16,0,0,0-.74-.2,1.18,1.18,0,0,0-.8.24,1.28,1.28,0,0,0-.37.81,10.38,10.38,0,0,0-.09,1.55v3.64a4.61,4.61,0,0,0,.28,2,1,1,0,0,0,1,.5,1.12,1.12,0,0,0,.79-.25,1.34,1.34,0,0,0,.32-.71,8.11,8.11,0,0,0,.07-1V190h1.94v.8a6.58,6.58,0,0,1-.27,2,2.32,2.32,0,0,1-1,1.28A3.63,3.63,0,0,1,145.7,194.52Z" transform="translate(-1.26)"/><path class="cls-2" d="M153.84,194.52a2.78,2.78,0,0,1-1.45-.34,1.93,1.93,0,0,1-.8-1,3.85,3.85,0,0,1-.25-1.46v-7.54h-1.22V182.8h1.22v-3.38h2.14v3.38h1.86v1.42h-1.86v7.4a1.63,1.63,0,0,0,.22,1,1,1,0,0,0,.84.29l.37,0,.41,0v1.58l-.74.09C154.35,194.51,154.1,194.52,153.84,194.52Z" transform="translate(-1.26)"/><path class="cls-2" d="M158.58,194.52a1.46,1.46,0,0,1-1.06-.36,1.87,1.87,0,0,1-.53-.9,4.11,4.11,0,0,1-.15-1.1V182.8H159v8.72a2.18,2.18,0,0,0,.18,1,.75.75,0,0,0,.74.35,1.58,1.58,0,0,0,.75-.21,4.52,4.52,0,0,0,.75-.51V182.8h2.14v11.56H161.4v-1.14a6.15,6.15,0,0,1-1.27.92A3.29,3.29,0,0,1,158.58,194.52Z" transform="translate(-1.26)"/><path class="cls-2" d="M167.8,194.52a1.92,1.92,0,0,1-1.2-.39,2.76,2.76,0,0,1-.82-1,2.91,2.91,0,0,1-.3-1.29,4.13,4.13,0,0,1,.36-1.82,3.57,3.57,0,0,1,1-1.25,6.53,6.53,0,0,1,1.46-.89c.55-.26,1.13-.5,1.75-.74v-.82a7.25,7.25,0,0,0-.08-1.16,1.24,1.24,0,0,0-.33-.69,1.05,1.05,0,0,0-.75-.23,1.11,1.11,0,0,0-.71.2,1.08,1.08,0,0,0-.39.57,2.77,2.77,0,0,0-.12.87v.58l-2.12-.08a4.16,4.16,0,0,1,.88-2.83,3.35,3.35,0,0,1,2.6-.91,2.89,2.89,0,0,1,2.44.94,4.39,4.39,0,0,1,.72,2.72v5.28c0,.36,0,.7,0,1s0,.64.08.93l.09.81h-2l-.15-.81c-.06-.33-.11-.63-.13-.89a3.22,3.22,0,0,1-.77,1.27A2.1,2.1,0,0,1,167.8,194.52Zm.84-1.84a1.11,1.11,0,0,0,.6-.18,3.31,3.31,0,0,0,.5-.41,4.08,4.08,0,0,0,.3-.37v-3.28c-.34.18-.65.37-.94.56a4.34,4.34,0,0,0-.77.59,2.21,2.21,0,0,0-.52.7,1.94,1.94,0,0,0-.19.89,2,2,0,0,0,.26,1.1A.85.85,0,0,0,168.64,192.68Z" transform="translate(-1.26)"/><path class="cls-2" d="M174.44,194.36v-16.2h2.14v16.2Z" transform="translate(-1.26)"/><path class="cls-2" d="M179,181.08v-2.24h2.14v2.24Zm0,13.28V182.8h2.14v11.56Z" transform="translate(-1.26)"/><path class="cls-2" d="M186.48,194.52a2.78,2.78,0,0,1-1.45-.34,1.93,1.93,0,0,1-.8-1,3.85,3.85,0,0,1-.25-1.46v-7.54h-1.22V182.8H184v-3.38h2.14v3.38H188v1.42h-1.86v7.4a1.63,1.63,0,0,0,.22,1,1,1,0,0,0,.84.29l.37,0,.41,0v1.58l-.74.09C187,194.51,186.74,194.52,186.48,194.52Z" transform="translate(-1.26)"/><path class="cls-2" d="M192.76,194.52a3.58,3.58,0,0,1-2.1-.53,2.76,2.76,0,0,1-1-1.56,9.22,9.22,0,0,1-.29-2.53v-2.64a9.21,9.21,0,0,1,.3-2.56,2.71,2.71,0,0,1,1.05-1.54,3.56,3.56,0,0,1,2.07-.52,3.23,3.23,0,0,1,2.15.6,3,3,0,0,1,.91,1.73,14.9,14.9,0,0,1,.22,2.71v.94h-4.56v2.32a4.06,4.06,0,0,0,.13,1.14,1.13,1.13,0,0,0,.42.65,1.23,1.23,0,0,0,.75.21,1.06,1.06,0,0,0,.73-.23,1.3,1.3,0,0,0,.34-.66,5.05,5.05,0,0,0,.09-1v-.7H196v.44a4.55,4.55,0,0,1-.74,2.74A3,3,0,0,1,192.76,194.52Zm-1.28-7.06h2.46v-1a8,8,0,0,0-.08-1.21,1.38,1.38,0,0,0-.33-.74,1.07,1.07,0,0,0-.79-.25,1.15,1.15,0,0,0-.79.24,1.34,1.34,0,0,0-.37.81,9.19,9.19,0,0,0-.1,1.57Zm.66-5.62,1.18-4h2.14l-2.24,4Z" transform="translate(-1.26)"/><path class="cls-2" d="M200.66,194.52a3,3,0,0,1-2.28-.89,3.69,3.69,0,0,1-1-2.35l1.78-.54a3.8,3.8,0,0,0,.54,1.65,1.28,1.28,0,0,0,1.12.55,1.14,1.14,0,0,0,.88-.33,1.28,1.28,0,0,0,.3-.89,1.87,1.87,0,0,0-.22-.9,3.09,3.09,0,0,0-.72-.82l-2-1.7a5.5,5.5,0,0,1-1-1.16,3.5,3.5,0,0,1,0-3.21,2.36,2.36,0,0,1,1-1,3.49,3.49,0,0,1,1.57-.33,2.56,2.56,0,0,1,2.11.89,3.83,3.83,0,0,1,.83,2.15l-1.44.54a6.3,6.3,0,0,0-.24-1.05,1.72,1.72,0,0,0-.44-.7,1.07,1.07,0,0,0-.74-.25,1,1,0,0,0-.83.35,1.19,1.19,0,0,0-.31.83,1.4,1.4,0,0,0,.13.59,1.61,1.61,0,0,0,.45.57l2,1.88a7.69,7.69,0,0,1,.79.82,4,4,0,0,1,.61,1,3.24,3.24,0,0,1,.24,1.3,3.19,3.19,0,0,1-.4,1.64,2.51,2.51,0,0,1-1.12,1A4,4,0,0,1,200.66,194.52Z" transform="translate(-1.26)"/><path class="cls-2" d="M213.2,194.52a3.43,3.43,0,0,1-2.15-.57,2.75,2.75,0,0,1-1-1.61,10.29,10.29,0,0,1-.25-2.42v-2.66a9.91,9.91,0,0,1,.26-2.49,2.68,2.68,0,0,1,1-1.58,3.45,3.45,0,0,1,2.13-.55,3.77,3.77,0,0,1,2,.41,2.13,2.13,0,0,1,.95,1.22,6.77,6.77,0,0,1,.26,2V187h-1.94v-.7a6.1,6.1,0,0,0-.1-1.2,1.08,1.08,0,0,0-.36-.64,1.16,1.16,0,0,0-.74-.2,1.18,1.18,0,0,0-.8.24,1.28,1.28,0,0,0-.37.81,10.38,10.38,0,0,0-.09,1.55v3.64a4.61,4.61,0,0,0,.28,2,1,1,0,0,0,1,.5,1.12,1.12,0,0,0,.79-.25,1.34,1.34,0,0,0,.32-.71,8.11,8.11,0,0,0,.07-1V190h1.94v.8a6.58,6.58,0,0,1-.27,2,2.32,2.32,0,0,1-1,1.28A3.63,3.63,0,0,1,213.2,194.52Z" transform="translate(-1.26)"/><path class="cls-2" d="M219.92,194.52a1.46,1.46,0,0,1-1.06-.36,1.87,1.87,0,0,1-.53-.9,4.11,4.11,0,0,1-.15-1.1V182.8h2.14v8.72a2.18,2.18,0,0,0,.18,1,.75.75,0,0,0,.74.35,1.58,1.58,0,0,0,.75-.21,4.52,4.52,0,0,0,.75-.51V182.8h2.14v11.56h-2.14v-1.14a6.15,6.15,0,0,1-1.27.92A3.29,3.29,0,0,1,219.92,194.52Z" transform="translate(-1.26)"/><path class="cls-2" d="M227.26,194.36v-16.2h2.14v16.2Z" transform="translate(-1.26)"/><path class="cls-2" d="M234.71,194.52a2.8,2.8,0,0,1-1.45-.34,2,2,0,0,1-.8-1,4.05,4.05,0,0,1-.25-1.46v-7.54H231V182.8h1.21v-3.38h2.14v3.38h1.86v1.42h-1.86v7.4a1.71,1.71,0,0,0,.22,1,1,1,0,0,0,.85.29l.37,0,.4,0v1.58l-.73.09Q235.11,194.52,234.71,194.52Z" transform="translate(-1.26)"/><path class="cls-2" d="M239.46,194.52a1.51,1.51,0,0,1-1.07-.36,1.85,1.85,0,0,1-.52-.9,3.75,3.75,0,0,1-.16-1.1V182.8h2.14v8.72a2.17,2.17,0,0,0,.19,1,.74.74,0,0,0,.73.35,1.58,1.58,0,0,0,.75-.21,3.82,3.82,0,0,0,.75-.51V182.8h2.15v11.56h-2.15v-1.14a5.66,5.66,0,0,1-1.27.92A3.25,3.25,0,0,1,239.46,194.52Z" transform="translate(-1.26)"/><path class="cls-2" d="M246.65,194.36V182.8h2.14v1.64a4,4,0,0,1,1.28-1.42,2.62,2.62,0,0,1,1.28-.36h.15a.72.72,0,0,1,.19,0V185a2.55,2.55,0,0,0-.55-.17,2.59,2.59,0,0,0-.63-.07,1.79,1.79,0,0,0-.91.23,2.47,2.47,0,0,0-.81.89v8.44Z" transform="translate(-1.26)"/><path class="cls-2" d="M256.21,194.52a3.62,3.62,0,0,1-2.1-.53,2.86,2.86,0,0,1-1-1.56,9.62,9.62,0,0,1-.29-2.53v-2.64a9.21,9.21,0,0,1,.3-2.56,2.71,2.71,0,0,1,1-1.54,3.56,3.56,0,0,1,2.07-.52,3.21,3.21,0,0,1,2.15.6,2.9,2.9,0,0,1,.91,1.73,14.05,14.05,0,0,1,.22,2.71v.94h-4.56v2.32a4.47,4.47,0,0,0,.13,1.14,1.23,1.23,0,0,0,.42.65,1.28,1.28,0,0,0,.75.21,1,1,0,0,0,.73-.23,1.23,1.23,0,0,0,.34-.66,5.05,5.05,0,0,0,.09-1v-.7h2.08v.44a4.48,4.48,0,0,1-.74,2.74A2.94,2.94,0,0,1,256.21,194.52Zm-1.28-7.06h2.46v-1a6.91,6.91,0,0,0-.08-1.21,1.25,1.25,0,0,0-.33-.74,1.06,1.06,0,0,0-.79-.25,1.17,1.17,0,0,0-.79.24,1.39,1.39,0,0,0-.37.81,10.35,10.35,0,0,0-.1,1.57Z" transform="translate(-1.26)"/><path class="cls-2" d="M261.63,194.36v-16.2h2.14v16.2Z" transform="translate(-1.26)"/><path class="cls-2" d="M266.21,194.36v-16.2h2.14v16.2Z" transform="translate(-1.26)"/><path class="cls-2" d="M273.79,194.52a3.62,3.62,0,0,1-2.1-.53,2.86,2.86,0,0,1-1-1.56,9.62,9.62,0,0,1-.29-2.53v-2.64a9.21,9.21,0,0,1,.3-2.56,2.71,2.71,0,0,1,1.05-1.54,3.56,3.56,0,0,1,2.07-.52,3.21,3.21,0,0,1,2.15.6,2.9,2.9,0,0,1,.91,1.73,14.05,14.05,0,0,1,.22,2.71v.94h-4.56v2.32a4.47,4.47,0,0,0,.13,1.14,1.23,1.23,0,0,0,.42.65,1.28,1.28,0,0,0,.75.21,1,1,0,0,0,.73-.23,1.23,1.23,0,0,0,.34-.66,5.05,5.05,0,0,0,.09-1v-.7h2.08v.44a4.48,4.48,0,0,1-.74,2.74A2.94,2.94,0,0,1,273.79,194.52Zm-1.28-7.06H275v-1a6.91,6.91,0,0,0-.08-1.21,1.25,1.25,0,0,0-.33-.74,1.06,1.06,0,0,0-.79-.25,1.17,1.17,0,0,0-.79.24,1.39,1.39,0,0,0-.37.81,10.35,10.35,0,0,0-.1,1.57Z" transform="translate(-1.26)"/><path class="cls-2" d="M281.69,194.52a3.06,3.06,0,0,1-2.28-.89,3.74,3.74,0,0,1-1-2.35l1.78-.54a4.08,4.08,0,0,0,.54,1.65,1.3,1.3,0,0,0,1.12.55,1.12,1.12,0,0,0,.88-.33,1.28,1.28,0,0,0,.3-.89,1.77,1.77,0,0,0-.22-.9,2.76,2.76,0,0,0-.72-.82l-2-1.7a5.8,5.8,0,0,1-1-1.16,3.5,3.5,0,0,1,0-3.21,2.47,2.47,0,0,1,1-1,3.52,3.52,0,0,1,1.57-.33,2.54,2.54,0,0,1,2.11.89,3.69,3.69,0,0,1,.83,2.15l-1.44.54a4.79,4.79,0,0,0-.24-1.05,1.53,1.53,0,0,0-.44-.7,1.19,1.19,0,0,0-1.57.1,1.24,1.24,0,0,0-.31.83,1.57,1.57,0,0,0,.13.59,1.87,1.87,0,0,0,.45.57l2,1.88a6.82,6.82,0,0,1,.79.82,3.72,3.72,0,0,1,.61,1,3.24,3.24,0,0,1,.24,1.3,3.09,3.09,0,0,1-.4,1.64,2.46,2.46,0,0,1-1.12,1A4,4,0,0,1,281.69,194.52Z" transform="translate(-1.26)"/></g></g></svg>